<?xml version="1.0" encoding="UTF-8" standalone="no"?>
<!DOCTYPE svg PUBLIC "-//W3C//DTD SVG 1.1//EN"
 "http://www.w3.org/Graphics/SVG/1.1/DTD/svg11.dtd">
<!-- Generated by graphviz version 2.43.0 (0)
 -->
<!-- Title: axi_read_interleave_topology Pages: 1 -->
<svg width="916pt" height="89pt"
 viewBox="0.00 0.00 916.00 88.90" xmlns="http://www.w3.org/2000/svg" xmlns:xlink="http://www.w3.org/1999/xlink">
<g id="graph0" class="graph" transform="scale(1 1) rotate(0) translate(4 84.9)">
<title>axi_read_interleave_topology</title>
<polygon fill="white" stroke="transparent" points="-4,4 -4,-84.9 912,-84.9 912,4 -4,4"/>
<text text-anchor="middle" x="454" y="-65.7" font-family="Times,serif" font-size="14.00">prj_axi4_read_interleave verification network</text>
<!-- protocol -->
<g id="node1" class="node">
<title>protocol</title>
<path fill="#dbeafe" stroke="black" d="M529,-50.4C529,-50.4 314,-50.4 314,-50.4 308,-50.4 302,-44.4 302,-38.4 302,-38.4 302,-24.4 302,-24.4 302,-18.4 308,-12.4 314,-12.4 314,-12.4 529,-12.4 529,-12.4 535,-12.4 541,-18.4 541,-24.4 541,-24.4 541,-38.4 541,-38.4 541,-44.4 535,-50.4 529,-50.4"/>
<text text-anchor="middle" x="421.5" y="-35.2" font-family="monospace" font-size="14.00">AXI read link</text>
<text text-anchor="middle" x="421.5" y="-20.2" font-family="monospace" font-size="14.00">IDs 1/2 + quiet constraints</text>
</g>
<!-- output -->
<g id="node3" class="node">
<title>output</title>
<path fill="#dcfce7" stroke="black" d="M896,-57.9C896,-57.9 697,-57.9 697,-57.9 691,-57.9 685,-51.9 685,-45.9 685,-45.9 685,-16.9 685,-16.9 685,-10.9 691,-4.9 697,-4.9 697,-4.9 896,-4.9 896,-4.9 902,-4.9 908,-10.9 908,-16.9 908,-16.9 908,-45.9 908,-45.9 908,-51.9 902,-57.9 896,-57.9"/>
<text text-anchor="middle" x="796.5" y="-42.7" font-family="monospace" font-size="14.00">Output VirtualDut</text>
<text text-anchor="middle" x="796.5" y="-27.7" font-family="monospace" font-size="14.00">InterleavingReadResponder</text>
<text text-anchor="middle" x="796.5" y="-12.7" font-family="monospace" font-size="14.00">alternating R beats by ID</text>
</g>
<!-- protocol&#45;&gt;output -->
<g id="edge2" class="edge">
<title>protocol&#45;&gt;output</title>
<path fill="none" stroke="black" d="M541.03,-31.4C583.69,-31.4 631.84,-31.4 674.69,-31.4"/>
<polygon fill="black" stroke="black" points="674.89,-34.9 684.89,-31.4 674.89,-27.9 674.89,-34.9"/>
<text text-anchor="middle" x="613" y="-35.2" font-family="Times,serif" font-size="14.00">accepted AR</text>
</g>
<!-- input -->
<g id="node2" class="node">
<title>input</title>
<path fill="#fef3c7" stroke="black" d="M137,-57.9C137,-57.9 12,-57.9 12,-57.9 6,-57.9 0,-51.9 0,-45.9 0,-45.9 0,-16.9 0,-16.9 0,-10.9 6,-4.9 12,-4.9 12,-4.9 137,-4.9 137,-4.9 143,-4.9 149,-10.9 149,-16.9 149,-16.9 149,-45.9 149,-45.9 149,-51.9 143,-57.9 137,-57.9"/>
<text text-anchor="middle" x="74.5" y="-42.7" font-family="monospace" font-size="14.00">Input VirtualDut</text>
<text text-anchor="middle" x="74.5" y="-27.7" font-family="monospace" font-size="14.00">ScriptedSource</text>
<text text-anchor="middle" x="74.5" y="-12.7" font-family="monospace" font-size="14.00">AR order 1,2</text>
</g>
<!-- input&#45;&gt;protocol -->
<g id="edge1" class="edge">
<title>input&#45;&gt;protocol</title>
<path fill="none" stroke="black" d="M149.09,-31.4C190.57,-31.4 243.57,-31.4 291.71,-31.4"/>
<polygon fill="black" stroke="black" points="291.9,-34.9 301.9,-31.4 291.9,-27.9 291.9,-34.9"/>
<text text-anchor="middle" x="225.5" y="-35.2" font-family="Times,serif" font-size="14.00">AR_TRANSFER</text>
</g>
<!-- output&#45;&gt;protocol -->
<g id="edge3" class="edge">
<title>output&#45;&gt;protocol</title>
<path fill="none" stroke="black" d="M684.8,-6.23C677.45,-5.11 670.13,-4.15 663,-3.4 618.8,1.22 607.23,0.96 563,-3.4 547.01,-4.98 530.15,-7.54 513.87,-10.49"/>
<polygon fill="black" stroke="black" points="513,-7.1 503.82,-12.38 514.29,-13.98 513,-7.1"/>
<text text-anchor="middle" x="613" y="-7.2" font-family="Times,serif" font-size="14.00">R_TRANSFER</text>
</g>
</g>
</svg>
