<?xml version="1.0" encoding="UTF-8" standalone="no"?>
<!DOCTYPE svg PUBLIC "-//W3C//DTD SVG 1.1//EN"
 "http://www.w3.org/Graphics/SVG/1.1/DTD/svg11.dtd">
<!-- Generated by graphviz version 2.43.0 (0)
 -->
<!-- Title: axi_scenario Pages: 1 -->
<svg width="1007pt" height="253pt"
 viewBox="0.00 0.00 1007.00 253.00" xmlns="http://www.w3.org/2000/svg" xmlns:xlink="http://www.w3.org/1999/xlink">
<g id="graph0" class="graph" transform="scale(1 1) rotate(0) translate(4 249)">
<title>axi_scenario</title>
<polygon fill="white" stroke="transparent" points="-4,4 -4,-249 1003,-249 1003,4 -4,4"/>
<text text-anchor="middle" x="499.5" y="-229.8" font-family="Times,serif" font-size="14.00">write_cross_id_b_reverse</text>
<!-- n0 -->
<g id="node1" class="node">
<title>n0</title>
<path fill="#fef3c7" stroke="black" d="M285,-222C285,-222 12,-222 12,-222 6,-222 0,-216 0,-210 0,-210 0,-181 0,-181 0,-175 6,-169 12,-169 12,-169 285,-169 285,-169 291,-169 297,-175 297,-181 297,-181 297,-210 297,-210 297,-216 291,-222 285,-222"/>
<text text-anchor="middle" x="148.5" y="-206.8" font-family="monospace" font-size="14.00">cycle 1 AW</text>
<text text-anchor="middle" x="148.5" y="-191.8" font-family="monospace" font-size="14.00">AW_TRANSFER id=1</text>
<text text-anchor="middle" x="148.5" y="-176.8" font-family="monospace" font-size="14.00">addr=33024 len=0 size=3 burst=INCR</text>
</g>
<!-- n1 -->
<g id="node2" class="node">
<title>n1</title>
<path fill="#fef3c7" stroke="black" d="M607,-222C607,-222 334,-222 334,-222 328,-222 322,-216 322,-210 322,-210 322,-181 322,-181 322,-175 328,-169 334,-169 334,-169 607,-169 607,-169 613,-169 619,-175 619,-181 619,-181 619,-210 619,-210 619,-216 613,-222 607,-222"/>
<text text-anchor="middle" x="470.5" y="-206.8" font-family="monospace" font-size="14.00">cycle 2 AW</text>
<text text-anchor="middle" x="470.5" y="-191.8" font-family="monospace" font-size="14.00">AW_TRANSFER id=2</text>
<text text-anchor="middle" x="470.5" y="-176.8" font-family="monospace" font-size="14.00">addr=33280 len=0 size=3 burst=INCR</text>
</g>
<!-- n0&#45;&gt;n1 -->
<g id="edge1" class="edge">
<title>n0&#45;&gt;n1</title>
<path fill="none" stroke="#94a3b8" d="M255.76,-169.02C255.81,-169.01 255.83,-169 255.83,-169 255.83,-169 326.01,-169 352.92,-169.01"/>
<polygon fill="#94a3b8" stroke="#94a3b8" points="353.24,-172.51 363.24,-169.02 353.25,-165.51 353.24,-172.51"/>
</g>
<!-- n0&#45;&gt;n1 -->
<!-- n5 -->
<g id="node6" class="node">
<title>n5</title>
<path fill="#dcfce7" stroke="black" d="M809.5,-129C809.5,-129 693.5,-129 693.5,-129 687.5,-129 681.5,-123 681.5,-117 681.5,-117 681.5,-88 681.5,-88 681.5,-82 687.5,-76 693.5,-76 693.5,-76 809.5,-76 809.5,-76 815.5,-76 821.5,-82 821.5,-88 821.5,-88 821.5,-117 821.5,-117 821.5,-123 815.5,-129 809.5,-129"/>
<text text-anchor="middle" x="751.5" y="-113.8" font-family="monospace" font-size="14.00">cycle 6 B</text>
<text text-anchor="middle" x="751.5" y="-98.8" font-family="monospace" font-size="14.00">B_TRANSFER id=1</text>
<text text-anchor="middle" x="751.5" y="-83.8" font-family="monospace" font-size="14.00">resp=OKAY</text>
</g>
<!-- n0&#45;&gt;n5 -->
<g id="edge12" class="edge">
<title>n0&#45;&gt;n5</title>
<path fill="none" stroke="#2563eb" stroke-width="2" d="M297.13,-170.96C304.85,-169.74 309.5,-169 309.5,-169 309.5,-169 543.96,-134.26 671.36,-115.38"/>
<polygon fill="#2563eb" stroke="#2563eb" stroke-width="2" points="672.08,-118.81 681.46,-113.88 671.06,-111.88 672.08,-118.81"/>
</g>
<!-- n2 -->
<g id="node3" class="node">
<title>n2</title>
<path fill="#fef3c7" stroke="black" d="M797,-222C797,-222 656,-222 656,-222 650,-222 644,-216 644,-210 644,-210 644,-181 644,-181 644,-175 650,-169 656,-169 656,-169 797,-169 797,-169 803,-169 809,-175 809,-181 809,-181 809,-210 809,-210 809,-216 803,-222 797,-222"/>
<text text-anchor="middle" x="726.5" y="-206.8" font-family="monospace" font-size="14.00">cycle 3 W</text>
<text text-anchor="middle" x="726.5" y="-191.8" font-family="monospace" font-size="14.00">W_TRANSFER id=None</text>
<text text-anchor="middle" x="726.5" y="-176.8" font-family="monospace" font-size="14.00">last=True</text>
</g>
<!-- n1&#45;&gt;n2 -->
<g id="edge2" class="edge">
<title>n1&#45;&gt;n2</title>
<path fill="none" stroke="#94a3b8" d="M555.77,-169.02C555.81,-169.01 555.83,-169 555.83,-169 555.83,-169 610.55,-169 633.62,-169.39"/>
<polygon fill="#94a3b8" stroke="#94a3b8" points="633.51,-172.89 643.63,-169.76 633.77,-165.9 633.51,-172.89"/>
</g>
<!-- n1&#45;&gt;n2 -->
<!-- n4 -->
<g id="node5" class="node">
<title>n4</title>
<path fill="#dcfce7" stroke="black" d="M974.5,-129C974.5,-129 858.5,-129 858.5,-129 852.5,-129 846.5,-123 846.5,-117 846.5,-117 846.5,-88 846.5,-88 846.5,-82 852.5,-76 858.5,-76 858.5,-76 974.5,-76 974.5,-76 980.5,-76 986.5,-82 986.5,-88 986.5,-88 986.5,-117 986.5,-117 986.5,-123 980.5,-129 974.5,-129"/>
<text text-anchor="middle" x="916.5" y="-113.8" font-family="monospace" font-size="14.00">cycle 5 B</text>
<text text-anchor="middle" x="916.5" y="-98.8" font-family="monospace" font-size="14.00">B_TRANSFER id=2</text>
<text text-anchor="middle" x="916.5" y="-83.8" font-family="monospace" font-size="14.00">resp=OKAY</text>
</g>
<!-- n1&#45;&gt;n4 -->
<g id="edge10" class="edge">
<title>n1&#45;&gt;n4</title>
<path fill="none" stroke="#2563eb" stroke-width="2" d="M612.27,-168.99C714.48,-150.6 834.5,-129 834.5,-129 834.5,-129 835.27,-128.76 836.66,-128.33"/>
<polygon fill="#2563eb" stroke="#2563eb" stroke-width="2" points="837.74,-131.66 846.25,-125.35 835.66,-124.97 837.74,-131.66"/>
</g>
<!-- n3 -->
<g id="node4" class="node">
<title>n3</title>
<path fill="#fef3c7" stroke="black" d="M987,-222C987,-222 846,-222 846,-222 840,-222 834,-216 834,-210 834,-210 834,-181 834,-181 834,-175 840,-169 846,-169 846,-169 987,-169 987,-169 993,-169 999,-175 999,-181 999,-181 999,-210 999,-210 999,-216 993,-222 987,-222"/>
<text text-anchor="middle" x="916.5" y="-206.8" font-family="monospace" font-size="14.00">cycle 4 W</text>
<text text-anchor="middle" x="916.5" y="-191.8" font-family="monospace" font-size="14.00">W_TRANSFER id=None</text>
<text text-anchor="middle" x="916.5" y="-176.8" font-family="monospace" font-size="14.00">last=True</text>
</g>
<!-- n2&#45;&gt;n3 -->
<g id="edge3" class="edge">
<title>n2&#45;&gt;n3</title>
<path fill="none" stroke="#94a3b8" d="M789.79,-169.02C789.82,-169.01 789.83,-169 789.83,-169 789.83,-169 825.09,-169 843.01,-169.01"/>
<polygon fill="#94a3b8" stroke="#94a3b8" points="843.21,-172.51 853.21,-169.02 843.22,-165.51 843.21,-172.51"/>
</g>
<!-- n2&#45;&gt;n3 -->
<!-- n2&#45;&gt;n5 -->
<g id="edge13" class="edge">
<title>n2&#45;&gt;n5</title>
<path fill="none" stroke="#2563eb" stroke-width="2" d="M733.6,-168.67C736.15,-159.37 739.08,-148.71 741.82,-138.74"/>
<polygon fill="#2563eb" stroke="#2563eb" stroke-width="2" points="745.2,-139.65 744.47,-129.08 738.45,-137.8 745.2,-139.65"/>
</g>
<!-- n3&#45;&gt;n4 -->
<g id="edge4" class="edge">
<title>n3&#45;&gt;n4</title>
<path fill="none" stroke="#94a3b8" d="M908.29,-168.67C907.51,-159.56 907.31,-149.15 907.68,-139.37"/>
<polygon fill="#94a3b8" stroke="#94a3b8" points="911.19,-139.28 908.31,-129.08 904.21,-138.85 911.19,-139.28"/>
</g>
<!-- n3&#45;&gt;n4 -->
<g id="edge11" class="edge">
<title>n3&#45;&gt;n4</title>
<path fill="none" stroke="#2563eb" stroke-width="2" d="M925.39,-168.67C926.24,-159.56 926.46,-149.15 926.05,-139.37"/>
<polygon fill="#2563eb" stroke="#2563eb" stroke-width="2" points="929.53,-138.83 925.37,-129.08 922.54,-139.29 929.53,-138.83"/>
</g>
<!-- n4&#45;&gt;n5 -->
<g id="edge5" class="edge">
<title>n4&#45;&gt;n5</title>
<path fill="none" stroke="#94a3b8" d="M861.66,-76.08C861.55,-76.03 861.5,-76 861.5,-76 861.5,-76 832.47,-76 816.53,-76.03"/>
<polygon fill="#94a3b8" stroke="#94a3b8" points="816.33,-72.53 806.34,-76.08 816.36,-79.53 816.33,-72.53"/>
</g>
<!-- n5&#45;&gt;n4 -->
<!-- done -->
<g id="node7" class="node">
<title>done</title>
<path fill="#bbf7d0" stroke="black" d="M814,-36C814,-36 689,-36 689,-36 683,-36 677,-30 677,-24 677,-24 677,-12 677,-12 677,-6 683,0 689,0 689,0 814,0 814,0 820,0 826,-6 826,-12 826,-12 826,-24 826,-24 826,-30 820,-36 814,-36"/>
<text text-anchor="middle" x="751.5" y="-14.3" font-family="monospace" font-size="14.00">QUIESCENT / PASS</text>
</g>
<!-- n5&#45;&gt;done -->
<g id="edge14" class="edge">
<title>n5&#45;&gt;done</title>
<path fill="none" stroke="#16a34a" stroke-width="2" d="M751.5,-75.85C751.5,-66.5 751.5,-55.9 751.5,-46.41"/>
<polygon fill="#16a34a" stroke="#16a34a" stroke-width="2" points="755,-46.28 751.5,-36.28 748,-46.28 755,-46.28"/>
</g>
</g>
</svg>
