<?xml version="1.0" encoding="UTF-8" standalone="no"?>
<!DOCTYPE svg PUBLIC "-//W3C//DTD SVG 1.1//EN"
 "http://www.w3.org/Graphics/SVG/1.1/DTD/svg11.dtd">
<!-- Generated by graphviz version 2.43.0 (0)
 -->
<!-- Title: axi_scenario Pages: 1 -->
<svg width="495pt" height="160pt"
 viewBox="0.00 0.00 495.00 160.00" xmlns="http://www.w3.org/2000/svg" xmlns:xlink="http://www.w3.org/1999/xlink">
<g id="graph0" class="graph" transform="scale(1 1) rotate(0) translate(4 156)">
<title>axi_scenario</title>
<polygon fill="white" stroke="transparent" points="-4,4 -4,-156 491,-156 491,4 -4,4"/>
<text text-anchor="middle" x="243.5" y="-136.8" font-family="Times,serif" font-size="14.00">read_single_incr</text>
<!-- n0 -->
<g id="node1" class="node">
<title>n0</title>
<path fill="#fef3c7" stroke="black" d="M277,-129C277,-129 12,-129 12,-129 6,-129 0,-123 0,-117 0,-117 0,-88 0,-88 0,-82 6,-76 12,-76 12,-76 277,-76 277,-76 283,-76 289,-82 289,-88 289,-88 289,-117 289,-117 289,-123 283,-129 277,-129"/>
<text text-anchor="middle" x="144.5" y="-113.8" font-family="monospace" font-size="14.00">cycle 1 AR</text>
<text text-anchor="middle" x="144.5" y="-98.8" font-family="monospace" font-size="14.00">AR_TRANSFER id=1</text>
<text text-anchor="middle" x="144.5" y="-83.8" font-family="monospace" font-size="14.00">addr=4096 len=0 size=3 burst=INCR</text>
</g>
<!-- n1 -->
<g id="node2" class="node">
<title>n1</title>
<path fill="#dcfce7" stroke="black" d="M475,-129C475,-129 326,-129 326,-129 320,-129 314,-123 314,-117 314,-117 314,-88 314,-88 314,-82 320,-76 326,-76 326,-76 475,-76 475,-76 481,-76 487,-82 487,-88 487,-88 487,-117 487,-117 487,-123 481,-129 475,-129"/>
<text text-anchor="middle" x="400.5" y="-113.8" font-family="monospace" font-size="14.00">cycle 2 R</text>
<text text-anchor="middle" x="400.5" y="-98.8" font-family="monospace" font-size="14.00">R_TRANSFER id=1</text>
<text text-anchor="middle" x="400.5" y="-83.8" font-family="monospace" font-size="14.00">resp=OKAY last=True</text>
</g>
<!-- n0&#45;&gt;n1 -->
<g id="edge1" class="edge">
<title>n0&#45;&gt;n1</title>
<path fill="none" stroke="#94a3b8" d="M229.77,-76.02C229.81,-76.01 229.83,-76 229.83,-76 229.83,-76 282.44,-76 305.07,-76.01"/>
<polygon fill="#94a3b8" stroke="#94a3b8" points="305.23,-79.51 315.23,-76.02 305.23,-72.51 305.23,-79.51"/>
</g>
<!-- n0&#45;&gt;n1 -->
<!-- n0&#45;&gt;n1 -->
<g id="edge3" class="edge">
<title>n0&#45;&gt;n1</title>
<path fill="none" stroke="#2563eb" stroke-width="2" d="M229.77,-128.98C229.81,-128.99 229.83,-129 229.83,-129 229.83,-129 282.44,-129 305.07,-128.99"/>
<polygon fill="#2563eb" stroke="#2563eb" stroke-width="2" points="305.23,-132.49 315.23,-128.98 305.23,-125.49 305.23,-132.49"/>
</g>
<!-- done -->
<g id="node3" class="node">
<title>done</title>
<path fill="#bbf7d0" stroke="black" d="M463,-36C463,-36 338,-36 338,-36 332,-36 326,-30 326,-24 326,-24 326,-12 326,-12 326,-6 332,0 338,0 338,0 463,0 463,0 469,0 475,-6 475,-12 475,-12 475,-24 475,-24 475,-30 469,-36 463,-36"/>
<text text-anchor="middle" x="400.5" y="-14.3" font-family="monospace" font-size="14.00">QUIESCENT / PASS</text>
</g>
<!-- n1&#45;&gt;done -->
<g id="edge4" class="edge">
<title>n1&#45;&gt;done</title>
<path fill="none" stroke="#16a34a" stroke-width="2" d="M400.5,-75.85C400.5,-66.5 400.5,-55.9 400.5,-46.41"/>
<polygon fill="#16a34a" stroke="#16a34a" stroke-width="2" points="404,-46.28 400.5,-36.28 397,-46.28 404,-46.28"/>
</g>
</g>
</svg>
