<?xml version="1.0" encoding="UTF-8" standalone="no"?>
<!DOCTYPE svg PUBLIC "-//W3C//DTD SVG 1.1//EN"
 "http://www.w3.org/Graphics/SVG/1.1/DTD/svg11.dtd">
<!-- Generated by graphviz version 2.43.0 (0)
 -->
<!-- Title: axi4_case Pages: 1 -->
<svg width="722pt" height="166pt"
 viewBox="0.00 0.00 721.90 166.18" xmlns="http://www.w3.org/2000/svg" xmlns:xlink="http://www.w3.org/1999/xlink">
<g id="graph0" class="graph" transform="scale(1 1) rotate(0) translate(14.4 151.78)">
<title>axi4_case</title>
<polygon fill="white" stroke="transparent" points="-14.4,14.4 -14.4,-151.78 707.5,-151.78 707.5,14.4 -14.4,14.4"/>
<text text-anchor="middle" x="346.55" y="-122.18" font-family="Times,serif" font-size="14.00">WLAST follows the oldest AW beat count / WLAST 必须符合最早 AW 声明的拍数</text>
<!-- event0 -->
<g id="node1" class="node">
<title>event0</title>
<path fill="#eef5ff" stroke="#3169a8" d="M170.5,-36C170.5,-36 27.5,-36 27.5,-36 21.5,-36 15.5,-30 15.5,-24 15.5,-24 15.5,-12 15.5,-12 15.5,-6 21.5,0 27.5,0 27.5,0 170.5,0 170.5,0 176.5,0 182.5,-6 182.5,-12 182.5,-12 182.5,-24 182.5,-24 182.5,-30 176.5,-36 170.5,-36"/>
<text text-anchor="middle" x="99" y="-15.5" font-family="sans-serif" font-size="10.00">[0] ID1 A=0x3 N=4 S=4B INCR</text>
</g>
<!-- context -->
<g id="node2" class="node">
<title>context</title>
<polygon fill="#f4f5f6" stroke="#7c8790" points="192,-101 0,-101 0,-65 198,-65 198,-95 192,-101"/>
<polyline fill="none" stroke="#7c8790" points="192,-101 192,-95 "/>
<polyline fill="none" stroke="#7c8790" points="198,-95 192,-95 "/>
<text text-anchor="middle" x="99" y="-86" font-family="sans-serif" font-size="10.00">diagnostic frame / 诊断帧 · tick 2</text>
<text text-anchor="middle" x="99" y="-75" font-family="sans-serif" font-size="10.00">D=0x1111111111111111 S=0x8 L=1</text>
</g>
<!-- fault -->
<g id="node3" class="node">
<title>fault</title>
<polygon fill="#ffe9e7" stroke="#b33a2b" points="693.15,-70.05 693.15,-95.95 618.7,-114.26 513.4,-114.26 438.95,-95.95 438.95,-70.05 513.4,-51.74 618.7,-51.74 693.15,-70.05"/>
<text text-anchor="middle" x="566.05" y="-91.5" font-family="sans-serif" font-size="10.00">REJECTED / 已拒绝</text>
<text text-anchor="middle" x="566.05" y="-80.5" font-family="sans-serif" font-size="10.00">axi4.write.final_marker</text>
<text text-anchor="middle" x="566.05" y="-69.5" font-family="sans-serif" font-size="10.00">W beat 1/4 requires last=False</text>
</g>
<!-- context&#45;&gt;fault -->
<g id="edge1" class="edge">
<title>context&#45;&gt;fault</title>
<path fill="none" stroke="#777777" stroke-dasharray="5,2" d="M198.06,-83C264.99,-83 354.58,-83 428.49,-83"/>
<polygon fill="#777777" stroke="#777777" points="428.81,-86.5 438.81,-83 428.81,-79.5 428.81,-86.5"/>
<text text-anchor="middle" x="318.5" y="-85.8" font-family="sans-serif" font-size="9.00">diagnostic context / 诊断上下文（非因果边）</text>
</g>
</g>
</svg>
