<?xml version="1.0" encoding="UTF-8" standalone="no"?>
<!DOCTYPE svg PUBLIC "-//W3C//DTD SVG 1.1//EN"
 "http://www.w3.org/Graphics/SVG/1.1/DTD/svg11.dtd">
<!-- Generated by graphviz version 2.43.0 (0)
 -->
<!-- Title: apb_compare_network Pages: 1 -->
<svg width="609pt" height="121pt"
 viewBox="0.00 0.00 609.00 121.00" xmlns="http://www.w3.org/2000/svg" xmlns:xlink="http://www.w3.org/1999/xlink">
<g id="graph0" class="graph" transform="scale(1 1) rotate(0) translate(4 117)">
<title>apb_compare_network</title>
<polygon fill="white" stroke="transparent" points="-4,4 -4,-117 605,-117 605,4 -4,4"/>
<text text-anchor="middle" x="300.5" y="-97.8" font-family="Times,serif" font-size="14.00">prj_apb_compare protocol&#45;instance network</text>
<!-- source -->
<g id="node1" class="node">
<title>source</title>
<path fill="#fef3c7" stroke="black" d="M178,-64C178,-64 12,-64 12,-64 6,-64 0,-58 0,-52 0,-52 0,-38 0,-38 0,-32 6,-26 12,-26 12,-26 178,-26 178,-26 184,-26 190,-32 190,-38 190,-38 190,-52 190,-52 190,-58 184,-64 178,-64"/>
<text text-anchor="middle" x="95" y="-48.8" font-family="monospace" font-size="14.00">Constructive stimulus</text>
<text text-anchor="middle" x="95" y="-33.8" font-family="monospace" font-size="14.00">APB pin samples</text>
</g>
<!-- apb3 -->
<g id="node2" class="node">
<title>apb3</title>
<path fill="#dbeafe" stroke="black" d="M305,-90C305,-90 238,-90 238,-90 232,-90 226,-84 226,-78 226,-78 226,-66 226,-66 226,-60 232,-54 238,-54 238,-54 305,-54 305,-54 311,-54 317,-60 317,-66 317,-66 317,-78 317,-78 317,-84 311,-90 305,-90"/>
<text text-anchor="middle" x="271.5" y="-68.3" font-family="monospace" font-size="14.00">APB3 link</text>
</g>
<!-- source&#45;&gt;apb3 -->
<g id="edge1" class="edge">
<title>source&#45;&gt;apb3</title>
<path fill="none" stroke="black" d="M190.15,-59.57C198.86,-60.92 207.48,-62.25 215.66,-63.52"/>
<polygon fill="black" stroke="black" points="215.34,-67.01 225.76,-65.08 216.41,-60.09 215.34,-67.01"/>
</g>
<!-- apb4 -->
<g id="node3" class="node">
<title>apb4</title>
<path fill="#dbeafe" stroke="black" d="M305,-36C305,-36 238,-36 238,-36 232,-36 226,-30 226,-24 226,-24 226,-12 226,-12 226,-6 232,0 238,0 238,0 305,0 305,0 311,0 317,-6 317,-12 317,-12 317,-24 317,-24 317,-30 311,-36 305,-36"/>
<text text-anchor="middle" x="271.5" y="-14.3" font-family="monospace" font-size="14.00">APB4 link</text>
</g>
<!-- source&#45;&gt;apb4 -->
<g id="edge3" class="edge">
<title>source&#45;&gt;apb4</title>
<path fill="none" stroke="black" d="M190.15,-30.43C198.86,-29.08 207.48,-27.75 215.66,-26.48"/>
<polygon fill="black" stroke="black" points="216.41,-29.91 225.76,-24.92 215.34,-22.99 216.41,-29.91"/>
</g>
<!-- sink -->
<g id="node4" class="node">
<title>sink</title>
<path fill="#dcfce7" stroke="black" d="M589,-63C589,-63 365,-63 365,-63 359,-63 353,-57 353,-51 353,-51 353,-39 353,-39 353,-33 359,-27 365,-27 365,-27 589,-27 589,-27 595,-27 601,-33 601,-39 601,-39 601,-51 601,-51 601,-57 595,-63 589,-63"/>
<text text-anchor="middle" x="477" y="-41.3" font-family="monospace" font-size="14.00">Canonical transfer collector</text>
</g>
<!-- apb3&#45;&gt;sink -->
<g id="edge2" class="edge">
<title>apb3&#45;&gt;sink</title>
<path fill="none" stroke="black" d="M317.16,-66.07C325.15,-65.01 333.83,-63.86 342.89,-62.66"/>
<polygon fill="black" stroke="black" points="343.39,-66.13 352.84,-61.34 342.46,-59.19 343.39,-66.13"/>
</g>
<!-- apb4&#45;&gt;sink -->
<g id="edge4" class="edge">
<title>apb4&#45;&gt;sink</title>
<path fill="none" stroke="black" d="M317.16,-23.93C325.15,-24.99 333.83,-26.14 342.89,-27.34"/>
<polygon fill="black" stroke="black" points="342.46,-30.81 352.84,-28.66 343.39,-23.87 342.46,-30.81"/>
</g>
</g>
</svg>
