<?xml version="1.0" encoding="UTF-8" standalone="no"?>
<!DOCTYPE svg PUBLIC "-//W3C//DTD SVG 1.1//EN"
 "http://www.w3.org/Graphics/SVG/1.1/DTD/svg11.dtd">
<!-- Generated by graphviz version 2.43.0 (0)
 -->
<!-- Title: axi_scenario Pages: 1 -->
<svg width="1302pt" height="84pt"
 viewBox="0.00 0.00 1302.00 84.00" xmlns="http://www.w3.org/2000/svg" xmlns:xlink="http://www.w3.org/1999/xlink">
<g id="graph0" class="graph" transform="scale(1 1) rotate(0) translate(4 80)">
<title>axi_scenario</title>
<polygon fill="white" stroke="transparent" points="-4,4 -4,-80 1298,-80 1298,4 -4,4"/>
<text text-anchor="middle" x="647" y="-60.8" font-family="Times,serif" font-size="14.00">read_4kb_edge</text>
<!-- n0 -->
<g id="node1" class="node">
<title>n0</title>
<path fill="#fef3c7" stroke="black" d="M277,-53C277,-53 12,-53 12,-53 6,-53 0,-47 0,-41 0,-41 0,-12 0,-12 0,-6 6,0 12,0 12,0 277,0 277,0 283,0 289,-6 289,-12 289,-12 289,-41 289,-41 289,-47 283,-53 277,-53"/>
<text text-anchor="middle" x="144.5" y="-37.8" font-family="monospace" font-size="14.00">cycle 1 AR</text>
<text text-anchor="middle" x="144.5" y="-22.8" font-family="monospace" font-size="14.00">AR_TRANSFER id=1</text>
<text text-anchor="middle" x="144.5" y="-7.8" font-family="monospace" font-size="14.00">addr=4088 len=0 size=3 burst=INCR</text>
</g>
<!-- n1 -->
<g id="node2" class="node">
<title>n1</title>
<path fill="#dcfce7" stroke="black" d="M486,-53C486,-53 337,-53 337,-53 331,-53 325,-47 325,-41 325,-41 325,-12 325,-12 325,-6 331,0 337,0 337,0 486,0 486,0 492,0 498,-6 498,-12 498,-12 498,-41 498,-41 498,-47 492,-53 486,-53"/>
<text text-anchor="middle" x="411.5" y="-37.8" font-family="monospace" font-size="14.00">cycle 2 R</text>
<text text-anchor="middle" x="411.5" y="-22.8" font-family="monospace" font-size="14.00">R_TRANSFER id=1</text>
<text text-anchor="middle" x="411.5" y="-7.8" font-family="monospace" font-size="14.00">resp=OKAY last=True</text>
</g>
<!-- n0&#45;&gt;n1 -->
<g id="edge1" class="edge">
<title>n0&#45;&gt;n1</title>
<path fill="none" stroke="#94a3b8" d="M289.25,-19.77C297.9,-19.81 306.48,-19.88 314.85,-19.99"/>
<polygon fill="#94a3b8" stroke="#94a3b8" points="314.9,-23.49 324.95,-20.14 315.01,-16.49 314.9,-23.49"/>
</g>
<!-- n0&#45;&gt;n1 -->
<g id="edge2" class="edge">
<title>n0&#45;&gt;n1</title>
<path fill="none" stroke="#2563eb" stroke-width="2" d="M289.25,-33.23C297.9,-33.19 306.48,-33.12 314.85,-33.01"/>
<polygon fill="#2563eb" stroke="#2563eb" stroke-width="2" points="315.01,-36.51 324.95,-32.86 314.9,-29.51 315.01,-36.51"/>
</g>
<!-- geometry -->
<g id="node3" class="node">
<title>geometry</title>
<path fill="#e0f2fe" stroke="black" d="M712,-45.5C712,-45.5 546,-45.5 546,-45.5 540,-45.5 534,-39.5 534,-33.5 534,-33.5 534,-19.5 534,-19.5 534,-13.5 540,-7.5 546,-7.5 546,-7.5 712,-7.5 712,-7.5 718,-7.5 724,-13.5 724,-19.5 724,-19.5 724,-33.5 724,-33.5 724,-39.5 718,-45.5 712,-45.5"/>
<text text-anchor="middle" x="629" y="-30.3" font-family="monospace" font-size="14.00">derive burst geometry</text>
<text text-anchor="middle" x="629" y="-15.3" font-family="monospace" font-size="14.00">1 beat(s) x 8 bytes</text>
</g>
<!-- n1&#45;&gt;geometry -->
<g id="edge3" class="edge">
<title>n1&#45;&gt;geometry</title>
<path fill="none" stroke="black" d="M498.29,-26.5C506.55,-26.5 514.99,-26.5 523.41,-26.5"/>
<polygon fill="black" stroke="black" points="523.65,-30 533.65,-26.5 523.65,-23 523.65,-30"/>
</g>
<!-- footprint -->
<g id="node4" class="node">
<title>footprint</title>
<path fill="#e0f2fe" stroke="black" d="M888,-53C888,-53 772,-53 772,-53 766,-53 760,-47 760,-41 760,-41 760,-12 760,-12 760,-6 766,0 772,0 772,0 888,0 888,0 894,0 900,-6 900,-12 900,-12 900,-41 900,-41 900,-47 894,-53 888,-53"/>
<text text-anchor="middle" x="830" y="-37.8" font-family="monospace" font-size="14.00">beat addresses</text>
<text text-anchor="middle" x="830" y="-22.8" font-family="monospace" font-size="14.00">0xff8</text>
<text text-anchor="middle" x="830" y="-7.8" font-family="monospace" font-size="14.00">last byte=0xfff</text>
</g>
<!-- geometry&#45;&gt;footprint -->
<g id="edge4" class="edge">
<title>geometry&#45;&gt;footprint</title>
<path fill="none" stroke="black" d="M724.26,-26.5C732.75,-26.5 741.3,-26.5 749.66,-26.5"/>
<polygon fill="black" stroke="black" points="749.73,-30 759.73,-26.5 749.73,-23 749.73,-30"/>
</g>
<!-- pages -->
<g id="node5" class="node">
<title>pages</title>
<path fill="#e0f2fe" stroke="black" d="M1097,-45.5C1097,-45.5 948,-45.5 948,-45.5 942,-45.5 936,-39.5 936,-33.5 936,-33.5 936,-19.5 936,-19.5 936,-13.5 942,-7.5 948,-7.5 948,-7.5 1097,-7.5 1097,-7.5 1103,-7.5 1109,-13.5 1109,-19.5 1109,-19.5 1109,-33.5 1109,-33.5 1109,-39.5 1103,-45.5 1097,-45.5"/>
<text text-anchor="middle" x="1022.5" y="-30.3" font-family="monospace" font-size="14.00">4KB page comparison</text>
<text text-anchor="middle" x="1022.5" y="-15.3" font-family="monospace" font-size="14.00">0x0 == 0x0</text>
</g>
<!-- footprint&#45;&gt;pages -->
<g id="edge5" class="edge">
<title>footprint&#45;&gt;pages</title>
<path fill="none" stroke="black" d="M900.04,-26.5C908.39,-26.5 917.02,-26.5 925.66,-26.5"/>
<polygon fill="black" stroke="black" points="925.79,-30 935.79,-26.5 925.79,-23 925.79,-30"/>
</g>
<!-- done -->
<g id="node6" class="node">
<title>done</title>
<path fill="#bbf7d0" stroke="black" d="M1282,-44.5C1282,-44.5 1157,-44.5 1157,-44.5 1151,-44.5 1145,-38.5 1145,-32.5 1145,-32.5 1145,-20.5 1145,-20.5 1145,-14.5 1151,-8.5 1157,-8.5 1157,-8.5 1282,-8.5 1282,-8.5 1288,-8.5 1294,-14.5 1294,-20.5 1294,-20.5 1294,-32.5 1294,-32.5 1294,-38.5 1288,-44.5 1282,-44.5"/>
<text text-anchor="middle" x="1219.5" y="-22.8" font-family="monospace" font-size="14.00">QUIESCENT / PASS</text>
</g>
<!-- pages&#45;&gt;done -->
<g id="edge6" class="edge">
<title>pages&#45;&gt;done</title>
<path fill="none" stroke="#16a34a" stroke-width="2" d="M1109.03,-26.5C1117.54,-26.5 1126.18,-26.5 1134.67,-26.5"/>
<polygon fill="#16a34a" stroke="#16a34a" stroke-width="2" points="1134.94,-30 1144.94,-26.5 1134.94,-23 1134.94,-30"/>
</g>
</g>
</svg>
