<?xml version="1.0" encoding="UTF-8" standalone="no"?>
<!DOCTYPE svg PUBLIC "-//W3C//DTD SVG 1.1//EN"
 "http://www.w3.org/Graphics/SVG/1.1/DTD/svg11.dtd">
<!-- Generated by graphviz version 2.43.0 (0)
 -->
<!-- Title: axi_scenario Pages: 1 -->
<svg width="2661pt" height="191pt"
 viewBox="0.00 0.00 2661.00 191.24" xmlns="http://www.w3.org/2000/svg" xmlns:xlink="http://www.w3.org/1999/xlink">
<g id="graph0" class="graph" transform="scale(1 1) rotate(0) translate(4 187.24)">
<title>axi_scenario</title>
<polygon fill="white" stroke="transparent" points="-4,4 -4,-187.24 2657,-187.24 2657,4 -4,4"/>
<text text-anchor="middle" x="1326.5" y="-168.04" font-family="Times,serif" font-size="14.00">five_channel_concurrency</text>
<!-- n0 -->
<g id="node1" class="node">
<title>n0</title>
<path fill="#fef3c7" stroke="black" d="M285,-53.5C285,-53.5 12,-53.5 12,-53.5 6,-53.5 0,-47.5 0,-41.5 0,-41.5 0,-12.5 0,-12.5 0,-6.5 6,-0.5 12,-0.5 12,-0.5 285,-0.5 285,-0.5 291,-0.5 297,-6.5 297,-12.5 297,-12.5 297,-41.5 297,-41.5 297,-47.5 291,-53.5 285,-53.5"/>
<text text-anchor="middle" x="148.5" y="-38.3" font-family="monospace" font-size="14.00">cycle 1 AW</text>
<text text-anchor="middle" x="148.5" y="-23.3" font-family="monospace" font-size="14.00">AW_TRANSFER id=1</text>
<text text-anchor="middle" x="148.5" y="-8.3" font-family="monospace" font-size="14.00">addr=41728 len=0 size=3 burst=INCR</text>
</g>
<!-- n1 -->
<g id="node2" class="node">
<title>n1</title>
<path fill="#fef3c7" stroke="black" d="M618,-100.5C618,-100.5 345,-100.5 345,-100.5 339,-100.5 333,-94.5 333,-88.5 333,-88.5 333,-59.5 333,-59.5 333,-53.5 339,-47.5 345,-47.5 345,-47.5 618,-47.5 618,-47.5 624,-47.5 630,-53.5 630,-59.5 630,-59.5 630,-88.5 630,-88.5 630,-94.5 624,-100.5 618,-100.5"/>
<text text-anchor="middle" x="481.5" y="-85.3" font-family="monospace" font-size="14.00">cycle 1 AR</text>
<text text-anchor="middle" x="481.5" y="-70.3" font-family="monospace" font-size="14.00">AR_TRANSFER id=1</text>
<text text-anchor="middle" x="481.5" y="-55.3" font-family="monospace" font-size="14.00">addr=41472 len=0 size=3 burst=INCR</text>
</g>
<!-- n0&#45;&gt;n1 -->
<g id="edge1" class="edge">
<title>n0&#45;&gt;n1</title>
<path fill="none" stroke="#94a3b8" d="M297.09,-47.96C305.64,-49.17 314.26,-50.39 322.84,-51.61"/>
<polygon fill="#94a3b8" stroke="#94a3b8" points="322.51,-55.1 332.9,-53.04 323.49,-48.17 322.51,-55.1"/>
</g>
<!-- n5 -->
<g id="node6" class="node">
<title>n5</title>
<path fill="#dcfce7" stroke="black" d="M1529,-64.5C1529,-64.5 1413,-64.5 1413,-64.5 1407,-64.5 1401,-58.5 1401,-52.5 1401,-52.5 1401,-23.5 1401,-23.5 1401,-17.5 1407,-11.5 1413,-11.5 1413,-11.5 1529,-11.5 1529,-11.5 1535,-11.5 1541,-17.5 1541,-23.5 1541,-23.5 1541,-52.5 1541,-52.5 1541,-58.5 1535,-64.5 1529,-64.5"/>
<text text-anchor="middle" x="1471" y="-49.3" font-family="monospace" font-size="14.00">cycle 3 B</text>
<text text-anchor="middle" x="1471" y="-34.3" font-family="monospace" font-size="14.00">B_TRANSFER id=1</text>
<text text-anchor="middle" x="1471" y="-19.3" font-family="monospace" font-size="14.00">resp=OKAY</text>
</g>
<!-- n0&#45;&gt;n5 -->
<g id="edge10" class="edge">
<title>n0&#45;&gt;n5</title>
<path fill="none" stroke="#2563eb" stroke-width="2" d="M297.17,-16.62C418.15,-9.01 593.82,0 747.5,0 747.5,0 747.5,0 1016.5,0 1147.92,0 1300.02,-16.04 1390.44,-27.28"/>
<polygon fill="#2563eb" stroke="#2563eb" stroke-width="2" points="1390.26,-30.79 1400.62,-28.56 1391.13,-23.84 1390.26,-30.79"/>
</g>
<!-- n2 -->
<g id="node3" class="node">
<title>n2</title>
<path fill="#fef3c7" stroke="black" d="M819,-100.5C819,-100.5 678,-100.5 678,-100.5 672,-100.5 666,-94.5 666,-88.5 666,-88.5 666,-59.5 666,-59.5 666,-53.5 672,-47.5 678,-47.5 678,-47.5 819,-47.5 819,-47.5 825,-47.5 831,-53.5 831,-59.5 831,-59.5 831,-88.5 831,-88.5 831,-94.5 825,-100.5 819,-100.5"/>
<text text-anchor="middle" x="748.5" y="-85.3" font-family="monospace" font-size="14.00">cycle 2 W</text>
<text text-anchor="middle" x="748.5" y="-70.3" font-family="monospace" font-size="14.00">W_TRANSFER id=None</text>
<text text-anchor="middle" x="748.5" y="-55.3" font-family="monospace" font-size="14.00">last=True</text>
</g>
<!-- n1&#45;&gt;n2 -->
<g id="edge2" class="edge">
<title>n1&#45;&gt;n2</title>
<path fill="none" stroke="#94a3b8" d="M630.11,-74C638.81,-74 647.43,-74 655.8,-74"/>
<polygon fill="#94a3b8" stroke="#94a3b8" points="655.88,-77.5 665.88,-74 655.88,-70.5 655.88,-77.5"/>
</g>
<!-- n7 -->
<g id="node8" class="node">
<title>n7</title>
<path fill="#dcfce7" stroke="black" d="M2071,-102.5C2071,-102.5 1922,-102.5 1922,-102.5 1916,-102.5 1910,-96.5 1910,-90.5 1910,-90.5 1910,-61.5 1910,-61.5 1910,-55.5 1916,-49.5 1922,-49.5 1922,-49.5 2071,-49.5 2071,-49.5 2077,-49.5 2083,-55.5 2083,-61.5 2083,-61.5 2083,-90.5 2083,-90.5 2083,-96.5 2077,-102.5 2071,-102.5"/>
<text text-anchor="middle" x="1996.5" y="-87.3" font-family="monospace" font-size="14.00">cycle 3 R</text>
<text text-anchor="middle" x="1996.5" y="-72.3" font-family="monospace" font-size="14.00">R_TRANSFER id=1</text>
<text text-anchor="middle" x="1996.5" y="-57.3" font-family="monospace" font-size="14.00">resp=OKAY last=True</text>
</g>
<!-- n1&#45;&gt;n7 -->
<g id="edge12" class="edge">
<title>n1&#45;&gt;n7</title>
<path fill="none" stroke="#2563eb" stroke-width="2" d="M609.06,-100.54C628.09,-104.03 647.53,-107.32 666,-110 754.8,-122.88 777.37,-124.77 867,-129 1088.09,-139.43 1143.86,-138.28 1365,-129 1555.02,-121.03 1776.4,-99.6 1899.81,-86.56"/>
<polygon fill="#2563eb" stroke="#2563eb" stroke-width="2" points="1900.4,-90.02 1909.98,-85.48 1899.67,-83.05 1900.4,-90.02"/>
</g>
<!-- n3 -->
<g id="node4" class="node">
<title>n3</title>
<path fill="#fef3c7" stroke="black" d="M1152,-119.5C1152,-119.5 879,-119.5 879,-119.5 873,-119.5 867,-113.5 867,-107.5 867,-107.5 867,-78.5 867,-78.5 867,-72.5 873,-66.5 879,-66.5 879,-66.5 1152,-66.5 1152,-66.5 1158,-66.5 1164,-72.5 1164,-78.5 1164,-78.5 1164,-107.5 1164,-107.5 1164,-113.5 1158,-119.5 1152,-119.5"/>
<text text-anchor="middle" x="1015.5" y="-104.3" font-family="monospace" font-size="14.00">cycle 3 AW</text>
<text text-anchor="middle" x="1015.5" y="-89.3" font-family="monospace" font-size="14.00">AW_TRANSFER id=2</text>
<text text-anchor="middle" x="1015.5" y="-74.3" font-family="monospace" font-size="14.00">addr=42240 len=0 size=3 burst=INCR</text>
</g>
<!-- n2&#45;&gt;n3 -->
<g id="edge3" class="edge">
<title>n2&#45;&gt;n3</title>
<path fill="none" stroke="#94a3b8" d="M831.17,-79.86C839.37,-80.44 847.87,-81.05 856.53,-81.67"/>
<polygon fill="#94a3b8" stroke="#94a3b8" points="856.52,-85.18 866.75,-82.41 857.02,-78.2 856.52,-85.18"/>
</g>
<!-- n2&#45;&gt;n5 -->
<g id="edge11" class="edge">
<title>n2&#45;&gt;n5</title>
<path fill="none" stroke="#2563eb" stroke-width="2" d="M831.24,-61.78C843.21,-60.3 855.41,-58.98 867,-58 1054.18,-42.19 1275.03,-38.72 1390.52,-38.05"/>
<polygon fill="#2563eb" stroke="#2563eb" stroke-width="2" points="1390.7,-41.55 1400.68,-38 1390.66,-34.55 1390.7,-41.55"/>
</g>
<!-- n4 -->
<g id="node5" class="node">
<title>n4</title>
<path fill="#fef3c7" stroke="black" d="M1353,-119.5C1353,-119.5 1212,-119.5 1212,-119.5 1206,-119.5 1200,-113.5 1200,-107.5 1200,-107.5 1200,-78.5 1200,-78.5 1200,-72.5 1206,-66.5 1212,-66.5 1212,-66.5 1353,-66.5 1353,-66.5 1359,-66.5 1365,-72.5 1365,-78.5 1365,-78.5 1365,-107.5 1365,-107.5 1365,-113.5 1359,-119.5 1353,-119.5"/>
<text text-anchor="middle" x="1282.5" y="-104.3" font-family="monospace" font-size="14.00">cycle 3 W</text>
<text text-anchor="middle" x="1282.5" y="-89.3" font-family="monospace" font-size="14.00">W_TRANSFER id=None</text>
<text text-anchor="middle" x="1282.5" y="-74.3" font-family="monospace" font-size="14.00">last=True</text>
</g>
<!-- n3&#45;&gt;n4 -->
<g id="edge4" class="edge">
<title>n3&#45;&gt;n4</title>
<path fill="none" stroke="#94a3b8" d="M1164.11,-93C1172.81,-93 1181.43,-93 1189.8,-93"/>
<polygon fill="#94a3b8" stroke="#94a3b8" points="1189.88,-96.5 1199.88,-93 1189.88,-89.5 1189.88,-96.5"/>
</g>
<!-- n8 -->
<g id="node9" class="node">
<title>n8</title>
<path fill="#dcfce7" stroke="black" d="M2247,-129.5C2247,-129.5 2131,-129.5 2131,-129.5 2125,-129.5 2119,-123.5 2119,-117.5 2119,-117.5 2119,-88.5 2119,-88.5 2119,-82.5 2125,-76.5 2131,-76.5 2131,-76.5 2247,-76.5 2247,-76.5 2253,-76.5 2259,-82.5 2259,-88.5 2259,-88.5 2259,-117.5 2259,-117.5 2259,-123.5 2253,-129.5 2247,-129.5"/>
<text text-anchor="middle" x="2189" y="-114.3" font-family="monospace" font-size="14.00">cycle 4 B</text>
<text text-anchor="middle" x="2189" y="-99.3" font-family="monospace" font-size="14.00">B_TRANSFER id=2</text>
<text text-anchor="middle" x="2189" y="-84.3" font-family="monospace" font-size="14.00">resp=OKAY</text>
</g>
<!-- n3&#45;&gt;n8 -->
<g id="edge13" class="edge">
<title>n3&#45;&gt;n8</title>
<path fill="none" stroke="#2563eb" stroke-width="2" d="M1133.96,-119.54C1155.81,-123.48 1178.51,-126.91 1200,-129 1365.51,-145.08 1487.89,-191.67 2083,-126 2091.4,-125.07 2100.11,-123.75 2108.76,-122.21"/>
<polygon fill="#2563eb" stroke="#2563eb" stroke-width="2" points="2109.69,-125.6 2118.87,-120.31 2108.4,-118.72 2109.69,-125.6"/>
</g>
<!-- n4&#45;&gt;n5 -->
<g id="edge5" class="edge">
<title>n4&#45;&gt;n5</title>
<path fill="none" stroke="#94a3b8" d="M1365.03,-68.96C1373.72,-66.39 1382.54,-63.79 1391.2,-61.24"/>
<polygon fill="#94a3b8" stroke="#94a3b8" points="1392.28,-64.57 1400.88,-58.38 1390.3,-57.85 1392.28,-64.57"/>
</g>
<!-- n4&#45;&gt;n8 -->
<g id="edge14" class="edge">
<title>n4&#45;&gt;n8</title>
<path fill="none" stroke="#2563eb" stroke-width="2" d="M1365.08,-96.26C1484.62,-100.87 1714.42,-109.04 1910,-112 1986.88,-113.17 2006.18,-115.29 2083,-112 2091.34,-111.64 2100.05,-111.13 2108.72,-110.52"/>
<polygon fill="#2563eb" stroke="#2563eb" stroke-width="2" points="2109.15,-114 2118.87,-109.77 2108.63,-107.02 2109.15,-114"/>
</g>
<!-- n6 -->
<g id="node7" class="node">
<title>n6</title>
<path fill="#fef3c7" stroke="black" d="M1862,-64.5C1862,-64.5 1589,-64.5 1589,-64.5 1583,-64.5 1577,-58.5 1577,-52.5 1577,-52.5 1577,-23.5 1577,-23.5 1577,-17.5 1583,-11.5 1589,-11.5 1589,-11.5 1862,-11.5 1862,-11.5 1868,-11.5 1874,-17.5 1874,-23.5 1874,-23.5 1874,-52.5 1874,-52.5 1874,-58.5 1868,-64.5 1862,-64.5"/>
<text text-anchor="middle" x="1725.5" y="-49.3" font-family="monospace" font-size="14.00">cycle 3 AR</text>
<text text-anchor="middle" x="1725.5" y="-34.3" font-family="monospace" font-size="14.00">AR_TRANSFER id=2</text>
<text text-anchor="middle" x="1725.5" y="-19.3" font-family="monospace" font-size="14.00">addr=41984 len=0 size=3 burst=INCR</text>
</g>
<!-- n5&#45;&gt;n6 -->
<g id="edge6" class="edge">
<title>n5&#45;&gt;n6</title>
<path fill="none" stroke="#94a3b8" d="M1541.33,-38C1549.5,-38 1558.07,-38 1566.85,-38"/>
<polygon fill="#94a3b8" stroke="#94a3b8" points="1566.86,-41.5 1576.86,-38 1566.86,-34.5 1566.86,-41.5"/>
</g>
<!-- n6&#45;&gt;n7 -->
<g id="edge7" class="edge">
<title>n6&#45;&gt;n7</title>
<path fill="none" stroke="#94a3b8" d="M1874.38,-58.89C1882.97,-60.1 1891.49,-61.31 1899.79,-62.48"/>
<polygon fill="#94a3b8" stroke="#94a3b8" points="1899.41,-65.96 1909.8,-63.89 1900.39,-59.03 1899.41,-65.96"/>
</g>
<!-- n9 -->
<g id="node10" class="node">
<title>n9</title>
<path fill="#dcfce7" stroke="black" d="M2456,-74.5C2456,-74.5 2307,-74.5 2307,-74.5 2301,-74.5 2295,-68.5 2295,-62.5 2295,-62.5 2295,-33.5 2295,-33.5 2295,-27.5 2301,-21.5 2307,-21.5 2307,-21.5 2456,-21.5 2456,-21.5 2462,-21.5 2468,-27.5 2468,-33.5 2468,-33.5 2468,-62.5 2468,-62.5 2468,-68.5 2462,-74.5 2456,-74.5"/>
<text text-anchor="middle" x="2381.5" y="-59.3" font-family="monospace" font-size="14.00">cycle 4 R</text>
<text text-anchor="middle" x="2381.5" y="-44.3" font-family="monospace" font-size="14.00">R_TRANSFER id=2</text>
<text text-anchor="middle" x="2381.5" y="-29.3" font-family="monospace" font-size="14.00">resp=OKAY last=True</text>
</g>
<!-- n6&#45;&gt;n9 -->
<g id="edge15" class="edge">
<title>n6&#45;&gt;n9</title>
<path fill="none" stroke="#2563eb" stroke-width="2" d="M1874.37,-38.74C1938.5,-39.2 2014.46,-39.91 2083,-41 2150.37,-42.08 2226.31,-43.87 2284.6,-45.38"/>
<polygon fill="#2563eb" stroke="#2563eb" stroke-width="2" points="2284.82,-48.88 2294.91,-45.64 2285,-41.89 2284.82,-48.88"/>
</g>
<!-- n7&#45;&gt;n8 -->
<g id="edge8" class="edge">
<title>n7&#45;&gt;n8</title>
<path fill="none" stroke="#94a3b8" d="M2083.28,-88.16C2091.77,-89.36 2100.37,-90.58 2108.79,-91.77"/>
<polygon fill="#94a3b8" stroke="#94a3b8" points="2108.57,-95.28 2118.97,-93.22 2109.56,-88.35 2108.57,-95.28"/>
</g>
<!-- n8&#45;&gt;n9 -->
<g id="edge9" class="edge">
<title>n8&#45;&gt;n9</title>
<path fill="none" stroke="#94a3b8" d="M2259.04,-83.07C2267.48,-80.63 2276.21,-78.11 2284.94,-75.59"/>
<polygon fill="#94a3b8" stroke="#94a3b8" points="2286.15,-78.88 2294.79,-72.75 2284.21,-72.16 2286.15,-78.88"/>
</g>
<!-- done -->
<g id="node11" class="node">
<title>done</title>
<path fill="#bbf7d0" stroke="black" d="M2641,-66C2641,-66 2516,-66 2516,-66 2510,-66 2504,-60 2504,-54 2504,-54 2504,-42 2504,-42 2504,-36 2510,-30 2516,-30 2516,-30 2641,-30 2641,-30 2647,-30 2653,-36 2653,-42 2653,-42 2653,-54 2653,-54 2653,-60 2647,-66 2641,-66"/>
<text text-anchor="middle" x="2578.5" y="-44.3" font-family="monospace" font-size="14.00">QUIESCENT / PASS</text>
</g>
<!-- n9&#45;&gt;done -->
<g id="edge16" class="edge">
<title>n9&#45;&gt;done</title>
<path fill="none" stroke="#16a34a" stroke-width="2" d="M2468.03,-48C2476.54,-48 2485.18,-48 2493.67,-48"/>
<polygon fill="#16a34a" stroke="#16a34a" stroke-width="2" points="2493.94,-51.5 2503.94,-48 2493.94,-44.5 2493.94,-51.5"/>
</g>
</g>
</svg>
