<?xml version="1.0" encoding="UTF-8" standalone="no"?>
<!DOCTYPE svg PUBLIC "-//W3C//DTD SVG 1.1//EN"
 "http://www.w3.org/Graphics/SVG/1.1/DTD/svg11.dtd">
<!-- Generated by graphviz version 2.43.0 (0)
 -->
<!-- Title: axi_scenario Pages: 1 -->
<svg width="1318pt" height="112pt"
 viewBox="0.00 0.00 1318.44 112.13" xmlns="http://www.w3.org/2000/svg" xmlns:xlink="http://www.w3.org/1999/xlink">
<g id="graph0" class="graph" transform="scale(1 1) rotate(0) translate(4 108.13)">
<title>axi_scenario</title>
<polygon fill="white" stroke="transparent" points="-4,4 -4,-108.13 1314.44,-108.13 1314.44,4 -4,4"/>
<text text-anchor="middle" x="655.22" y="-88.93" font-family="Times,serif" font-size="14.00">stall_aw_payload_mutation</text>
<!-- n0 -->
<g id="node1" class="node">
<title>n0</title>
<path fill="#fef3c7" stroke="black" d="M285,-67.06C285,-67.06 12,-67.06 12,-67.06 6,-67.06 0,-61.06 0,-55.06 0,-55.06 0,-26.06 0,-26.06 0,-20.06 6,-14.06 12,-14.06 12,-14.06 285,-14.06 285,-14.06 291,-14.06 297,-20.06 297,-26.06 297,-26.06 297,-55.06 297,-55.06 297,-61.06 291,-67.06 285,-67.06"/>
<text text-anchor="middle" x="148.5" y="-51.86" font-family="monospace" font-size="14.00">cycle 1 AW</text>
<text text-anchor="middle" x="148.5" y="-36.86" font-family="monospace" font-size="14.00">AW_TRANSFER id=1</text>
<text text-anchor="middle" x="148.5" y="-21.86" font-family="monospace" font-size="14.00">addr=42496 len=0 size=3 burst=INCR</text>
</g>
<!-- n1 -->
<g id="node2" class="node">
<title>n1</title>
<path fill="#fef3c7" stroke="black" d="M618,-67.06C618,-67.06 345,-67.06 345,-67.06 339,-67.06 333,-61.06 333,-55.06 333,-55.06 333,-26.06 333,-26.06 333,-20.06 339,-14.06 345,-14.06 345,-14.06 618,-14.06 618,-14.06 624,-14.06 630,-20.06 630,-26.06 630,-26.06 630,-55.06 630,-55.06 630,-61.06 624,-67.06 618,-67.06"/>
<text text-anchor="middle" x="481.5" y="-51.86" font-family="monospace" font-size="14.00">cycle 2 AW</text>
<text text-anchor="middle" x="481.5" y="-36.86" font-family="monospace" font-size="14.00">AW_TRANSFER id=1</text>
<text text-anchor="middle" x="481.5" y="-21.86" font-family="monospace" font-size="14.00">addr=42504 len=0 size=3 burst=INCR</text>
</g>
<!-- n0&#45;&gt;n1 -->
<g id="edge1" class="edge">
<title>n0&#45;&gt;n1</title>
<path fill="none" stroke="#94a3b8" d="M297.09,-40.56C305.64,-40.56 314.26,-40.56 322.84,-40.56"/>
<polygon fill="#94a3b8" stroke="#94a3b8" points="322.9,-44.06 332.9,-40.56 322.9,-37.06 322.9,-44.06"/>
</g>
<!-- fault -->
<g id="node3" class="node">
<title>fault</title>
<path fill="#fecaca" stroke="black" d="M1310.66,-34.95C1310.66,-34.95 1310.66,-46.17 1310.66,-46.17 1310.66,-51.78 1305.09,-58.09 1299.53,-58.8 1299.53,-58.8 1132.91,-79.79 1132.91,-79.79 1127.34,-80.49 1116.17,-81.19 1110.56,-81.19 1110.56,-81.19 865.88,-81.19 865.88,-81.19 860.27,-81.19 849.1,-80.49 843.53,-79.79 843.53,-79.79 676.91,-58.8 676.91,-58.8 671.35,-58.09 665.78,-51.78 665.78,-46.17 665.78,-46.17 665.78,-34.95 665.78,-34.95 665.78,-29.35 671.35,-23.03 676.91,-22.33 676.91,-22.33 843.53,-1.34 843.53,-1.34 849.1,-0.64 860.27,0.06 865.88,0.06 865.88,0.06 1110.56,0.06 1110.56,0.06 1116.17,0.06 1127.34,-0.64 1132.91,-1.34 1132.91,-1.34 1299.53,-22.33 1299.53,-22.33 1305.09,-23.03 1310.66,-29.35 1310.66,-34.95"/>
<text text-anchor="middle" x="988.22" y="-51.86" font-family="monospace" font-size="14.00">FAULT</text>
<text text-anchor="middle" x="988.22" y="-36.86" font-family="monospace" font-size="14.00">AW.ready_valid.payload_stability</text>
<text text-anchor="middle" x="988.22" y="-21.86" font-family="monospace" font-size="14.00">channel event changed while stalled since cycle 1</text>
</g>
<!-- n1&#45;&gt;fault -->
<g id="edge2" class="edge">
<title>n1&#45;&gt;fault</title>
<path fill="none" stroke="#dc2626" stroke-width="2" d="M630.18,-40.56C638.44,-40.56 646.88,-40.56 655.46,-40.56"/>
<polygon fill="#dc2626" stroke="#dc2626" stroke-width="2" points="655.59,-44.06 665.59,-40.56 655.59,-37.06 655.59,-44.06"/>
</g>
</g>
</svg>
