<?xml version="1.0" encoding="UTF-8" standalone="no"?>
<!DOCTYPE svg PUBLIC "-//W3C//DTD SVG 1.1//EN"
 "http://www.w3.org/Graphics/SVG/1.1/DTD/svg11.dtd">
<!-- Generated by graphviz version 2.43.0 (0)
 -->
<!-- Title: axi_scenario Pages: 1 -->
<svg width="1434pt" height="112pt"
 viewBox="0.00 0.00 1433.65 112.13" xmlns="http://www.w3.org/2000/svg" xmlns:xlink="http://www.w3.org/1999/xlink">
<g id="graph0" class="graph" transform="scale(1 1) rotate(0) translate(4 108.13)">
<title>axi_scenario</title>
<polygon fill="white" stroke="transparent" points="-4,4 -4,-108.13 1429.65,-108.13 1429.65,4 -4,4"/>
<text text-anchor="middle" x="712.83" y="-88.93" font-family="Times,serif" font-size="14.00">read_cross_4kb</text>
<!-- n0 -->
<g id="node1" class="node">
<title>n0</title>
<path fill="#fef3c7" stroke="black" d="M277,-67.06C277,-67.06 12,-67.06 12,-67.06 6,-67.06 0,-61.06 0,-55.06 0,-55.06 0,-26.06 0,-26.06 0,-20.06 6,-14.06 12,-14.06 12,-14.06 277,-14.06 277,-14.06 283,-14.06 289,-20.06 289,-26.06 289,-26.06 289,-55.06 289,-55.06 289,-61.06 283,-67.06 277,-67.06"/>
<text text-anchor="middle" x="144.5" y="-51.86" font-family="monospace" font-size="14.00">cycle 1 AR</text>
<text text-anchor="middle" x="144.5" y="-36.86" font-family="monospace" font-size="14.00">AR_TRANSFER id=1</text>
<text text-anchor="middle" x="144.5" y="-21.86" font-family="monospace" font-size="14.00">addr=4088 len=1 size=3 burst=INCR</text>
</g>
<!-- geometry -->
<g id="node2" class="node">
<title>geometry</title>
<path fill="#e0f2fe" stroke="black" d="M503,-59.56C503,-59.56 337,-59.56 337,-59.56 331,-59.56 325,-53.56 325,-47.56 325,-47.56 325,-33.56 325,-33.56 325,-27.56 331,-21.56 337,-21.56 337,-21.56 503,-21.56 503,-21.56 509,-21.56 515,-27.56 515,-33.56 515,-33.56 515,-47.56 515,-47.56 515,-53.56 509,-59.56 503,-59.56"/>
<text text-anchor="middle" x="420" y="-44.36" font-family="monospace" font-size="14.00">derive burst geometry</text>
<text text-anchor="middle" x="420" y="-29.36" font-family="monospace" font-size="14.00">2 beat(s) x 8 bytes</text>
</g>
<!-- n0&#45;&gt;geometry -->
<g id="edge1" class="edge">
<title>n0&#45;&gt;geometry</title>
<path fill="none" stroke="black" d="M289.06,-40.56C297.68,-40.56 306.26,-40.56 314.67,-40.56"/>
<polygon fill="black" stroke="black" points="314.83,-44.06 324.83,-40.56 314.83,-37.06 314.83,-44.06"/>
</g>
<!-- footprint -->
<g id="node3" class="node">
<title>footprint</title>
<path fill="#e0f2fe" stroke="black" d="M688,-67.06C688,-67.06 563,-67.06 563,-67.06 557,-67.06 551,-61.06 551,-55.06 551,-55.06 551,-26.06 551,-26.06 551,-20.06 557,-14.06 563,-14.06 563,-14.06 688,-14.06 688,-14.06 694,-14.06 700,-20.06 700,-26.06 700,-26.06 700,-55.06 700,-55.06 700,-61.06 694,-67.06 688,-67.06"/>
<text text-anchor="middle" x="625.5" y="-51.86" font-family="monospace" font-size="14.00">beat addresses</text>
<text text-anchor="middle" x="625.5" y="-36.86" font-family="monospace" font-size="14.00">0xff8 &#45;&gt; 0x1000</text>
<text text-anchor="middle" x="625.5" y="-21.86" font-family="monospace" font-size="14.00">last byte=0x1007</text>
</g>
<!-- geometry&#45;&gt;footprint -->
<g id="edge2" class="edge">
<title>geometry&#45;&gt;footprint</title>
<path fill="none" stroke="black" d="M515.01,-40.56C523.52,-40.56 532.11,-40.56 540.53,-40.56"/>
<polygon fill="black" stroke="black" points="540.7,-44.06 550.7,-40.56 540.7,-37.06 540.7,-44.06"/>
</g>
<!-- pages -->
<g id="node4" class="node">
<title>pages</title>
<path fill="#e0f2fe" stroke="black" d="M897,-59.56C897,-59.56 748,-59.56 748,-59.56 742,-59.56 736,-53.56 736,-47.56 736,-47.56 736,-33.56 736,-33.56 736,-27.56 742,-21.56 748,-21.56 748,-21.56 897,-21.56 897,-21.56 903,-21.56 909,-27.56 909,-33.56 909,-33.56 909,-47.56 909,-47.56 909,-53.56 903,-59.56 897,-59.56"/>
<text text-anchor="middle" x="822.5" y="-44.36" font-family="monospace" font-size="14.00">4KB page comparison</text>
<text text-anchor="middle" x="822.5" y="-29.36" font-family="monospace" font-size="14.00">0x0 != 0x1</text>
</g>
<!-- footprint&#45;&gt;pages -->
<g id="edge3" class="edge">
<title>footprint&#45;&gt;pages</title>
<path fill="none" stroke="black" d="M700.22,-40.56C708.59,-40.56 717.21,-40.56 725.82,-40.56"/>
<polygon fill="black" stroke="black" points="725.89,-44.06 735.89,-40.56 725.89,-37.06 725.89,-44.06"/>
</g>
<!-- fault -->
<g id="node5" class="node">
<title>fault</title>
<path fill="#fecaca" stroke="black" d="M1425.48,-34.95C1425.48,-34.95 1425.48,-46.17 1425.48,-46.17 1425.48,-51.78 1419.94,-58.33 1414.41,-59.27 1414.41,-59.27 1295.86,-79.32 1295.86,-79.32 1290.33,-80.26 1279.19,-81.19 1273.58,-81.19 1273.58,-81.19 1097.07,-81.19 1097.07,-81.19 1091.46,-81.19 1080.32,-80.26 1074.79,-79.32 1074.79,-79.32 956.24,-59.27 956.24,-59.27 950.71,-58.33 945.17,-51.78 945.17,-46.17 945.17,-46.17 945.17,-34.95 945.17,-34.95 945.17,-29.35 950.71,-22.8 956.24,-21.86 956.24,-21.86 1074.79,-1.81 1074.79,-1.81 1080.32,-0.87 1091.46,0.06 1097.07,0.06 1097.07,0.06 1273.58,0.06 1273.58,0.06 1279.19,0.06 1290.33,-0.87 1295.86,-1.81 1295.86,-1.81 1414.41,-21.86 1414.41,-21.86 1419.94,-22.8 1425.48,-29.35 1425.48,-34.95"/>
<text text-anchor="middle" x="1185.33" y="-51.86" font-family="monospace" font-size="14.00">FAULT</text>
<text text-anchor="middle" x="1185.33" y="-36.86" font-family="monospace" font-size="14.00">AR.ready_valid.event_space</text>
<text text-anchor="middle" x="1185.33" y="-21.86" font-family="monospace" font-size="14.00">burst crosses a 4KB address boundary</text>
</g>
<!-- pages&#45;&gt;fault -->
<g id="edge4" class="edge">
<title>pages&#45;&gt;fault</title>
<path fill="none" stroke="#dc2626" stroke-width="2" d="M909.01,-40.56C917.26,-40.56 925.89,-40.56 934.77,-40.56"/>
<polygon fill="#dc2626" stroke="#dc2626" stroke-width="2" points="934.91,-44.06 944.91,-40.56 934.91,-37.06 934.91,-44.06"/>
</g>
</g>
</svg>
