<?xml version="1.0" encoding="UTF-8" standalone="no"?>
<!DOCTYPE svg PUBLIC "-//W3C//DTD SVG 1.1//EN"
 "http://www.w3.org/Graphics/SVG/1.1/DTD/svg11.dtd">
<!-- Generated by graphviz version 2.43.0 (0)
 -->
<!-- Title: axi_scenario_topology Pages: 1 -->
<svg width="1013pt" height="84pt"
 viewBox="0.00 0.00 1013.00 84.00" xmlns="http://www.w3.org/2000/svg" xmlns:xlink="http://www.w3.org/1999/xlink">
<g id="graph0" class="graph" transform="scale(1 1) rotate(0) translate(4 80)">
<title>axi_scenario_topology</title>
<polygon fill="white" stroke="transparent" points="-4,4 -4,-80 1009,-80 1009,4 -4,4"/>
<text text-anchor="middle" x="502.5" y="-60.8" font-family="Times,serif" font-size="14.00">prj_axi4_scenarios endpoint topology</text>
<!-- manager -->
<g id="node1" class="node">
<title>manager</title>
<path fill="#fef3c7" stroke="black" d="M153,-53C153,-53 12,-53 12,-53 6,-53 0,-47 0,-41 0,-41 0,-12 0,-12 0,-6 6,0 12,0 12,0 153,0 153,0 159,0 165,-6 165,-12 165,-12 165,-41 165,-41 165,-47 159,-53 153,-53"/>
<text text-anchor="middle" x="82.5" y="-37.8" font-family="monospace" font-size="14.00">Manager VirtualDut</text>
<text text-anchor="middle" x="82.5" y="-22.8" font-family="monospace" font-size="14.00">AxiManagerSource</text>
<text text-anchor="middle" x="82.5" y="-7.8" font-family="monospace" font-size="14.00">AW / W / AR</text>
</g>
<!-- protocol -->
<g id="node2" class="node">
<title>protocol</title>
<path fill="#dbeafe" stroke="black" d="M620,-45.5C620,-45.5 281,-45.5 281,-45.5 275,-45.5 269,-39.5 269,-33.5 269,-33.5 269,-19.5 269,-19.5 269,-13.5 275,-7.5 281,-7.5 281,-7.5 620,-7.5 620,-7.5 626,-7.5 632,-13.5 632,-19.5 632,-19.5 632,-33.5 632,-33.5 632,-39.5 626,-45.5 620,-45.5"/>
<text text-anchor="middle" x="450.5" y="-30.3" font-family="monospace" font-size="14.00">AXI4 ProtocolInstance</text>
<text text-anchor="middle" x="450.5" y="-15.3" font-family="monospace" font-size="14.00">five&#45;channel signal + transaction monitors</text>
</g>
<!-- manager&#45;&gt;protocol -->
<g id="edge1" class="edge">
<title>manager&#45;&gt;protocol</title>
<path fill="none" stroke="black" d="M165.18,-26.5C193.15,-26.5 225.74,-26.5 258.66,-26.5"/>
<polygon fill="black" stroke="black" points="258.88,-30 268.88,-26.5 258.88,-23 258.88,-30"/>
<text text-anchor="middle" x="217" y="-30.3" font-family="Times,serif" font-size="14.00">AW W AR</text>
</g>
<!-- responder -->
<g id="node3" class="node">
<title>responder</title>
<path fill="#dcfce7" stroke="black" d="M993,-53C993,-53 811,-53 811,-53 805,-53 799,-47 799,-41 799,-41 799,-12 799,-12 799,-6 805,0 811,0 811,0 993,0 993,0 999,0 1005,-6 1005,-12 1005,-12 1005,-41 1005,-41 1005,-47 999,-53 993,-53"/>
<text text-anchor="middle" x="902" y="-37.8" font-family="monospace" font-size="14.00">Subordinate VirtualDut</text>
<text text-anchor="middle" x="902" y="-22.8" font-family="monospace" font-size="14.00">AxiSubordinateResponder</text>
<text text-anchor="middle" x="902" y="-7.8" font-family="monospace" font-size="14.00">B / R</text>
</g>
<!-- protocol&#45;&gt;responder -->
<g id="edge2" class="edge">
<title>protocol&#45;&gt;responder</title>
<path fill="none" stroke="black" d="M632.06,-26.5C684.94,-26.5 741.21,-26.5 788.54,-26.5"/>
<polygon fill="black" stroke="black" points="788.81,-30 798.81,-26.5 788.81,-23 788.81,-30"/>
<text text-anchor="middle" x="715.5" y="-30.3" font-family="Times,serif" font-size="14.00">accepted requests</text>
</g>
<!-- responder&#45;&gt;protocol -->
<g id="edge3" class="edge">
<title>responder&#45;&gt;protocol</title>
<path fill="none" stroke="black" d="M798.68,-9.2C792.71,-8.53 786.78,-7.95 781,-7.5 734.7,-3.86 684.69,-4.43 637.96,-6.9"/>
<polygon fill="black" stroke="black" points="637.51,-3.42 627.72,-7.48 637.91,-10.41 637.51,-3.42"/>
<text text-anchor="middle" x="715.5" y="-11.3" font-family="Times,serif" font-size="14.00">B R</text>
</g>
</g>
</svg>
