<?xml version="1.0" encoding="UTF-8" standalone="no"?>
<!DOCTYPE svg PUBLIC "-//W3C//DTD SVG 1.1//EN"
 "http://www.w3.org/Graphics/SVG/1.1/DTD/svg11.dtd">
<!-- Generated by graphviz version 2.43.0 (0)
 -->
<!-- Title: axi_scenario Pages: 1 -->
<svg width="1182pt" height="112pt"
 viewBox="0.00 0.00 1182.19 112.13" xmlns="http://www.w3.org/2000/svg" xmlns:xlink="http://www.w3.org/1999/xlink">
<g id="graph0" class="graph" transform="scale(1 1) rotate(0) translate(4 108.13)">
<title>axi_scenario</title>
<polygon fill="white" stroke="transparent" points="-4,4 -4,-108.13 1178.19,-108.13 1178.19,4 -4,4"/>
<text text-anchor="middle" x="587.1" y="-88.93" font-family="Times,serif" font-size="14.00">reset_discards_outstanding_read</text>
<!-- n0 -->
<g id="node1" class="node">
<title>n0</title>
<path fill="#fef3c7" stroke="black" d="M285,-67.06C285,-67.06 12,-67.06 12,-67.06 6,-67.06 0,-61.06 0,-55.06 0,-55.06 0,-26.06 0,-26.06 0,-20.06 6,-14.06 12,-14.06 12,-14.06 285,-14.06 285,-14.06 291,-14.06 297,-20.06 297,-26.06 297,-26.06 297,-55.06 297,-55.06 297,-61.06 291,-67.06 285,-67.06"/>
<text text-anchor="middle" x="148.5" y="-51.86" font-family="monospace" font-size="14.00">cycle 1 AR</text>
<text text-anchor="middle" x="148.5" y="-36.86" font-family="monospace" font-size="14.00">AR_TRANSFER id=1</text>
<text text-anchor="middle" x="148.5" y="-21.86" font-family="monospace" font-size="14.00">addr=41472 len=0 size=3 burst=INCR</text>
</g>
<!-- n1 -->
<g id="node2" class="node">
<title>n1</title>
<path fill="#dcfce7" stroke="black" d="M494,-67.06C494,-67.06 345,-67.06 345,-67.06 339,-67.06 333,-61.06 333,-55.06 333,-55.06 333,-26.06 333,-26.06 333,-20.06 339,-14.06 345,-14.06 345,-14.06 494,-14.06 494,-14.06 500,-14.06 506,-20.06 506,-26.06 506,-26.06 506,-55.06 506,-55.06 506,-61.06 500,-67.06 494,-67.06"/>
<text text-anchor="middle" x="419.5" y="-51.86" font-family="monospace" font-size="14.00">cycle 3 R</text>
<text text-anchor="middle" x="419.5" y="-36.86" font-family="monospace" font-size="14.00">R_TRANSFER id=1</text>
<text text-anchor="middle" x="419.5" y="-21.86" font-family="monospace" font-size="14.00">resp=OKAY last=True</text>
</g>
<!-- n0&#45;&gt;n1 -->
<g id="edge1" class="edge">
<title>n0&#45;&gt;n1</title>
<path fill="none" stroke="#94a3b8" d="M297.38,-40.56C305.97,-40.56 314.49,-40.56 322.79,-40.56"/>
<polygon fill="#94a3b8" stroke="#94a3b8" points="322.8,-44.06 332.8,-40.56 322.8,-37.06 322.8,-44.06"/>
</g>
<!-- fault -->
<g id="node3" class="node">
<title>fault</title>
<path fill="#fecaca" stroke="black" d="M1174.29,-34.95C1174.29,-34.95 1174.29,-46.17 1174.29,-46.17 1174.29,-51.78 1168.73,-58.11 1163.16,-58.82 1163.16,-58.82 1000.2,-79.76 1000.2,-79.76 994.63,-80.48 983.46,-81.19 977.85,-81.19 977.85,-81.19 738.34,-81.19 738.34,-81.19 732.73,-81.19 721.56,-80.48 716,-79.76 716,-79.76 553.03,-58.82 553.03,-58.82 547.47,-58.11 541.9,-51.78 541.9,-46.17 541.9,-46.17 541.9,-34.95 541.9,-34.95 541.9,-29.35 547.47,-23.02 553.03,-22.31 553.03,-22.31 716,-1.37 716,-1.37 721.56,-0.65 732.73,0.06 738.34,0.06 738.34,0.06 977.85,0.06 977.85,0.06 983.46,0.06 994.63,-0.65 1000.2,-1.37 1000.2,-1.37 1163.16,-22.31 1163.16,-22.31 1168.73,-23.02 1174.29,-29.35 1174.29,-34.95"/>
<text text-anchor="middle" x="858.1" y="-51.86" font-family="monospace" font-size="14.00">FAULT</text>
<text text-anchor="middle" x="858.1" y="-36.86" font-family="monospace" font-size="14.00">axi4.signal_session.rvalid_dependency</text>
<text text-anchor="middle" x="858.1" y="-21.86" font-family="monospace" font-size="14.00">RVALID asserted without a previously accepted AR</text>
</g>
<!-- n1&#45;&gt;fault -->
<g id="edge2" class="edge">
<title>n1&#45;&gt;fault</title>
<path fill="none" stroke="#dc2626" stroke-width="2" d="M506.24,-40.56C514.36,-40.56 522.87,-40.56 531.69,-40.56"/>
<polygon fill="#dc2626" stroke="#dc2626" stroke-width="2" points="531.78,-44.06 541.78,-40.56 531.78,-37.06 531.78,-44.06"/>
</g>
</g>
</svg>
