<?xml version="1.0" encoding="UTF-8" standalone="no"?>
<!DOCTYPE svg PUBLIC "-//W3C//DTD SVG 1.1//EN"
 "http://www.w3.org/Graphics/SVG/1.1/DTD/svg11.dtd">
<!-- Generated by graphviz version 2.43.0 (0)
 -->
<!-- Title: axi_scenario Pages: 1 -->
<svg width="1677pt" height="139pt"
 viewBox="0.00 0.00 1677.00 139.00" xmlns="http://www.w3.org/2000/svg" xmlns:xlink="http://www.w3.org/1999/xlink">
<g id="graph0" class="graph" transform="scale(1 1) rotate(0) translate(4 135)">
<title>axi_scenario</title>
<polygon fill="white" stroke="transparent" points="-4,4 -4,-135 1673,-135 1673,4 -4,4"/>
<text text-anchor="middle" x="834.5" y="-115.8" font-family="Times,serif" font-size="14.00">read_cross_id_interleave</text>
<!-- n0 -->
<g id="node1" class="node">
<title>n0</title>
<path fill="#fef3c7" stroke="black" d="M285,-80C285,-80 12,-80 12,-80 6,-80 0,-74 0,-68 0,-68 0,-39 0,-39 0,-33 6,-27 12,-27 12,-27 285,-27 285,-27 291,-27 297,-33 297,-39 297,-39 297,-68 297,-68 297,-74 291,-80 285,-80"/>
<text text-anchor="middle" x="148.5" y="-64.8" font-family="monospace" font-size="14.00">cycle 1 AR</text>
<text text-anchor="middle" x="148.5" y="-49.8" font-family="monospace" font-size="14.00">AR_TRANSFER id=1</text>
<text text-anchor="middle" x="148.5" y="-34.8" font-family="monospace" font-size="14.00">addr=36864 len=1 size=3 burst=INCR</text>
</g>
<!-- n1 -->
<g id="node2" class="node">
<title>n1</title>
<path fill="#fef3c7" stroke="black" d="M618,-108C618,-108 345,-108 345,-108 339,-108 333,-102 333,-96 333,-96 333,-67 333,-67 333,-61 339,-55 345,-55 345,-55 618,-55 618,-55 624,-55 630,-61 630,-67 630,-67 630,-96 630,-96 630,-102 624,-108 618,-108"/>
<text text-anchor="middle" x="481.5" y="-92.8" font-family="monospace" font-size="14.00">cycle 2 AR</text>
<text text-anchor="middle" x="481.5" y="-77.8" font-family="monospace" font-size="14.00">AR_TRANSFER id=2</text>
<text text-anchor="middle" x="481.5" y="-62.8" font-family="monospace" font-size="14.00">addr=37120 len=1 size=3 burst=INCR</text>
</g>
<!-- n0&#45;&gt;n1 -->
<g id="edge1" class="edge">
<title>n0&#45;&gt;n1</title>
<path fill="none" stroke="#94a3b8" d="M297.09,-65.99C305.64,-66.71 314.26,-67.44 322.84,-68.16"/>
<polygon fill="#94a3b8" stroke="#94a3b8" points="322.64,-71.66 332.9,-69.01 323.23,-64.68 322.64,-71.66"/>
</g>
<!-- n3 -->
<g id="node4" class="node">
<title>n3</title>
<path fill="#dcfce7" stroke="black" d="M1054,-53C1054,-53 896,-53 896,-53 890,-53 884,-47 884,-41 884,-41 884,-12 884,-12 884,-6 890,0 896,0 896,0 1054,0 1054,0 1060,0 1066,-6 1066,-12 1066,-12 1066,-41 1066,-41 1066,-47 1060,-53 1054,-53"/>
<text text-anchor="middle" x="975" y="-37.8" font-family="monospace" font-size="14.00">cycle 4 R</text>
<text text-anchor="middle" x="975" y="-22.8" font-family="monospace" font-size="14.00">R_TRANSFER id=1</text>
<text text-anchor="middle" x="975" y="-7.8" font-family="monospace" font-size="14.00">resp=OKAY last=False</text>
</g>
<!-- n0&#45;&gt;n3 -->
<g id="edge7" class="edge">
<title>n0&#45;&gt;n3</title>
<path fill="none" stroke="#2563eb" stroke-width="2" d="M297.22,-46.88C309.32,-46.39 321.37,-45.93 333,-45.5 524.19,-38.5 747.54,-32.34 873.72,-29.04"/>
<polygon fill="#2563eb" stroke="#2563eb" stroke-width="2" points="873.85,-32.54 883.76,-28.78 873.67,-25.54 873.85,-32.54"/>
</g>
<!-- n2 -->
<g id="node3" class="node">
<title>n2</title>
<path fill="#dcfce7" stroke="black" d="M836,-108C836,-108 678,-108 678,-108 672,-108 666,-102 666,-96 666,-96 666,-67 666,-67 666,-61 672,-55 678,-55 678,-55 836,-55 836,-55 842,-55 848,-61 848,-67 848,-67 848,-96 848,-96 848,-102 842,-108 836,-108"/>
<text text-anchor="middle" x="757" y="-92.8" font-family="monospace" font-size="14.00">cycle 3 R</text>
<text text-anchor="middle" x="757" y="-77.8" font-family="monospace" font-size="14.00">R_TRANSFER id=2</text>
<text text-anchor="middle" x="757" y="-62.8" font-family="monospace" font-size="14.00">resp=OKAY last=False</text>
</g>
<!-- n1&#45;&gt;n2 -->
<g id="edge2" class="edge">
<title>n1&#45;&gt;n2</title>
<path fill="none" stroke="#94a3b8" d="M630.06,-74.77C638.67,-74.8 647.22,-74.86 655.58,-74.97"/>
<polygon fill="#94a3b8" stroke="#94a3b8" points="655.62,-78.47 665.66,-75.11 655.71,-71.47 655.62,-78.47"/>
</g>
<!-- n1&#45;&gt;n2 -->
<g id="edge6" class="edge">
<title>n1&#45;&gt;n2</title>
<path fill="none" stroke="#2563eb" stroke-width="2" d="M630.06,-88.23C638.67,-88.2 647.22,-88.14 655.58,-88.03"/>
<polygon fill="#2563eb" stroke="#2563eb" stroke-width="2" points="655.71,-91.53 665.66,-87.89 655.62,-84.53 655.71,-91.53"/>
</g>
<!-- n2&#45;&gt;n3 -->
<g id="edge3" class="edge">
<title>n2&#45;&gt;n3</title>
<path fill="none" stroke="#94a3b8" d="M848.04,-58.57C856.62,-56.39 865.35,-54.16 874.02,-51.96"/>
<polygon fill="#94a3b8" stroke="#94a3b8" points="874.93,-55.34 883.76,-49.48 873.2,-48.55 874.93,-55.34"/>
</g>
<!-- n4 -->
<g id="node5" class="node">
<title>n4</title>
<path fill="#dcfce7" stroke="black" d="M1263,-108C1263,-108 1114,-108 1114,-108 1108,-108 1102,-102 1102,-96 1102,-96 1102,-67 1102,-67 1102,-61 1108,-55 1114,-55 1114,-55 1263,-55 1263,-55 1269,-55 1275,-61 1275,-67 1275,-67 1275,-96 1275,-96 1275,-102 1269,-108 1263,-108"/>
<text text-anchor="middle" x="1188.5" y="-92.8" font-family="monospace" font-size="14.00">cycle 5 R</text>
<text text-anchor="middle" x="1188.5" y="-77.8" font-family="monospace" font-size="14.00">R_TRANSFER id=2</text>
<text text-anchor="middle" x="1188.5" y="-62.8" font-family="monospace" font-size="14.00">resp=OKAY last=True</text>
</g>
<!-- n2&#45;&gt;n4 -->
<g id="edge8" class="edge">
<title>n2&#45;&gt;n4</title>
<path fill="none" stroke="#2563eb" stroke-width="2" d="M848.04,-81.5C919.46,-81.5 1019.04,-81.5 1091.88,-81.5"/>
<polygon fill="#2563eb" stroke="#2563eb" stroke-width="2" points="1091.97,-85 1101.97,-81.5 1091.97,-78 1091.97,-85"/>
</g>
<!-- n3&#45;&gt;n4 -->
<g id="edge4" class="edge">
<title>n3&#45;&gt;n4</title>
<path fill="none" stroke="#94a3b8" d="M1066,-49.9C1074.66,-52.16 1083.46,-54.45 1092.17,-56.71"/>
<polygon fill="#94a3b8" stroke="#94a3b8" points="1091.39,-60.12 1101.95,-59.25 1093.15,-53.35 1091.39,-60.12"/>
</g>
<!-- n5 -->
<g id="node6" class="node">
<title>n5</title>
<path fill="#dcfce7" stroke="black" d="M1472,-80C1472,-80 1323,-80 1323,-80 1317,-80 1311,-74 1311,-68 1311,-68 1311,-39 1311,-39 1311,-33 1317,-27 1323,-27 1323,-27 1472,-27 1472,-27 1478,-27 1484,-33 1484,-39 1484,-39 1484,-68 1484,-68 1484,-74 1478,-80 1472,-80"/>
<text text-anchor="middle" x="1397.5" y="-64.8" font-family="monospace" font-size="14.00">cycle 6 R</text>
<text text-anchor="middle" x="1397.5" y="-49.8" font-family="monospace" font-size="14.00">R_TRANSFER id=1</text>
<text text-anchor="middle" x="1397.5" y="-34.8" font-family="monospace" font-size="14.00">resp=OKAY last=True</text>
</g>
<!-- n3&#45;&gt;n5 -->
<g id="edge9" class="edge">
<title>n3&#45;&gt;n5</title>
<path fill="none" stroke="#2563eb" stroke-width="2" d="M1066.28,-32.18C1125.61,-35.93 1204.93,-40.97 1275,-45.5 1283.34,-46.04 1292,-46.6 1300.68,-47.17"/>
<polygon fill="#2563eb" stroke="#2563eb" stroke-width="2" points="1300.67,-50.68 1310.87,-47.84 1301.12,-43.69 1300.67,-50.68"/>
</g>
<!-- n4&#45;&gt;n5 -->
<g id="edge5" class="edge">
<title>n4&#45;&gt;n5</title>
<path fill="none" stroke="#94a3b8" d="M1275.19,-69.91C1283.66,-68.76 1292.3,-67.59 1300.87,-66.44"/>
<polygon fill="#94a3b8" stroke="#94a3b8" points="1301.43,-69.89 1310.88,-65.08 1300.5,-62.95 1301.43,-69.89"/>
</g>
<!-- done -->
<g id="node7" class="node">
<title>done</title>
<path fill="#bbf7d0" stroke="black" d="M1657,-71.5C1657,-71.5 1532,-71.5 1532,-71.5 1526,-71.5 1520,-65.5 1520,-59.5 1520,-59.5 1520,-47.5 1520,-47.5 1520,-41.5 1526,-35.5 1532,-35.5 1532,-35.5 1657,-35.5 1657,-35.5 1663,-35.5 1669,-41.5 1669,-47.5 1669,-47.5 1669,-59.5 1669,-59.5 1669,-65.5 1663,-71.5 1657,-71.5"/>
<text text-anchor="middle" x="1594.5" y="-49.8" font-family="monospace" font-size="14.00">QUIESCENT / PASS</text>
</g>
<!-- n5&#45;&gt;done -->
<g id="edge10" class="edge">
<title>n5&#45;&gt;done</title>
<path fill="none" stroke="#16a34a" stroke-width="2" d="M1484.03,-53.5C1492.54,-53.5 1501.18,-53.5 1509.67,-53.5"/>
<polygon fill="#16a34a" stroke="#16a34a" stroke-width="2" points="1509.94,-57 1519.94,-53.5 1509.94,-50 1509.94,-57"/>
</g>
</g>
</svg>
