<?xml version="1.0" encoding="UTF-8" standalone="no"?>
<!DOCTYPE svg PUBLIC "-//W3C//DTD SVG 1.1//EN"
 "http://www.w3.org/Graphics/SVG/1.1/DTD/svg11.dtd">
<!-- Generated by graphviz version 2.43.0 (0)
 -->
<!-- Title: axi_scenario Pages: 1 -->
<svg width="867pt" height="112pt"
 viewBox="0.00 0.00 867.00 112.00" xmlns="http://www.w3.org/2000/svg" xmlns:xlink="http://www.w3.org/1999/xlink">
<g id="graph0" class="graph" transform="scale(1 1) rotate(0) translate(4 108)">
<title>axi_scenario</title>
<polygon fill="white" stroke="transparent" points="-4,4 -4,-108 863,-108 863,4 -4,4"/>
<text text-anchor="middle" x="429.5" y="-88.8" font-family="Times,serif" font-size="14.00">write_data_before_address</text>
<!-- n0 -->
<g id="node1" class="node">
<title>n0</title>
<path fill="#fef3c7" stroke="black" d="M153,-53C153,-53 12,-53 12,-53 6,-53 0,-47 0,-41 0,-41 0,-12 0,-12 0,-6 6,0 12,0 12,0 153,0 153,0 159,0 165,-6 165,-12 165,-12 165,-41 165,-41 165,-47 159,-53 153,-53"/>
<text text-anchor="middle" x="82.5" y="-37.8" font-family="monospace" font-size="14.00">cycle 1 W</text>
<text text-anchor="middle" x="82.5" y="-22.8" font-family="monospace" font-size="14.00">W_TRANSFER id=None</text>
<text text-anchor="middle" x="82.5" y="-7.8" font-family="monospace" font-size="14.00">last=True</text>
</g>
<!-- n1 -->
<g id="node2" class="node">
<title>n1</title>
<path fill="#fef3c7" stroke="black" d="M486,-81C486,-81 213,-81 213,-81 207,-81 201,-75 201,-69 201,-69 201,-40 201,-40 201,-34 207,-28 213,-28 213,-28 486,-28 486,-28 492,-28 498,-34 498,-40 498,-40 498,-69 498,-69 498,-75 492,-81 486,-81"/>
<text text-anchor="middle" x="349.5" y="-65.8" font-family="monospace" font-size="14.00">cycle 2 AW</text>
<text text-anchor="middle" x="349.5" y="-50.8" font-family="monospace" font-size="14.00">AW_TRANSFER id=1</text>
<text text-anchor="middle" x="349.5" y="-35.8" font-family="monospace" font-size="14.00">addr=32768 len=0 size=3 burst=INCR</text>
</g>
<!-- n0&#45;&gt;n1 -->
<g id="edge1" class="edge">
<title>n0&#45;&gt;n1</title>
<path fill="none" stroke="#94a3b8" d="M165.17,-35.13C173.37,-36 181.87,-36.89 190.53,-37.81"/>
<polygon fill="#94a3b8" stroke="#94a3b8" points="190.43,-41.32 200.75,-38.89 191.17,-34.36 190.43,-41.32"/>
</g>
<!-- n2 -->
<g id="node3" class="node">
<title>n2</title>
<path fill="#dcfce7" stroke="black" d="M662,-81C662,-81 546,-81 546,-81 540,-81 534,-75 534,-69 534,-69 534,-40 534,-40 534,-34 540,-28 546,-28 546,-28 662,-28 662,-28 668,-28 674,-34 674,-40 674,-40 674,-69 674,-69 674,-75 668,-81 662,-81"/>
<text text-anchor="middle" x="604" y="-65.8" font-family="monospace" font-size="14.00">cycle 3 B</text>
<text text-anchor="middle" x="604" y="-50.8" font-family="monospace" font-size="14.00">B_TRANSFER id=1</text>
<text text-anchor="middle" x="604" y="-35.8" font-family="monospace" font-size="14.00">resp=OKAY</text>
</g>
<!-- n0&#45;&gt;n2 -->
<g id="edge4" class="edge">
<title>n0&#45;&gt;n2</title>
<path fill="none" stroke="#2563eb" stroke-width="2" d="M165.12,-16.66C249.17,-8.49 383.62,-0.94 498,-19.5 506.54,-20.89 515.33,-22.87 524.01,-25.19"/>
<polygon fill="#2563eb" stroke="#2563eb" stroke-width="2" points="523.18,-28.59 533.75,-27.95 525.09,-21.86 523.18,-28.59"/>
</g>
<!-- n1&#45;&gt;n2 -->
<g id="edge2" class="edge">
<title>n1&#45;&gt;n2</title>
<path fill="none" stroke="#94a3b8" d="M498.11,-47.84C506.93,-47.91 515.61,-48.03 523.97,-48.19"/>
<polygon fill="#94a3b8" stroke="#94a3b8" points="523.92,-51.69 533.99,-48.41 524.07,-44.69 523.92,-51.69"/>
</g>
<!-- n1&#45;&gt;n2 -->
<g id="edge3" class="edge">
<title>n1&#45;&gt;n2</title>
<path fill="none" stroke="#2563eb" stroke-width="2" d="M498.11,-61.16C506.93,-61.09 515.61,-60.97 523.97,-60.81"/>
<polygon fill="#2563eb" stroke="#2563eb" stroke-width="2" points="524.07,-64.31 533.99,-60.59 523.92,-57.31 524.07,-64.31"/>
</g>
<!-- done -->
<g id="node4" class="node">
<title>done</title>
<path fill="#bbf7d0" stroke="black" d="M847,-72.5C847,-72.5 722,-72.5 722,-72.5 716,-72.5 710,-66.5 710,-60.5 710,-60.5 710,-48.5 710,-48.5 710,-42.5 716,-36.5 722,-36.5 722,-36.5 847,-36.5 847,-36.5 853,-36.5 859,-42.5 859,-48.5 859,-48.5 859,-60.5 859,-60.5 859,-66.5 853,-72.5 847,-72.5"/>
<text text-anchor="middle" x="784.5" y="-50.8" font-family="monospace" font-size="14.00">QUIESCENT / PASS</text>
</g>
<!-- n2&#45;&gt;done -->
<g id="edge5" class="edge">
<title>n2&#45;&gt;done</title>
<path fill="none" stroke="#16a34a" stroke-width="2" d="M674.01,-54.5C682.47,-54.5 691.19,-54.5 699.84,-54.5"/>
<polygon fill="#16a34a" stroke="#16a34a" stroke-width="2" points="699.94,-58 709.94,-54.5 699.94,-51 699.94,-58"/>
</g>
</g>
</svg>
