<?xml version="1.0" encoding="UTF-8" standalone="no"?>
<!DOCTYPE svg PUBLIC "-//W3C//DTD SVG 1.1//EN"
 "http://www.w3.org/Graphics/SVG/1.1/DTD/svg11.dtd">
<!-- Generated by graphviz version 2.43.0 (0)
 -->
<!-- Title: protocol_execution Pages: 1 -->
<svg width="735pt" height="225pt"
 viewBox="0.00 0.00 735.00 225.00" xmlns="http://www.w3.org/2000/svg" xmlns:xlink="http://www.w3.org/1999/xlink">
<g id="graph0" class="graph" transform="scale(1 1) rotate(0) translate(4 221)">
<title>protocol_execution</title>
<polygon fill="white" stroke="transparent" points="-4,4 -4,-221 731,-221 731,4 -4,4"/>
<text text-anchor="middle" x="363.5" y="-201.8" font-family="Times,serif" font-size="14.00">AXI4 read interleaving causal chain</text>
<!-- e0 -->
<g id="node1" class="node">
<title>e0</title>
<polygon fill="lightgreen" stroke="black" points="351,-194 0,-194 0,-156 351,-156 351,-194"/>
<text text-anchor="middle" x="175.5" y="-178.8" font-family="monospace" font-size="14.00">[0] AR id=1</text>
<text text-anchor="middle" x="175.5" y="-163.8" font-family="monospace" font-size="14.00">addr=0x00..00 &#39;32 len=1 size=2 burst=INCR</text>
</g>
<!-- e3 -->
<g id="node4" class="node">
<title>e3</title>
<polygon fill="lightgreen" stroke="black" points="293,-116 58,-116 58,-78 293,-78 293,-116"/>
<text text-anchor="middle" x="175.5" y="-100.8" font-family="monospace" font-size="14.00">[3] R id=1</text>
<text text-anchor="middle" x="175.5" y="-85.8" font-family="monospace" font-size="14.00">data=0x00..00 &#39;64 resp=OKAY</text>
</g>
<!-- e0&#45;&gt;e3 -->
<g id="edge1" class="edge">
<title>e0&#45;&gt;e3</title>
<path fill="none" stroke="black" d="M175.5,-155.99C175.5,-147.16 175.5,-136.31 175.5,-126.4"/>
<polygon fill="black" stroke="black" points="179,-126.15 175.5,-116.15 172,-126.15 179,-126.15"/>
</g>
<!-- e1 -->
<g id="node2" class="node">
<title>e1</title>
<polygon fill="lightgreen" stroke="black" points="727,-194 376,-194 376,-156 727,-156 727,-194"/>
<text text-anchor="middle" x="551.5" y="-178.8" font-family="monospace" font-size="14.00">[1] AR id=2</text>
<text text-anchor="middle" x="551.5" y="-163.8" font-family="monospace" font-size="14.00">addr=0x00..00 &#39;32 len=1 size=2 burst=INCR</text>
</g>
<!-- e2 -->
<g id="node3" class="node">
<title>e2</title>
<polygon fill="lightgreen" stroke="black" points="669,-116 434,-116 434,-78 669,-78 669,-116"/>
<text text-anchor="middle" x="551.5" y="-100.8" font-family="monospace" font-size="14.00">[2] R id=2</text>
<text text-anchor="middle" x="551.5" y="-85.8" font-family="monospace" font-size="14.00">data=0x00..00 &#39;64 resp=OKAY</text>
</g>
<!-- e1&#45;&gt;e2 -->
<g id="edge2" class="edge">
<title>e1&#45;&gt;e2</title>
<path fill="none" stroke="black" d="M551.5,-155.99C551.5,-147.16 551.5,-136.31 551.5,-126.4"/>
<polygon fill="black" stroke="black" points="555,-126.15 551.5,-116.15 548,-126.15 555,-126.15"/>
</g>
<!-- e4 -->
<g id="node5" class="node">
<title>e4</title>
<polygon fill="lightgreen" stroke="black" points="690,-38 413,-38 413,0 690,0 690,-38"/>
<text text-anchor="middle" x="551.5" y="-22.8" font-family="monospace" font-size="14.00">[4] R id=2</text>
<text text-anchor="middle" x="551.5" y="-7.8" font-family="monospace" font-size="14.00">data=0x00..01 &#39;64 resp=OKAY LAST</text>
</g>
<!-- e2&#45;&gt;e4 -->
<g id="edge3" class="edge">
<title>e2&#45;&gt;e4</title>
<path fill="none" stroke="black" d="M551.5,-77.99C551.5,-69.16 551.5,-58.31 551.5,-48.4"/>
<polygon fill="black" stroke="black" points="555,-48.15 551.5,-38.15 548,-48.15 555,-48.15"/>
</g>
<!-- e5 -->
<g id="node6" class="node">
<title>e5</title>
<polygon fill="lightgreen" stroke="black" points="314,-38 37,-38 37,0 314,0 314,-38"/>
<text text-anchor="middle" x="175.5" y="-22.8" font-family="monospace" font-size="14.00">[5] R id=1</text>
<text text-anchor="middle" x="175.5" y="-7.8" font-family="monospace" font-size="14.00">data=0x00..01 &#39;64 resp=OKAY LAST</text>
</g>
<!-- e3&#45;&gt;e5 -->
<g id="edge4" class="edge">
<title>e3&#45;&gt;e5</title>
<path fill="none" stroke="black" d="M175.5,-77.99C175.5,-69.16 175.5,-58.31 175.5,-48.4"/>
<polygon fill="black" stroke="black" points="179,-48.15 175.5,-38.15 172,-48.15 179,-48.15"/>
</g>
</g>
</svg>
