<?xml version="1.0" encoding="UTF-8" standalone="no"?>
<!DOCTYPE svg PUBLIC "-//W3C//DTD SVG 1.1//EN"
 "http://www.w3.org/Graphics/SVG/1.1/DTD/svg11.dtd">
<!-- Generated by graphviz version 2.43.0 (0)
 -->
<!-- Title: axi_scenario Pages: 1 -->
<svg width="665pt" height="205pt"
 viewBox="0.00 0.00 664.68 205.13" xmlns="http://www.w3.org/2000/svg" xmlns:xlink="http://www.w3.org/1999/xlink">
<g id="graph0" class="graph" transform="scale(1 1) rotate(0) translate(4 201.13)">
<title>axi_scenario</title>
<polygon fill="white" stroke="transparent" points="-4,4 -4,-201.13 660.68,-201.13 660.68,4 -4,4"/>
<text text-anchor="middle" x="328.34" y="-181.93" font-family="Times,serif" font-size="14.00">read_wrap_3_rejected</text>
<!-- n0 -->
<g id="node1" class="node">
<title>n0</title>
<path fill="#fef3c7" stroke="black" d="M464.84,-174.13C464.84,-174.13 191.84,-174.13 191.84,-174.13 185.84,-174.13 179.84,-168.13 179.84,-162.13 179.84,-162.13 179.84,-133.13 179.84,-133.13 179.84,-127.13 185.84,-121.13 191.84,-121.13 191.84,-121.13 464.84,-121.13 464.84,-121.13 470.84,-121.13 476.84,-127.13 476.84,-133.13 476.84,-133.13 476.84,-162.13 476.84,-162.13 476.84,-168.13 470.84,-174.13 464.84,-174.13"/>
<text text-anchor="middle" x="328.34" y="-158.93" font-family="monospace" font-size="14.00">cycle 1 AR</text>
<text text-anchor="middle" x="328.34" y="-143.93" font-family="monospace" font-size="14.00">AR_TRANSFER id=1</text>
<text text-anchor="middle" x="328.34" y="-128.93" font-family="monospace" font-size="14.00">addr=24576 len=2 size=3 burst=WRAP</text>
</g>
<!-- fault -->
<g id="node2" class="node">
<title>fault</title>
<path fill="#fecaca" stroke="black" d="M656.53,-34.95C656.53,-34.95 656.53,-46.17 656.53,-46.17 656.53,-51.78 650.96,-58.08 645.39,-58.77 645.39,-58.77 475.42,-79.82 475.42,-79.82 469.85,-80.5 458.67,-81.19 453.06,-81.19 453.06,-81.19 203.62,-81.19 203.62,-81.19 198.01,-81.19 186.84,-80.5 181.27,-79.82 181.27,-79.82 11.29,-58.77 11.29,-58.77 5.72,-58.08 0.16,-51.78 0.16,-46.17 0.16,-46.17 0.16,-34.95 0.16,-34.95 0.16,-29.35 5.72,-23.05 11.29,-22.36 11.29,-22.36 181.27,-1.31 181.27,-1.31 186.84,-0.62 198.01,0.06 203.62,0.06 203.62,0.06 453.06,0.06 453.06,0.06 458.67,0.06 469.85,-0.62 475.42,-1.31 475.42,-1.31 645.39,-22.36 645.39,-22.36 650.96,-23.05 656.53,-29.35 656.53,-34.95"/>
<text text-anchor="middle" x="328.34" y="-51.86" font-family="monospace" font-size="14.00">FAULT</text>
<text text-anchor="middle" x="328.34" y="-36.86" font-family="monospace" font-size="14.00">AR.ready_valid.event_space</text>
<text text-anchor="middle" x="328.34" y="-21.86" font-family="monospace" font-size="14.00">WRAP burst length must be 2, 4, 8, or 16 transfers</text>
</g>
<!-- n0&#45;&gt;fault -->
<g id="edge1" class="edge">
<title>n0&#45;&gt;fault</title>
<path fill="none" stroke="#dc2626" stroke-width="2" d="M328.34,-120.93C328.34,-112 328.34,-101.65 328.34,-91.44"/>
<polygon fill="#dc2626" stroke="#dc2626" stroke-width="2" points="331.84,-91.33 328.34,-81.33 324.84,-91.33 331.84,-91.33"/>
</g>
</g>
</svg>
