<?xml version="1.0" encoding="UTF-8" standalone="no"?>
<!DOCTYPE svg PUBLIC "-//W3C//DTD SVG 1.1//EN"
 "http://www.w3.org/Graphics/SVG/1.1/DTD/svg11.dtd">
<!-- Generated by graphviz version 2.43.0 (0)
 -->
<!-- Title: axi4_case Pages: 1 -->
<svg width="1207pt" height="88pt"
 viewBox="0.00 0.00 1206.80 87.80" xmlns="http://www.w3.org/2000/svg" xmlns:xlink="http://www.w3.org/1999/xlink">
<g id="graph0" class="graph" transform="scale(1 1) rotate(0) translate(14.4 73.4)">
<title>axi4_case</title>
<polygon fill="white" stroke="transparent" points="-14.4,14.4 -14.4,-73.4 1192.4,-73.4 1192.4,14.4 -14.4,14.4"/>
<text text-anchor="middle" x="589" y="-43.8" font-family="Times,serif" font-size="14.00">A four&#45;transfer WRAP burst rotates inside its wrap window / 四拍 WRAP burst 在自身窗口内回绕</text>
<!-- event0 -->
<g id="node1" class="node">
<title>event0</title>
<path fill="#eef5ff" stroke="#3169a8" d="M166,-36C166,-36 12,-36 12,-36 6,-36 0,-30 0,-24 0,-24 0,-12 0,-12 0,-6 6,0 12,0 12,0 166,0 166,0 172,0 178,-6 178,-12 178,-12 178,-24 178,-24 178,-30 172,-36 166,-36"/>
<text text-anchor="middle" x="89" y="-15.5" font-family="sans-serif" font-size="10.00">[0] ID8 A=0x2c N=4 S=4B WRAP</text>
</g>
<!-- event1 -->
<g id="node2" class="node">
<title>event1</title>
<path fill="#eef5ff" stroke="#3169a8" d="M416,-36C416,-36 296,-36 296,-36 290,-36 284,-30 284,-24 284,-24 284,-12 284,-12 284,-6 290,0 296,0 296,0 416,0 416,0 422,0 428,-6 428,-12 428,-12 428,-24 428,-24 428,-30 422,-36 416,-36"/>
<text text-anchor="middle" x="356" y="-15.5" font-family="sans-serif" font-size="10.00">[1] ID8 D=0x81 OKAY L=0</text>
</g>
<!-- event0&#45;&gt;event1 -->
<g id="edge1" class="edge">
<title>event0&#45;&gt;event1</title>
<path fill="none" stroke="#3169a8" d="M178.24,-18C209.08,-18 243.54,-18 273.78,-18"/>
<polygon fill="#3169a8" stroke="#3169a8" points="273.87,-21.5 283.87,-18 273.87,-14.5 273.87,-21.5"/>
<text text-anchor="middle" x="231" y="-20.8" font-family="sans-serif" font-size="9.00">causes / 因果</text>
</g>
<!-- event2 -->
<g id="node3" class="node">
<title>event2</title>
<path fill="#eef5ff" stroke="#3169a8" d="M666,-36C666,-36 546,-36 546,-36 540,-36 534,-30 534,-24 534,-24 534,-12 534,-12 534,-6 540,0 546,0 546,0 666,0 666,0 672,0 678,-6 678,-12 678,-12 678,-24 678,-24 678,-30 672,-36 666,-36"/>
<text text-anchor="middle" x="606" y="-15.5" font-family="sans-serif" font-size="10.00">[2] ID8 D=0x82 OKAY L=0</text>
</g>
<!-- event1&#45;&gt;event2 -->
<g id="edge2" class="edge">
<title>event1&#45;&gt;event2</title>
<path fill="none" stroke="#3169a8" d="M428.07,-18C457.9,-18 492.77,-18 523.62,-18"/>
<polygon fill="#3169a8" stroke="#3169a8" points="523.92,-21.5 533.92,-18 523.92,-14.5 523.92,-21.5"/>
<text text-anchor="middle" x="481" y="-20.8" font-family="sans-serif" font-size="9.00">causes / 因果</text>
</g>
<!-- event3 -->
<g id="node4" class="node">
<title>event3</title>
<path fill="#eef5ff" stroke="#3169a8" d="M916,-36C916,-36 796,-36 796,-36 790,-36 784,-30 784,-24 784,-24 784,-12 784,-12 784,-6 790,0 796,0 796,0 916,0 916,0 922,0 928,-6 928,-12 928,-12 928,-24 928,-24 928,-30 922,-36 916,-36"/>
<text text-anchor="middle" x="856" y="-15.5" font-family="sans-serif" font-size="10.00">[3] ID8 D=0x83 OKAY L=0</text>
</g>
<!-- event2&#45;&gt;event3 -->
<g id="edge3" class="edge">
<title>event2&#45;&gt;event3</title>
<path fill="none" stroke="#3169a8" d="M678.07,-18C707.9,-18 742.77,-18 773.62,-18"/>
<polygon fill="#3169a8" stroke="#3169a8" points="773.92,-21.5 783.92,-18 773.92,-14.5 773.92,-21.5"/>
<text text-anchor="middle" x="731" y="-20.8" font-family="sans-serif" font-size="9.00">causes / 因果</text>
</g>
<!-- event4 -->
<g id="node5" class="node">
<title>event4</title>
<path fill="#eef5ff" stroke="#3169a8" d="M1166,-36C1166,-36 1046,-36 1046,-36 1040,-36 1034,-30 1034,-24 1034,-24 1034,-12 1034,-12 1034,-6 1040,0 1046,0 1046,0 1166,0 1166,0 1172,0 1178,-6 1178,-12 1178,-12 1178,-24 1178,-24 1178,-30 1172,-36 1166,-36"/>
<text text-anchor="middle" x="1106" y="-15.5" font-family="sans-serif" font-size="10.00">[4] ID8 D=0x84 OKAY L=1</text>
</g>
<!-- event3&#45;&gt;event4 -->
<g id="edge4" class="edge">
<title>event3&#45;&gt;event4</title>
<path fill="none" stroke="#3169a8" d="M928.07,-18C957.9,-18 992.77,-18 1023.62,-18"/>
<polygon fill="#3169a8" stroke="#3169a8" points="1023.92,-21.5 1033.92,-18 1023.92,-14.5 1023.92,-21.5"/>
<text text-anchor="middle" x="981" y="-20.8" font-family="sans-serif" font-size="9.00">causes / 因果</text>
</g>
</g>
</svg>
