<?xml version="1.0" encoding="UTF-8" standalone="no"?>
<!DOCTYPE svg PUBLIC "-//W3C//DTD SVG 1.1//EN"
 "http://www.w3.org/Graphics/SVG/1.1/DTD/svg11.dtd">
<!-- Generated by graphviz version 2.43.0 (0)
 -->
<!-- Title: axi_scenario Pages: 1 -->
<svg width="1069pt" height="205pt"
 viewBox="0.00 0.00 1068.97 205.13" xmlns="http://www.w3.org/2000/svg" xmlns:xlink="http://www.w3.org/1999/xlink">
<g id="graph0" class="graph" transform="scale(1 1) rotate(0) translate(4 201.13)">
<title>axi_scenario</title>
<polygon fill="white" stroke="transparent" points="-4,4 -4,-201.13 1064.97,-201.13 1064.97,4 -4,4"/>
<text text-anchor="middle" x="530.48" y="-181.93" font-family="Times,serif" font-size="14.00">write_burst_fifo_mismatch</text>
<!-- n0 -->
<g id="node1" class="node">
<title>n0</title>
<path fill="#fef3c7" stroke="black" d="M285,-174.13C285,-174.13 12,-174.13 12,-174.13 6,-174.13 0,-168.13 0,-162.13 0,-162.13 0,-133.13 0,-133.13 0,-127.13 6,-121.13 12,-121.13 12,-121.13 285,-121.13 285,-121.13 291,-121.13 297,-127.13 297,-133.13 297,-133.13 297,-162.13 297,-162.13 297,-168.13 291,-174.13 285,-174.13"/>
<text text-anchor="middle" x="148.5" y="-158.93" font-family="monospace" font-size="14.00">cycle 1 AW</text>
<text text-anchor="middle" x="148.5" y="-143.93" font-family="monospace" font-size="14.00">AW_TRANSFER id=1</text>
<text text-anchor="middle" x="148.5" y="-128.93" font-family="monospace" font-size="14.00">addr=33536 len=1 size=3 burst=INCR</text>
</g>
<!-- n1 -->
<g id="node2" class="node">
<title>n1</title>
<path fill="#fef3c7" stroke="black" d="M607,-174.13C607,-174.13 334,-174.13 334,-174.13 328,-174.13 322,-168.13 322,-162.13 322,-162.13 322,-133.13 322,-133.13 322,-127.13 328,-121.13 334,-121.13 334,-121.13 607,-121.13 607,-121.13 613,-121.13 619,-127.13 619,-133.13 619,-133.13 619,-162.13 619,-162.13 619,-168.13 613,-174.13 607,-174.13"/>
<text text-anchor="middle" x="470.5" y="-158.93" font-family="monospace" font-size="14.00">cycle 2 AW</text>
<text text-anchor="middle" x="470.5" y="-143.93" font-family="monospace" font-size="14.00">AW_TRANSFER id=2</text>
<text text-anchor="middle" x="470.5" y="-128.93" font-family="monospace" font-size="14.00">addr=33280 len=0 size=3 burst=INCR</text>
</g>
<!-- n0&#45;&gt;n1 -->
<g id="edge1" class="edge">
<title>n0&#45;&gt;n1</title>
<path fill="none" stroke="#94a3b8" d="M255.76,-121.15C255.81,-121.14 255.83,-121.13 255.83,-121.13 255.83,-121.13 326.01,-121.13 352.92,-121.14"/>
<polygon fill="#94a3b8" stroke="#94a3b8" points="353.24,-124.64 363.24,-121.15 353.25,-117.64 353.24,-124.64"/>
</g>
<!-- n0&#45;&gt;n1 -->
<!-- n2 -->
<g id="node3" class="node">
<title>n2</title>
<path fill="#fef3c7" stroke="black" d="M797,-174.13C797,-174.13 656,-174.13 656,-174.13 650,-174.13 644,-168.13 644,-162.13 644,-162.13 644,-133.13 644,-133.13 644,-127.13 650,-121.13 656,-121.13 656,-121.13 797,-121.13 797,-121.13 803,-121.13 809,-127.13 809,-133.13 809,-133.13 809,-162.13 809,-162.13 809,-168.13 803,-174.13 797,-174.13"/>
<text text-anchor="middle" x="726.5" y="-158.93" font-family="monospace" font-size="14.00">cycle 3 W</text>
<text text-anchor="middle" x="726.5" y="-143.93" font-family="monospace" font-size="14.00">W_TRANSFER id=None</text>
<text text-anchor="middle" x="726.5" y="-128.93" font-family="monospace" font-size="14.00">last=True</text>
</g>
<!-- n1&#45;&gt;n2 -->
<g id="edge2" class="edge">
<title>n1&#45;&gt;n2</title>
<path fill="none" stroke="#94a3b8" d="M555.77,-121.15C555.81,-121.14 555.83,-121.13 555.83,-121.13 555.83,-121.13 610.55,-121.13 633.62,-121.52"/>
<polygon fill="#94a3b8" stroke="#94a3b8" points="633.51,-125.02 643.63,-121.89 633.77,-118.02 633.51,-125.02"/>
</g>
<!-- n1&#45;&gt;n2 -->
<!-- fault -->
<g id="node4" class="node">
<title>fault</title>
<path fill="#fecaca" stroke="black" d="M1060.93,-34.95C1060.93,-34.95 1060.93,-46.17 1060.93,-46.17 1060.93,-51.78 1055.36,-58.07 1049.79,-58.75 1049.79,-58.75 876.16,-79.84 876.16,-79.84 870.59,-80.52 859.42,-81.19 853.81,-81.19 853.81,-81.19 599.19,-81.19 599.19,-81.19 593.58,-81.19 582.41,-80.52 576.84,-79.84 576.84,-79.84 403.21,-58.75 403.21,-58.75 397.64,-58.07 392.07,-51.78 392.07,-46.17 392.07,-46.17 392.07,-34.95 392.07,-34.95 392.07,-29.35 397.64,-23.06 403.21,-22.38 403.21,-22.38 576.84,-1.29 576.84,-1.29 582.41,-0.61 593.58,0.06 599.19,0.06 599.19,0.06 853.81,0.06 853.81,0.06 859.42,0.06 870.59,-0.61 876.16,-1.29 876.16,-1.29 1049.79,-22.38 1049.79,-22.38 1055.36,-23.06 1060.93,-29.35 1060.93,-34.95"/>
<text text-anchor="middle" x="726.5" y="-51.86" font-family="monospace" font-size="14.00">FAULT</text>
<text text-anchor="middle" x="726.5" y="-36.86" font-family="monospace" font-size="14.00">axi4.write.beat_count</text>
<text text-anchor="middle" x="726.5" y="-21.86" font-family="monospace" font-size="14.00">descriptor 0 for key 1 requires 2 data beats, got 1</text>
</g>
<!-- n2&#45;&gt;fault -->
<g id="edge5" class="edge">
<title>n2&#45;&gt;fault</title>
<path fill="none" stroke="#dc2626" stroke-width="2" d="M726.5,-120.93C726.5,-112 726.5,-101.65 726.5,-91.44"/>
<polygon fill="#dc2626" stroke="#dc2626" stroke-width="2" points="730,-91.33 726.5,-81.33 723,-91.33 730,-91.33"/>
</g>
</g>
</svg>
