<?xml version="1.0" encoding="UTF-8" standalone="no"?>
<!DOCTYPE svg PUBLIC "-//W3C//DTD SVG 1.1//EN"
 "http://www.w3.org/Graphics/SVG/1.1/DTD/svg11.dtd">
<!-- Generated by graphviz version 2.43.0 (0)
 -->
<!-- Title: axi4_case Pages: 1 -->
<svg width="681pt" height="153pt"
 viewBox="0.00 0.00 680.80 152.80" xmlns="http://www.w3.org/2000/svg" xmlns:xlink="http://www.w3.org/1999/xlink">
<g id="graph0" class="graph" transform="scale(1 1) rotate(0) translate(14.4 138.4)">
<title>axi4_case</title>
<polygon fill="white" stroke="transparent" points="-14.4,14.4 -14.4,-138.4 666.4,-138.4 666.4,14.4 -14.4,14.4"/>
<text text-anchor="middle" x="326" y="-108.8" font-family="Times,serif" font-size="14.00">A complete W burst may precede its AW descriptor / 完整 W burst 可以先于 AW 描述符到达</text>
<!-- event0 -->
<g id="node1" class="node">
<title>event0</title>
<path fill="#eef5ff" stroke="#3169a8" d="M285.5,-101C285.5,-101 181.5,-101 181.5,-101 175.5,-101 169.5,-95 169.5,-89 169.5,-89 169.5,-77 169.5,-77 169.5,-71 175.5,-65 181.5,-65 181.5,-65 285.5,-65 285.5,-65 291.5,-65 297.5,-71 297.5,-77 297.5,-77 297.5,-89 297.5,-89 297.5,-95 291.5,-101 285.5,-101"/>
<text text-anchor="middle" x="233.5" y="-80.5" font-family="sans-serif" font-size="10.00">[0] D=0x55 S=0xf L=1</text>
</g>
<!-- event2 -->
<g id="node3" class="node">
<title>event2</title>
<path fill="#eef5ff" stroke="#3169a8" d="M496,-68C496,-68 441,-68 441,-68 435,-68 429,-62 429,-56 429,-56 429,-44 429,-44 429,-38 435,-32 441,-32 441,-32 496,-32 496,-32 502,-32 508,-38 508,-44 508,-44 508,-56 508,-56 508,-62 502,-68 496,-68"/>
<text text-anchor="middle" x="468.5" y="-47.5" font-family="sans-serif" font-size="10.00">[2] ID3 OKAY</text>
</g>
<!-- event0&#45;&gt;event2 -->
<g id="edge2" class="edge">
<title>event0&#45;&gt;event2</title>
<path fill="none" stroke="#3169a8" d="M297.55,-74.07C335.7,-68.67 383.61,-61.88 418.83,-56.89"/>
<polygon fill="#3169a8" stroke="#3169a8" points="419.46,-60.34 428.87,-55.47 418.48,-53.41 419.46,-60.34"/>
<text text-anchor="middle" x="376" y="-68.8" font-family="sans-serif" font-size="9.00">causes / 因果</text>
</g>
<!-- event1 -->
<g id="node2" class="node">
<title>event1</title>
<path fill="#eef5ff" stroke="#3169a8" d="M311,-36C311,-36 156,-36 156,-36 150,-36 144,-30 144,-24 144,-24 144,-12 144,-12 144,-6 150,0 156,0 156,0 311,0 311,0 317,0 323,-6 323,-12 323,-12 323,-24 323,-24 323,-30 317,-36 311,-36"/>
<text text-anchor="middle" x="233.5" y="-15.5" font-family="sans-serif" font-size="10.00">[1] ID3 A=0x208 N=1 S=4B INCR</text>
</g>
<!-- event1&#45;&gt;event2 -->
<g id="edge1" class="edge">
<title>event1&#45;&gt;event2</title>
<path fill="none" stroke="#3169a8" d="M323.25,-27.89C364.67,-32.51 405,-37 405,-37 405,-37 410.87,-38.22 419.02,-39.92"/>
<polygon fill="#3169a8" stroke="#3169a8" points="418.48,-43.38 428.99,-41.99 419.91,-36.53 418.48,-43.38"/>
<text text-anchor="middle" x="376" y="-39.8" font-family="sans-serif" font-size="9.00">causes / 因果</text>
</g>
</g>
</svg>
