<?xml version="1.0" encoding="UTF-8" standalone="no"?>
<!DOCTYPE svg PUBLIC "-//W3C//DTD SVG 1.1//EN"
 "http://www.w3.org/Graphics/SVG/1.1/DTD/svg11.dtd">
<!-- Generated by graphviz version 2.43.0 (0)
 -->
<!-- Title: virtual_dut_structure Pages: 1 -->
<svg width="1810pt" height="278pt"
 viewBox="0.00 0.00 1810.00 278.00" xmlns="http://www.w3.org/2000/svg" xmlns:xlink="http://www.w3.org/1999/xlink">
<g id="graph0" class="graph" transform="scale(1 1) rotate(0) translate(18 260)">
<title>virtual_dut_structure</title>
<polygon fill="white" stroke="transparent" points="-18,18 -18,-260 1792,-260 1792,18 -18,18"/>
<text text-anchor="middle" x="887" y="-226.8" font-family="Times,serif" font-size="14.00">fabric · VirtualDut · constructed</text>
<g id="clust1" class="cluster">
<title>cluster_virtual_dut</title>
<path fill="white" stroke="#64748b" stroke-width="1.4" d="M20,-8C20,-8 1754,-8 1754,-8 1760,-8 1766,-14 1766,-20 1766,-20 1766,-199 1766,-199 1766,-205 1760,-211 1754,-211 1754,-211 20,-211 20,-211 14,-211 8,-205 8,-199 8,-199 8,-20 8,-20 8,-14 14,-8 20,-8"/>
<text text-anchor="middle" x="887" y="-195.8" font-family="Times,serif" font-size="14.00">VirtualDut boundary</text>
</g>
<!-- component_0 -->
<g id="node1" class="node">
<title>component_0</title>
<g id="a_node1"><a xlink:title="upstream&#10;interface port&#10;interface: axi4_lite · subordinate">
<path fill="#dbeafe" stroke="#2563eb" stroke-width="1.5" d="M179,-118.5C179,-118.5 28,-118.5 28,-118.5 22,-118.5 16,-112.5 16,-106.5 16,-106.5 16,-89.5 16,-89.5 16,-83.5 22,-77.5 28,-77.5 28,-77.5 179,-77.5 179,-77.5 185,-77.5 191,-83.5 191,-89.5 191,-89.5 191,-106.5 191,-106.5 191,-112.5 185,-118.5 179,-118.5"/>
<text text-anchor="middle" x="103.5" y="-106.5" font-family="sans-serif" font-size="10.00">upstream</text>
<text text-anchor="middle" x="103.5" y="-95.5" font-family="sans-serif" font-size="10.00">interface port</text>
<text text-anchor="middle" x="103.5" y="-84.5" font-family="sans-serif" font-size="10.00">interface: axi4_lite · subordinate</text>
</a>
</g>
</g>
<!-- component_4 -->
<g id="node5" class="node">
<title>component_4</title>
<g id="a_node5"><a xlink:title="address completer&#10;attachment&#10;binding: axi4_lite · subordinate">
<path fill="#e0f2fe" stroke="#0284c7" d="M427,-118.5C427,-118.5 284,-118.5 284,-118.5 278,-118.5 272,-112.5 272,-106.5 272,-106.5 272,-89.5 272,-89.5 272,-83.5 278,-77.5 284,-77.5 284,-77.5 427,-77.5 427,-77.5 433,-77.5 439,-83.5 439,-89.5 439,-89.5 439,-106.5 439,-106.5 439,-112.5 433,-118.5 427,-118.5"/>
<text text-anchor="middle" x="355.5" y="-106.5" font-family="sans-serif" font-size="10.00">address completer</text>
<text text-anchor="middle" x="355.5" y="-95.5" font-family="sans-serif" font-size="10.00">attachment</text>
<text text-anchor="middle" x="355.5" y="-84.5" font-family="sans-serif" font-size="10.00">binding: axi4_lite · subordinate</text>
</a>
</g>
</g>
<!-- component_0&#45;&gt;component_4 -->
<g id="edge1" class="edge">
<title>component_0&#45;&gt;component_4</title>
<path fill="none" stroke="#475569" d="M191.24,-98C213.96,-98 238.56,-98 261.59,-98"/>
<polygon fill="#475569" stroke="#475569" points="261.71,-101.5 271.71,-98 261.71,-94.5 261.71,-101.5"/>
<text text-anchor="middle" x="231.5" y="-100.8" font-family="sans-serif" font-size="9.00">request</text>
</g>
<!-- component_1 -->
<g id="node2" class="node">
<title>component_1</title>
<g id="a_node2"><a xlink:title="control&#10;interface port&#10;interface: axi4_lite · manager">
<path fill="#dbeafe" stroke="#2563eb" stroke-width="1.5" d="M1746,-57.5C1746,-57.5 1609,-57.5 1609,-57.5 1603,-57.5 1597,-51.5 1597,-45.5 1597,-45.5 1597,-28.5 1597,-28.5 1597,-22.5 1603,-16.5 1609,-16.5 1609,-16.5 1746,-16.5 1746,-16.5 1752,-16.5 1758,-22.5 1758,-28.5 1758,-28.5 1758,-45.5 1758,-45.5 1758,-51.5 1752,-57.5 1746,-57.5"/>
<text text-anchor="middle" x="1677.5" y="-45.5" font-family="sans-serif" font-size="10.00">control</text>
<text text-anchor="middle" x="1677.5" y="-34.5" font-family="sans-serif" font-size="10.00">interface port</text>
<text text-anchor="middle" x="1677.5" y="-23.5" font-family="sans-serif" font-size="10.00">interface: axi4_lite · manager</text>
</a>
</g>
</g>
<!-- component_2 -->
<g id="node3" class="node">
<title>component_2</title>
<g id="a_node3"><a xlink:title="status&#10;interface port&#10;interface: axi4_lite · manager">
<path fill="#dbeafe" stroke="#2563eb" stroke-width="1.5" d="M1746,-118.5C1746,-118.5 1609,-118.5 1609,-118.5 1603,-118.5 1597,-112.5 1597,-106.5 1597,-106.5 1597,-89.5 1597,-89.5 1597,-83.5 1603,-77.5 1609,-77.5 1609,-77.5 1746,-77.5 1746,-77.5 1752,-77.5 1758,-83.5 1758,-89.5 1758,-89.5 1758,-106.5 1758,-106.5 1758,-112.5 1752,-118.5 1746,-118.5"/>
<text text-anchor="middle" x="1677.5" y="-106.5" font-family="sans-serif" font-size="10.00">status</text>
<text text-anchor="middle" x="1677.5" y="-95.5" font-family="sans-serif" font-size="10.00">interface port</text>
<text text-anchor="middle" x="1677.5" y="-84.5" font-family="sans-serif" font-size="10.00">interface: axi4_lite · manager</text>
</a>
</g>
</g>
<!-- component_3 -->
<g id="node4" class="node">
<title>component_3</title>
<g id="a_node4"><a xlink:title="memory&#10;interface port&#10;interface: axi4_lite · manager">
<path fill="#dbeafe" stroke="#2563eb" stroke-width="1.5" d="M1746,-179.5C1746,-179.5 1609,-179.5 1609,-179.5 1603,-179.5 1597,-173.5 1597,-167.5 1597,-167.5 1597,-150.5 1597,-150.5 1597,-144.5 1603,-138.5 1609,-138.5 1609,-138.5 1746,-138.5 1746,-138.5 1752,-138.5 1758,-144.5 1758,-150.5 1758,-150.5 1758,-167.5 1758,-167.5 1758,-173.5 1752,-179.5 1746,-179.5"/>
<text text-anchor="middle" x="1677.5" y="-167.5" font-family="sans-serif" font-size="10.00">memory</text>
<text text-anchor="middle" x="1677.5" y="-156.5" font-family="sans-serif" font-size="10.00">interface port</text>
<text text-anchor="middle" x="1677.5" y="-145.5" font-family="sans-serif" font-size="10.00">interface: axi4_lite · manager</text>
</a>
</g>
</g>
<!-- component_8 -->
<g id="node9" class="node">
<title>component_8</title>
<g id="a_node9"><a xlink:title="address decoder / remap&#10;routes: 0x1000+0x4→control, 0x2000+0x4→status, 0x4000+0x100→memory">
<path fill="#fce7f3" stroke="#db2777" d="M940,-116C940,-116 570,-116 570,-116 564,-116 558,-110 558,-104 558,-104 558,-92 558,-92 558,-86 564,-80 570,-80 570,-80 940,-80 940,-80 946,-80 952,-86 952,-92 952,-92 952,-104 952,-104 952,-110 946,-116 940,-116"/>
<text text-anchor="middle" x="755" y="-101" font-family="sans-serif" font-size="10.00">address decoder / remap</text>
<text text-anchor="middle" x="755" y="-90" font-family="sans-serif" font-size="10.00">routes: 0x1000+0x4→control, 0x2000+0x4→status, 0x4000+0x100→memory</text>
</a>
</g>
</g>
<!-- component_4&#45;&gt;component_8 -->
<g id="edge5" class="edge">
<title>component_4&#45;&gt;component_8</title>
<path fill="none" stroke="#475569" d="M439.35,-98C471.2,-98 509.15,-98 547.5,-98"/>
<polygon fill="#475569" stroke="#475569" points="547.78,-101.5 557.78,-98 547.78,-94.5 547.78,-101.5"/>
<text text-anchor="middle" x="498.5" y="-100.8" font-family="sans-serif" font-size="9.00">decoded access</text>
</g>
<!-- component_5 -->
<g id="node6" class="node">
<title>component_5</title>
<g id="a_node6"><a xlink:title="address requester&#10;attachment&#10;binding: axi4_lite · manager">
<path fill="#e0f2fe" stroke="#0284c7" d="M1504,-57.5C1504,-57.5 1375,-57.5 1375,-57.5 1369,-57.5 1363,-51.5 1363,-45.5 1363,-45.5 1363,-28.5 1363,-28.5 1363,-22.5 1369,-16.5 1375,-16.5 1375,-16.5 1504,-16.5 1504,-16.5 1510,-16.5 1516,-22.5 1516,-28.5 1516,-28.5 1516,-45.5 1516,-45.5 1516,-51.5 1510,-57.5 1504,-57.5"/>
<text text-anchor="middle" x="1439.5" y="-45.5" font-family="sans-serif" font-size="10.00">address requester</text>
<text text-anchor="middle" x="1439.5" y="-34.5" font-family="sans-serif" font-size="10.00">attachment</text>
<text text-anchor="middle" x="1439.5" y="-23.5" font-family="sans-serif" font-size="10.00">binding: axi4_lite · manager</text>
</a>
</g>
</g>
<!-- component_5&#45;&gt;component_1 -->
<g id="edge2" class="edge">
<title>component_5&#45;&gt;component_1</title>
<path fill="none" stroke="#475569" d="M1516.15,-37C1538.58,-37 1563.36,-37 1586.6,-37"/>
<polygon fill="#475569" stroke="#475569" points="1586.81,-40.5 1596.81,-37 1586.81,-33.5 1586.81,-40.5"/>
<text text-anchor="middle" x="1556.5" y="-39.8" font-family="sans-serif" font-size="9.00">request</text>
</g>
<!-- component_6 -->
<g id="node7" class="node">
<title>component_6</title>
<g id="a_node7"><a xlink:title="address requester&#10;attachment&#10;binding: axi4_lite · manager">
<path fill="#e0f2fe" stroke="#0284c7" d="M1504,-118.5C1504,-118.5 1375,-118.5 1375,-118.5 1369,-118.5 1363,-112.5 1363,-106.5 1363,-106.5 1363,-89.5 1363,-89.5 1363,-83.5 1369,-77.5 1375,-77.5 1375,-77.5 1504,-77.5 1504,-77.5 1510,-77.5 1516,-83.5 1516,-89.5 1516,-89.5 1516,-106.5 1516,-106.5 1516,-112.5 1510,-118.5 1504,-118.5"/>
<text text-anchor="middle" x="1439.5" y="-106.5" font-family="sans-serif" font-size="10.00">address requester</text>
<text text-anchor="middle" x="1439.5" y="-95.5" font-family="sans-serif" font-size="10.00">attachment</text>
<text text-anchor="middle" x="1439.5" y="-84.5" font-family="sans-serif" font-size="10.00">binding: axi4_lite · manager</text>
</a>
</g>
</g>
<!-- component_6&#45;&gt;component_2 -->
<g id="edge3" class="edge">
<title>component_6&#45;&gt;component_2</title>
<path fill="none" stroke="#475569" d="M1516.15,-98C1538.58,-98 1563.36,-98 1586.6,-98"/>
<polygon fill="#475569" stroke="#475569" points="1586.81,-101.5 1596.81,-98 1586.81,-94.5 1586.81,-101.5"/>
<text text-anchor="middle" x="1556.5" y="-100.8" font-family="sans-serif" font-size="9.00">request</text>
</g>
<!-- component_7 -->
<g id="node8" class="node">
<title>component_7</title>
<g id="a_node8"><a xlink:title="address requester&#10;attachment&#10;binding: axi4_lite · manager">
<path fill="#e0f2fe" stroke="#0284c7" d="M1504,-179.5C1504,-179.5 1375,-179.5 1375,-179.5 1369,-179.5 1363,-173.5 1363,-167.5 1363,-167.5 1363,-150.5 1363,-150.5 1363,-144.5 1369,-138.5 1375,-138.5 1375,-138.5 1504,-138.5 1504,-138.5 1510,-138.5 1516,-144.5 1516,-150.5 1516,-150.5 1516,-167.5 1516,-167.5 1516,-173.5 1510,-179.5 1504,-179.5"/>
<text text-anchor="middle" x="1439.5" y="-167.5" font-family="sans-serif" font-size="10.00">address requester</text>
<text text-anchor="middle" x="1439.5" y="-156.5" font-family="sans-serif" font-size="10.00">attachment</text>
<text text-anchor="middle" x="1439.5" y="-145.5" font-family="sans-serif" font-size="10.00">binding: axi4_lite · manager</text>
</a>
</g>
</g>
<!-- component_7&#45;&gt;component_3 -->
<g id="edge4" class="edge">
<title>component_7&#45;&gt;component_3</title>
<path fill="none" stroke="#475569" d="M1516.15,-159C1538.58,-159 1563.36,-159 1586.6,-159"/>
<polygon fill="#475569" stroke="#475569" points="1586.81,-162.5 1596.81,-159 1586.81,-155.5 1586.81,-162.5"/>
<text text-anchor="middle" x="1556.5" y="-161.8" font-family="sans-serif" font-size="9.00">request</text>
</g>
<!-- component_9 -->
<g id="node10" class="node">
<title>component_9</title>
<g id="a_node10"><a xlink:title="pending owner / response mux&#10;active requests: 1">
<path fill="#ffedd5" stroke="#ea580c" d="M1223,-116C1223,-116 1080,-116 1080,-116 1074,-116 1068,-110 1068,-104 1068,-104 1068,-92 1068,-92 1068,-86 1074,-80 1080,-80 1080,-80 1223,-80 1223,-80 1229,-80 1235,-86 1235,-92 1235,-92 1235,-104 1235,-104 1235,-110 1229,-116 1223,-116"/>
<text text-anchor="middle" x="1151.5" y="-101" font-family="sans-serif" font-size="10.00">pending owner / response mux</text>
<text text-anchor="middle" x="1151.5" y="-90" font-family="sans-serif" font-size="10.00">active requests: 1</text>
</a>
</g>
</g>
<!-- component_8&#45;&gt;component_9 -->
<g id="edge6" class="edge">
<title>component_8&#45;&gt;component_9</title>
<path fill="none" stroke="#475569" d="M952.09,-98C988.91,-98 1025.78,-98 1057.58,-98"/>
<polygon fill="#475569" stroke="#475569" points="1057.72,-101.5 1067.72,-98 1057.72,-94.5 1057.72,-101.5"/>
<text text-anchor="middle" x="1010" y="-100.8" font-family="sans-serif" font-size="9.00">selected egress</text>
</g>
<!-- component_9&#45;&gt;component_5 -->
<g id="edge7" class="edge">
<title>component_9&#45;&gt;component_5</title>
<path fill="none" stroke="#475569" d="M1235.22,-80.36C1272.17,-72.47 1315.7,-63.19 1352.97,-55.24"/>
<polygon fill="#475569" stroke="#475569" points="1353.76,-58.65 1362.81,-53.14 1352.3,-51.81 1353.76,-58.65"/>
<text text-anchor="middle" x="1299" y="-76.8" font-family="sans-serif" font-size="9.00">request · control</text>
</g>
<!-- component_9&#45;&gt;component_6 -->
<g id="edge8" class="edge">
<title>component_9&#45;&gt;component_6</title>
<path fill="none" stroke="#475569" d="M1235.22,-98C1272.02,-98 1315.33,-98 1352.5,-98"/>
<polygon fill="#475569" stroke="#475569" points="1352.81,-101.5 1362.81,-98 1352.81,-94.5 1352.81,-101.5"/>
<text text-anchor="middle" x="1299" y="-100.8" font-family="sans-serif" font-size="9.00">request · status</text>
</g>
<!-- component_9&#45;&gt;component_7 -->
<g id="edge9" class="edge">
<title>component_9&#45;&gt;component_7</title>
<path fill="none" stroke="#475569" d="M1235.22,-115.64C1272.17,-123.53 1315.7,-132.81 1352.97,-140.76"/>
<polygon fill="#475569" stroke="#475569" points="1352.3,-144.19 1362.81,-142.86 1353.76,-137.35 1352.3,-144.19"/>
<text text-anchor="middle" x="1299" y="-139.8" font-family="sans-serif" font-size="9.00">request · memory</text>
</g>
</g>
</svg>
