<?xml version="1.0" encoding="UTF-8" standalone="no"?>
<!DOCTYPE svg PUBLIC "-//W3C//DTD SVG 1.1//EN"
 "http://www.w3.org/Graphics/SVG/1.1/DTD/svg11.dtd">
<!-- Generated by graphviz version 2.43.0 (0)
 -->
<!-- Title: axi_scenario Pages: 1 -->
<svg width="1139pt" height="346pt"
 viewBox="0.00 0.00 1139.00 346.00" xmlns="http://www.w3.org/2000/svg" xmlns:xlink="http://www.w3.org/1999/xlink">
<g id="graph0" class="graph" transform="scale(1 1) rotate(0) translate(4 342)">
<title>axi_scenario</title>
<polygon fill="white" stroke="transparent" points="-4,4 -4,-342 1135,-342 1135,4 -4,4"/>
<text text-anchor="middle" x="565.5" y="-322.8" font-family="Times,serif" font-size="14.00">five_channel_concurrency</text>
<!-- n0 -->
<g id="node1" class="node">
<title>n0</title>
<path fill="#fef3c7" stroke="black" d="M285,-315C285,-315 12,-315 12,-315 6,-315 0,-309 0,-303 0,-303 0,-274 0,-274 0,-268 6,-262 12,-262 12,-262 285,-262 285,-262 291,-262 297,-268 297,-274 297,-274 297,-303 297,-303 297,-309 291,-315 285,-315"/>
<text text-anchor="middle" x="148.5" y="-299.8" font-family="monospace" font-size="14.00">cycle 1 AW</text>
<text text-anchor="middle" x="148.5" y="-284.8" font-family="monospace" font-size="14.00">AW_TRANSFER id=1</text>
<text text-anchor="middle" x="148.5" y="-269.8" font-family="monospace" font-size="14.00">addr=41728 len=0 size=3 burst=INCR</text>
</g>
<!-- n1 -->
<g id="node2" class="node">
<title>n1</title>
<path fill="#fef3c7" stroke="black" d="M607,-315C607,-315 334,-315 334,-315 328,-315 322,-309 322,-303 322,-303 322,-274 322,-274 322,-268 328,-262 334,-262 334,-262 607,-262 607,-262 613,-262 619,-268 619,-274 619,-274 619,-303 619,-303 619,-309 613,-315 607,-315"/>
<text text-anchor="middle" x="470.5" y="-299.8" font-family="monospace" font-size="14.00">cycle 1 AR</text>
<text text-anchor="middle" x="470.5" y="-284.8" font-family="monospace" font-size="14.00">AR_TRANSFER id=1</text>
<text text-anchor="middle" x="470.5" y="-269.8" font-family="monospace" font-size="14.00">addr=41472 len=0 size=3 burst=INCR</text>
</g>
<!-- n0&#45;&gt;n1 -->
<g id="edge1" class="edge">
<title>n0&#45;&gt;n1</title>
<path fill="none" stroke="#94a3b8" d="M255.76,-262.02C255.81,-262.01 255.83,-262 255.83,-262 255.83,-262 326.01,-262 352.92,-262.01"/>
<polygon fill="#94a3b8" stroke="#94a3b8" points="353.24,-265.51 363.24,-262.02 353.25,-258.51 353.24,-265.51"/>
</g>
<!-- n0&#45;&gt;n1 -->
<!-- n5 -->
<g id="node6" class="node">
<title>n5</title>
<path fill="#dcfce7" stroke="black" d="M862.5,-222C862.5,-222 746.5,-222 746.5,-222 740.5,-222 734.5,-216 734.5,-210 734.5,-210 734.5,-181 734.5,-181 734.5,-175 740.5,-169 746.5,-169 746.5,-169 862.5,-169 862.5,-169 868.5,-169 874.5,-175 874.5,-181 874.5,-181 874.5,-210 874.5,-210 874.5,-216 868.5,-222 862.5,-222"/>
<text text-anchor="middle" x="804.5" y="-206.8" font-family="monospace" font-size="14.00">cycle 3 B</text>
<text text-anchor="middle" x="804.5" y="-191.8" font-family="monospace" font-size="14.00">B_TRANSFER id=1</text>
<text text-anchor="middle" x="804.5" y="-176.8" font-family="monospace" font-size="14.00">resp=OKAY</text>
</g>
<!-- n0&#45;&gt;n5 -->
<g id="edge17" class="edge">
<title>n0&#45;&gt;n5</title>
<path fill="none" stroke="#2563eb" stroke-width="2" d="M297.13,-263.96C304.85,-262.74 309.5,-262 309.5,-262 309.5,-262 721.5,-222 721.5,-222 721.5,-222 722.64,-221.65 724.65,-221.03"/>
<polygon fill="#2563eb" stroke="#2563eb" stroke-width="2" points="725.94,-224.3 734.47,-218.02 723.88,-217.61 725.94,-224.3"/>
</g>
<!-- n2 -->
<g id="node3" class="node">
<title>n2</title>
<path fill="#fef3c7" stroke="black" d="M797,-315C797,-315 656,-315 656,-315 650,-315 644,-309 644,-303 644,-303 644,-274 644,-274 644,-268 650,-262 656,-262 656,-262 797,-262 797,-262 803,-262 809,-268 809,-274 809,-274 809,-303 809,-303 809,-309 803,-315 797,-315"/>
<text text-anchor="middle" x="726.5" y="-299.8" font-family="monospace" font-size="14.00">cycle 2 W</text>
<text text-anchor="middle" x="726.5" y="-284.8" font-family="monospace" font-size="14.00">W_TRANSFER id=None</text>
<text text-anchor="middle" x="726.5" y="-269.8" font-family="monospace" font-size="14.00">last=True</text>
</g>
<!-- n1&#45;&gt;n2 -->
<g id="edge2" class="edge">
<title>n1&#45;&gt;n2</title>
<path fill="none" stroke="#94a3b8" d="M555.77,-262.02C555.81,-262.01 555.83,-262 555.83,-262 555.83,-262 610.55,-262 633.62,-262.39"/>
<polygon fill="#94a3b8" stroke="#94a3b8" points="633.51,-265.89 643.63,-262.76 633.77,-258.9 633.51,-265.89"/>
</g>
<!-- n1&#45;&gt;n2 -->
<!-- n7 -->
<g id="node8" class="node">
<title>n7</title>
<path fill="#dcfce7" stroke="black" d="M375,-222C375,-222 226,-222 226,-222 220,-222 214,-216 214,-210 214,-210 214,-181 214,-181 214,-175 220,-169 226,-169 226,-169 375,-169 375,-169 381,-169 387,-175 387,-181 387,-181 387,-210 387,-210 387,-216 381,-222 375,-222"/>
<text text-anchor="middle" x="300.5" y="-206.8" font-family="monospace" font-size="14.00">cycle 3 R</text>
<text text-anchor="middle" x="300.5" y="-191.8" font-family="monospace" font-size="14.00">R_TRANSFER id=1</text>
<text text-anchor="middle" x="300.5" y="-176.8" font-family="monospace" font-size="14.00">resp=OKAY last=True</text>
</g>
<!-- n1&#45;&gt;n7 -->
<g id="edge19" class="edge">
<title>n1&#45;&gt;n7</title>
<path fill="none" stroke="#2563eb" stroke-width="2" d="M422.69,-261.91C402.33,-251.01 378.41,-238.21 357.17,-226.83"/>
<polygon fill="#2563eb" stroke="#2563eb" stroke-width="2" points="358.71,-223.69 348.24,-222.06 355.41,-229.86 358.71,-223.69"/>
</g>
<!-- n3 -->
<g id="node4" class="node">
<title>n3</title>
<path fill="#fef3c7" stroke="black" d="M1119,-315C1119,-315 846,-315 846,-315 840,-315 834,-309 834,-303 834,-303 834,-274 834,-274 834,-268 840,-262 846,-262 846,-262 1119,-262 1119,-262 1125,-262 1131,-268 1131,-274 1131,-274 1131,-303 1131,-303 1131,-309 1125,-315 1119,-315"/>
<text text-anchor="middle" x="982.5" y="-299.8" font-family="monospace" font-size="14.00">cycle 3 AW</text>
<text text-anchor="middle" x="982.5" y="-284.8" font-family="monospace" font-size="14.00">AW_TRANSFER id=2</text>
<text text-anchor="middle" x="982.5" y="-269.8" font-family="monospace" font-size="14.00">addr=42240 len=0 size=3 burst=INCR</text>
</g>
<!-- n2&#45;&gt;n3 -->
<g id="edge3" class="edge">
<title>n2&#45;&gt;n3</title>
<path fill="none" stroke="#94a3b8" d="M809.37,-262.76C810.95,-262.27 811.83,-262 811.83,-262 811.83,-262 864.44,-262 887.07,-262.01"/>
<polygon fill="#94a3b8" stroke="#94a3b8" points="887.23,-265.51 897.23,-262.02 887.23,-258.51 887.23,-265.51"/>
</g>
<!-- n2&#45;&gt;n3 -->
<!-- n2&#45;&gt;n5 -->
<g id="edge18" class="edge">
<title>n2&#45;&gt;n5</title>
<path fill="none" stroke="#2563eb" stroke-width="2" d="M748.64,-261.67C757.11,-251.78 766.9,-240.37 775.89,-229.88"/>
<polygon fill="#2563eb" stroke="#2563eb" stroke-width="2" points="778.72,-231.95 782.57,-222.08 773.41,-227.4 778.72,-231.95"/>
</g>
<!-- n4 -->
<g id="node5" class="node">
<title>n4</title>
<path fill="#fef3c7" stroke="black" d="M1053,-222C1053,-222 912,-222 912,-222 906,-222 900,-216 900,-210 900,-210 900,-181 900,-181 900,-175 906,-169 912,-169 912,-169 1053,-169 1053,-169 1059,-169 1065,-175 1065,-181 1065,-181 1065,-210 1065,-210 1065,-216 1059,-222 1053,-222"/>
<text text-anchor="middle" x="982.5" y="-206.8" font-family="monospace" font-size="14.00">cycle 3 W</text>
<text text-anchor="middle" x="982.5" y="-191.8" font-family="monospace" font-size="14.00">W_TRANSFER id=None</text>
<text text-anchor="middle" x="982.5" y="-176.8" font-family="monospace" font-size="14.00">last=True</text>
</g>
<!-- n3&#45;&gt;n4 -->
<g id="edge4" class="edge">
<title>n3&#45;&gt;n4</title>
<path fill="none" stroke="#94a3b8" d="M982.5,-261.67C982.5,-252.56 982.5,-242.15 982.5,-232.37"/>
<polygon fill="#94a3b8" stroke="#94a3b8" points="986,-232.08 982.5,-222.08 979,-232.08 986,-232.08"/>
</g>
<!-- n8 -->
<g id="node9" class="node">
<title>n8</title>
<path fill="#dcfce7" stroke="black" d="M358.5,-129C358.5,-129 242.5,-129 242.5,-129 236.5,-129 230.5,-123 230.5,-117 230.5,-117 230.5,-88 230.5,-88 230.5,-82 236.5,-76 242.5,-76 242.5,-76 358.5,-76 358.5,-76 364.5,-76 370.5,-82 370.5,-88 370.5,-88 370.5,-117 370.5,-117 370.5,-123 364.5,-129 358.5,-129"/>
<text text-anchor="middle" x="300.5" y="-113.8" font-family="monospace" font-size="14.00">cycle 4 B</text>
<text text-anchor="middle" x="300.5" y="-98.8" font-family="monospace" font-size="14.00">B_TRANSFER id=2</text>
<text text-anchor="middle" x="300.5" y="-83.8" font-family="monospace" font-size="14.00">resp=OKAY</text>
</g>
<!-- n3&#45;&gt;n8 -->
<g id="edge20" class="edge">
<title>n3&#45;&gt;n8</title>
<path fill="none" stroke="#2563eb" stroke-width="2" d="M833.87,-263.96C826.15,-262.74 821.5,-262 821.5,-262 821.5,-262 201.5,-222 201.5,-222 201.5,-222 201.5,-169 201.5,-169 201.5,-169 227.85,-151.57 253.36,-134.69"/>
<polygon fill="#2563eb" stroke="#2563eb" stroke-width="2" points="255.53,-137.45 261.94,-129.01 251.67,-131.61 255.53,-137.45"/>
</g>
<!-- n4&#45;&gt;n5 -->
<g id="edge5" class="edge">
<title>n4&#45;&gt;n5</title>
<path fill="none" stroke="#94a3b8" d="M923.34,-169.08C923.22,-169.03 923.17,-169 923.17,-169 923.17,-169 890.83,-169 873.83,-169.03"/>
<polygon fill="#94a3b8" stroke="#94a3b8" points="873.65,-165.53 863.66,-169.08 873.68,-172.53 873.65,-165.53"/>
</g>
<!-- n4&#45;&gt;n8 -->
<g id="edge21" class="edge">
<title>n4&#45;&gt;n8</title>
<path fill="none" stroke="#2563eb" stroke-width="2" d="M899.92,-172.33C892.38,-170.31 887.5,-169 887.5,-169 887.5,-169 383.5,-129 383.5,-129 383.5,-129 382.36,-128.65 380.35,-128.03"/>
<polygon fill="#2563eb" stroke="#2563eb" stroke-width="2" points="381.12,-124.61 370.53,-125.02 379.06,-131.3 381.12,-124.61"/>
</g>
<!-- n5&#45;&gt;n4 -->
<!-- n6 -->
<g id="node7" class="node">
<title>n6</title>
<path fill="#fef3c7" stroke="black" d="M697,-222C697,-222 424,-222 424,-222 418,-222 412,-216 412,-210 412,-210 412,-181 412,-181 412,-175 418,-169 424,-169 424,-169 697,-169 697,-169 703,-169 709,-175 709,-181 709,-181 709,-210 709,-210 709,-216 703,-222 697,-222"/>
<text text-anchor="middle" x="560.5" y="-206.8" font-family="monospace" font-size="14.00">cycle 3 AR</text>
<text text-anchor="middle" x="560.5" y="-191.8" font-family="monospace" font-size="14.00">AR_TRANSFER id=2</text>
<text text-anchor="middle" x="560.5" y="-176.8" font-family="monospace" font-size="14.00">addr=41984 len=0 size=3 burst=INCR</text>
</g>
<!-- n5&#45;&gt;n6 -->
<g id="edge6" class="edge">
<title>n5&#45;&gt;n6</title>
<path fill="none" stroke="#94a3b8" d="M734.48,-172.68C727.63,-170.46 723.17,-169 723.17,-169 723.17,-169 673.52,-169 651.78,-169.01"/>
<polygon fill="#94a3b8" stroke="#94a3b8" points="651.77,-165.51 641.77,-169.02 651.78,-172.51 651.77,-165.51"/>
</g>
<!-- n6&#45;&gt;n5 -->
<!-- n6&#45;&gt;n7 -->
<g id="edge7" class="edge">
<title>n6&#45;&gt;n7</title>
<path fill="none" stroke="#94a3b8" d="M473.9,-169.02C473.85,-169.01 473.83,-169 473.83,-169 473.83,-169 420.41,-169 397.42,-169.01"/>
<polygon fill="#94a3b8" stroke="#94a3b8" points="397.1,-165.51 387.1,-169.02 397.11,-172.51 397.1,-165.51"/>
</g>
<!-- n9 -->
<g id="node10" class="node">
<title>n9</title>
<path fill="#dcfce7" stroke="black" d="M557,-129C557,-129 408,-129 408,-129 402,-129 396,-123 396,-117 396,-117 396,-88 396,-88 396,-82 402,-76 408,-76 408,-76 557,-76 557,-76 563,-76 569,-82 569,-88 569,-88 569,-117 569,-117 569,-123 563,-129 557,-129"/>
<text text-anchor="middle" x="482.5" y="-113.8" font-family="monospace" font-size="14.00">cycle 4 R</text>
<text text-anchor="middle" x="482.5" y="-98.8" font-family="monospace" font-size="14.00">R_TRANSFER id=2</text>
<text text-anchor="middle" x="482.5" y="-83.8" font-family="monospace" font-size="14.00">resp=OKAY last=True</text>
</g>
<!-- n6&#45;&gt;n9 -->
<g id="edge22" class="edge">
<title>n6&#45;&gt;n9</title>
<path fill="none" stroke="#2563eb" stroke-width="2" d="M538.36,-168.67C529.89,-158.78 520.1,-147.37 511.11,-136.88"/>
<polygon fill="#2563eb" stroke="#2563eb" stroke-width="2" points="513.59,-134.4 504.43,-129.08 508.28,-138.95 513.59,-134.4"/>
</g>
<!-- n7&#45;&gt;n6 -->
<!-- n7&#45;&gt;n8 -->
<g id="edge8" class="edge">
<title>n7&#45;&gt;n8</title>
<path fill="none" stroke="#94a3b8" d="M300.5,-168.67C300.5,-159.56 300.5,-149.15 300.5,-139.37"/>
<polygon fill="#94a3b8" stroke="#94a3b8" points="304,-139.08 300.5,-129.08 297,-139.08 304,-139.08"/>
</g>
<!-- n8&#45;&gt;n9 -->
<g id="edge9" class="edge">
<title>n8&#45;&gt;n9</title>
<path fill="none" stroke="#94a3b8" d="M361.12,-76.02C361.15,-76.01 361.17,-76 361.17,-76 361.17,-76 394.58,-76 411.83,-76.01"/>
<polygon fill="#94a3b8" stroke="#94a3b8" points="411.87,-79.51 421.88,-76.02 411.88,-72.51 411.87,-79.51"/>
</g>
<!-- n8&#45;&gt;n9 -->
<!-- done -->
<g id="node11" class="node">
<title>done</title>
<path fill="#bbf7d0" stroke="black" d="M545,-36C545,-36 420,-36 420,-36 414,-36 408,-30 408,-24 408,-24 408,-12 408,-12 408,-6 414,0 420,0 420,0 545,0 545,0 551,0 557,-6 557,-12 557,-12 557,-24 557,-24 557,-30 551,-36 545,-36"/>
<text text-anchor="middle" x="482.5" y="-14.3" font-family="monospace" font-size="14.00">QUIESCENT / PASS</text>
</g>
<!-- n9&#45;&gt;done -->
<g id="edge23" class="edge">
<title>n9&#45;&gt;done</title>
<path fill="none" stroke="#16a34a" stroke-width="2" d="M482.5,-75.85C482.5,-66.5 482.5,-55.9 482.5,-46.41"/>
<polygon fill="#16a34a" stroke="#16a34a" stroke-width="2" points="486,-46.28 482.5,-36.28 479,-46.28 486,-46.28"/>
</g>
</g>
</svg>
