<?xml version="1.0" encoding="UTF-8" standalone="no"?>
<!DOCTYPE svg PUBLIC "-//W3C//DTD SVG 1.1//EN"
 "http://www.w3.org/Graphics/SVG/1.1/DTD/svg11.dtd">
<!-- Generated by graphviz version 2.43.0 (0)
 -->
<!-- Title: axi_scenario Pages: 1 -->
<svg width="931pt" height="205pt"
 viewBox="0.00 0.00 930.60 205.13" xmlns="http://www.w3.org/2000/svg" xmlns:xlink="http://www.w3.org/1999/xlink">
<g id="graph0" class="graph" transform="scale(1 1) rotate(0) translate(4 201.13)">
<title>axi_scenario</title>
<polygon fill="white" stroke="transparent" points="-4,4 -4,-201.13 926.6,-201.13 926.6,4 -4,4"/>
<text text-anchor="middle" x="461.3" y="-181.93" font-family="Times,serif" font-size="14.00">read_extra_beat</text>
<!-- n0 -->
<g id="node1" class="node">
<title>n0</title>
<path fill="#fef3c7" stroke="black" d="M285,-174.13C285,-174.13 12,-174.13 12,-174.13 6,-174.13 0,-168.13 0,-162.13 0,-162.13 0,-133.13 0,-133.13 0,-127.13 6,-121.13 12,-121.13 12,-121.13 285,-121.13 285,-121.13 291,-121.13 297,-127.13 297,-133.13 297,-133.13 297,-162.13 297,-162.13 297,-168.13 291,-174.13 285,-174.13"/>
<text text-anchor="middle" x="148.5" y="-158.93" font-family="monospace" font-size="14.00">cycle 1 AR</text>
<text text-anchor="middle" x="148.5" y="-143.93" font-family="monospace" font-size="14.00">AR_TRANSFER id=1</text>
<text text-anchor="middle" x="148.5" y="-128.93" font-family="monospace" font-size="14.00">addr=28928 len=0 size=3 burst=INCR</text>
</g>
<!-- n1 -->
<g id="node2" class="node">
<title>n1</title>
<path fill="#dcfce7" stroke="black" d="M483,-174.13C483,-174.13 334,-174.13 334,-174.13 328,-174.13 322,-168.13 322,-162.13 322,-162.13 322,-133.13 322,-133.13 322,-127.13 328,-121.13 334,-121.13 334,-121.13 483,-121.13 483,-121.13 489,-121.13 495,-127.13 495,-133.13 495,-133.13 495,-162.13 495,-162.13 495,-168.13 489,-174.13 483,-174.13"/>
<text text-anchor="middle" x="408.5" y="-158.93" font-family="monospace" font-size="14.00">cycle 2 R</text>
<text text-anchor="middle" x="408.5" y="-143.93" font-family="monospace" font-size="14.00">R_TRANSFER id=1</text>
<text text-anchor="middle" x="408.5" y="-128.93" font-family="monospace" font-size="14.00">resp=OKAY last=True</text>
</g>
<!-- n0&#45;&gt;n1 -->
<g id="edge1" class="edge">
<title>n0&#45;&gt;n1</title>
<path fill="none" stroke="#94a3b8" d="M235.1,-121.15C235.15,-121.14 235.17,-121.13 235.17,-121.13 235.17,-121.13 288.59,-121.13 311.58,-121.14"/>
<polygon fill="#94a3b8" stroke="#94a3b8" points="311.89,-124.64 321.9,-121.15 311.9,-117.64 311.89,-124.64"/>
</g>
<!-- n0&#45;&gt;n1 -->
<!-- n0&#45;&gt;n1 -->
<g id="edge5" class="edge">
<title>n0&#45;&gt;n1</title>
<path fill="none" stroke="#2563eb" stroke-width="2" d="M235.1,-174.11C235.15,-174.12 235.17,-174.13 235.17,-174.13 235.17,-174.13 288.59,-174.13 311.58,-174.12"/>
<polygon fill="#2563eb" stroke="#2563eb" stroke-width="2" points="311.9,-177.62 321.9,-174.11 311.89,-170.62 311.9,-177.62"/>
</g>
<!-- n2 -->
<g id="node3" class="node">
<title>n2</title>
<path fill="#dcfce7" stroke="black" d="M681,-174.13C681,-174.13 532,-174.13 532,-174.13 526,-174.13 520,-168.13 520,-162.13 520,-162.13 520,-133.13 520,-133.13 520,-127.13 526,-121.13 532,-121.13 532,-121.13 681,-121.13 681,-121.13 687,-121.13 693,-127.13 693,-133.13 693,-133.13 693,-162.13 693,-162.13 693,-168.13 687,-174.13 681,-174.13"/>
<text text-anchor="middle" x="606.5" y="-158.93" font-family="monospace" font-size="14.00">cycle 3 R</text>
<text text-anchor="middle" x="606.5" y="-143.93" font-family="monospace" font-size="14.00">R_TRANSFER id=1</text>
<text text-anchor="middle" x="606.5" y="-128.93" font-family="monospace" font-size="14.00">resp=OKAY last=True</text>
</g>
<!-- n1&#45;&gt;n2 -->
<g id="edge2" class="edge">
<title>n1&#45;&gt;n2</title>
<path fill="none" stroke="#94a3b8" d="M474.45,-121.15C474.48,-121.14 474.5,-121.13 474.5,-121.13 474.5,-121.13 512.01,-121.13 530.5,-121.14"/>
<polygon fill="#94a3b8" stroke="#94a3b8" points="530.54,-124.64 540.55,-121.15 530.55,-117.64 530.54,-124.64"/>
</g>
<!-- n1&#45;&gt;n2 -->
<!-- fault -->
<g id="node4" class="node">
<title>fault</title>
<path fill="#fecaca" stroke="black" d="M922.69,-34.95C922.69,-34.95 922.69,-46.17 922.69,-46.17 922.69,-51.78 917.13,-58.11 911.57,-58.82 911.57,-58.82 748.6,-79.76 748.6,-79.76 743.04,-80.48 731.86,-81.19 726.25,-81.19 726.25,-81.19 486.75,-81.19 486.75,-81.19 481.14,-81.19 469.96,-80.48 464.4,-79.76 464.4,-79.76 301.43,-58.82 301.43,-58.82 295.87,-58.11 290.31,-51.78 290.31,-46.17 290.31,-46.17 290.31,-34.95 290.31,-34.95 290.31,-29.35 295.87,-23.02 301.43,-22.31 301.43,-22.31 464.4,-1.37 464.4,-1.37 469.96,-0.65 481.14,0.06 486.75,0.06 486.75,0.06 726.25,0.06 726.25,0.06 731.86,0.06 743.04,-0.65 748.6,-1.37 748.6,-1.37 911.57,-22.31 911.57,-22.31 917.13,-23.02 922.69,-29.35 922.69,-34.95"/>
<text text-anchor="middle" x="606.5" y="-51.86" font-family="monospace" font-size="14.00">FAULT</text>
<text text-anchor="middle" x="606.5" y="-36.86" font-family="monospace" font-size="14.00">axi4.signal_session.rvalid_dependency</text>
<text text-anchor="middle" x="606.5" y="-21.86" font-family="monospace" font-size="14.00">RVALID asserted without a previously accepted AR</text>
</g>
<!-- n2&#45;&gt;fault -->
<g id="edge6" class="edge">
<title>n2&#45;&gt;fault</title>
<path fill="none" stroke="#dc2626" stroke-width="2" d="M606.5,-120.93C606.5,-112 606.5,-101.65 606.5,-91.44"/>
<polygon fill="#dc2626" stroke="#dc2626" stroke-width="2" points="610,-91.33 606.5,-81.33 603,-91.33 610,-91.33"/>
</g>
</g>
</svg>
