<?xml version="1.0" encoding="UTF-8" standalone="no"?>
<!DOCTYPE svg PUBLIC "-//W3C//DTD SVG 1.1//EN"
 "http://www.w3.org/Graphics/SVG/1.1/DTD/svg11.dtd">
<!-- Generated by graphviz version 2.43.0 (0)
 -->
<!-- Title: chi_flow_clean&#45;evict&#45;retry Pages: 1 -->
<svg width="510pt" height="210pt"
 viewBox="0.00 0.00 510.32 210.32" xmlns="http://www.w3.org/2000/svg" xmlns:xlink="http://www.w3.org/1999/xlink">
<g id="graph0" class="graph" transform="scale(1 1) rotate(0) translate(20.16 190.16)">
<title>chi_flow_clean&#45;evict&#45;retry</title>
<polygon fill="white" stroke="transparent" points="-20.16,20.16 -20.16,-190.16 490.16,-190.16 490.16,20.16 -20.16,20.16"/>
<text text-anchor="middle" x="235" y="-153.2" font-family="sans-serif" font-size="16.00">Clean Evict retry, P&#45;Credit and credited reissue</text>
<text text-anchor="middle" x="235" y="-135.2" font-family="sans-serif" font-size="16.00">resolved SystemProtocol topology</text>
<!-- rn0 -->
<g id="node1" class="node">
<title>rn0</title>
<path fill="#dbeafe" stroke="#2563eb" d="M159,-47.5C159,-47.5 107,-47.5 107,-47.5 101,-47.5 95,-41.5 95,-35.5 95,-35.5 95,-14.5 95,-14.5 95,-8.5 101,-2.5 107,-2.5 107,-2.5 159,-2.5 159,-2.5 165,-2.5 171,-8.5 171,-14.5 171,-14.5 171,-35.5 171,-35.5 171,-41.5 165,-47.5 159,-47.5"/>
<text text-anchor="middle" x="133" y="-33.5" font-family="sans-serif" font-size="10.00">RN0</text>
<text text-anchor="middle" x="133" y="-22.5" font-family="sans-serif" font-size="10.00">requester</text>
<text text-anchor="middle" x="133" y="-11.5" font-family="sans-serif" font-size="10.00">NodeID 0x7</text>
</g>
<!-- hn0 -->
<g id="node2" class="node">
<title>hn0</title>
<path fill="#ffedd5" stroke="#ea580c" d="M458,-47.5C458,-47.5 400,-47.5 400,-47.5 394,-47.5 388,-41.5 388,-35.5 388,-35.5 388,-14.5 388,-14.5 388,-8.5 394,-2.5 400,-2.5 400,-2.5 458,-2.5 458,-2.5 464,-2.5 470,-8.5 470,-14.5 470,-14.5 470,-35.5 470,-35.5 470,-41.5 464,-47.5 458,-47.5"/>
<text text-anchor="middle" x="429" y="-33.5" font-family="sans-serif" font-size="10.00">HN0</text>
<text text-anchor="middle" x="429" y="-22.5" font-family="sans-serif" font-size="10.00">home</text>
<text text-anchor="middle" x="429" y="-11.5" font-family="sans-serif" font-size="10.00">NodeID 0x21</text>
</g>
<!-- rn0&#45;&gt;hn0 -->
<g id="edge1" class="edge">
<title>rn0&#45;&gt;hn0</title>
<g id="a_edge1"><a xlink:title="rn0.tx_req → hn0.rx_req">
<path fill="none" stroke="#64748b" d="M171.24,-25C224.65,-25 322.98,-25 381.23,-25"/>
<polygon fill="#64748b" stroke="#64748b" points="381.58,-27.17 387.78,-25 381.58,-22.83 381.58,-27.17"/>
</a>
</g>
<text text-anchor="middle" x="327" y="-36.6" font-family="sans-serif" font-size="8.00" fill="#334155">evict_request</text>
<text text-anchor="middle" x="327" y="-27.6" font-family="sans-serif" font-size="8.00" fill="#334155">transport · REQ</text>
</g>
<!-- hn0&#45;&gt;rn0 -->
<g id="edge2" class="edge">
<title>hn0&#45;&gt;rn0</title>
<g id="a_edge2"><a xlink:title="hn0.tx_rsp → rn0.rx_rsp">
<path fill="none" stroke="#64748b" d="M387.71,-9.74C373.97,-4.53 362,0 362,0 362,0 292,0 292,0 292,0 223.99,-10.76 177.21,-18.16"/>
<polygon fill="#64748b" stroke="#64748b" points="176.83,-16.03 171.04,-19.14 177.51,-20.31 176.83,-16.03"/>
</a>
</g>
<text text-anchor="middle" x="327" y="-11.6" font-family="sans-serif" font-size="8.00" fill="#334155">evict_completion</text>
<text text-anchor="middle" x="327" y="-2.6" font-family="sans-serif" font-size="8.00" fill="#334155">transport · RSP</text>
</g>
<!-- evidence -->
<g id="node3" class="node">
<title>evidence</title>
<polygon fill="#f8fafc" stroke="#94a3b8" points="260,-126 0,-126 0,-78 266,-78 266,-120 260,-126"/>
<polyline fill="none" stroke="#94a3b8" points="260,-126 260,-120 "/>
<polyline fill="none" stroke="#94a3b8" points="266,-120 260,-120 "/>
<text text-anchor="middle" x="133" y="-113.6" font-family="sans-serif" font-size="8.00">2 VirtualDuts · 2 declared connections</text>
<text text-anchor="middle" x="133" y="-104.6" font-family="sans-serif" font-size="8.00">solid arrows come from resolved construction</text>
<text text-anchor="middle" x="133" y="-95.6" font-family="sans-serif" font-size="8.00">direct participant topology · no XP&#45;like forwarder constructed</text>
<text text-anchor="middle" x="133" y="-86.6" font-family="sans-serif" font-size="8.00">flow time&#45;space omits per&#45;hop transport MOVE events</text>
</g>
</g>
</svg>
