<?xml version="1.0" encoding="UTF-8" standalone="no"?>
<!DOCTYPE svg PUBLIC "-//W3C//DTD SVG 1.1//EN"
 "http://www.w3.org/Graphics/SVG/1.1/DTD/svg11.dtd">
<!-- Generated by graphviz version 2.43.0 (0)
 -->
<!-- Title: axi4_case Pages: 1 -->
<svg width="708pt" height="153pt"
 viewBox="0.00 0.00 707.80 152.80" xmlns="http://www.w3.org/2000/svg" xmlns:xlink="http://www.w3.org/1999/xlink">
<g id="graph0" class="graph" transform="scale(1 1) rotate(0) translate(14.4 138.4)">
<title>axi4_case</title>
<polygon fill="white" stroke="transparent" points="-14.4,14.4 -14.4,-138.4 693.4,-138.4 693.4,14.4 -14.4,14.4"/>
<text text-anchor="middle" x="339.5" y="-108.8" font-family="Times,serif" font-size="14.00">Responses for different IDs may interleave / 不同 ID 的读响应可以交织</text>
<!-- event0 -->
<g id="node1" class="node">
<title>event0</title>
<path fill="#eef5ff" stroke="#3169a8" d="M167,-36C167,-36 12,-36 12,-36 6,-36 0,-30 0,-24 0,-24 0,-12 0,-12 0,-6 6,0 12,0 12,0 167,0 167,0 173,0 179,-6 179,-12 179,-12 179,-24 179,-24 179,-30 173,-36 167,-36"/>
<text text-anchor="middle" x="89.5" y="-15.5" font-family="sans-serif" font-size="10.00">[0] ID1 A=0x400 N=2 S=4B INCR</text>
</g>
<!-- event2 -->
<g id="node3" class="node">
<title>event2</title>
<path fill="#eef5ff" stroke="#3169a8" d="M417,-36C417,-36 297,-36 297,-36 291,-36 285,-30 285,-24 285,-24 285,-12 285,-12 285,-6 291,0 297,0 297,0 417,0 417,0 423,0 429,-6 429,-12 429,-12 429,-24 429,-24 429,-30 423,-36 417,-36"/>
<text text-anchor="middle" x="357" y="-15.5" font-family="sans-serif" font-size="10.00">[2] ID1 D=0x11 OKAY L=0</text>
</g>
<!-- event0&#45;&gt;event2 -->
<g id="edge1" class="edge">
<title>event0&#45;&gt;event2</title>
<path fill="none" stroke="#3169a8" d="M179.28,-18C210.16,-18 244.61,-18 274.85,-18"/>
<polygon fill="#3169a8" stroke="#3169a8" points="274.92,-21.5 284.92,-18 274.92,-14.5 274.92,-21.5"/>
<text text-anchor="middle" x="232" y="-20.8" font-family="sans-serif" font-size="9.00">causes / 因果</text>
</g>
<!-- event1 -->
<g id="node2" class="node">
<title>event1</title>
<path fill="#eef5ff" stroke="#3169a8" d="M167,-101C167,-101 12,-101 12,-101 6,-101 0,-95 0,-89 0,-89 0,-77 0,-77 0,-71 6,-65 12,-65 12,-65 167,-65 167,-65 173,-65 179,-71 179,-77 179,-77 179,-89 179,-89 179,-95 173,-101 167,-101"/>
<text text-anchor="middle" x="89.5" y="-80.5" font-family="sans-serif" font-size="10.00">[1] ID2 A=0x500 N=2 S=4B INCR</text>
</g>
<!-- event3 -->
<g id="node4" class="node">
<title>event3</title>
<path fill="#eef5ff" stroke="#3169a8" d="M417,-101C417,-101 297,-101 297,-101 291,-101 285,-95 285,-89 285,-89 285,-77 285,-77 285,-71 291,-65 297,-65 297,-65 417,-65 417,-65 423,-65 429,-71 429,-77 429,-77 429,-89 429,-89 429,-95 423,-101 417,-101"/>
<text text-anchor="middle" x="357" y="-80.5" font-family="sans-serif" font-size="10.00">[3] ID2 D=0x21 OKAY L=0</text>
</g>
<!-- event1&#45;&gt;event3 -->
<g id="edge2" class="edge">
<title>event1&#45;&gt;event3</title>
<path fill="none" stroke="#3169a8" d="M179.28,-83C210.16,-83 244.61,-83 274.85,-83"/>
<polygon fill="#3169a8" stroke="#3169a8" points="274.92,-86.5 284.92,-83 274.92,-79.5 274.92,-86.5"/>
<text text-anchor="middle" x="232" y="-85.8" font-family="sans-serif" font-size="9.00">causes / 因果</text>
</g>
<!-- event4 -->
<g id="node5" class="node">
<title>event4</title>
<path fill="#eef5ff" stroke="#3169a8" d="M667,-36C667,-36 547,-36 547,-36 541,-36 535,-30 535,-24 535,-24 535,-12 535,-12 535,-6 541,0 547,0 547,0 667,0 667,0 673,0 679,-6 679,-12 679,-12 679,-24 679,-24 679,-30 673,-36 667,-36"/>
<text text-anchor="middle" x="607" y="-15.5" font-family="sans-serif" font-size="10.00">[4] ID1 D=0x12 OKAY L=1</text>
</g>
<!-- event2&#45;&gt;event4 -->
<g id="edge3" class="edge">
<title>event2&#45;&gt;event4</title>
<path fill="none" stroke="#3169a8" d="M429.07,-18C458.9,-18 493.77,-18 524.62,-18"/>
<polygon fill="#3169a8" stroke="#3169a8" points="524.92,-21.5 534.92,-18 524.92,-14.5 524.92,-21.5"/>
<text text-anchor="middle" x="482" y="-20.8" font-family="sans-serif" font-size="9.00">causes / 因果</text>
</g>
<!-- event5 -->
<g id="node6" class="node">
<title>event5</title>
<path fill="#eef5ff" stroke="#3169a8" d="M667,-101C667,-101 547,-101 547,-101 541,-101 535,-95 535,-89 535,-89 535,-77 535,-77 535,-71 541,-65 547,-65 547,-65 667,-65 667,-65 673,-65 679,-71 679,-77 679,-77 679,-89 679,-89 679,-95 673,-101 667,-101"/>
<text text-anchor="middle" x="607" y="-80.5" font-family="sans-serif" font-size="10.00">[5] ID2 D=0x22 OKAY L=1</text>
</g>
<!-- event3&#45;&gt;event5 -->
<g id="edge4" class="edge">
<title>event3&#45;&gt;event5</title>
<path fill="none" stroke="#3169a8" d="M429.07,-83C458.9,-83 493.77,-83 524.62,-83"/>
<polygon fill="#3169a8" stroke="#3169a8" points="524.92,-86.5 534.92,-83 524.92,-79.5 524.92,-86.5"/>
<text text-anchor="middle" x="482" y="-85.8" font-family="sans-serif" font-size="9.00">causes / 因果</text>
</g>
</g>
</svg>
