<?xml version="1.0" encoding="UTF-8" standalone="no"?>
<!DOCTYPE svg PUBLIC "-//W3C//DTD SVG 1.1//EN"
 "http://www.w3.org/Graphics/SVG/1.1/DTD/svg11.dtd">
<!-- Generated by graphviz version 2.43.0 (0)
 -->
<!-- Title: apb_state Pages: 1 -->
<svg width="757pt" height="164pt"
 viewBox="0.00 0.00 757.39 164.39" xmlns="http://www.w3.org/2000/svg" xmlns:xlink="http://www.w3.org/1999/xlink">
<g id="graph0" class="graph" transform="scale(1 1) rotate(0) translate(4 160.39)">
<title>apb_state</title>
<polygon fill="white" stroke="transparent" points="-4,4 -4,-160.39 753.39,-160.39 753.39,4 -4,4"/>
<!-- IDLE -->
<g id="node1" class="node">
<title>IDLE</title>
<ellipse fill="none" stroke="black" cx="32.5" cy="-32.5" rx="32.49" ry="32.49"/>
<text text-anchor="middle" x="32.5" y="-28.8" font-family="monospace" font-size="14.00">IDLE</text>
</g>
<!-- IDLE&#45;&gt;IDLE -->
<g id="edge6" class="edge">
<title>IDLE&#45;&gt;IDLE</title>
<path fill="none" stroke="black" d="M11.52,-57.79C2.56,-78.92 9.55,-100.99 32.5,-100.99 51.86,-100.99 59.86,-85.28 56.5,-67.67"/>
<polygon fill="black" stroke="black" points="59.75,-66.32 53.47,-57.79 53.06,-68.38 59.75,-66.32"/>
<text text-anchor="middle" x="32.5" y="-104.79" font-family="Times,serif" font-size="14.00">!PSEL</text>
</g>
<!-- SETUP -->
<g id="node2" class="node">
<title>SETUP</title>
<ellipse fill="none" stroke="black" cx="336.99" cy="-91.5" rx="37.89" ry="37.89"/>
<text text-anchor="middle" x="336.99" y="-87.8" font-family="monospace" font-size="14.00">SETUP</text>
</g>
<!-- IDLE&#45;&gt;SETUP -->
<g id="edge1" class="edge">
<title>IDLE&#45;&gt;SETUP</title>
<path fill="none" stroke="black" d="M64.45,-38.53C117.79,-48.94 227.33,-70.3 289.75,-82.48"/>
<polygon fill="black" stroke="black" points="289.24,-85.94 299.72,-84.42 290.58,-79.07 289.24,-85.94"/>
<text text-anchor="middle" x="165.99" y="-76.3" font-family="Times,serif" font-size="14.00">PSEL &amp;&amp; !PENABLE</text>
</g>
<!-- ACCESS -->
<g id="node3" class="node">
<title>ACCESS</title>
<ellipse fill="none" stroke="black" cx="663.89" cy="-62.5" rx="42.79" ry="42.79"/>
<text text-anchor="middle" x="663.89" y="-58.8" font-family="monospace" font-size="14.00">ACCESS</text>
</g>
<!-- SETUP&#45;&gt;ACCESS -->
<g id="edge2" class="edge">
<title>SETUP&#45;&gt;ACCESS</title>
<path fill="none" stroke="black" d="M374.94,-91.77C425.22,-91.65 517.86,-89.71 595.99,-78.5 601.18,-77.75 606.55,-76.79 611.9,-75.72"/>
<polygon fill="black" stroke="black" points="613.04,-79.05 622.08,-73.52 611.57,-72.21 613.04,-79.05"/>
<text text-anchor="middle" x="513.99" y="-95.3" font-family="Times,serif" font-size="14.00">next cycle: PENABLE</text>
</g>
<!-- ACCESS&#45;&gt;IDLE -->
<g id="edge4" class="edge">
<title>ACCESS&#45;&gt;IDLE</title>
<path fill="none" stroke="black" d="M622.85,-49.29C614.08,-46.74 604.78,-44.31 595.99,-42.5 404.67,-3.08 168.96,-19.15 75,-28.06"/>
<polygon fill="black" stroke="black" points="74.66,-24.58 65.04,-29.03 75.33,-31.55 74.66,-24.58"/>
<text text-anchor="middle" x="336.99" y="-23.3" font-family="Times,serif" font-size="14.00">PREADY / complete</text>
</g>
<!-- ACCESS&#45;&gt;SETUP -->
<g id="edge5" class="edge">
<title>ACCESS&#45;&gt;SETUP</title>
<path fill="none" stroke="black" d="M621.23,-56.77C574.71,-51.49 497.36,-46.04 431.99,-57.5 414.87,-60.5 396.74,-66.36 381.03,-72.38"/>
<polygon fill="black" stroke="black" points="379.59,-69.19 371.59,-76.13 382.18,-75.69 379.59,-69.19"/>
<text text-anchor="middle" x="513.99" y="-61.3" font-family="Times,serif" font-size="14.00">PREADY / back&#45;to&#45;back</text>
</g>
<!-- ACCESS&#45;&gt;ACCESS -->
<g id="edge3" class="edge">
<title>ACCESS&#45;&gt;ACCESS</title>
<path fill="none" stroke="black" d="M638.34,-97.38C631.67,-119.81 640.19,-141.39 663.89,-141.39 684.08,-141.39 693.25,-125.74 691.41,-107.24"/>
<polygon fill="black" stroke="black" points="694.83,-106.5 689.45,-97.38 687.97,-107.87 694.83,-106.5"/>
<text text-anchor="middle" x="663.89" y="-145.19" font-family="Times,serif" font-size="14.00">!PREADY / hold request</text>
</g>
</g>
</svg>
