<?xml version="1.0" encoding="UTF-8" standalone="no"?>
<!DOCTYPE svg PUBLIC "-//W3C//DTD SVG 1.1//EN"
 "http://www.w3.org/Graphics/SVG/1.1/DTD/svg11.dtd">
<!-- Generated by graphviz version 2.43.0 (0)
 -->
<!-- Title: constraint_mutation Pages: 1 -->
<svg width="1040pt" height="89pt"
 viewBox="0.00 0.00 1039.66 89.17" xmlns="http://www.w3.org/2000/svg" xmlns:xlink="http://www.w3.org/1999/xlink">
<g id="graph0" class="graph" transform="scale(1 1) rotate(0) translate(4 85.17)">
<title>constraint_mutation</title>
<polygon fill="white" stroke="transparent" points="-4,4 -4,-85.17 1035.66,-85.17 1035.66,4 -4,4"/>
<text text-anchor="middle" x="515.83" y="-65.97" font-family="Times,serif" font-size="14.00">rid_must_be_active</text>
<!-- n0 -->
<g id="node1" class="node">
<title>n0</title>
<path fill="#e2e8f0" stroke="black" d="M252,-48.08C252,-48.08 12,-48.08 12,-48.08 6,-48.08 0,-42.08 0,-36.08 0,-36.08 0,-22.08 0,-22.08 0,-16.08 6,-10.08 12,-10.08 12,-10.08 252,-10.08 252,-10.08 258,-10.08 264,-16.08 264,-22.08 264,-22.08 264,-36.08 264,-36.08 264,-42.08 258,-48.08 252,-48.08"/>
<text text-anchor="middle" x="132" y="-32.88" font-family="monospace" font-size="14.00">AR_TRANSFER id=1</text>
<text text-anchor="middle" x="132" y="-17.88" font-family="monospace" font-size="14.00">addr=8448 len=1 size=2 cache=0</text>
</g>
<!-- n1 -->
<g id="node2" class="node">
<title>n1</title>
<path fill="#e2e8f0" stroke="black" d="M428,-48.08C428,-48.08 312,-48.08 312,-48.08 306,-48.08 300,-42.08 300,-36.08 300,-36.08 300,-22.08 300,-22.08 300,-16.08 306,-10.08 312,-10.08 312,-10.08 428,-10.08 428,-10.08 434,-10.08 440,-16.08 440,-22.08 440,-22.08 440,-36.08 440,-36.08 440,-42.08 434,-48.08 428,-48.08"/>
<text text-anchor="middle" x="370" y="-32.88" font-family="monospace" font-size="14.00">R_TRANSFER id=0</text>
<text text-anchor="middle" x="370" y="-17.88" font-family="monospace" font-size="14.00">last=False</text>
</g>
<!-- n0&#45;&gt;n1 -->
<g id="edge1" class="edge">
<title>n0&#45;&gt;n1</title>
<path fill="none" stroke="black" d="M264.11,-29.08C272.86,-29.08 281.51,-29.08 289.87,-29.08"/>
<polygon fill="black" stroke="black" points="289.91,-32.58 299.91,-29.08 289.91,-25.58 289.91,-32.58"/>
</g>
<!-- fault -->
<g id="node3" class="node">
<title>fault</title>
<path fill="#fecaca" stroke="black" d="M1031.48,-25.06C1031.48,-25.06 1031.48,-33.11 1031.48,-33.11 1031.48,-37.14 1027.48,-41.59 1023.47,-42.01 1023.47,-42.01 876.85,-57.41 876.85,-57.41 872.84,-57.83 864.81,-58.25 860.78,-58.25 860.78,-58.25 646.87,-58.25 646.87,-58.25 642.85,-58.25 634.81,-57.83 630.81,-57.41 630.81,-57.41 484.18,-42.01 484.18,-42.01 480.18,-41.59 476.17,-37.14 476.17,-33.11 476.17,-33.11 476.17,-25.06 476.17,-25.06 476.17,-21.03 480.18,-16.58 484.18,-16.16 484.18,-16.16 630.81,-0.76 630.81,-0.76 634.81,-0.34 642.85,0.08 646.87,0.08 646.87,0.08 860.78,0.08 860.78,0.08 864.81,0.08 872.84,-0.34 876.85,-0.76 876.85,-0.76 1023.47,-16.16 1023.47,-16.16 1027.48,-16.58 1031.48,-21.03 1031.48,-25.06"/>
<text text-anchor="middle" x="753.83" y="-32.88" font-family="monospace" font-size="14.00">FAULT</text>
<text text-anchor="middle" x="753.83" y="-17.88" font-family="monospace" font-size="14.00">axi4_read_interleave.session.R.event_space</text>
</g>
<!-- n1&#45;&gt;fault -->
<g id="edge2" class="edge">
<title>n1&#45;&gt;fault</title>
<path fill="none" stroke="#dc2626" stroke-width="2" d="M440.15,-29.08C448.19,-29.08 456.72,-29.08 465.64,-29.08"/>
<polygon fill="#dc2626" stroke="#dc2626" stroke-width="2" points="465.86,-32.58 475.86,-29.08 465.86,-25.58 465.86,-32.58"/>
</g>
</g>
</svg>
