<?xml version="1.0" encoding="UTF-8" standalone="no"?>
<!DOCTYPE svg PUBLIC "-//W3C//DTD SVG 1.1//EN"
 "http://www.w3.org/Graphics/SVG/1.1/DTD/svg11.dtd">
<!-- Generated by graphviz version 2.43.0 (0)
 -->
<!-- Title: axi4_case Pages: 1 -->
<svg width="933pt" height="166pt"
 viewBox="0.00 0.00 932.76 166.18" xmlns="http://www.w3.org/2000/svg" xmlns:xlink="http://www.w3.org/1999/xlink">
<g id="graph0" class="graph" transform="scale(1 1) rotate(0) translate(14.4 151.78)">
<title>axi4_case</title>
<polygon fill="white" stroke="transparent" points="-14.4,14.4 -14.4,-151.78 918.36,-151.78 918.36,14.4 -14.4,14.4"/>
<text text-anchor="middle" x="451.98" y="-122.18" font-family="Times,serif" font-size="14.00">WSTRB cannot select bytes outside the transfer container / WSTRB 不得选择传输容器之外的字节</text>
<!-- event0 -->
<g id="node1" class="node">
<title>event0</title>
<path fill="#eef5ff" stroke="#3169a8" d="M155,-36C155,-36 12,-36 12,-36 6,-36 0,-30 0,-24 0,-24 0,-12 0,-12 0,-6 6,0 12,0 12,0 155,0 155,0 161,0 167,-6 167,-12 167,-12 167,-24 167,-24 167,-30 161,-36 155,-36"/>
<text text-anchor="middle" x="83.5" y="-15.5" font-family="sans-serif" font-size="10.00">[0] ID3 A=0x3 N=1 S=4B INCR</text>
</g>
<!-- context -->
<g id="node2" class="node">
<title>context</title>
<polygon fill="#f4f5f6" stroke="#7c8790" points="143.5,-101 17.5,-101 17.5,-65 149.5,-65 149.5,-95 143.5,-101"/>
<polyline fill="none" stroke="#7c8790" points="143.5,-101 143.5,-95 "/>
<polyline fill="none" stroke="#7c8790" points="149.5,-95 143.5,-95 "/>
<text text-anchor="middle" x="83.5" y="-86" font-family="sans-serif" font-size="10.00">rejected input / 被拒输入</text>
<text text-anchor="middle" x="83.5" y="-75" font-family="sans-serif" font-size="10.00">D=0x0 S=0x10 L=1</text>
</g>
<!-- fault -->
<g id="node3" class="node">
<title>fault</title>
<polygon fill="#ffe9e7" stroke="#b33a2b" points="903.94,-70.05 903.94,-95.95 758.69,-114.26 553.27,-114.26 408.02,-95.95 408.02,-70.05 553.27,-51.74 758.69,-51.74 903.94,-70.05"/>
<text text-anchor="middle" x="655.98" y="-91.5" font-family="sans-serif" font-size="10.00">REJECTED / 已拒绝</text>
<text text-anchor="middle" x="655.98" y="-80.5" font-family="sans-serif" font-size="10.00">axi4.write.byte_lanes</text>
<text text-anchor="middle" x="655.98" y="-69.5" font-family="sans-serif" font-size="10.00">WSTRB 0x10 asserts lanes outside allowed mask 0x8 at beat 1</text>
</g>
<!-- context&#45;&gt;fault -->
<g id="edge1" class="edge">
<title>context&#45;&gt;fault</title>
<path fill="none" stroke="#777777" stroke-dasharray="5,2" d="M149.66,-83C210.74,-83 306.11,-83 397.61,-83"/>
<polygon fill="#777777" stroke="#777777" points="397.89,-86.5 407.89,-83 397.89,-79.5 397.89,-86.5"/>
<text text-anchor="middle" x="287.5" y="-85.8" font-family="sans-serif" font-size="9.00">diagnostic context / 诊断上下文（非因果边）</text>
</g>
</g>
</svg>
