<?xml version="1.0" encoding="UTF-8" standalone="no"?>
<!DOCTYPE svg PUBLIC "-//W3C//DTD SVG 1.1//EN"
 "http://www.w3.org/Graphics/SVG/1.1/DTD/svg11.dtd">
<!-- Generated by graphviz version 2.43.0 (0)
 -->
<!-- Title: axi4_case Pages: 1 -->
<svg width="1049pt" height="166pt"
 viewBox="0.00 0.00 1048.85 166.18" xmlns="http://www.w3.org/2000/svg" xmlns:xlink="http://www.w3.org/1999/xlink">
<g id="graph0" class="graph" transform="scale(1 1) rotate(0) translate(14.4 151.78)">
<title>axi4_case</title>
<polygon fill="white" stroke="transparent" points="-14.4,14.4 -14.4,-151.78 1034.45,-151.78 1034.45,14.4 -14.4,14.4"/>
<text text-anchor="middle" x="510.02" y="-122.18" font-family="Times,serif" font-size="14.00">A refined profile can bound outstanding reads / 细化 profile 可以限制 outstanding read</text>
<!-- event0 -->
<g id="node1" class="node">
<title>event0</title>
<path fill="#eef5ff" stroke="#3169a8" d="M167,-36C167,-36 12,-36 12,-36 6,-36 0,-30 0,-24 0,-24 0,-12 0,-12 0,-6 6,0 12,0 12,0 167,0 167,0 173,0 179,-6 179,-12 179,-12 179,-24 179,-24 179,-30 173,-36 167,-36"/>
<text text-anchor="middle" x="89.5" y="-15.5" font-family="sans-serif" font-size="10.00">[0] ID6 A=0xd00 N=1 S=4B INCR</text>
</g>
<!-- context -->
<g id="node2" class="node">
<title>context</title>
<polygon fill="#f4f5f6" stroke="#7c8790" points="165,-101 8,-101 8,-65 171,-65 171,-95 165,-101"/>
<polyline fill="none" stroke="#7c8790" points="165,-101 165,-95 "/>
<polyline fill="none" stroke="#7c8790" points="171,-95 165,-95 "/>
<text text-anchor="middle" x="89.5" y="-86" font-family="sans-serif" font-size="10.00">rejected input / 被拒输入</text>
<text text-anchor="middle" x="89.5" y="-75" font-family="sans-serif" font-size="10.00">ID7 A=0xd08 N=1 S=4B INCR</text>
</g>
<!-- fault -->
<g id="node3" class="node">
<title>fault</title>
<polygon fill="#ffe9e7" stroke="#b33a2b" points="1020.07,-70.05 1020.07,-95.95 844.31,-114.26 595.74,-114.26 419.98,-95.95 419.98,-70.05 595.74,-51.74 844.31,-51.74 1020.07,-70.05"/>
<text text-anchor="middle" x="720.02" y="-91.5" font-family="sans-serif" font-size="10.00">REJECTED / 已拒绝</text>
<text text-anchor="middle" x="720.02" y="-80.5" font-family="sans-serif" font-size="10.00">axi4_one_read.axi4.read.pending_transactions.capacity</text>
<text text-anchor="middle" x="720.02" y="-69.5" font-family="sans-serif" font-size="10.00">resource &#39;axi4.read.pending_transactions&#39; usage 2 exceeds profile capacity 1</text>
</g>
<!-- context&#45;&gt;fault -->
<g id="edge1" class="edge">
<title>context&#45;&gt;fault</title>
<path fill="none" stroke="#777777" stroke-dasharray="5,2" d="M171.06,-83C232.46,-83 321.22,-83 409.48,-83"/>
<polygon fill="#777777" stroke="#777777" points="409.68,-86.5 419.68,-83 409.68,-79.5 409.68,-86.5"/>
<text text-anchor="middle" x="299.5" y="-85.8" font-family="sans-serif" font-size="9.00">diagnostic context / 诊断上下文（非因果边）</text>
</g>
</g>
</svg>
