<?xml version="1.0" encoding="UTF-8" standalone="no"?>
<!DOCTYPE svg PUBLIC "-//W3C//DTD SVG 1.1//EN"
 "http://www.w3.org/Graphics/SVG/1.1/DTD/svg11.dtd">
<!-- Generated by graphviz version 2.43.0 (0)
 -->
<!-- Title: axi4_case Pages: 1 -->
<svg width="830pt" height="115pt"
 viewBox="0.00 0.00 829.79 114.56" xmlns="http://www.w3.org/2000/svg" xmlns:xlink="http://www.w3.org/1999/xlink">
<g id="graph0" class="graph" transform="scale(1 1) rotate(0) translate(14.4 100.16)">
<title>axi4_case</title>
<polygon fill="white" stroke="transparent" points="-14.4,14.4 -14.4,-100.16 815.39,-100.16 815.39,14.4 -14.4,14.4"/>
<text text-anchor="middle" x="400.5" y="-70.56" font-family="Times,serif" font-size="14.00">WRAP uses one of the protocol&#39;s permitted transfer counts / WRAP 必须使用协议允许的传输拍数</text>
<!-- context -->
<g id="node1" class="node">
<title>context</title>
<polygon fill="#f4f5f6" stroke="#7c8790" points="156,-49.38 0,-49.38 0,-13.38 162,-13.38 162,-43.38 156,-49.38"/>
<polyline fill="none" stroke="#7c8790" points="156,-49.38 156,-43.38 "/>
<polyline fill="none" stroke="#7c8790" points="162,-43.38 156,-43.38 "/>
<text text-anchor="middle" x="81" y="-34.38" font-family="sans-serif" font-size="10.00">rejected input / 被拒输入</text>
<text text-anchor="middle" x="81" y="-23.38" font-family="sans-serif" font-size="10.00">ID9 A=0x40 N=3 S=4B WRAP</text>
</g>
<!-- fault -->
<g id="node2" class="node">
<title>fault</title>
<polygon fill="#ffe9e7" stroke="#b33a2b" points="800.99,-18.43 800.99,-44.33 684.42,-62.64 519.57,-62.64 403,-44.33 403,-18.43 519.57,-0.12 684.42,-0.12 800.99,-18.43"/>
<text text-anchor="middle" x="602" y="-39.88" font-family="sans-serif" font-size="10.00">REJECTED / 已拒绝</text>
<text text-anchor="middle" x="602" y="-28.88" font-family="sans-serif" font-size="10.00">axi4.link_session.AR.event_schema</text>
<text text-anchor="middle" x="602" y="-17.88" font-family="sans-serif" font-size="10.00">WRAP burst length must be 2, 4, 8, or 16 transfers</text>
</g>
<!-- context&#45;&gt;fault -->
<g id="edge1" class="edge">
<title>context&#45;&gt;fault</title>
<path fill="none" stroke="#777777" stroke-dasharray="5,2" d="M162.24,-31.38C223.77,-31.38 311.59,-31.38 392.52,-31.38"/>
<polygon fill="#777777" stroke="#777777" points="392.87,-34.88 402.87,-31.38 392.87,-27.88 392.87,-34.88"/>
<text text-anchor="middle" x="282.5" y="-34.18" font-family="sans-serif" font-size="9.00">diagnostic context / 诊断上下文（非因果边）</text>
</g>
</g>
</svg>
