<?xml version="1.0" encoding="UTF-8" standalone="no"?>
<!DOCTYPE svg PUBLIC "-//W3C//DTD SVG 1.1//EN"
 "http://www.w3.org/Graphics/SVG/1.1/DTD/svg11.dtd">
<!-- Generated by graphviz version 2.43.0 (0)
 -->
<!-- Title: axi_scenario Pages: 1 -->
<svg width="801pt" height="205pt"
 viewBox="0.00 0.00 800.72 205.13" xmlns="http://www.w3.org/2000/svg" xmlns:xlink="http://www.w3.org/1999/xlink">
<g id="graph0" class="graph" transform="scale(1 1) rotate(0) translate(4 201.13)">
<title>axi_scenario</title>
<polygon fill="white" stroke="transparent" points="-4,4 -4,-201.13 796.72,-201.13 796.72,4 -4,4"/>
<text text-anchor="middle" x="396.36" y="-181.93" font-family="Times,serif" font-size="14.00">stall_aw_payload_mutation</text>
<!-- n0 -->
<g id="node1" class="node">
<title>n0</title>
<path fill="#fef3c7" stroke="black" d="M285,-174.13C285,-174.13 12,-174.13 12,-174.13 6,-174.13 0,-168.13 0,-162.13 0,-162.13 0,-133.13 0,-133.13 0,-127.13 6,-121.13 12,-121.13 12,-121.13 285,-121.13 285,-121.13 291,-121.13 297,-127.13 297,-133.13 297,-133.13 297,-162.13 297,-162.13 297,-168.13 291,-174.13 285,-174.13"/>
<text text-anchor="middle" x="148.5" y="-158.93" font-family="monospace" font-size="14.00">cycle 1 AW</text>
<text text-anchor="middle" x="148.5" y="-143.93" font-family="monospace" font-size="14.00">AW_TRANSFER id=1</text>
<text text-anchor="middle" x="148.5" y="-128.93" font-family="monospace" font-size="14.00">addr=42496 len=0 size=3 burst=INCR</text>
</g>
<!-- n1 -->
<g id="node2" class="node">
<title>n1</title>
<path fill="#fef3c7" stroke="black" d="M607,-174.13C607,-174.13 334,-174.13 334,-174.13 328,-174.13 322,-168.13 322,-162.13 322,-162.13 322,-133.13 322,-133.13 322,-127.13 328,-121.13 334,-121.13 334,-121.13 607,-121.13 607,-121.13 613,-121.13 619,-127.13 619,-133.13 619,-133.13 619,-162.13 619,-162.13 619,-168.13 613,-174.13 607,-174.13"/>
<text text-anchor="middle" x="470.5" y="-158.93" font-family="monospace" font-size="14.00">cycle 2 AW</text>
<text text-anchor="middle" x="470.5" y="-143.93" font-family="monospace" font-size="14.00">AW_TRANSFER id=1</text>
<text text-anchor="middle" x="470.5" y="-128.93" font-family="monospace" font-size="14.00">addr=42504 len=0 size=3 burst=INCR</text>
</g>
<!-- n0&#45;&gt;n1 -->
<g id="edge1" class="edge">
<title>n0&#45;&gt;n1</title>
<path fill="none" stroke="#94a3b8" d="M255.76,-121.15C255.81,-121.14 255.83,-121.13 255.83,-121.13 255.83,-121.13 326.01,-121.13 352.92,-121.14"/>
<polygon fill="#94a3b8" stroke="#94a3b8" points="353.24,-124.64 363.24,-121.15 353.25,-117.64 353.24,-124.64"/>
</g>
<!-- n0&#45;&gt;n1 -->
<!-- fault -->
<g id="node3" class="node">
<title>fault</title>
<path fill="#fecaca" stroke="black" d="M792.94,-34.95C792.94,-34.95 792.94,-46.17 792.94,-46.17 792.94,-51.78 787.37,-58.09 781.81,-58.8 781.81,-58.8 615.19,-79.79 615.19,-79.79 609.62,-80.49 598.45,-81.19 592.84,-81.19 592.84,-81.19 348.16,-81.19 348.16,-81.19 342.55,-81.19 331.38,-80.49 325.81,-79.79 325.81,-79.79 159.19,-58.8 159.19,-58.8 153.63,-58.09 148.06,-51.78 148.06,-46.17 148.06,-46.17 148.06,-34.95 148.06,-34.95 148.06,-29.35 153.63,-23.03 159.19,-22.33 159.19,-22.33 325.81,-1.34 325.81,-1.34 331.38,-0.64 342.55,0.06 348.16,0.06 348.16,0.06 592.84,0.06 592.84,0.06 598.45,0.06 609.62,-0.64 615.19,-1.34 615.19,-1.34 781.81,-22.33 781.81,-22.33 787.37,-23.03 792.94,-29.35 792.94,-34.95"/>
<text text-anchor="middle" x="470.5" y="-51.86" font-family="monospace" font-size="14.00">FAULT</text>
<text text-anchor="middle" x="470.5" y="-36.86" font-family="monospace" font-size="14.00">AW.ready_valid.payload_stability</text>
<text text-anchor="middle" x="470.5" y="-21.86" font-family="monospace" font-size="14.00">channel event changed while stalled since cycle 1</text>
</g>
<!-- n1&#45;&gt;fault -->
<g id="edge3" class="edge">
<title>n1&#45;&gt;fault</title>
<path fill="none" stroke="#dc2626" stroke-width="2" d="M470.5,-120.93C470.5,-112 470.5,-101.65 470.5,-91.44"/>
<polygon fill="#dc2626" stroke="#dc2626" stroke-width="2" points="474,-91.33 470.5,-81.33 467,-91.33 474,-91.33"/>
</g>
</g>
</svg>
