<?xml version="1.0" encoding="UTF-8" standalone="no"?>
<!DOCTYPE svg PUBLIC "-//W3C//DTD SVG 1.1//EN"
 "http://www.w3.org/Graphics/SVG/1.1/DTD/svg11.dtd">
<!-- Generated by graphviz version 2.43.0 (0)
 -->
<!-- Title: axi4_case Pages: 1 -->
<svg width="738pt" height="115pt"
 viewBox="0.00 0.00 737.54 114.56" xmlns="http://www.w3.org/2000/svg" xmlns:xlink="http://www.w3.org/1999/xlink">
<g id="graph0" class="graph" transform="scale(1 1) rotate(0) translate(14.4 100.16)">
<title>axi4_case</title>
<polygon fill="white" stroke="transparent" points="-14.4,14.4 -14.4,-100.16 723.14,-100.16 723.14,14.4 -14.4,14.4"/>
<text text-anchor="middle" x="354.37" y="-70.56" font-family="Times,serif" font-size="14.00">An INCR burst stays within one 4KB region / INCR burst 必须位于同一个 4KB 区域</text>
<!-- context -->
<g id="node1" class="node">
<title>context</title>
<polygon fill="#f4f5f6" stroke="#7c8790" points="151,-49.38 0,-49.38 0,-13.38 157,-13.38 157,-43.38 151,-49.38"/>
<polyline fill="none" stroke="#7c8790" points="151,-49.38 151,-43.38 "/>
<polyline fill="none" stroke="#7c8790" points="157,-43.38 151,-43.38 "/>
<text text-anchor="middle" x="78.5" y="-34.38" font-family="sans-serif" font-size="10.00">rejected input / 被拒输入</text>
<text text-anchor="middle" x="78.5" y="-23.38" font-family="sans-serif" font-size="10.00">ID1 A=0xffc N=2 S=4B INCR</text>
</g>
<!-- fault -->
<g id="node2" class="node">
<title>fault</title>
<polygon fill="#ffe9e7" stroke="#b33a2b" points="708.61,-18.43 708.61,-44.33 617.67,-62.64 489.07,-62.64 398.13,-44.33 398.13,-18.43 489.07,-0.12 617.67,-0.12 708.61,-18.43"/>
<text text-anchor="middle" x="553.37" y="-39.88" font-family="sans-serif" font-size="10.00">REJECTED / 已拒绝</text>
<text text-anchor="middle" x="553.37" y="-28.88" font-family="sans-serif" font-size="10.00">axi4.link_session.AR.event_schema</text>
<text text-anchor="middle" x="553.37" y="-17.88" font-family="sans-serif" font-size="10.00">burst crosses a 4KB address boundary</text>
</g>
<!-- context&#45;&gt;fault -->
<g id="edge1" class="edge">
<title>context&#45;&gt;fault</title>
<path fill="none" stroke="#777777" stroke-dasharray="5,2" d="M157.06,-31.38C219.37,-31.38 309.08,-31.38 387.3,-31.38"/>
<polygon fill="#777777" stroke="#777777" points="387.77,-34.88 397.77,-31.38 387.77,-27.88 387.77,-34.88"/>
<text text-anchor="middle" x="277.5" y="-34.18" font-family="sans-serif" font-size="9.00">diagnostic context / 诊断上下文（非因果边）</text>
</g>
</g>
</svg>
