<?xml version="1.0" encoding="UTF-8" standalone="no"?>
<!DOCTYPE svg PUBLIC "-//W3C//DTD SVG 1.1//EN"
 "http://www.w3.org/Graphics/SVG/1.1/DTD/svg11.dtd">
<!-- Generated by graphviz version 2.43.0 (0)
 -->
<!-- Title: axi_fault Pages: 1 -->
<svg width="941pt" height="89pt"
 viewBox="0.00 0.00 940.85 89.17" xmlns="http://www.w3.org/2000/svg" xmlns:xlink="http://www.w3.org/1999/xlink">
<g id="graph0" class="graph" transform="scale(1 1) rotate(0) translate(4 85.17)">
<title>axi_fault</title>
<polygon fill="white" stroke="transparent" points="-4,4 -4,-85.17 936.85,-85.17 936.85,4 -4,4"/>
<text text-anchor="middle" x="466.42" y="-65.97" font-family="Times,serif" font-size="14.00">4KB boundary violation</text>
<!-- stimulus -->
<g id="node1" class="node">
<title>stimulus</title>
<path fill="#fef3c7" stroke="black" d="M285,-48.08C285,-48.08 12,-48.08 12,-48.08 6,-48.08 0,-42.08 0,-36.08 0,-36.08 0,-22.08 0,-22.08 0,-16.08 6,-10.08 12,-10.08 12,-10.08 285,-10.08 285,-10.08 291,-10.08 297,-16.08 297,-22.08 297,-22.08 297,-36.08 297,-36.08 297,-42.08 291,-48.08 285,-48.08"/>
<text text-anchor="middle" x="148.5" y="-32.88" font-family="monospace" font-size="14.00">attempted AR_TRANSFER id=3</text>
<text text-anchor="middle" x="148.5" y="-17.88" font-family="monospace" font-size="14.00">addr=0xff4 len=3 size=2 burst=INCR</text>
</g>
<!-- link -->
<g id="node2" class="node">
<title>link</title>
<path fill="#dbeafe" stroke="black" d="M519,-47.08C519,-47.08 345,-47.08 345,-47.08 339,-47.08 333,-41.08 333,-35.08 333,-35.08 333,-23.08 333,-23.08 333,-17.08 339,-11.08 345,-11.08 345,-11.08 519,-11.08 519,-11.08 525,-11.08 531,-17.08 531,-23.08 531,-23.08 531,-35.08 531,-35.08 531,-41.08 525,-47.08 519,-47.08"/>
<text text-anchor="middle" x="432" y="-25.38" font-family="monospace" font-size="14.00">AXI&#45;A constraint check</text>
</g>
<!-- stimulus&#45;&gt;link -->
<g id="edge1" class="edge">
<title>stimulus&#45;&gt;link</title>
<path fill="none" stroke="#dc2626" stroke-width="2" d="M297.26,-29.08C305.85,-29.08 314.4,-29.08 322.79,-29.08"/>
<polygon fill="#dc2626" stroke="#dc2626" stroke-width="2" points="322.93,-32.58 332.93,-29.08 322.93,-25.58 322.93,-32.58"/>
</g>
<!-- fault -->
<g id="node3" class="node">
<title>fault</title>
<path fill="#fecaca" stroke="black" d="M932.77,-25.06C932.77,-25.06 932.77,-33.11 932.77,-33.11 932.77,-37.14 928.79,-41.8 924.81,-42.43 924.81,-42.43 833.61,-56.98 833.61,-56.98 829.64,-57.62 821.63,-58.25 817.61,-58.25 817.61,-58.25 682.24,-58.25 682.24,-58.25 678.21,-58.25 670.21,-57.62 666.23,-56.98 666.23,-56.98 575.03,-42.43 575.03,-42.43 571.05,-41.8 567.08,-37.14 567.08,-33.11 567.08,-33.11 567.08,-25.06 567.08,-25.06 567.08,-21.03 571.05,-16.37 575.03,-15.73 575.03,-15.73 666.23,-1.18 666.23,-1.18 670.21,-0.55 678.21,0.08 682.24,0.08 682.24,0.08 817.61,0.08 817.61,0.08 821.63,0.08 829.64,-0.55 833.61,-1.18 833.61,-1.18 924.81,-15.73 924.81,-15.73 928.79,-16.37 932.77,-21.03 932.77,-25.06"/>
<text text-anchor="middle" x="749.92" y="-32.88" font-family="monospace" font-size="14.00">FAULT</text>
<text text-anchor="middle" x="749.92" y="-17.88" font-family="monospace" font-size="14.00">axi4.session.AR.event_space</text>
</g>
<!-- link&#45;&gt;fault -->
<g id="edge2" class="edge">
<title>link&#45;&gt;fault</title>
<path fill="none" stroke="#dc2626" stroke-width="2" d="M531.23,-29.08C539.5,-29.08 548.02,-29.08 556.69,-29.08"/>
<polygon fill="#dc2626" stroke="#dc2626" stroke-width="2" points="556.92,-32.58 566.92,-29.08 556.92,-25.58 556.92,-32.58"/>
</g>
</g>
</svg>
