<?xml version="1.0" encoding="UTF-8" standalone="no"?>
<!DOCTYPE svg PUBLIC "-//W3C//DTD SVG 1.1//EN"
 "http://www.w3.org/Graphics/SVG/1.1/DTD/svg11.dtd">
<!-- Generated by graphviz version 2.43.0 (0)
 -->
<!-- Title: apb_trace Pages: 1 -->
<svg width="679pt" height="456pt"
 viewBox="0.00 0.00 679.00 456.00" xmlns="http://www.w3.org/2000/svg" xmlns:xlink="http://www.w3.org/1999/xlink">
<g id="graph0" class="graph" transform="scale(1 1) rotate(0) translate(4 452)">
<title>apb_trace</title>
<polygon fill="white" stroke="transparent" points="-4,4 -4,-452 675,-452 675,4 -4,4"/>
<text text-anchor="middle" x="335.5" y="-432.8" font-family="Times,serif" font-size="14.00">APB3 legal sample flow</text>
<!-- s0 -->
<g id="node1" class="node">
<title>s0</title>
<path fill="#e2e8f0" stroke="black" d="M195,-425C195,-425 128,-425 128,-425 122,-425 116,-419 116,-413 116,-413 116,-384 116,-384 116,-378 122,-372 128,-372 128,-372 195,-372 195,-372 201,-372 207,-378 207,-384 207,-384 207,-413 207,-413 207,-419 201,-425 195,-425"/>
<text text-anchor="middle" x="161.5" y="-409.8" font-family="monospace" font-size="14.00">cycle 0</text>
<text text-anchor="middle" x="161.5" y="-394.8" font-family="monospace" font-size="14.00">RESET</text>
<text text-anchor="middle" x="161.5" y="-379.8" font-family="monospace" font-size="14.00">PADDR=0x0</text>
</g>
<!-- s1 -->
<g id="node2" class="node">
<title>s1</title>
<path fill="#e2e8f0" stroke="black" d="M311,-425C311,-425 244,-425 244,-425 238,-425 232,-419 232,-413 232,-413 232,-384 232,-384 232,-378 238,-372 244,-372 244,-372 311,-372 311,-372 317,-372 323,-378 323,-384 323,-384 323,-413 323,-413 323,-419 317,-425 311,-425"/>
<text text-anchor="middle" x="277.5" y="-409.8" font-family="monospace" font-size="14.00">cycle 1</text>
<text text-anchor="middle" x="277.5" y="-394.8" font-family="monospace" font-size="14.00">IDLE</text>
<text text-anchor="middle" x="277.5" y="-379.8" font-family="monospace" font-size="14.00">PADDR=0x0</text>
</g>
<!-- s0&#45;&gt;s1 -->
<g id="edge1" class="edge">
<title>s0&#45;&gt;s1</title>
<path fill="none" stroke="#94a3b8" d="M200.06,-372.08C200.13,-372.03 200.17,-372 200.17,-372 200.17,-372 217.22,-372 228.71,-372.02"/>
<polygon fill="#94a3b8" stroke="#94a3b8" points="228.93,-375.52 238.94,-372.08 228.96,-368.52 228.93,-375.52"/>
</g>
<!-- s0&#45;&gt;s1 -->
<!-- s2 -->
<g id="node3" class="node">
<title>s2</title>
<path fill="#e2e8f0" stroke="black" d="M485,-425C485,-425 360,-425 360,-425 354,-425 348,-419 348,-413 348,-413 348,-384 348,-384 348,-378 354,-372 360,-372 360,-372 485,-372 485,-372 491,-372 497,-378 497,-384 497,-384 497,-413 497,-413 497,-419 491,-425 485,-425"/>
<text text-anchor="middle" x="422.5" y="-409.8" font-family="monospace" font-size="14.00">cycle 2</text>
<text text-anchor="middle" x="422.5" y="-394.8" font-family="monospace" font-size="14.00">SETUP</text>
<text text-anchor="middle" x="422.5" y="-379.8" font-family="monospace" font-size="14.00">PADDR=0xb39cfd4b</text>
</g>
<!-- s1&#45;&gt;s2 -->
<g id="edge2" class="edge">
<title>s1&#45;&gt;s2</title>
<path fill="none" stroke="#94a3b8" d="M323.23,-373.42C324.88,-372.52 325.83,-372 325.83,-372 325.83,-372 349.73,-372 363.96,-372.03"/>
<polygon fill="#94a3b8" stroke="#94a3b8" points="364.29,-375.53 374.31,-372.08 364.32,-368.53 364.29,-375.53"/>
</g>
<!-- s1&#45;&gt;s2 -->
<!-- s3 -->
<g id="node4" class="node">
<title>s3</title>
<path fill="#e2e8f0" stroke="black" d="M659,-425C659,-425 534,-425 534,-425 528,-425 522,-419 522,-413 522,-413 522,-384 522,-384 522,-378 528,-372 534,-372 534,-372 659,-372 659,-372 665,-372 671,-378 671,-384 671,-384 671,-413 671,-413 671,-419 665,-425 659,-425"/>
<text text-anchor="middle" x="596.5" y="-409.8" font-family="monospace" font-size="14.00">cycle 3</text>
<text text-anchor="middle" x="596.5" y="-394.8" font-family="monospace" font-size="14.00">WAIT</text>
<text text-anchor="middle" x="596.5" y="-379.8" font-family="monospace" font-size="14.00">PADDR=0xb39cfd4b</text>
</g>
<!-- s2&#45;&gt;s3 -->
<g id="edge3" class="edge">
<title>s2&#45;&gt;s3</title>
<path fill="none" stroke="#94a3b8" d="M480.33,-372.08C480.44,-372.03 480.5,-372 480.5,-372 480.5,-372 511.78,-372 528.46,-372.03"/>
<polygon fill="#94a3b8" stroke="#94a3b8" points="528.65,-375.53 538.67,-372.08 528.68,-368.53 528.65,-375.53"/>
</g>
<!-- s2&#45;&gt;s3 -->
<!-- s4 -->
<g id="node5" class="node">
<title>s4</title>
<path fill="#e2e8f0" stroke="black" d="M659,-332C659,-332 534,-332 534,-332 528,-332 522,-326 522,-320 522,-320 522,-291 522,-291 522,-285 528,-279 534,-279 534,-279 659,-279 659,-279 665,-279 671,-285 671,-291 671,-291 671,-320 671,-320 671,-326 665,-332 659,-332"/>
<text text-anchor="middle" x="596.5" y="-316.8" font-family="monospace" font-size="14.00">cycle 4</text>
<text text-anchor="middle" x="596.5" y="-301.8" font-family="monospace" font-size="14.00">COMPLETE</text>
<text text-anchor="middle" x="596.5" y="-286.8" font-family="monospace" font-size="14.00">PADDR=0xb39cfd4b</text>
</g>
<!-- s3&#45;&gt;s4 -->
<g id="edge4" class="edge">
<title>s3&#45;&gt;s4</title>
<path fill="none" stroke="#94a3b8" d="M596.5,-371.67C596.5,-362.56 596.5,-352.15 596.5,-342.37"/>
<polygon fill="#94a3b8" stroke="#94a3b8" points="600,-342.08 596.5,-332.08 593,-342.08 600,-342.08"/>
</g>
<!-- s5 -->
<g id="node6" class="node">
<title>s5</title>
<path fill="#e2e8f0" stroke="black" d="M485,-332C485,-332 360,-332 360,-332 354,-332 348,-326 348,-320 348,-320 348,-291 348,-291 348,-285 354,-279 360,-279 360,-279 485,-279 485,-279 491,-279 497,-285 497,-291 497,-291 497,-320 497,-320 497,-326 491,-332 485,-332"/>
<text text-anchor="middle" x="422.5" y="-316.8" font-family="monospace" font-size="14.00">cycle 5</text>
<text text-anchor="middle" x="422.5" y="-301.8" font-family="monospace" font-size="14.00">SETUP</text>
<text text-anchor="middle" x="422.5" y="-286.8" font-family="monospace" font-size="14.00">PADDR=0x1ddccf2d</text>
</g>
<!-- s4&#45;&gt;s5 -->
<g id="edge5" class="edge">
<title>s4&#45;&gt;s5</title>
<path fill="none" stroke="#94a3b8" d="M538.67,-279.08C538.56,-279.03 538.5,-279 538.5,-279 538.5,-279 507.22,-279 490.54,-279.03"/>
<polygon fill="#94a3b8" stroke="#94a3b8" points="490.32,-275.53 480.33,-279.08 490.35,-282.53 490.32,-275.53"/>
</g>
<!-- s5&#45;&gt;s4 -->
<!-- s6 -->
<g id="node7" class="node">
<title>s6</title>
<path fill="#e2e8f0" stroke="black" d="M311,-332C311,-332 186,-332 186,-332 180,-332 174,-326 174,-320 174,-320 174,-291 174,-291 174,-285 180,-279 186,-279 186,-279 311,-279 311,-279 317,-279 323,-285 323,-291 323,-291 323,-320 323,-320 323,-326 317,-332 311,-332"/>
<text text-anchor="middle" x="248.5" y="-316.8" font-family="monospace" font-size="14.00">cycle 6</text>
<text text-anchor="middle" x="248.5" y="-301.8" font-family="monospace" font-size="14.00">COMPLETE</text>
<text text-anchor="middle" x="248.5" y="-286.8" font-family="monospace" font-size="14.00">PADDR=0x1ddccf2d</text>
</g>
<!-- s5&#45;&gt;s6 -->
<g id="edge6" class="edge">
<title>s5&#45;&gt;s6</title>
<path fill="none" stroke="#94a3b8" d="M364.67,-279.08C364.56,-279.03 364.5,-279 364.5,-279 364.5,-279 333.22,-279 316.54,-279.03"/>
<polygon fill="#94a3b8" stroke="#94a3b8" points="316.32,-275.53 306.33,-279.08 316.35,-282.53 316.32,-275.53"/>
</g>
<!-- s6&#45;&gt;s5 -->
<!-- s7 -->
<g id="node8" class="node">
<title>s7</title>
<path fill="#e2e8f0" stroke="black" d="M137,-332C137,-332 12,-332 12,-332 6,-332 0,-326 0,-320 0,-320 0,-291 0,-291 0,-285 6,-279 12,-279 12,-279 137,-279 137,-279 143,-279 149,-285 149,-291 149,-291 149,-320 149,-320 149,-326 143,-332 137,-332"/>
<text text-anchor="middle" x="74.5" y="-316.8" font-family="monospace" font-size="14.00">cycle 7</text>
<text text-anchor="middle" x="74.5" y="-301.8" font-family="monospace" font-size="14.00">SETUP</text>
<text text-anchor="middle" x="74.5" y="-286.8" font-family="monospace" font-size="14.00">PADDR=0xfd4f6854</text>
</g>
<!-- s6&#45;&gt;s7 -->
<g id="edge7" class="edge">
<title>s6&#45;&gt;s7</title>
<path fill="none" stroke="#94a3b8" d="M190.67,-279.08C190.56,-279.03 190.5,-279 190.5,-279 190.5,-279 159.22,-279 142.54,-279.03"/>
<polygon fill="#94a3b8" stroke="#94a3b8" points="142.32,-275.53 132.33,-279.08 142.35,-282.53 142.32,-275.53"/>
</g>
<!-- s7&#45;&gt;s6 -->
<!-- s8 -->
<g id="node9" class="node">
<title>s8</title>
<path fill="#e2e8f0" stroke="black" d="M137,-239C137,-239 12,-239 12,-239 6,-239 0,-233 0,-227 0,-227 0,-198 0,-198 0,-192 6,-186 12,-186 12,-186 137,-186 137,-186 143,-186 149,-192 149,-198 149,-198 149,-227 149,-227 149,-233 143,-239 137,-239"/>
<text text-anchor="middle" x="74.5" y="-223.8" font-family="monospace" font-size="14.00">cycle 8</text>
<text text-anchor="middle" x="74.5" y="-208.8" font-family="monospace" font-size="14.00">WAIT</text>
<text text-anchor="middle" x="74.5" y="-193.8" font-family="monospace" font-size="14.00">PADDR=0xfd4f6854</text>
</g>
<!-- s7&#45;&gt;s8 -->
<g id="edge8" class="edge">
<title>s7&#45;&gt;s8</title>
<path fill="none" stroke="#94a3b8" d="M74.5,-278.67C74.5,-269.56 74.5,-259.15 74.5,-249.37"/>
<polygon fill="#94a3b8" stroke="#94a3b8" points="78,-249.08 74.5,-239.08 71,-249.08 78,-249.08"/>
</g>
<!-- s9 -->
<g id="node10" class="node">
<title>s9</title>
<path fill="#e2e8f0" stroke="black" d="M311,-239C311,-239 186,-239 186,-239 180,-239 174,-233 174,-227 174,-227 174,-198 174,-198 174,-192 180,-186 186,-186 186,-186 311,-186 311,-186 317,-186 323,-192 323,-198 323,-198 323,-227 323,-227 323,-233 317,-239 311,-239"/>
<text text-anchor="middle" x="248.5" y="-223.8" font-family="monospace" font-size="14.00">cycle 9</text>
<text text-anchor="middle" x="248.5" y="-208.8" font-family="monospace" font-size="14.00">WAIT</text>
<text text-anchor="middle" x="248.5" y="-193.8" font-family="monospace" font-size="14.00">PADDR=0xfd4f6854</text>
</g>
<!-- s8&#45;&gt;s9 -->
<g id="edge9" class="edge">
<title>s8&#45;&gt;s9</title>
<path fill="none" stroke="#94a3b8" d="M132.33,-186.08C132.44,-186.03 132.5,-186 132.5,-186 132.5,-186 163.78,-186 180.46,-186.03"/>
<polygon fill="#94a3b8" stroke="#94a3b8" points="180.65,-189.53 190.67,-186.08 180.68,-182.53 180.65,-189.53"/>
</g>
<!-- s8&#45;&gt;s9 -->
<!-- s10 -->
<g id="node11" class="node">
<title>s10</title>
<path fill="#e2e8f0" stroke="black" d="M485,-239C485,-239 360,-239 360,-239 354,-239 348,-233 348,-227 348,-227 348,-198 348,-198 348,-192 354,-186 360,-186 360,-186 485,-186 485,-186 491,-186 497,-192 497,-198 497,-198 497,-227 497,-227 497,-233 491,-239 485,-239"/>
<text text-anchor="middle" x="422.5" y="-223.8" font-family="monospace" font-size="14.00">cycle 10</text>
<text text-anchor="middle" x="422.5" y="-208.8" font-family="monospace" font-size="14.00">WAIT</text>
<text text-anchor="middle" x="422.5" y="-193.8" font-family="monospace" font-size="14.00">PADDR=0xfd4f6854</text>
</g>
<!-- s9&#45;&gt;s10 -->
<g id="edge10" class="edge">
<title>s9&#45;&gt;s10</title>
<path fill="none" stroke="#94a3b8" d="M306.33,-186.08C306.44,-186.03 306.5,-186 306.5,-186 306.5,-186 337.78,-186 354.46,-186.03"/>
<polygon fill="#94a3b8" stroke="#94a3b8" points="354.65,-189.53 364.67,-186.08 354.68,-182.53 354.65,-189.53"/>
</g>
<!-- s9&#45;&gt;s10 -->
<!-- s11 -->
<g id="node12" class="node">
<title>s11</title>
<path fill="#e2e8f0" stroke="black" d="M659,-239C659,-239 534,-239 534,-239 528,-239 522,-233 522,-227 522,-227 522,-198 522,-198 522,-192 528,-186 534,-186 534,-186 659,-186 659,-186 665,-186 671,-192 671,-198 671,-198 671,-227 671,-227 671,-233 665,-239 659,-239"/>
<text text-anchor="middle" x="596.5" y="-223.8" font-family="monospace" font-size="14.00">cycle 11</text>
<text text-anchor="middle" x="596.5" y="-208.8" font-family="monospace" font-size="14.00">COMPLETE</text>
<text text-anchor="middle" x="596.5" y="-193.8" font-family="monospace" font-size="14.00">PADDR=0xfd4f6854</text>
</g>
<!-- s10&#45;&gt;s11 -->
<g id="edge11" class="edge">
<title>s10&#45;&gt;s11</title>
<path fill="none" stroke="#94a3b8" d="M480.33,-186.08C480.44,-186.03 480.5,-186 480.5,-186 480.5,-186 511.78,-186 528.46,-186.03"/>
<polygon fill="#94a3b8" stroke="#94a3b8" points="528.65,-189.53 538.67,-186.08 528.68,-182.53 528.65,-189.53"/>
</g>
<!-- s10&#45;&gt;s11 -->
<!-- s12 -->
<g id="node13" class="node">
<title>s12</title>
<path fill="#e2e8f0" stroke="black" d="M659,-146C659,-146 534,-146 534,-146 528,-146 522,-140 522,-134 522,-134 522,-105 522,-105 522,-99 528,-93 534,-93 534,-93 659,-93 659,-93 665,-93 671,-99 671,-105 671,-105 671,-134 671,-134 671,-140 665,-146 659,-146"/>
<text text-anchor="middle" x="596.5" y="-130.8" font-family="monospace" font-size="14.00">cycle 12</text>
<text text-anchor="middle" x="596.5" y="-115.8" font-family="monospace" font-size="14.00">SETUP</text>
<text text-anchor="middle" x="596.5" y="-100.8" font-family="monospace" font-size="14.00">PADDR=0x12d465da</text>
</g>
<!-- s11&#45;&gt;s12 -->
<g id="edge12" class="edge">
<title>s11&#45;&gt;s12</title>
<path fill="none" stroke="#94a3b8" d="M596.5,-185.67C596.5,-176.56 596.5,-166.15 596.5,-156.37"/>
<polygon fill="#94a3b8" stroke="#94a3b8" points="600,-156.08 596.5,-146.08 593,-156.08 600,-156.08"/>
</g>
<!-- s13 -->
<g id="node14" class="node">
<title>s13</title>
<path fill="#e2e8f0" stroke="black" d="M485,-146C485,-146 360,-146 360,-146 354,-146 348,-140 348,-134 348,-134 348,-105 348,-105 348,-99 354,-93 360,-93 360,-93 485,-93 485,-93 491,-93 497,-99 497,-105 497,-105 497,-134 497,-134 497,-140 491,-146 485,-146"/>
<text text-anchor="middle" x="422.5" y="-130.8" font-family="monospace" font-size="14.00">cycle 13</text>
<text text-anchor="middle" x="422.5" y="-115.8" font-family="monospace" font-size="14.00">WAIT</text>
<text text-anchor="middle" x="422.5" y="-100.8" font-family="monospace" font-size="14.00">PADDR=0x12d465da</text>
</g>
<!-- s12&#45;&gt;s13 -->
<g id="edge13" class="edge">
<title>s12&#45;&gt;s13</title>
<path fill="none" stroke="#94a3b8" d="M538.67,-93.08C538.56,-93.03 538.5,-93 538.5,-93 538.5,-93 507.22,-93 490.54,-93.03"/>
<polygon fill="#94a3b8" stroke="#94a3b8" points="490.32,-89.53 480.33,-93.08 490.35,-96.53 490.32,-89.53"/>
</g>
<!-- s13&#45;&gt;s12 -->
<!-- s14 -->
<g id="node15" class="node">
<title>s14</title>
<path fill="#e2e8f0" stroke="black" d="M311,-146C311,-146 186,-146 186,-146 180,-146 174,-140 174,-134 174,-134 174,-105 174,-105 174,-99 180,-93 186,-93 186,-93 311,-93 311,-93 317,-93 323,-99 323,-105 323,-105 323,-134 323,-134 323,-140 317,-146 311,-146"/>
<text text-anchor="middle" x="248.5" y="-130.8" font-family="monospace" font-size="14.00">cycle 14</text>
<text text-anchor="middle" x="248.5" y="-115.8" font-family="monospace" font-size="14.00">WAIT</text>
<text text-anchor="middle" x="248.5" y="-100.8" font-family="monospace" font-size="14.00">PADDR=0x12d465da</text>
</g>
<!-- s13&#45;&gt;s14 -->
<g id="edge14" class="edge">
<title>s13&#45;&gt;s14</title>
<path fill="none" stroke="#94a3b8" d="M364.67,-93.08C364.56,-93.03 364.5,-93 364.5,-93 364.5,-93 333.22,-93 316.54,-93.03"/>
<polygon fill="#94a3b8" stroke="#94a3b8" points="316.32,-89.53 306.33,-93.08 316.35,-96.53 316.32,-89.53"/>
</g>
<!-- s14&#45;&gt;s13 -->
<!-- s15 -->
<g id="node16" class="node">
<title>s15</title>
<path fill="#e2e8f0" stroke="black" d="M137,-146C137,-146 12,-146 12,-146 6,-146 0,-140 0,-134 0,-134 0,-105 0,-105 0,-99 6,-93 12,-93 12,-93 137,-93 137,-93 143,-93 149,-99 149,-105 149,-105 149,-134 149,-134 149,-140 143,-146 137,-146"/>
<text text-anchor="middle" x="74.5" y="-130.8" font-family="monospace" font-size="14.00">cycle 15</text>
<text text-anchor="middle" x="74.5" y="-115.8" font-family="monospace" font-size="14.00">COMPLETE</text>
<text text-anchor="middle" x="74.5" y="-100.8" font-family="monospace" font-size="14.00">PADDR=0x12d465da</text>
</g>
<!-- s14&#45;&gt;s15 -->
<g id="edge15" class="edge">
<title>s14&#45;&gt;s15</title>
<path fill="none" stroke="#94a3b8" d="M190.67,-93.08C190.56,-93.03 190.5,-93 190.5,-93 190.5,-93 159.22,-93 142.54,-93.03"/>
<polygon fill="#94a3b8" stroke="#94a3b8" points="142.32,-89.53 132.33,-93.08 142.35,-96.53 142.32,-89.53"/>
</g>
<!-- s15&#45;&gt;s14 -->
<!-- s16 -->
<g id="node17" class="node">
<title>s16</title>
<path fill="#e2e8f0" stroke="black" d="M108,-53C108,-53 41,-53 41,-53 35,-53 29,-47 29,-41 29,-41 29,-12 29,-12 29,-6 35,0 41,0 41,0 108,0 108,0 114,0 120,-6 120,-12 120,-12 120,-41 120,-41 120,-47 114,-53 108,-53"/>
<text text-anchor="middle" x="74.5" y="-37.8" font-family="monospace" font-size="14.00">cycle 16</text>
<text text-anchor="middle" x="74.5" y="-22.8" font-family="monospace" font-size="14.00">IDLE</text>
<text text-anchor="middle" x="74.5" y="-7.8" font-family="monospace" font-size="14.00">PADDR=0x0</text>
</g>
<!-- s15&#45;&gt;s16 -->
<g id="edge16" class="edge">
<title>s15&#45;&gt;s16</title>
<path fill="none" stroke="#94a3b8" d="M74.5,-92.67C74.5,-83.56 74.5,-73.15 74.5,-63.37"/>
<polygon fill="#94a3b8" stroke="#94a3b8" points="78,-63.08 74.5,-53.08 71,-63.08 78,-63.08"/>
</g>
</g>
</svg>
