<?xml version="1.0" encoding="UTF-8" standalone="no"?>
<!DOCTYPE svg PUBLIC "-//W3C//DTD SVG 1.1//EN"
 "http://www.w3.org/Graphics/SVG/1.1/DTD/svg11.dtd">
<!-- Generated by graphviz version 2.43.0 (0)
 -->
<!-- Title: axi4_case Pages: 1 -->
<svg width="819pt" height="115pt"
 viewBox="0.00 0.00 819.36 114.56" xmlns="http://www.w3.org/2000/svg" xmlns:xlink="http://www.w3.org/1999/xlink">
<g id="graph0" class="graph" transform="scale(1 1) rotate(0) translate(14.4 100.16)">
<title>axi4_case</title>
<polygon fill="white" stroke="transparent" points="-14.4,14.4 -14.4,-100.16 804.96,-100.16 804.96,14.4 -14.4,14.4"/>
<text text-anchor="middle" x="395.28" y="-70.56" font-family="Times,serif" font-size="14.00">A response cannot consume an obligation born at the same edge / 响应不能消费同一采样沿刚建立的义务</text>
<!-- context -->
<g id="node1" class="node">
<title>context</title>
<polygon fill="#f4f5f6" stroke="#7c8790" points="167,-51.88 0,-51.88 0,-10.88 173,-10.88 173,-45.88 167,-51.88"/>
<polyline fill="none" stroke="#7c8790" points="167,-51.88 167,-45.88 "/>
<polyline fill="none" stroke="#7c8790" points="173,-45.88 167,-45.88 "/>
<text text-anchor="middle" x="86.5" y="-39.88" font-family="sans-serif" font-size="10.00">diagnostic frame / 诊断帧 · tick 1</text>
<text text-anchor="middle" x="86.5" y="-28.88" font-family="sans-serif" font-size="10.00">ID2 A=0x900 N=1 S=4B INCR</text>
<text text-anchor="middle" x="86.5" y="-17.88" font-family="sans-serif" font-size="10.00">ID2 D=0x0 OKAY L=1</text>
</g>
<!-- fault -->
<g id="node2" class="node">
<title>fault</title>
<polygon fill="#ffe9e7" stroke="#b33a2b" points="790.34,-18.43 790.34,-44.33 680.18,-62.64 524.38,-62.64 414.22,-44.33 414.22,-18.43 524.38,-0.12 680.18,-0.12 790.34,-18.43"/>
<text text-anchor="middle" x="602.28" y="-39.88" font-family="sans-serif" font-size="10.00">REJECTED / 已拒绝</text>
<text text-anchor="middle" x="602.28" y="-28.88" font-family="sans-serif" font-size="10.00">axi4.read.orphan_beat</text>
<text text-anchor="middle" x="602.28" y="-17.88" font-family="sans-serif" font-size="10.00">completion for key 2 has no pending obligation</text>
</g>
<!-- context&#45;&gt;fault -->
<g id="edge1" class="edge">
<title>context&#45;&gt;fault</title>
<path fill="none" stroke="#777777" stroke-dasharray="5,2" d="M173.21,-31.38C236.04,-31.38 323.96,-31.38 403.78,-31.38"/>
<polygon fill="#777777" stroke="#777777" points="403.97,-34.88 413.97,-31.38 403.97,-27.88 403.97,-34.88"/>
<text text-anchor="middle" x="293.5" y="-34.18" font-family="sans-serif" font-size="9.00">diagnostic context / 诊断上下文（非因果边）</text>
</g>
</g>
</svg>
