<?xml version="1.0" encoding="UTF-8" standalone="no"?>
<!DOCTYPE svg PUBLIC "-//W3C//DTD SVG 1.1//EN"
 "http://www.w3.org/Graphics/SVG/1.1/DTD/svg11.dtd">
<!-- Generated by graphviz version 2.43.0 (0)
 -->
<!-- Title: axi_scenario Pages: 1 -->
<svg width="785pt" height="205pt"
 viewBox="0.00 0.00 785.48 205.13" xmlns="http://www.w3.org/2000/svg" xmlns:xlink="http://www.w3.org/1999/xlink">
<g id="graph0" class="graph" transform="scale(1 1) rotate(0) translate(4 201.13)">
<title>axi_scenario</title>
<polygon fill="white" stroke="transparent" points="-4,4 -4,-201.13 781.48,-201.13 781.48,4 -4,4"/>
<text text-anchor="middle" x="388.74" y="-181.93" font-family="Times,serif" font-size="14.00">write_b_before_join</text>
<!-- n0 -->
<g id="node1" class="node">
<title>n0</title>
<path fill="#fef3c7" stroke="black" d="M285,-174.13C285,-174.13 12,-174.13 12,-174.13 6,-174.13 0,-168.13 0,-162.13 0,-162.13 0,-133.13 0,-133.13 0,-127.13 6,-121.13 12,-121.13 12,-121.13 285,-121.13 285,-121.13 291,-121.13 297,-127.13 297,-133.13 297,-133.13 297,-162.13 297,-162.13 297,-168.13 291,-174.13 285,-174.13"/>
<text text-anchor="middle" x="148.5" y="-158.93" font-family="monospace" font-size="14.00">cycle 1 AW</text>
<text text-anchor="middle" x="148.5" y="-143.93" font-family="monospace" font-size="14.00">AW_TRANSFER id=1</text>
<text text-anchor="middle" x="148.5" y="-128.93" font-family="monospace" font-size="14.00">addr=32768 len=0 size=3 burst=INCR</text>
</g>
<!-- n1 -->
<g id="node2" class="node">
<title>n1</title>
<path fill="#dcfce7" stroke="black" d="M450.5,-174.13C450.5,-174.13 334.5,-174.13 334.5,-174.13 328.5,-174.13 322.5,-168.13 322.5,-162.13 322.5,-162.13 322.5,-133.13 322.5,-133.13 322.5,-127.13 328.5,-121.13 334.5,-121.13 334.5,-121.13 450.5,-121.13 450.5,-121.13 456.5,-121.13 462.5,-127.13 462.5,-133.13 462.5,-133.13 462.5,-162.13 462.5,-162.13 462.5,-168.13 456.5,-174.13 450.5,-174.13"/>
<text text-anchor="middle" x="392.5" y="-158.93" font-family="monospace" font-size="14.00">cycle 2 B</text>
<text text-anchor="middle" x="392.5" y="-143.93" font-family="monospace" font-size="14.00">B_TRANSFER id=1</text>
<text text-anchor="middle" x="392.5" y="-128.93" font-family="monospace" font-size="14.00">resp=OKAY</text>
</g>
<!-- n0&#45;&gt;n1 -->
<g id="edge1" class="edge">
<title>n0&#45;&gt;n1</title>
<path fill="none" stroke="#94a3b8" d="M229.77,-121.15C229.81,-121.14 229.83,-121.13 229.83,-121.13 229.83,-121.13 311.17,-121.13 311.17,-121.13 311.17,-121.13 311.79,-121.33 312.94,-121.71"/>
<polygon fill="#94a3b8" stroke="#94a3b8" points="311.88,-125.04 322.48,-124.81 314.05,-118.39 311.88,-125.04"/>
</g>
<!-- n0&#45;&gt;n1 -->
<!-- fault -->
<g id="node3" class="node">
<title>fault</title>
<path fill="#fecaca" stroke="black" d="M777.46,-34.95C777.46,-34.95 777.46,-46.17 777.46,-46.17 777.46,-51.78 771.88,-57.98 766.3,-58.57 766.3,-58.57 563.11,-80.02 563.11,-80.02 557.53,-80.6 546.35,-81.19 540.74,-81.19 540.74,-81.19 244.26,-81.19 244.26,-81.19 238.65,-81.19 227.47,-80.6 221.89,-80.02 221.89,-80.02 18.7,-58.57 18.7,-58.57 13.12,-57.98 7.54,-51.78 7.54,-46.17 7.54,-46.17 7.54,-34.95 7.54,-34.95 7.54,-29.35 13.12,-23.15 18.7,-22.56 18.7,-22.56 221.89,-1.11 221.89,-1.11 227.47,-0.52 238.65,0.06 244.26,0.06 244.26,0.06 540.74,0.06 540.74,0.06 546.35,0.06 557.53,-0.52 563.11,-1.11 563.11,-1.11 766.3,-22.56 766.3,-22.56 771.88,-23.15 777.46,-29.35 777.46,-34.95"/>
<text text-anchor="middle" x="392.5" y="-51.86" font-family="monospace" font-size="14.00">FAULT</text>
<text text-anchor="middle" x="392.5" y="-36.86" font-family="monospace" font-size="14.00">axi4.signal_session.bvalid_dependency</text>
<text text-anchor="middle" x="392.5" y="-21.86" font-family="monospace" font-size="14.00">BVALID asserted without a previously joined AW/W completion</text>
</g>
<!-- n1&#45;&gt;fault -->
<g id="edge3" class="edge">
<title>n1&#45;&gt;fault</title>
<path fill="none" stroke="#dc2626" stroke-width="2" d="M392.5,-120.93C392.5,-112 392.5,-101.65 392.5,-91.44"/>
<polygon fill="#dc2626" stroke="#dc2626" stroke-width="2" points="396,-91.33 392.5,-81.33 389,-91.33 396,-91.33"/>
</g>
</g>
</svg>
