<?xml version="1.0" encoding="UTF-8" standalone="no"?>
<!DOCTYPE svg PUBLIC "-//W3C//DTD SVG 1.1//EN"
 "http://www.w3.org/Graphics/SVG/1.1/DTD/svg11.dtd">
<!-- Generated by graphviz version 2.43.0 (0)
 -->
<!-- Title: axi_scenario Pages: 1 -->
<svg width="521pt" height="160pt"
 viewBox="0.00 0.00 520.50 160.00" xmlns="http://www.w3.org/2000/svg" xmlns:xlink="http://www.w3.org/1999/xlink">
<g id="graph0" class="graph" transform="scale(1 1) rotate(0) translate(4 156)">
<title>axi_scenario</title>
<polygon fill="white" stroke="transparent" points="-4,4 -4,-156 516.5,-156 516.5,4 -4,4"/>
<text text-anchor="middle" x="256.25" y="-136.8" font-family="Times,serif" font-size="14.00">read_decerr</text>
<!-- n0 -->
<g id="node1" class="node">
<title>n0</title>
<path fill="#fef3c7" stroke="black" d="M285,-129C285,-129 12,-129 12,-129 6,-129 0,-123 0,-117 0,-117 0,-88 0,-88 0,-82 6,-76 12,-76 12,-76 285,-76 285,-76 291,-76 297,-82 297,-88 297,-88 297,-117 297,-117 297,-123 291,-129 285,-129"/>
<text text-anchor="middle" x="148.5" y="-113.8" font-family="monospace" font-size="14.00">cycle 1 AR</text>
<text text-anchor="middle" x="148.5" y="-98.8" font-family="monospace" font-size="14.00">AR_TRANSFER id=1</text>
<text text-anchor="middle" x="148.5" y="-83.8" font-family="monospace" font-size="14.00">addr=28928 len=0 size=3 burst=INCR</text>
</g>
<!-- n1 -->
<g id="node2" class="node">
<title>n1</title>
<path fill="#dcfce7" stroke="black" d="M500.5,-129C500.5,-129 334.5,-129 334.5,-129 328.5,-129 322.5,-123 322.5,-117 322.5,-117 322.5,-88 322.5,-88 322.5,-82 328.5,-76 334.5,-76 334.5,-76 500.5,-76 500.5,-76 506.5,-76 512.5,-82 512.5,-88 512.5,-88 512.5,-117 512.5,-117 512.5,-123 506.5,-129 500.5,-129"/>
<text text-anchor="middle" x="417.5" y="-113.8" font-family="monospace" font-size="14.00">cycle 2 R</text>
<text text-anchor="middle" x="417.5" y="-98.8" font-family="monospace" font-size="14.00">R_TRANSFER id=1</text>
<text text-anchor="middle" x="417.5" y="-83.8" font-family="monospace" font-size="14.00">resp=DECERR last=True</text>
</g>
<!-- n0&#45;&gt;n1 -->
<g id="edge1" class="edge">
<title>n0&#45;&gt;n1</title>
<path fill="none" stroke="#94a3b8" d="M238.1,-76.02C238.14,-76.01 238.17,-76 238.17,-76 238.17,-76 293.99,-76 317.58,-76.01"/>
<polygon fill="#94a3b8" stroke="#94a3b8" points="317.89,-79.51 327.9,-76.02 317.9,-72.51 317.89,-79.51"/>
</g>
<!-- n0&#45;&gt;n1 -->
<!-- n0&#45;&gt;n1 -->
<g id="edge3" class="edge">
<title>n0&#45;&gt;n1</title>
<path fill="none" stroke="#2563eb" stroke-width="2" d="M238.1,-128.98C238.14,-128.99 238.17,-129 238.17,-129 238.17,-129 293.99,-129 317.58,-128.99"/>
<polygon fill="#2563eb" stroke="#2563eb" stroke-width="2" points="317.9,-132.49 327.9,-128.98 317.89,-125.49 317.9,-132.49"/>
</g>
<!-- done -->
<g id="node3" class="node">
<title>done</title>
<path fill="#bbf7d0" stroke="black" d="M480,-36C480,-36 355,-36 355,-36 349,-36 343,-30 343,-24 343,-24 343,-12 343,-12 343,-6 349,0 355,0 355,0 480,0 480,0 486,0 492,-6 492,-12 492,-12 492,-24 492,-24 492,-30 486,-36 480,-36"/>
<text text-anchor="middle" x="417.5" y="-14.3" font-family="monospace" font-size="14.00">QUIESCENT / PASS</text>
</g>
<!-- n1&#45;&gt;done -->
<g id="edge4" class="edge">
<title>n1&#45;&gt;done</title>
<path fill="none" stroke="#16a34a" stroke-width="2" d="M417.5,-75.85C417.5,-66.5 417.5,-55.9 417.5,-46.41"/>
<polygon fill="#16a34a" stroke="#16a34a" stroke-width="2" points="421,-46.28 417.5,-36.28 414,-46.28 421,-46.28"/>
</g>
</g>
</svg>
