<?xml version="1.0" encoding="UTF-8" standalone="no"?>
<!DOCTYPE svg PUBLIC "-//W3C//DTD SVG 1.1//EN"
 "http://www.w3.org/Graphics/SVG/1.1/DTD/svg11.dtd">
<!-- Generated by graphviz version 2.43.0 (0)
 -->
<!-- Title: chi_route_comparison Pages: 1 -->
<svg width="884pt" height="255pt"
 viewBox="0.00 0.00 883.60 254.60" xmlns="http://www.w3.org/2000/svg" xmlns:xlink="http://www.w3.org/1999/xlink">
<g id="graph0" class="graph" transform="scale(1 1) rotate(0) translate(28.8 225.8)">
<title>chi_route_comparison</title>
<polygon fill="white" stroke="transparent" points="-28.8,28.8 -28.8,-225.8 854.8,-225.8 854.8,28.8 -28.8,28.8"/>
<text text-anchor="middle" x="413" y="-178.6" font-family="sans-serif" font-size="18.00">Same restricted operation · two caller&#45;built topologies</text>
<!-- comparison -->
<g id="node1" class="node">
<title>comparison</title>
<polygon fill="#f8fafc" stroke="transparent" points="1,-138.5 1,-167.5 172,-167.5 172,-138.5 1,-138.5"/>
<text text-anchor="start" x="72.5" y="-151.5" font-family="sans-serif" font-weight="bold" font-size="10.00">Case</text>
<polygon fill="#f8fafc" stroke="transparent" points="172,-138.5 172,-167.5 262,-167.5 262,-138.5 172,-138.5"/>
<text text-anchor="start" x="195" y="-151.5" font-family="sans-serif" font-weight="bold" font-size="10.00">Routers</text>
<polygon fill="#f8fafc" stroke="transparent" points="262,-138.5 262,-167.5 374,-167.5 374,-138.5 262,-138.5"/>
<text text-anchor="start" x="278" y="-151.5" font-family="sans-serif" font-weight="bold" font-size="10.00">Directed hops</text>
<polygon fill="#f8fafc" stroke="transparent" points="374,-138.5 374,-167.5 470,-167.5 470,-138.5 374,-138.5"/>
<text text-anchor="start" x="386.5" y="-151.5" font-family="sans-serif" font-weight="bold" font-size="10.00">Exact routes</text>
<polygon fill="#f8fafc" stroke="transparent" points="470,-138.5 470,-167.5 767,-167.5 767,-138.5 470,-138.5"/>
<text text-anchor="start" x="532.5" y="-151.5" font-family="sans-serif" font-weight="bold" font-size="10.00">Executed REQ / DAT node path</text>
<polygon fill="#f8fafc" stroke="transparent" points="767,-138.5 767,-167.5 825,-167.5 825,-138.5 767,-138.5"/>
<text text-anchor="start" x="778" y="-151.5" font-family="sans-serif" font-weight="bold" font-size="10.00">Result</text>
<text text-anchor="start" x="10" y="-117" font-family="sans-serif" font-weight="bold" font-size="10.00">Ring + leaf stars</text>
<text text-anchor="start" x="213.5" y="-116" font-family="sans-serif" font-size="10.00">4</text>
<text text-anchor="start" x="311.5" y="-116" font-family="sans-serif" font-size="10.00">16</text>
<text text-anchor="start" x="415.5" y="-116" font-family="sans-serif" font-size="10.00">16</text>
<text text-anchor="start" x="479" y="-121.5" font-family="sans-serif" font-size="10.00" fill="#2563eb">RN → R0 → R1 → R2 → HN</text>
<text text-anchor="start" x="479" y="-110.5" font-family="sans-serif" font-size="10.00" fill="#c026d3">HN → R2 → R3 → R0 → RN</text>
<text text-anchor="start" x="783.5" y="-116" font-family="sans-serif" font-size="10.00">PASS</text>
<text text-anchor="start" x="10" y="-77" font-family="sans-serif" font-weight="bold" font-size="10.00">4×4 mesh</text>
<text text-anchor="start" x="210.5" y="-76" font-family="sans-serif" font-size="10.00">16</text>
<text text-anchor="start" x="311.5" y="-76" font-family="sans-serif" font-size="10.00">56</text>
<text text-anchor="start" x="415.5" y="-76" font-family="sans-serif" font-size="10.00">64</text>
<text text-anchor="start" x="479" y="-81.5" font-family="sans-serif" font-size="10.00" fill="#2563eb">RN → R00 → R10 → R20 → R30 → R31 → R32 → R33 → HN</text>
<text text-anchor="start" x="479" y="-70.5" font-family="sans-serif" font-size="10.00" fill="#c026d3">HN → R33 → R23 → R13 → R03 → R02 → R01 → R00 → RN</text>
<text text-anchor="start" x="783.5" y="-76" font-family="sans-serif" font-size="10.00">PASS</text>
<polygon fill="#eff6ff" stroke="transparent" points="1,-29.5 1,-58.5 825,-58.5 825,-29.5 1,-29.5"/>
<text text-anchor="start" x="10" y="-42.5" font-family="sans-serif" font-weight="bold" font-size="10.00">Executed common contract:</text>
<text text-anchor="start" x="167" y="-42.5" font-family="sans-serif" font-size="10.00"> ReadNoSnp → CompData, TxnID correlation, finite router queues, per&#45;hop Link Credit, exact NodeID routing, and final quiescence.</text>
<polygon fill="#fff7ed" stroke="transparent" points="1,-0.5 1,-29.5 825,-29.5 825,-0.5 1,-0.5"/>
<text text-anchor="start" x="10" y="-13.5" font-family="sans-serif" font-weight="bold" font-size="10.00">Not established by these shapes:</text>
<text text-anchor="start" x="200" y="-13.5" font-family="sans-serif" font-size="10.00"> shared&#45;bus arbitration, RSP/SNP coherence, adaptive routing, CHI completeness, performance, fairness, or deadlock freedom.</text>
<polygon fill="none" stroke="#cbd5e1" points="0,0 0,-169 826,-169 826,0 0,0"/>
</g>
</g>
</svg>
