<?xml version="1.0" encoding="UTF-8" standalone="no"?>
<!DOCTYPE svg PUBLIC "-//W3C//DTD SVG 1.1//EN"
 "http://www.w3.org/Graphics/SVG/1.1/DTD/svg11.dtd">
<!-- Generated by graphviz version 2.43.0 (0)
 -->
<!-- Title: axi_scenario Pages: 1 -->
<svg width="626pt" height="205pt"
 viewBox="0.00 0.00 626.42 205.13" xmlns="http://www.w3.org/2000/svg" xmlns:xlink="http://www.w3.org/1999/xlink">
<g id="graph0" class="graph" transform="scale(1 1) rotate(0) translate(4 201.13)">
<title>axi_scenario</title>
<polygon fill="white" stroke="transparent" points="-4,4 -4,-201.13 622.42,-201.13 622.42,4 -4,4"/>
<text text-anchor="middle" x="309.21" y="-181.93" font-family="Times,serif" font-size="14.00">read_fixed_17_rejected</text>
<!-- n0 -->
<g id="node1" class="node">
<title>n0</title>
<path fill="#fef3c7" stroke="black" d="M454.21,-174.13C454.21,-174.13 164.21,-174.13 164.21,-174.13 158.21,-174.13 152.21,-168.13 152.21,-162.13 152.21,-162.13 152.21,-133.13 152.21,-133.13 152.21,-127.13 158.21,-121.13 164.21,-121.13 164.21,-121.13 454.21,-121.13 454.21,-121.13 460.21,-121.13 466.21,-127.13 466.21,-133.13 466.21,-133.13 466.21,-162.13 466.21,-162.13 466.21,-168.13 460.21,-174.13 454.21,-174.13"/>
<text text-anchor="middle" x="309.21" y="-158.93" font-family="monospace" font-size="14.00">cycle 1 AR</text>
<text text-anchor="middle" x="309.21" y="-143.93" font-family="monospace" font-size="14.00">AR_TRANSFER id=1</text>
<text text-anchor="middle" x="309.21" y="-128.93" font-family="monospace" font-size="14.00">addr=20480 len=16 size=3 burst=FIXED</text>
</g>
<!-- fault -->
<g id="node2" class="node">
<title>fault</title>
<path fill="#fecaca" stroke="black" d="M618.62,-34.95C618.62,-34.95 618.62,-46.17 618.62,-46.17 618.62,-51.78 613.06,-58.12 607.5,-58.85 607.5,-58.85 448.5,-79.73 448.5,-79.73 442.93,-80.46 431.76,-81.19 426.15,-81.19 426.15,-81.19 192.26,-81.19 192.26,-81.19 186.65,-81.19 175.48,-80.46 169.92,-79.73 169.92,-79.73 10.92,-58.85 10.92,-58.85 5.35,-58.12 -0.21,-51.78 -0.21,-46.17 -0.21,-46.17 -0.21,-34.95 -0.21,-34.95 -0.21,-29.35 5.35,-23.01 10.92,-22.27 10.92,-22.27 169.92,-1.4 169.92,-1.4 175.48,-0.67 186.65,0.06 192.26,0.06 192.26,0.06 426.15,0.06 426.15,0.06 431.76,0.06 442.93,-0.67 448.5,-1.4 448.5,-1.4 607.5,-22.27 607.5,-22.27 613.06,-23.01 618.62,-29.35 618.62,-34.95"/>
<text text-anchor="middle" x="309.21" y="-51.86" font-family="monospace" font-size="14.00">FAULT</text>
<text text-anchor="middle" x="309.21" y="-36.86" font-family="monospace" font-size="14.00">AR.ready_valid.event_space</text>
<text text-anchor="middle" x="309.21" y="-21.86" font-family="monospace" font-size="14.00">FIXED burst length must not exceed 16 transfers</text>
</g>
<!-- n0&#45;&gt;fault -->
<g id="edge1" class="edge">
<title>n0&#45;&gt;fault</title>
<path fill="none" stroke="#dc2626" stroke-width="2" d="M309.21,-120.93C309.21,-112 309.21,-101.65 309.21,-91.44"/>
<polygon fill="#dc2626" stroke="#dc2626" stroke-width="2" points="312.71,-91.33 309.21,-81.33 305.71,-91.33 312.71,-91.33"/>
</g>
</g>
</svg>
