<?xml version="1.0" encoding="UTF-8" standalone="no"?>
<!DOCTYPE svg PUBLIC "-//W3C//DTD SVG 1.1//EN"
 "http://www.w3.org/Graphics/SVG/1.1/DTD/svg11.dtd">
<!-- Generated by graphviz version 2.43.0 (0)
 -->
<!-- Title: axi_scenario Pages: 1 -->
<svg width="489pt" height="454pt"
 viewBox="0.00 0.00 488.65 454.13" xmlns="http://www.w3.org/2000/svg" xmlns:xlink="http://www.w3.org/1999/xlink">
<g id="graph0" class="graph" transform="scale(1 1) rotate(0) translate(4 450.13)">
<title>axi_scenario</title>
<polygon fill="white" stroke="transparent" points="-4,4 -4,-450.13 484.65,-450.13 484.65,4 -4,4"/>
<text text-anchor="middle" x="240.33" y="-430.93" font-family="Times,serif" font-size="14.00">read_cross_4kb</text>
<!-- n0 -->
<g id="node1" class="node">
<title>n0</title>
<path fill="#fef3c7" stroke="black" d="M372.83,-423.13C372.83,-423.13 107.83,-423.13 107.83,-423.13 101.83,-423.13 95.83,-417.13 95.83,-411.13 95.83,-411.13 95.83,-382.13 95.83,-382.13 95.83,-376.13 101.83,-370.13 107.83,-370.13 107.83,-370.13 372.83,-370.13 372.83,-370.13 378.83,-370.13 384.83,-376.13 384.83,-382.13 384.83,-382.13 384.83,-411.13 384.83,-411.13 384.83,-417.13 378.83,-423.13 372.83,-423.13"/>
<text text-anchor="middle" x="240.33" y="-407.93" font-family="monospace" font-size="14.00">cycle 1 AR</text>
<text text-anchor="middle" x="240.33" y="-392.93" font-family="monospace" font-size="14.00">AR_TRANSFER id=1</text>
<text text-anchor="middle" x="240.33" y="-377.93" font-family="monospace" font-size="14.00">addr=4088 len=1 size=3 burst=INCR</text>
</g>
<!-- geometry -->
<g id="node2" class="node">
<title>geometry</title>
<path fill="#e0f2fe" stroke="black" d="M323.33,-330.13C323.33,-330.13 157.33,-330.13 157.33,-330.13 151.33,-330.13 145.33,-324.13 145.33,-318.13 145.33,-318.13 145.33,-304.13 145.33,-304.13 145.33,-298.13 151.33,-292.13 157.33,-292.13 157.33,-292.13 323.33,-292.13 323.33,-292.13 329.33,-292.13 335.33,-298.13 335.33,-304.13 335.33,-304.13 335.33,-318.13 335.33,-318.13 335.33,-324.13 329.33,-330.13 323.33,-330.13"/>
<text text-anchor="middle" x="240.33" y="-314.93" font-family="monospace" font-size="14.00">derive burst geometry</text>
<text text-anchor="middle" x="240.33" y="-299.93" font-family="monospace" font-size="14.00">2 beat(s) x 8 bytes</text>
</g>
<!-- n0&#45;&gt;geometry -->
<g id="edge1" class="edge">
<title>n0&#45;&gt;geometry</title>
<path fill="none" stroke="black" d="M240.33,-370.12C240.33,-360.78 240.33,-350.16 240.33,-340.58"/>
<polygon fill="black" stroke="black" points="243.83,-340.33 240.33,-330.33 236.83,-340.33 243.83,-340.33"/>
</g>
<!-- footprint -->
<g id="node3" class="node">
<title>footprint</title>
<path fill="#e0f2fe" stroke="black" d="M302.83,-252.13C302.83,-252.13 177.83,-252.13 177.83,-252.13 171.83,-252.13 165.83,-246.13 165.83,-240.13 165.83,-240.13 165.83,-211.13 165.83,-211.13 165.83,-205.13 171.83,-199.13 177.83,-199.13 177.83,-199.13 302.83,-199.13 302.83,-199.13 308.83,-199.13 314.83,-205.13 314.83,-211.13 314.83,-211.13 314.83,-240.13 314.83,-240.13 314.83,-246.13 308.83,-252.13 302.83,-252.13"/>
<text text-anchor="middle" x="240.33" y="-236.93" font-family="monospace" font-size="14.00">beat addresses</text>
<text text-anchor="middle" x="240.33" y="-221.93" font-family="monospace" font-size="14.00">0xff8 &#45;&gt; 0x1000</text>
<text text-anchor="middle" x="240.33" y="-206.93" font-family="monospace" font-size="14.00">last byte=0x1007</text>
</g>
<!-- geometry&#45;&gt;footprint -->
<g id="edge2" class="edge">
<title>geometry&#45;&gt;footprint</title>
<path fill="none" stroke="black" d="M240.33,-292.01C240.33,-283.4 240.33,-272.78 240.33,-262.63"/>
<polygon fill="black" stroke="black" points="243.83,-262.31 240.33,-252.31 236.83,-262.31 243.83,-262.31"/>
</g>
<!-- pages -->
<g id="node4" class="node">
<title>pages</title>
<path fill="#e0f2fe" stroke="black" d="M314.83,-159.13C314.83,-159.13 165.83,-159.13 165.83,-159.13 159.83,-159.13 153.83,-153.13 153.83,-147.13 153.83,-147.13 153.83,-133.13 153.83,-133.13 153.83,-127.13 159.83,-121.13 165.83,-121.13 165.83,-121.13 314.83,-121.13 314.83,-121.13 320.83,-121.13 326.83,-127.13 326.83,-133.13 326.83,-133.13 326.83,-147.13 326.83,-147.13 326.83,-153.13 320.83,-159.13 314.83,-159.13"/>
<text text-anchor="middle" x="240.33" y="-143.93" font-family="monospace" font-size="14.00">4KB page comparison</text>
<text text-anchor="middle" x="240.33" y="-128.93" font-family="monospace" font-size="14.00">0x0 != 0x1</text>
</g>
<!-- footprint&#45;&gt;pages -->
<g id="edge3" class="edge">
<title>footprint&#45;&gt;pages</title>
<path fill="none" stroke="black" d="M240.33,-199.12C240.33,-189.78 240.33,-179.16 240.33,-169.58"/>
<polygon fill="black" stroke="black" points="243.83,-169.33 240.33,-159.33 236.83,-169.33 243.83,-169.33"/>
</g>
<!-- fault -->
<g id="node5" class="node">
<title>fault</title>
<path fill="#fecaca" stroke="black" d="M480.48,-34.95C480.48,-34.95 480.48,-46.17 480.48,-46.17 480.48,-51.78 474.94,-58.33 469.41,-59.27 469.41,-59.27 350.86,-79.32 350.86,-79.32 345.33,-80.26 334.19,-81.19 328.58,-81.19 328.58,-81.19 152.07,-81.19 152.07,-81.19 146.46,-81.19 135.32,-80.26 129.79,-79.32 129.79,-79.32 11.24,-59.27 11.24,-59.27 5.71,-58.33 0.17,-51.78 0.17,-46.17 0.17,-46.17 0.17,-34.95 0.17,-34.95 0.17,-29.35 5.71,-22.8 11.24,-21.86 11.24,-21.86 129.79,-1.81 129.79,-1.81 135.32,-0.87 146.46,0.06 152.07,0.06 152.07,0.06 328.58,0.06 328.58,0.06 334.19,0.06 345.33,-0.87 350.86,-1.81 350.86,-1.81 469.41,-21.86 469.41,-21.86 474.94,-22.8 480.48,-29.35 480.48,-34.95"/>
<text text-anchor="middle" x="240.33" y="-51.86" font-family="monospace" font-size="14.00">FAULT</text>
<text text-anchor="middle" x="240.33" y="-36.86" font-family="monospace" font-size="14.00">AR.ready_valid.event_space</text>
<text text-anchor="middle" x="240.33" y="-21.86" font-family="monospace" font-size="14.00">burst crosses a 4KB address boundary</text>
</g>
<!-- pages&#45;&gt;fault -->
<g id="edge4" class="edge">
<title>pages&#45;&gt;fault</title>
<path fill="none" stroke="#dc2626" stroke-width="2" d="M240.33,-120.78C240.33,-112.33 240.33,-101.85 240.33,-91.31"/>
<polygon fill="#dc2626" stroke="#dc2626" stroke-width="2" points="243.83,-91.25 240.33,-81.25 236.83,-91.25 243.83,-91.25"/>
</g>
</g>
</svg>
