<?xml version="1.0" encoding="UTF-8" standalone="no"?>
<!DOCTYPE svg PUBLIC "-//W3C//DTD SVG 1.1//EN"
 "http://www.w3.org/Graphics/SVG/1.1/DTD/svg11.dtd">
<!-- Generated by graphviz version 2.43.0 (0)
 -->
<!-- Title: axi4_case Pages: 1 -->
<svg width="960pt" height="231pt"
 viewBox="0.00 0.00 960.07 231.18" xmlns="http://www.w3.org/2000/svg" xmlns:xlink="http://www.w3.org/1999/xlink">
<g id="graph0" class="graph" transform="scale(1 1) rotate(0) translate(14.4 216.78)">
<title>axi4_case</title>
<polygon fill="white" stroke="transparent" points="-14.4,14.4 -14.4,-216.78 945.67,-216.78 945.67,14.4 -14.4,14.4"/>
<text text-anchor="middle" x="465.63" y="-187.18" font-family="Times,serif" font-size="14.00">EXOKAY requires a matching completed exclusive read / EXOKAY 要求存在匹配且已完成的独占读</text>
<!-- event0 -->
<g id="node1" class="node">
<title>event0</title>
<path fill="#eef5ff" stroke="#3169a8" d="M167,-36C167,-36 12,-36 12,-36 6,-36 0,-30 0,-24 0,-24 0,-12 0,-12 0,-6 6,0 12,0 12,0 167,0 167,0 173,0 179,-6 179,-12 179,-12 179,-24 179,-24 179,-30 173,-36 167,-36"/>
<text text-anchor="middle" x="89.5" y="-15.5" font-family="sans-serif" font-size="10.00">[0] ID6 A=0xc80 N=1 S=4B INCR</text>
</g>
<!-- event1 -->
<g id="node2" class="node">
<title>event1</title>
<path fill="#eef5ff" stroke="#3169a8" d="M138.5,-101C138.5,-101 40.5,-101 40.5,-101 34.5,-101 28.5,-95 28.5,-89 28.5,-89 28.5,-77 28.5,-77 28.5,-71 34.5,-65 40.5,-65 40.5,-65 138.5,-65 138.5,-65 144.5,-65 150.5,-71 150.5,-77 150.5,-77 150.5,-89 150.5,-89 150.5,-95 144.5,-101 138.5,-101"/>
<text text-anchor="middle" x="89.5" y="-80.5" font-family="sans-serif" font-size="10.00">[1] D=0x0 S=0xf L=1</text>
</g>
<!-- context -->
<g id="node3" class="node">
<title>context</title>
<polygon fill="#f4f5f6" stroke="#7c8790" points="149.5,-166 23.5,-166 23.5,-130 155.5,-130 155.5,-160 149.5,-166"/>
<polyline fill="none" stroke="#7c8790" points="149.5,-166 149.5,-160 "/>
<polyline fill="none" stroke="#7c8790" points="155.5,-160 149.5,-160 "/>
<text text-anchor="middle" x="89.5" y="-151" font-family="sans-serif" font-size="10.00">rejected input / 被拒输入</text>
<text text-anchor="middle" x="89.5" y="-140" font-family="sans-serif" font-size="10.00">ID6 EXOKAY</text>
</g>
<!-- fault -->
<g id="node4" class="node">
<title>fault</title>
<polygon fill="#ffe9e7" stroke="#b33a2b" points="931.4,-135.05 931.4,-160.95 781.57,-179.26 569.69,-179.26 419.87,-160.95 419.87,-135.05 569.69,-116.74 781.57,-116.74 931.4,-135.05"/>
<text text-anchor="middle" x="675.63" y="-156.5" font-family="sans-serif" font-size="10.00">REJECTED / 已拒绝</text>
<text text-anchor="middle" x="675.63" y="-145.5" font-family="sans-serif" font-size="10.00">axi4.exclusive.unmatched_success</text>
<text text-anchor="middle" x="675.63" y="-134.5" font-family="sans-serif" font-size="10.00">EXOKAY requires a matching completed exclusive read sequence</text>
</g>
<!-- context&#45;&gt;fault -->
<g id="edge1" class="edge">
<title>context&#45;&gt;fault</title>
<path fill="none" stroke="#777777" stroke-dasharray="5,2" d="M155.53,-148C217.64,-148 315.48,-148 409.55,-148"/>
<polygon fill="#777777" stroke="#777777" points="409.82,-151.5 419.82,-148 409.82,-144.5 409.82,-151.5"/>
<text text-anchor="middle" x="299.5" y="-150.8" font-family="sans-serif" font-size="9.00">diagnostic context / 诊断上下文（非因果边）</text>
</g>
</g>
</svg>
