<?xml version="1.0" encoding="UTF-8" standalone="no"?>
<!DOCTYPE svg PUBLIC "-//W3C//DTD SVG 1.1//EN"
 "http://www.w3.org/Graphics/SVG/1.1/DTD/svg11.dtd">
<!-- Generated by graphviz version 2.43.0 (0)
 -->
<!-- Title: system_topology Pages: 1 -->
<svg width="678pt" height="291pt"
 viewBox="0.00 0.00 678.00 291.00" xmlns="http://www.w3.org/2000/svg" xmlns:xlink="http://www.w3.org/1999/xlink">
<g id="graph0" class="graph" transform="scale(1 1) rotate(0) translate(4 287)">
<title>system_topology</title>
<polygon fill="white" stroke="transparent" points="-4,4 -4,-287 674,-287 674,4 -4,4"/>
<text text-anchor="middle" x="335" y="-267.8" font-family="Times,serif" font-size="14.00">axi4_read_two_by_four_crossbar</text>
<!-- dut0 -->
<g id="node1" class="node">
<title>dut0</title>
<path fill="none" stroke="black" d="M87,-186C87,-186 12,-186 12,-186 6,-186 0,-180 0,-174 0,-174 0,-160 0,-160 0,-154 6,-148 12,-148 12,-148 87,-148 87,-148 93,-148 99,-154 99,-160 99,-160 99,-174 99,-174 99,-180 93,-186 87,-186"/>
<text text-anchor="middle" x="49.5" y="-170.8" font-family="monospace" font-size="14.00">manager0</text>
<text text-anchor="middle" x="49.5" y="-155.8" font-family="monospace" font-size="14.00">VirtualDut</text>
</g>
<!-- dut6 -->
<g id="node7" class="node">
<title>dut6</title>
<path fill="none" stroke="black" d="M414,-149C414,-149 256,-149 256,-149 250,-149 244,-143 244,-137 244,-137 244,-123 244,-123 244,-117 250,-111 256,-111 256,-111 414,-111 414,-111 420,-111 426,-117 426,-123 426,-123 426,-137 426,-137 426,-143 420,-149 414,-149"/>
<text text-anchor="middle" x="335" y="-133.8" font-family="monospace" font-size="14.00">crossbar</text>
<text text-anchor="middle" x="335" y="-118.8" font-family="monospace" font-size="14.00">VirtualDut · routing</text>
</g>
<!-- dut0&#45;&gt;dut6 -->
<g id="edge1" class="edge">
<title>dut0&#45;&gt;dut6</title>
<path fill="none" stroke="black" stroke-width="1.4" d="M99.24,-160.64C138.89,-155.46 195.94,-148.02 243.87,-141.76"/>
<text text-anchor="middle" x="171.5" y="-166.6" font-family="sans-serif" font-size="8.00">axi4_read_only</text>
<text text-anchor="middle" x="171.5" y="-157.6" font-family="sans-serif" font-size="8.00">axi ↔ s0</text>
</g>
<!-- dut1 -->
<g id="node2" class="node">
<title>dut1</title>
<path fill="none" stroke="black" d="M87,-112C87,-112 12,-112 12,-112 6,-112 0,-106 0,-100 0,-100 0,-86 0,-86 0,-80 6,-74 12,-74 12,-74 87,-74 87,-74 93,-74 99,-80 99,-86 99,-86 99,-100 99,-100 99,-106 93,-112 87,-112"/>
<text text-anchor="middle" x="49.5" y="-96.8" font-family="monospace" font-size="14.00">manager1</text>
<text text-anchor="middle" x="49.5" y="-81.8" font-family="monospace" font-size="14.00">VirtualDut</text>
</g>
<!-- dut1&#45;&gt;dut6 -->
<g id="edge2" class="edge">
<title>dut1&#45;&gt;dut6</title>
<path fill="none" stroke="black" stroke-width="1.4" d="M99.24,-99.36C138.89,-104.54 195.94,-111.98 243.87,-118.24"/>
<text text-anchor="middle" x="171.5" y="-123.6" font-family="sans-serif" font-size="8.00">axi4_read_only</text>
<text text-anchor="middle" x="171.5" y="-114.6" font-family="sans-serif" font-size="8.00">axi ↔ s1</text>
</g>
<!-- dut2 -->
<g id="node3" class="node">
<title>dut2</title>
<path fill="none" stroke="black" d="M658,-260C658,-260 583,-260 583,-260 577,-260 571,-254 571,-248 571,-248 571,-234 571,-234 571,-228 577,-222 583,-222 583,-222 658,-222 658,-222 664,-222 670,-228 670,-234 670,-234 670,-248 670,-248 670,-254 664,-260 658,-260"/>
<text text-anchor="middle" x="620.5" y="-244.8" font-family="monospace" font-size="14.00">target0</text>
<text text-anchor="middle" x="620.5" y="-229.8" font-family="monospace" font-size="14.00">VirtualDut</text>
</g>
<!-- dut3 -->
<g id="node4" class="node">
<title>dut3</title>
<path fill="none" stroke="black" d="M658,-186C658,-186 583,-186 583,-186 577,-186 571,-180 571,-174 571,-174 571,-160 571,-160 571,-154 577,-148 583,-148 583,-148 658,-148 658,-148 664,-148 670,-154 670,-160 670,-160 670,-174 670,-174 670,-180 664,-186 658,-186"/>
<text text-anchor="middle" x="620.5" y="-170.8" font-family="monospace" font-size="14.00">target1</text>
<text text-anchor="middle" x="620.5" y="-155.8" font-family="monospace" font-size="14.00">VirtualDut</text>
</g>
<!-- dut4 -->
<g id="node5" class="node">
<title>dut4</title>
<path fill="none" stroke="black" d="M658,-112C658,-112 583,-112 583,-112 577,-112 571,-106 571,-100 571,-100 571,-86 571,-86 571,-80 577,-74 583,-74 583,-74 658,-74 658,-74 664,-74 670,-80 670,-86 670,-86 670,-100 670,-100 670,-106 664,-112 658,-112"/>
<text text-anchor="middle" x="620.5" y="-96.8" font-family="monospace" font-size="14.00">target2</text>
<text text-anchor="middle" x="620.5" y="-81.8" font-family="monospace" font-size="14.00">VirtualDut</text>
</g>
<!-- dut5 -->
<g id="node6" class="node">
<title>dut5</title>
<path fill="none" stroke="black" d="M658,-38C658,-38 583,-38 583,-38 577,-38 571,-32 571,-26 571,-26 571,-12 571,-12 571,-6 577,0 583,0 583,0 658,0 658,0 664,0 670,-6 670,-12 670,-12 670,-26 670,-26 670,-32 664,-38 658,-38"/>
<text text-anchor="middle" x="620.5" y="-22.8" font-family="monospace" font-size="14.00">target3</text>
<text text-anchor="middle" x="620.5" y="-7.8" font-family="monospace" font-size="14.00">VirtualDut</text>
</g>
<!-- dut6&#45;&gt;dut2 -->
<g id="edge3" class="edge">
<title>dut6&#45;&gt;dut2</title>
<path fill="none" stroke="black" stroke-width="1.4" d="M384.4,-149.07C422.08,-163.91 468,-182 468,-182 468,-182 526.44,-204.76 570.73,-222.01"/>
<text text-anchor="middle" x="498.5" y="-215.6" font-family="sans-serif" font-size="8.00">axi4_read_only</text>
<text text-anchor="middle" x="498.5" y="-206.6" font-family="sans-serif" font-size="8.00">m0 ↔ axi</text>
</g>
<!-- dut6&#45;&gt;dut3 -->
<g id="edge4" class="edge">
<title>dut6&#45;&gt;dut3</title>
<path fill="none" stroke="black" stroke-width="1.4" d="M426.09,-141.76C474.08,-148.02 531.23,-155.48 570.9,-160.66"/>
<text text-anchor="middle" x="498.5" y="-166.6" font-family="sans-serif" font-size="8.00">axi4_read_only</text>
<text text-anchor="middle" x="498.5" y="-157.6" font-family="sans-serif" font-size="8.00">m1 ↔ axi</text>
</g>
<!-- dut6&#45;&gt;dut4 -->
<g id="edge5" class="edge">
<title>dut6&#45;&gt;dut4</title>
<path fill="none" stroke="black" stroke-width="1.4" d="M426.09,-118.24C474.08,-111.98 531.23,-104.52 570.9,-99.34"/>
<text text-anchor="middle" x="498.5" y="-123.6" font-family="sans-serif" font-size="8.00">axi4_read_only</text>
<text text-anchor="middle" x="498.5" y="-114.6" font-family="sans-serif" font-size="8.00">m2 ↔ axi</text>
</g>
<!-- dut6&#45;&gt;dut5 -->
<g id="edge6" class="edge">
<title>dut6&#45;&gt;dut5</title>
<path fill="none" stroke="black" stroke-width="1.4" d="M383.66,-110.87C421.46,-95.68 468,-77 468,-77 468,-77 526.44,-54.63 570.73,-37.67"/>
<text text-anchor="middle" x="498.5" y="-88.6" font-family="sans-serif" font-size="8.00">axi4_read_only</text>
<text text-anchor="middle" x="498.5" y="-79.6" font-family="sans-serif" font-size="8.00">m3 ↔ axi</text>
</g>
</g>
</svg>
