<?xml version="1.0" encoding="UTF-8" standalone="no"?>
<!DOCTYPE svg PUBLIC "-//W3C//DTD SVG 1.1//EN"
 "http://www.w3.org/Graphics/SVG/1.1/DTD/svg11.dtd">
<!-- Generated by graphviz version 2.43.0 (0)
 -->
<!-- Title: axi_scenario Pages: 1 -->
<svg width="925pt" height="205pt"
 viewBox="0.00 0.00 924.97 205.13" xmlns="http://www.w3.org/2000/svg" xmlns:xlink="http://www.w3.org/1999/xlink">
<g id="graph0" class="graph" transform="scale(1 1) rotate(0) translate(4 201.13)">
<title>axi_scenario</title>
<polygon fill="white" stroke="transparent" points="-4,4 -4,-201.13 920.97,-201.13 920.97,4 -4,4"/>
<text text-anchor="middle" x="458.48" y="-181.93" font-family="Times,serif" font-size="14.00">write_wrong_bid</text>
<!-- n0 -->
<g id="node1" class="node">
<title>n0</title>
<path fill="#fef3c7" stroke="black" d="M285,-174.13C285,-174.13 12,-174.13 12,-174.13 6,-174.13 0,-168.13 0,-162.13 0,-162.13 0,-133.13 0,-133.13 0,-127.13 6,-121.13 12,-121.13 12,-121.13 285,-121.13 285,-121.13 291,-121.13 297,-127.13 297,-133.13 297,-133.13 297,-162.13 297,-162.13 297,-168.13 291,-174.13 285,-174.13"/>
<text text-anchor="middle" x="148.5" y="-158.93" font-family="monospace" font-size="14.00">cycle 1 AW</text>
<text text-anchor="middle" x="148.5" y="-143.93" font-family="monospace" font-size="14.00">AW_TRANSFER id=1</text>
<text text-anchor="middle" x="148.5" y="-128.93" font-family="monospace" font-size="14.00">addr=32768 len=0 size=3 burst=INCR</text>
</g>
<!-- n1 -->
<g id="node2" class="node">
<title>n1</title>
<path fill="#fef3c7" stroke="black" d="M475,-174.13C475,-174.13 334,-174.13 334,-174.13 328,-174.13 322,-168.13 322,-162.13 322,-162.13 322,-133.13 322,-133.13 322,-127.13 328,-121.13 334,-121.13 334,-121.13 475,-121.13 475,-121.13 481,-121.13 487,-127.13 487,-133.13 487,-133.13 487,-162.13 487,-162.13 487,-168.13 481,-174.13 475,-174.13"/>
<text text-anchor="middle" x="404.5" y="-158.93" font-family="monospace" font-size="14.00">cycle 2 W</text>
<text text-anchor="middle" x="404.5" y="-143.93" font-family="monospace" font-size="14.00">W_TRANSFER id=None</text>
<text text-anchor="middle" x="404.5" y="-128.93" font-family="monospace" font-size="14.00">last=True</text>
</g>
<!-- n0&#45;&gt;n1 -->
<g id="edge1" class="edge">
<title>n0&#45;&gt;n1</title>
<path fill="none" stroke="#94a3b8" d="M233.77,-121.15C233.81,-121.14 233.83,-121.13 233.83,-121.13 233.83,-121.13 288.55,-121.13 311.62,-121.52"/>
<polygon fill="#94a3b8" stroke="#94a3b8" points="311.51,-125.02 321.63,-121.89 311.77,-118.02 311.51,-125.02"/>
</g>
<!-- n0&#45;&gt;n1 -->
<!-- n2 -->
<g id="node3" class="node">
<title>n2</title>
<path fill="#dcfce7" stroke="black" d="M640.5,-174.13C640.5,-174.13 524.5,-174.13 524.5,-174.13 518.5,-174.13 512.5,-168.13 512.5,-162.13 512.5,-162.13 512.5,-133.13 512.5,-133.13 512.5,-127.13 518.5,-121.13 524.5,-121.13 524.5,-121.13 640.5,-121.13 640.5,-121.13 646.5,-121.13 652.5,-127.13 652.5,-133.13 652.5,-133.13 652.5,-162.13 652.5,-162.13 652.5,-168.13 646.5,-174.13 640.5,-174.13"/>
<text text-anchor="middle" x="582.5" y="-158.93" font-family="monospace" font-size="14.00">cycle 3 B</text>
<text text-anchor="middle" x="582.5" y="-143.93" font-family="monospace" font-size="14.00">B_TRANSFER id=2</text>
<text text-anchor="middle" x="582.5" y="-128.93" font-family="monospace" font-size="14.00">resp=OKAY</text>
</g>
<!-- n1&#45;&gt;n2 -->
<g id="edge2" class="edge">
<title>n1&#45;&gt;n2</title>
<path fill="none" stroke="#94a3b8" d="M463.66,-121.2C463.78,-121.15 463.83,-121.13 463.83,-121.13 463.83,-121.13 496.17,-121.13 513.17,-121.16"/>
<polygon fill="#94a3b8" stroke="#94a3b8" points="513.32,-124.66 523.34,-121.2 513.35,-117.66 513.32,-124.66"/>
</g>
<!-- n1&#45;&gt;n2 -->
<!-- fault -->
<g id="node4" class="node">
<title>fault</title>
<path fill="#fecaca" stroke="black" d="M916.93,-34.95C916.93,-34.95 916.93,-46.17 916.93,-46.17 916.93,-51.78 911.36,-58.07 905.79,-58.75 905.79,-58.75 732.16,-79.84 732.16,-79.84 726.59,-80.52 715.42,-81.19 709.81,-81.19 709.81,-81.19 455.19,-81.19 455.19,-81.19 449.58,-81.19 438.41,-80.52 432.84,-79.84 432.84,-79.84 259.21,-58.75 259.21,-58.75 253.64,-58.07 248.07,-51.78 248.07,-46.17 248.07,-46.17 248.07,-34.95 248.07,-34.95 248.07,-29.35 253.64,-23.06 259.21,-22.38 259.21,-22.38 432.84,-1.29 432.84,-1.29 438.41,-0.61 449.58,0.06 455.19,0.06 455.19,0.06 709.81,0.06 709.81,0.06 715.42,0.06 726.59,-0.61 732.16,-1.29 732.16,-1.29 905.79,-22.38 905.79,-22.38 911.36,-23.06 916.93,-29.35 916.93,-34.95"/>
<text text-anchor="middle" x="582.5" y="-51.86" font-family="monospace" font-size="14.00">FAULT</text>
<text text-anchor="middle" x="582.5" y="-36.86" font-family="monospace" font-size="14.00">axi4.write.orphan_completion</text>
<text text-anchor="middle" x="582.5" y="-21.86" font-family="monospace" font-size="14.00">completion for key 2 has no joined descriptor/burst</text>
</g>
<!-- n2&#45;&gt;fault -->
<g id="edge5" class="edge">
<title>n2&#45;&gt;fault</title>
<path fill="none" stroke="#dc2626" stroke-width="2" d="M582.5,-120.93C582.5,-112 582.5,-101.65 582.5,-91.44"/>
<polygon fill="#dc2626" stroke="#dc2626" stroke-width="2" points="586,-91.33 582.5,-81.33 579,-91.33 586,-91.33"/>
</g>
</g>
</svg>
