<?xml version="1.0" encoding="UTF-8" standalone="no"?>
<!DOCTYPE svg PUBLIC "-//W3C//DTD SVG 1.1//EN"
 "http://www.w3.org/Graphics/SVG/1.1/DTD/svg11.dtd">
<!-- Generated by graphviz version 2.43.0 (0)
 -->
<!-- Title: axi4_case Pages: 1 -->
<svg width="738pt" height="1592pt"
 viewBox="0.00 0.00 737.80 1591.80" xmlns="http://www.w3.org/2000/svg" xmlns:xlink="http://www.w3.org/1999/xlink">
<g id="graph0" class="graph" transform="scale(1 1) rotate(0) translate(14.4 1577.4)">
<title>axi4_case</title>
<polygon fill="white" stroke="transparent" points="-14.4,14.4 -14.4,-1577.4 723.4,-1577.4 723.4,14.4 -14.4,14.4"/>
<text text-anchor="middle" x="354.5" y="-1547.8" font-family="Times,serif" font-size="14.00">FIXED permits sixteen transfers at one address container / FIXED 允许在同一地址容器上传输十六拍</text>
<!-- event0 -->
<g id="node1" class="node">
<title>event0</title>
<path fill="#eef5ff" stroke="#3169a8" d="M437,-1540C437,-1540 272,-1540 272,-1540 266,-1540 260,-1534 260,-1528 260,-1528 260,-1516 260,-1516 260,-1510 266,-1504 272,-1504 272,-1504 437,-1504 437,-1504 443,-1504 449,-1510 449,-1516 449,-1516 449,-1528 449,-1528 449,-1534 443,-1540 437,-1540"/>
<text text-anchor="middle" x="354.5" y="-1519.5" font-family="sans-serif" font-size="10.00">[0] ID10 A=0xfff N=16 S=4B FIXED</text>
</g>
<!-- event1 -->
<g id="node2" class="node">
<title>event1</title>
<path fill="#eef5ff" stroke="#3169a8" d="M420.5,-1446C420.5,-1446 288.5,-1446 288.5,-1446 282.5,-1446 276.5,-1440 276.5,-1434 276.5,-1434 276.5,-1422 276.5,-1422 276.5,-1416 282.5,-1410 288.5,-1410 288.5,-1410 420.5,-1410 420.5,-1410 426.5,-1410 432.5,-1416 432.5,-1422 432.5,-1422 432.5,-1434 432.5,-1434 432.5,-1440 426.5,-1446 420.5,-1446"/>
<text text-anchor="middle" x="354.5" y="-1425.5" font-family="sans-serif" font-size="10.00">[1] ID10 D=0x100 OKAY L=0</text>
</g>
<!-- event0&#45;&gt;event1 -->
<g id="edge1" class="edge">
<title>event0&#45;&gt;event1</title>
<path fill="none" stroke="#3169a8" d="M354.5,-1503.7C354.5,-1490.46 354.5,-1471.95 354.5,-1456.66"/>
<polygon fill="#3169a8" stroke="#3169a8" points="358,-1456.23 354.5,-1446.23 351,-1456.23 358,-1456.23"/>
<text text-anchor="middle" x="383.5" y="-1472.8" font-family="sans-serif" font-size="9.00">causes / 因果</text>
</g>
<!-- event2 -->
<g id="node3" class="node">
<title>event2</title>
<path fill="#eef5ff" stroke="#3169a8" d="M420.5,-1352C420.5,-1352 288.5,-1352 288.5,-1352 282.5,-1352 276.5,-1346 276.5,-1340 276.5,-1340 276.5,-1328 276.5,-1328 276.5,-1322 282.5,-1316 288.5,-1316 288.5,-1316 420.5,-1316 420.5,-1316 426.5,-1316 432.5,-1322 432.5,-1328 432.5,-1328 432.5,-1340 432.5,-1340 432.5,-1346 426.5,-1352 420.5,-1352"/>
<text text-anchor="middle" x="354.5" y="-1331.5" font-family="sans-serif" font-size="10.00">[2] ID10 D=0x101 OKAY L=0</text>
</g>
<!-- event1&#45;&gt;event2 -->
<g id="edge2" class="edge">
<title>event1&#45;&gt;event2</title>
<path fill="none" stroke="#3169a8" d="M354.5,-1409.7C354.5,-1396.46 354.5,-1377.95 354.5,-1362.66"/>
<polygon fill="#3169a8" stroke="#3169a8" points="358,-1362.23 354.5,-1352.23 351,-1362.23 358,-1362.23"/>
<text text-anchor="middle" x="383.5" y="-1378.8" font-family="sans-serif" font-size="9.00">causes / 因果</text>
</g>
<!-- event3 -->
<g id="node4" class="node">
<title>event3</title>
<path fill="#eef5ff" stroke="#3169a8" d="M420.5,-1258C420.5,-1258 288.5,-1258 288.5,-1258 282.5,-1258 276.5,-1252 276.5,-1246 276.5,-1246 276.5,-1234 276.5,-1234 276.5,-1228 282.5,-1222 288.5,-1222 288.5,-1222 420.5,-1222 420.5,-1222 426.5,-1222 432.5,-1228 432.5,-1234 432.5,-1234 432.5,-1246 432.5,-1246 432.5,-1252 426.5,-1258 420.5,-1258"/>
<text text-anchor="middle" x="354.5" y="-1237.5" font-family="sans-serif" font-size="10.00">[3] ID10 D=0x102 OKAY L=0</text>
</g>
<!-- event2&#45;&gt;event3 -->
<g id="edge3" class="edge">
<title>event2&#45;&gt;event3</title>
<path fill="none" stroke="#3169a8" d="M354.5,-1315.7C354.5,-1302.46 354.5,-1283.95 354.5,-1268.66"/>
<polygon fill="#3169a8" stroke="#3169a8" points="358,-1268.23 354.5,-1258.23 351,-1268.23 358,-1268.23"/>
<text text-anchor="middle" x="383.5" y="-1284.8" font-family="sans-serif" font-size="9.00">causes / 因果</text>
</g>
<!-- event4 -->
<g id="node5" class="node">
<title>event4</title>
<path fill="#eef5ff" stroke="#3169a8" d="M420.5,-1164C420.5,-1164 288.5,-1164 288.5,-1164 282.5,-1164 276.5,-1158 276.5,-1152 276.5,-1152 276.5,-1140 276.5,-1140 276.5,-1134 282.5,-1128 288.5,-1128 288.5,-1128 420.5,-1128 420.5,-1128 426.5,-1128 432.5,-1134 432.5,-1140 432.5,-1140 432.5,-1152 432.5,-1152 432.5,-1158 426.5,-1164 420.5,-1164"/>
<text text-anchor="middle" x="354.5" y="-1143.5" font-family="sans-serif" font-size="10.00">[4] ID10 D=0x103 OKAY L=0</text>
</g>
<!-- event3&#45;&gt;event4 -->
<g id="edge4" class="edge">
<title>event3&#45;&gt;event4</title>
<path fill="none" stroke="#3169a8" d="M354.5,-1221.7C354.5,-1208.46 354.5,-1189.95 354.5,-1174.66"/>
<polygon fill="#3169a8" stroke="#3169a8" points="358,-1174.23 354.5,-1164.23 351,-1174.23 358,-1174.23"/>
<text text-anchor="middle" x="383.5" y="-1190.8" font-family="sans-serif" font-size="9.00">causes / 因果</text>
</g>
<!-- event5 -->
<g id="node6" class="node">
<title>event5</title>
<path fill="#eef5ff" stroke="#3169a8" d="M420.5,-1070C420.5,-1070 288.5,-1070 288.5,-1070 282.5,-1070 276.5,-1064 276.5,-1058 276.5,-1058 276.5,-1046 276.5,-1046 276.5,-1040 282.5,-1034 288.5,-1034 288.5,-1034 420.5,-1034 420.5,-1034 426.5,-1034 432.5,-1040 432.5,-1046 432.5,-1046 432.5,-1058 432.5,-1058 432.5,-1064 426.5,-1070 420.5,-1070"/>
<text text-anchor="middle" x="354.5" y="-1049.5" font-family="sans-serif" font-size="10.00">[5] ID10 D=0x104 OKAY L=0</text>
</g>
<!-- event4&#45;&gt;event5 -->
<g id="edge5" class="edge">
<title>event4&#45;&gt;event5</title>
<path fill="none" stroke="#3169a8" d="M354.5,-1127.7C354.5,-1114.46 354.5,-1095.95 354.5,-1080.66"/>
<polygon fill="#3169a8" stroke="#3169a8" points="358,-1080.23 354.5,-1070.23 351,-1080.23 358,-1080.23"/>
<text text-anchor="middle" x="383.5" y="-1096.8" font-family="sans-serif" font-size="9.00">causes / 因果</text>
</g>
<!-- event6 -->
<g id="node7" class="node">
<title>event6</title>
<path fill="#eef5ff" stroke="#3169a8" d="M420.5,-976C420.5,-976 288.5,-976 288.5,-976 282.5,-976 276.5,-970 276.5,-964 276.5,-964 276.5,-952 276.5,-952 276.5,-946 282.5,-940 288.5,-940 288.5,-940 420.5,-940 420.5,-940 426.5,-940 432.5,-946 432.5,-952 432.5,-952 432.5,-964 432.5,-964 432.5,-970 426.5,-976 420.5,-976"/>
<text text-anchor="middle" x="354.5" y="-955.5" font-family="sans-serif" font-size="10.00">[6] ID10 D=0x105 OKAY L=0</text>
</g>
<!-- event5&#45;&gt;event6 -->
<g id="edge6" class="edge">
<title>event5&#45;&gt;event6</title>
<path fill="none" stroke="#3169a8" d="M354.5,-1033.7C354.5,-1020.46 354.5,-1001.95 354.5,-986.66"/>
<polygon fill="#3169a8" stroke="#3169a8" points="358,-986.23 354.5,-976.23 351,-986.23 358,-986.23"/>
<text text-anchor="middle" x="383.5" y="-1002.8" font-family="sans-serif" font-size="9.00">causes / 因果</text>
</g>
<!-- event7 -->
<g id="node8" class="node">
<title>event7</title>
<path fill="#eef5ff" stroke="#3169a8" d="M420.5,-882C420.5,-882 288.5,-882 288.5,-882 282.5,-882 276.5,-876 276.5,-870 276.5,-870 276.5,-858 276.5,-858 276.5,-852 282.5,-846 288.5,-846 288.5,-846 420.5,-846 420.5,-846 426.5,-846 432.5,-852 432.5,-858 432.5,-858 432.5,-870 432.5,-870 432.5,-876 426.5,-882 420.5,-882"/>
<text text-anchor="middle" x="354.5" y="-861.5" font-family="sans-serif" font-size="10.00">[7] ID10 D=0x106 OKAY L=0</text>
</g>
<!-- event6&#45;&gt;event7 -->
<g id="edge7" class="edge">
<title>event6&#45;&gt;event7</title>
<path fill="none" stroke="#3169a8" d="M354.5,-939.7C354.5,-926.46 354.5,-907.95 354.5,-892.66"/>
<polygon fill="#3169a8" stroke="#3169a8" points="358,-892.23 354.5,-882.23 351,-892.23 358,-892.23"/>
<text text-anchor="middle" x="383.5" y="-908.8" font-family="sans-serif" font-size="9.00">causes / 因果</text>
</g>
<!-- event8 -->
<g id="node9" class="node">
<title>event8</title>
<path fill="#eef5ff" stroke="#3169a8" d="M420.5,-788C420.5,-788 288.5,-788 288.5,-788 282.5,-788 276.5,-782 276.5,-776 276.5,-776 276.5,-764 276.5,-764 276.5,-758 282.5,-752 288.5,-752 288.5,-752 420.5,-752 420.5,-752 426.5,-752 432.5,-758 432.5,-764 432.5,-764 432.5,-776 432.5,-776 432.5,-782 426.5,-788 420.5,-788"/>
<text text-anchor="middle" x="354.5" y="-767.5" font-family="sans-serif" font-size="10.00">[8] ID10 D=0x107 OKAY L=0</text>
</g>
<!-- event7&#45;&gt;event8 -->
<g id="edge8" class="edge">
<title>event7&#45;&gt;event8</title>
<path fill="none" stroke="#3169a8" d="M354.5,-845.7C354.5,-832.46 354.5,-813.95 354.5,-798.66"/>
<polygon fill="#3169a8" stroke="#3169a8" points="358,-798.23 354.5,-788.23 351,-798.23 358,-798.23"/>
<text text-anchor="middle" x="383.5" y="-814.8" font-family="sans-serif" font-size="9.00">causes / 因果</text>
</g>
<!-- event9 -->
<g id="node10" class="node">
<title>event9</title>
<path fill="#eef5ff" stroke="#3169a8" d="M420.5,-694C420.5,-694 288.5,-694 288.5,-694 282.5,-694 276.5,-688 276.5,-682 276.5,-682 276.5,-670 276.5,-670 276.5,-664 282.5,-658 288.5,-658 288.5,-658 420.5,-658 420.5,-658 426.5,-658 432.5,-664 432.5,-670 432.5,-670 432.5,-682 432.5,-682 432.5,-688 426.5,-694 420.5,-694"/>
<text text-anchor="middle" x="354.5" y="-673.5" font-family="sans-serif" font-size="10.00">[9] ID10 D=0x108 OKAY L=0</text>
</g>
<!-- event8&#45;&gt;event9 -->
<g id="edge9" class="edge">
<title>event8&#45;&gt;event9</title>
<path fill="none" stroke="#3169a8" d="M354.5,-751.7C354.5,-738.46 354.5,-719.95 354.5,-704.66"/>
<polygon fill="#3169a8" stroke="#3169a8" points="358,-704.23 354.5,-694.23 351,-704.23 358,-704.23"/>
<text text-anchor="middle" x="383.5" y="-720.8" font-family="sans-serif" font-size="9.00">causes / 因果</text>
</g>
<!-- event10 -->
<g id="node11" class="node">
<title>event10</title>
<path fill="#eef5ff" stroke="#3169a8" d="M423.5,-600C423.5,-600 285.5,-600 285.5,-600 279.5,-600 273.5,-594 273.5,-588 273.5,-588 273.5,-576 273.5,-576 273.5,-570 279.5,-564 285.5,-564 285.5,-564 423.5,-564 423.5,-564 429.5,-564 435.5,-570 435.5,-576 435.5,-576 435.5,-588 435.5,-588 435.5,-594 429.5,-600 423.5,-600"/>
<text text-anchor="middle" x="354.5" y="-579.5" font-family="sans-serif" font-size="10.00">[10] ID10 D=0x109 OKAY L=0</text>
</g>
<!-- event9&#45;&gt;event10 -->
<g id="edge10" class="edge">
<title>event9&#45;&gt;event10</title>
<path fill="none" stroke="#3169a8" d="M354.5,-657.7C354.5,-644.46 354.5,-625.95 354.5,-610.66"/>
<polygon fill="#3169a8" stroke="#3169a8" points="358,-610.23 354.5,-600.23 351,-610.23 358,-610.23"/>
<text text-anchor="middle" x="383.5" y="-626.8" font-family="sans-serif" font-size="9.00">causes / 因果</text>
</g>
<!-- event11 -->
<g id="node12" class="node">
<title>event11</title>
<path fill="#eef5ff" stroke="#3169a8" d="M423.5,-506C423.5,-506 285.5,-506 285.5,-506 279.5,-506 273.5,-500 273.5,-494 273.5,-494 273.5,-482 273.5,-482 273.5,-476 279.5,-470 285.5,-470 285.5,-470 423.5,-470 423.5,-470 429.5,-470 435.5,-476 435.5,-482 435.5,-482 435.5,-494 435.5,-494 435.5,-500 429.5,-506 423.5,-506"/>
<text text-anchor="middle" x="354.5" y="-485.5" font-family="sans-serif" font-size="10.00">[11] ID10 D=0x10a OKAY L=0</text>
</g>
<!-- event10&#45;&gt;event11 -->
<g id="edge11" class="edge">
<title>event10&#45;&gt;event11</title>
<path fill="none" stroke="#3169a8" d="M354.5,-563.7C354.5,-550.46 354.5,-531.95 354.5,-516.66"/>
<polygon fill="#3169a8" stroke="#3169a8" points="358,-516.23 354.5,-506.23 351,-516.23 358,-516.23"/>
<text text-anchor="middle" x="383.5" y="-532.8" font-family="sans-serif" font-size="9.00">causes / 因果</text>
</g>
<!-- event12 -->
<g id="node13" class="node">
<title>event12</title>
<path fill="#eef5ff" stroke="#3169a8" d="M423.5,-412C423.5,-412 285.5,-412 285.5,-412 279.5,-412 273.5,-406 273.5,-400 273.5,-400 273.5,-388 273.5,-388 273.5,-382 279.5,-376 285.5,-376 285.5,-376 423.5,-376 423.5,-376 429.5,-376 435.5,-382 435.5,-388 435.5,-388 435.5,-400 435.5,-400 435.5,-406 429.5,-412 423.5,-412"/>
<text text-anchor="middle" x="354.5" y="-391.5" font-family="sans-serif" font-size="10.00">[12] ID10 D=0x10b OKAY L=0</text>
</g>
<!-- event11&#45;&gt;event12 -->
<g id="edge12" class="edge">
<title>event11&#45;&gt;event12</title>
<path fill="none" stroke="#3169a8" d="M354.5,-469.7C354.5,-456.46 354.5,-437.95 354.5,-422.66"/>
<polygon fill="#3169a8" stroke="#3169a8" points="358,-422.23 354.5,-412.23 351,-422.23 358,-422.23"/>
<text text-anchor="middle" x="383.5" y="-438.8" font-family="sans-serif" font-size="9.00">causes / 因果</text>
</g>
<!-- event13 -->
<g id="node14" class="node">
<title>event13</title>
<path fill="#eef5ff" stroke="#3169a8" d="M423,-318C423,-318 286,-318 286,-318 280,-318 274,-312 274,-306 274,-306 274,-294 274,-294 274,-288 280,-282 286,-282 286,-282 423,-282 423,-282 429,-282 435,-288 435,-294 435,-294 435,-306 435,-306 435,-312 429,-318 423,-318"/>
<text text-anchor="middle" x="354.5" y="-297.5" font-family="sans-serif" font-size="10.00">[13] ID10 D=0x10c OKAY L=0</text>
</g>
<!-- event12&#45;&gt;event13 -->
<g id="edge13" class="edge">
<title>event12&#45;&gt;event13</title>
<path fill="none" stroke="#3169a8" d="M354.5,-375.7C354.5,-362.46 354.5,-343.95 354.5,-328.66"/>
<polygon fill="#3169a8" stroke="#3169a8" points="358,-328.23 354.5,-318.23 351,-328.23 358,-328.23"/>
<text text-anchor="middle" x="383.5" y="-344.8" font-family="sans-serif" font-size="9.00">causes / 因果</text>
</g>
<!-- event14 -->
<g id="node15" class="node">
<title>event14</title>
<path fill="#eef5ff" stroke="#3169a8" d="M423.5,-224C423.5,-224 285.5,-224 285.5,-224 279.5,-224 273.5,-218 273.5,-212 273.5,-212 273.5,-200 273.5,-200 273.5,-194 279.5,-188 285.5,-188 285.5,-188 423.5,-188 423.5,-188 429.5,-188 435.5,-194 435.5,-200 435.5,-200 435.5,-212 435.5,-212 435.5,-218 429.5,-224 423.5,-224"/>
<text text-anchor="middle" x="354.5" y="-203.5" font-family="sans-serif" font-size="10.00">[14] ID10 D=0x10d OKAY L=0</text>
</g>
<!-- event13&#45;&gt;event14 -->
<g id="edge14" class="edge">
<title>event13&#45;&gt;event14</title>
<path fill="none" stroke="#3169a8" d="M354.5,-281.7C354.5,-268.46 354.5,-249.95 354.5,-234.66"/>
<polygon fill="#3169a8" stroke="#3169a8" points="358,-234.23 354.5,-224.23 351,-234.23 358,-234.23"/>
<text text-anchor="middle" x="383.5" y="-250.8" font-family="sans-serif" font-size="9.00">causes / 因果</text>
</g>
<!-- event15 -->
<g id="node16" class="node">
<title>event15</title>
<path fill="#eef5ff" stroke="#3169a8" d="M423.5,-130C423.5,-130 285.5,-130 285.5,-130 279.5,-130 273.5,-124 273.5,-118 273.5,-118 273.5,-106 273.5,-106 273.5,-100 279.5,-94 285.5,-94 285.5,-94 423.5,-94 423.5,-94 429.5,-94 435.5,-100 435.5,-106 435.5,-106 435.5,-118 435.5,-118 435.5,-124 429.5,-130 423.5,-130"/>
<text text-anchor="middle" x="354.5" y="-109.5" font-family="sans-serif" font-size="10.00">[15] ID10 D=0x10e OKAY L=0</text>
</g>
<!-- event14&#45;&gt;event15 -->
<g id="edge15" class="edge">
<title>event14&#45;&gt;event15</title>
<path fill="none" stroke="#3169a8" d="M354.5,-187.7C354.5,-174.46 354.5,-155.95 354.5,-140.66"/>
<polygon fill="#3169a8" stroke="#3169a8" points="358,-140.23 354.5,-130.23 351,-140.23 358,-140.23"/>
<text text-anchor="middle" x="383.5" y="-156.8" font-family="sans-serif" font-size="9.00">causes / 因果</text>
</g>
<!-- event16 -->
<g id="node17" class="node">
<title>event16</title>
<path fill="#eef5ff" stroke="#3169a8" d="M422.5,-36C422.5,-36 286.5,-36 286.5,-36 280.5,-36 274.5,-30 274.5,-24 274.5,-24 274.5,-12 274.5,-12 274.5,-6 280.5,0 286.5,0 286.5,0 422.5,0 422.5,0 428.5,0 434.5,-6 434.5,-12 434.5,-12 434.5,-24 434.5,-24 434.5,-30 428.5,-36 422.5,-36"/>
<text text-anchor="middle" x="354.5" y="-15.5" font-family="sans-serif" font-size="10.00">[16] ID10 D=0x10f OKAY L=1</text>
</g>
<!-- event15&#45;&gt;event16 -->
<g id="edge16" class="edge">
<title>event15&#45;&gt;event16</title>
<path fill="none" stroke="#3169a8" d="M354.5,-93.7C354.5,-80.46 354.5,-61.95 354.5,-46.66"/>
<polygon fill="#3169a8" stroke="#3169a8" points="358,-46.23 354.5,-36.23 351,-46.23 358,-46.23"/>
<text text-anchor="middle" x="383.5" y="-62.8" font-family="sans-serif" font-size="9.00">causes / 因果</text>
</g>
</g>
</svg>
