<?xml version="1.0" encoding="UTF-8" standalone="no"?>
<!DOCTYPE svg PUBLIC "-//W3C//DTD SVG 1.1//EN"
 "http://www.w3.org/Graphics/SVG/1.1/DTD/svg11.dtd">
<!-- Generated by graphviz version 2.43.0 (0)
 -->
<!-- Title: axi4_case Pages: 1 -->
<svg width="605pt" height="88pt"
 viewBox="0.00 0.00 604.80 87.80" xmlns="http://www.w3.org/2000/svg" xmlns:xlink="http://www.w3.org/1999/xlink">
<g id="graph0" class="graph" transform="scale(1 1) rotate(0) translate(14.4 73.4)">
<title>axi4_case</title>
<polygon fill="white" stroke="transparent" points="-14.4,14.4 -14.4,-73.4 590.4,-73.4 590.4,14.4 -14.4,14.4"/>
<text text-anchor="middle" x="288" y="-43.8" font-family="Times,serif" font-size="14.00">Single read opens and discharges one obligation / 单拍读事务打开并解除一个义务</text>
<!-- event0 -->
<g id="node1" class="node">
<title>event0</title>
<path fill="#eef5ff" stroke="#3169a8" d="M222.5,-36C222.5,-36 67.5,-36 67.5,-36 61.5,-36 55.5,-30 55.5,-24 55.5,-24 55.5,-12 55.5,-12 55.5,-6 61.5,0 67.5,0 67.5,0 222.5,0 222.5,0 228.5,0 234.5,-6 234.5,-12 234.5,-12 234.5,-24 234.5,-24 234.5,-30 228.5,-36 222.5,-36"/>
<text text-anchor="middle" x="145" y="-15.5" font-family="sans-serif" font-size="10.00">[0] ID1 A=0x100 N=1 S=4B INCR</text>
</g>
<!-- event1 -->
<g id="node2" class="node">
<title>event1</title>
<path fill="#eef5ff" stroke="#3169a8" d="M508.5,-36C508.5,-36 352.5,-36 352.5,-36 346.5,-36 340.5,-30 340.5,-24 340.5,-24 340.5,-12 340.5,-12 340.5,-6 346.5,0 352.5,0 352.5,0 508.5,0 508.5,0 514.5,0 520.5,-6 520.5,-12 520.5,-12 520.5,-24 520.5,-24 520.5,-30 514.5,-36 508.5,-36"/>
<text text-anchor="middle" x="430.5" y="-15.5" font-family="sans-serif" font-size="10.00">[1] ID1 D=0x11223344 OKAY L=1</text>
</g>
<!-- event0&#45;&gt;event1 -->
<g id="edge1" class="edge">
<title>event0&#45;&gt;event1</title>
<path fill="none" stroke="#3169a8" d="M234.54,-18C264.75,-18 298.74,-18 329.77,-18"/>
<polygon fill="#3169a8" stroke="#3169a8" points="330.17,-21.5 340.17,-18 330.17,-14.5 330.17,-21.5"/>
<text text-anchor="middle" x="287.5" y="-20.8" font-family="sans-serif" font-size="9.00">causes / 因果</text>
</g>
</g>
</svg>
