<?xml version="1.0" encoding="UTF-8" standalone="no"?>
<!DOCTYPE svg PUBLIC "-//W3C//DTD SVG 1.1//EN"
 "http://www.w3.org/Graphics/SVG/1.1/DTD/svg11.dtd">
<!-- Generated by graphviz version 2.43.0 (0)
 -->
<!-- Title: axi_scenario Pages: 1 -->
<svg width="945pt" height="205pt"
 viewBox="0.00 0.00 944.60 205.13" xmlns="http://www.w3.org/2000/svg" xmlns:xlink="http://www.w3.org/1999/xlink">
<g id="graph0" class="graph" transform="scale(1 1) rotate(0) translate(4 201.13)">
<title>axi_scenario</title>
<polygon fill="white" stroke="transparent" points="-4,4 -4,-201.13 940.6,-201.13 940.6,4 -4,4"/>
<text text-anchor="middle" x="468.3" y="-181.93" font-family="Times,serif" font-size="14.00">read_missing_rlast</text>
<!-- n0 -->
<g id="node1" class="node">
<title>n0</title>
<path fill="#fef3c7" stroke="black" d="M285,-174.13C285,-174.13 12,-174.13 12,-174.13 6,-174.13 0,-168.13 0,-162.13 0,-162.13 0,-133.13 0,-133.13 0,-127.13 6,-121.13 12,-121.13 12,-121.13 285,-121.13 285,-121.13 291,-121.13 297,-127.13 297,-133.13 297,-133.13 297,-162.13 297,-162.13 297,-168.13 291,-174.13 285,-174.13"/>
<text text-anchor="middle" x="148.5" y="-158.93" font-family="monospace" font-size="14.00">cycle 1 AR</text>
<text text-anchor="middle" x="148.5" y="-143.93" font-family="monospace" font-size="14.00">AR_TRANSFER id=1</text>
<text text-anchor="middle" x="148.5" y="-128.93" font-family="monospace" font-size="14.00">addr=28672 len=1 size=3 burst=INCR</text>
</g>
<!-- n1 -->
<g id="node2" class="node">
<title>n1</title>
<path fill="#dcfce7" stroke="black" d="M492.5,-174.13C492.5,-174.13 334.5,-174.13 334.5,-174.13 328.5,-174.13 322.5,-168.13 322.5,-162.13 322.5,-162.13 322.5,-133.13 322.5,-133.13 322.5,-127.13 328.5,-121.13 334.5,-121.13 334.5,-121.13 492.5,-121.13 492.5,-121.13 498.5,-121.13 504.5,-127.13 504.5,-133.13 504.5,-133.13 504.5,-162.13 504.5,-162.13 504.5,-168.13 498.5,-174.13 492.5,-174.13"/>
<text text-anchor="middle" x="413.5" y="-158.93" font-family="monospace" font-size="14.00">cycle 2 R</text>
<text text-anchor="middle" x="413.5" y="-143.93" font-family="monospace" font-size="14.00">R_TRANSFER id=1</text>
<text text-anchor="middle" x="413.5" y="-128.93" font-family="monospace" font-size="14.00">resp=OKAY last=False</text>
</g>
<!-- n0&#45;&gt;n1 -->
<g id="edge1" class="edge">
<title>n0&#45;&gt;n1</title>
<path fill="none" stroke="#94a3b8" d="M236.77,-121.15C236.81,-121.14 236.83,-121.13 236.83,-121.13 236.83,-121.13 291.83,-121.13 315.07,-121.14"/>
<polygon fill="#94a3b8" stroke="#94a3b8" points="315.23,-124.64 325.23,-121.15 315.23,-117.64 315.23,-124.64"/>
</g>
<!-- n0&#45;&gt;n1 -->
<!-- n0&#45;&gt;n1 -->
<g id="edge5" class="edge">
<title>n0&#45;&gt;n1</title>
<path fill="none" stroke="#2563eb" stroke-width="2" d="M236.77,-174.11C236.81,-174.12 236.83,-174.13 236.83,-174.13 236.83,-174.13 291.83,-174.13 315.07,-174.12"/>
<polygon fill="#2563eb" stroke="#2563eb" stroke-width="2" points="315.23,-177.62 325.23,-174.11 315.23,-170.62 315.23,-177.62"/>
</g>
<!-- n2 -->
<g id="node3" class="node">
<title>n2</title>
<path fill="#dcfce7" stroke="black" d="M699.5,-174.13C699.5,-174.13 541.5,-174.13 541.5,-174.13 535.5,-174.13 529.5,-168.13 529.5,-162.13 529.5,-162.13 529.5,-133.13 529.5,-133.13 529.5,-127.13 535.5,-121.13 541.5,-121.13 541.5,-121.13 699.5,-121.13 699.5,-121.13 705.5,-121.13 711.5,-127.13 711.5,-133.13 711.5,-133.13 711.5,-162.13 711.5,-162.13 711.5,-168.13 705.5,-174.13 699.5,-174.13"/>
<text text-anchor="middle" x="620.5" y="-158.93" font-family="monospace" font-size="14.00">cycle 3 R</text>
<text text-anchor="middle" x="620.5" y="-143.93" font-family="monospace" font-size="14.00">R_TRANSFER id=1</text>
<text text-anchor="middle" x="620.5" y="-128.93" font-family="monospace" font-size="14.00">resp=OKAY last=False</text>
</g>
<!-- n1&#45;&gt;n2 -->
<g id="edge2" class="edge">
<title>n1&#45;&gt;n2</title>
<path fill="none" stroke="#94a3b8" d="M482.45,-121.15C482.48,-121.14 482.5,-121.13 482.5,-121.13 482.5,-121.13 522.13,-121.13 541.34,-121.14"/>
<polygon fill="#94a3b8" stroke="#94a3b8" points="541.55,-124.64 551.55,-121.15 541.55,-117.64 541.55,-124.64"/>
</g>
<!-- n1&#45;&gt;n2 -->
<!-- fault -->
<g id="node4" class="node">
<title>fault</title>
<path fill="#fecaca" stroke="black" d="M936.69,-34.95C936.69,-34.95 936.69,-46.17 936.69,-46.17 936.69,-51.78 931.13,-58.11 925.57,-58.82 925.57,-58.82 762.6,-79.76 762.6,-79.76 757.04,-80.48 745.86,-81.19 740.25,-81.19 740.25,-81.19 500.75,-81.19 500.75,-81.19 495.14,-81.19 483.96,-80.48 478.4,-79.76 478.4,-79.76 315.43,-58.82 315.43,-58.82 309.87,-58.11 304.31,-51.78 304.31,-46.17 304.31,-46.17 304.31,-34.95 304.31,-34.95 304.31,-29.35 309.87,-23.02 315.43,-22.31 315.43,-22.31 478.4,-1.37 478.4,-1.37 483.96,-0.65 495.14,0.06 500.75,0.06 500.75,0.06 740.25,0.06 740.25,0.06 745.86,0.06 757.04,-0.65 762.6,-1.37 762.6,-1.37 925.57,-22.31 925.57,-22.31 931.13,-23.02 936.69,-29.35 936.69,-34.95"/>
<text text-anchor="middle" x="620.5" y="-51.86" font-family="monospace" font-size="14.00">FAULT</text>
<text text-anchor="middle" x="620.5" y="-36.86" font-family="monospace" font-size="14.00">axi4.read_beats.final_marker</text>
<text text-anchor="middle" x="620.5" y="-21.86" font-family="monospace" font-size="14.00">beat 2/2 for key 1 requires last=True, got False</text>
</g>
<!-- n2&#45;&gt;fault -->
<g id="edge6" class="edge">
<title>n2&#45;&gt;fault</title>
<path fill="none" stroke="#dc2626" stroke-width="2" d="M620.5,-120.93C620.5,-112 620.5,-101.65 620.5,-91.44"/>
<polygon fill="#dc2626" stroke="#dc2626" stroke-width="2" points="624,-91.33 620.5,-81.33 617,-91.33 624,-91.33"/>
</g>
</g>
</svg>
