<?xml version="1.0" encoding="UTF-8" standalone="no"?>
<!DOCTYPE svg PUBLIC "-//W3C//DTD SVG 1.1//EN"
 "http://www.w3.org/Graphics/SVG/1.1/DTD/svg11.dtd">
<!-- Generated by graphviz version 2.43.0 (0)
 -->
<!-- Title: axi4_case Pages: 1 -->
<svg width="1395pt" height="153pt"
 viewBox="0.00 0.00 1394.80 152.80" xmlns="http://www.w3.org/2000/svg" xmlns:xlink="http://www.w3.org/1999/xlink">
<g id="graph0" class="graph" transform="scale(1 1) rotate(0) translate(14.4 138.4)">
<title>axi4_case</title>
<polygon fill="white" stroke="transparent" points="-14.4,14.4 -14.4,-138.4 1380.4,-138.4 1380.4,14.4 -14.4,14.4"/>
<text text-anchor="middle" x="683" y="-108.8" font-family="Times,serif" font-size="14.00">Narrow unaligned transfers rotate legal byte lanes / 窄位宽非对齐传输轮换合法字节通道</text>
<!-- event0 -->
<g id="node1" class="node">
<title>event0</title>
<path fill="#eef5ff" stroke="#3169a8" d="M1143.5,-101C1143.5,-101 1000.5,-101 1000.5,-101 994.5,-101 988.5,-95 988.5,-89 988.5,-89 988.5,-77 988.5,-77 988.5,-71 994.5,-65 1000.5,-65 1000.5,-65 1143.5,-65 1143.5,-65 1149.5,-65 1155.5,-71 1155.5,-77 1155.5,-77 1155.5,-89 1155.5,-89 1155.5,-95 1149.5,-101 1143.5,-101"/>
<text text-anchor="middle" x="1072" y="-80.5" font-family="sans-serif" font-size="10.00">[0] ID1 A=0x3 N=4 S=4B INCR</text>
</g>
<!-- event5 -->
<g id="node6" class="node">
<title>event5</title>
<path fill="#eef5ff" stroke="#3169a8" d="M1354,-69C1354,-69 1299,-69 1299,-69 1293,-69 1287,-63 1287,-57 1287,-57 1287,-45 1287,-45 1287,-39 1293,-33 1299,-33 1299,-33 1354,-33 1354,-33 1360,-33 1366,-39 1366,-45 1366,-45 1366,-57 1366,-57 1366,-63 1360,-69 1354,-69"/>
<text text-anchor="middle" x="1326.5" y="-48.5" font-family="sans-serif" font-size="10.00">[5] ID1 OKAY</text>
</g>
<!-- event0&#45;&gt;event5 -->
<g id="edge4" class="edge">
<title>event0&#45;&gt;event5</title>
<path fill="none" stroke="#3169a8" d="M1155.68,-72.52C1195.69,-67.45 1242.37,-61.54 1276.64,-57.19"/>
<polygon fill="#3169a8" stroke="#3169a8" points="1277.38,-60.63 1286.86,-55.9 1276.5,-53.68 1277.38,-60.63"/>
<text text-anchor="middle" x="1234" y="-68.8" font-family="sans-serif" font-size="9.00">causes / 因果</text>
</g>
<!-- event1 -->
<g id="node2" class="node">
<title>event1</title>
<path fill="#eef5ff" stroke="#3169a8" d="M203,-36C203,-36 12,-36 12,-36 6,-36 0,-30 0,-24 0,-24 0,-12 0,-12 0,-6 6,0 12,0 12,0 203,0 203,0 209,0 215,-6 215,-12 215,-12 215,-24 215,-24 215,-30 209,-36 203,-36"/>
<text text-anchor="middle" x="107.5" y="-15.5" font-family="sans-serif" font-size="10.00">[1] D=0x1111111111111111 S=0x8 L=0</text>
</g>
<!-- event2 -->
<g id="node3" class="node">
<title>event2</title>
<path fill="#eef5ff" stroke="#3169a8" d="M527,-36C527,-36 333,-36 333,-36 327,-36 321,-30 321,-24 321,-24 321,-12 321,-12 321,-6 327,0 333,0 333,0 527,0 527,0 533,0 539,-6 539,-12 539,-12 539,-24 539,-24 539,-30 533,-36 527,-36"/>
<text text-anchor="middle" x="430" y="-15.5" font-family="sans-serif" font-size="10.00">[2] D=0x2222222222222222 S=0xf0 L=0</text>
</g>
<!-- event1&#45;&gt;event2 -->
<g id="edge1" class="edge">
<title>event1&#45;&gt;event2</title>
<path fill="none" stroke="#3169a8" d="M215.22,-18C245.87,-18 279.46,-18 310.76,-18"/>
<polygon fill="#3169a8" stroke="#3169a8" points="310.83,-21.5 320.83,-18 310.83,-14.5 310.83,-21.5"/>
<text text-anchor="middle" x="268" y="-20.8" font-family="sans-serif" font-size="9.00">causes / 因果</text>
</g>
<!-- event3 -->
<g id="node4" class="node">
<title>event3</title>
<path fill="#eef5ff" stroke="#3169a8" d="M845,-36C845,-36 657,-36 657,-36 651,-36 645,-30 645,-24 645,-24 645,-12 645,-12 645,-6 651,0 657,0 657,0 845,0 845,0 851,0 857,-6 857,-12 857,-12 857,-24 857,-24 857,-30 851,-36 845,-36"/>
<text text-anchor="middle" x="751" y="-15.5" font-family="sans-serif" font-size="10.00">[3] D=0x3333333333333333 S=0xf L=0</text>
</g>
<!-- event2&#45;&gt;event3 -->
<g id="edge2" class="edge">
<title>event2&#45;&gt;event3</title>
<path fill="none" stroke="#3169a8" d="M539.44,-18C570.17,-18 603.71,-18 634.82,-18"/>
<polygon fill="#3169a8" stroke="#3169a8" points="634.83,-21.5 644.83,-18 634.83,-14.5 634.83,-21.5"/>
<text text-anchor="middle" x="592" y="-20.8" font-family="sans-serif" font-size="9.00">causes / 因果</text>
</g>
<!-- event4 -->
<g id="node5" class="node">
<title>event4</title>
<path fill="#eef5ff" stroke="#3169a8" d="M1169,-36C1169,-36 975,-36 975,-36 969,-36 963,-30 963,-24 963,-24 963,-12 963,-12 963,-6 969,0 975,0 975,0 1169,0 1169,0 1175,0 1181,-6 1181,-12 1181,-12 1181,-24 1181,-24 1181,-30 1175,-36 1169,-36"/>
<text text-anchor="middle" x="1072" y="-15.5" font-family="sans-serif" font-size="10.00">[4] D=0x4444444444444444 S=0xf0 L=1</text>
</g>
<!-- event3&#45;&gt;event4 -->
<g id="edge3" class="edge">
<title>event3&#45;&gt;event4</title>
<path fill="none" stroke="#3169a8" d="M857.34,-18C887.88,-18 921.42,-18 952.7,-18"/>
<polygon fill="#3169a8" stroke="#3169a8" points="952.77,-21.5 962.77,-18 952.77,-14.5 952.77,-21.5"/>
<text text-anchor="middle" x="910" y="-20.8" font-family="sans-serif" font-size="9.00">causes / 因果</text>
</g>
<!-- event4&#45;&gt;event5 -->
<g id="edge5" class="edge">
<title>event4&#45;&gt;event5</title>
<path fill="none" stroke="#3169a8" d="M1181.04,-31.65C1223.82,-37.05 1263,-42 1263,-42 1263,-42 1268.87,-42.85 1277.02,-44.02"/>
<polygon fill="#3169a8" stroke="#3169a8" points="1276.59,-47.49 1286.99,-45.45 1277.59,-40.56 1276.59,-47.49"/>
<text text-anchor="middle" x="1234" y="-44.8" font-family="sans-serif" font-size="9.00">causes / 因果</text>
</g>
</g>
</svg>
