<?xml version="1.0" encoding="UTF-8" standalone="no"?>
<!DOCTYPE svg PUBLIC "-//W3C//DTD SVG 1.1//EN"
 "http://www.w3.org/Graphics/SVG/1.1/DTD/svg11.dtd">
<!-- Generated by graphviz version 2.43.0 (0)
 -->
<!-- Title: axi4_case Pages: 1 -->
<svg width="631pt" height="153pt"
 viewBox="0.00 0.00 630.80 152.80" xmlns="http://www.w3.org/2000/svg" xmlns:xlink="http://www.w3.org/1999/xlink">
<g id="graph0" class="graph" transform="scale(1 1) rotate(0) translate(14.4 138.4)">
<title>axi4_case</title>
<polygon fill="white" stroke="transparent" points="-14.4,14.4 -14.4,-138.4 616.4,-138.4 616.4,14.4 -14.4,14.4"/>
<text text-anchor="middle" x="301" y="-108.8" font-family="Times,serif" font-size="14.00">AW and W at one edge commit as one frame / 同一采样沿的 AW 与 W 作为一个帧提交</text>
<!-- event0 -->
<g id="node1" class="node">
<title>event0</title>
<path fill="#eef5ff" stroke="#3169a8" d="M260.5,-101C260.5,-101 156.5,-101 156.5,-101 150.5,-101 144.5,-95 144.5,-89 144.5,-89 144.5,-77 144.5,-77 144.5,-71 150.5,-65 156.5,-65 156.5,-65 260.5,-65 260.5,-65 266.5,-65 272.5,-71 272.5,-77 272.5,-77 272.5,-89 272.5,-89 272.5,-95 266.5,-101 260.5,-101"/>
<text text-anchor="middle" x="208.5" y="-80.5" font-family="sans-serif" font-size="10.00">[0] D=0xaa S=0xf L=1</text>
</g>
<!-- event2 -->
<g id="node3" class="node">
<title>event2</title>
<path fill="#eef5ff" stroke="#3169a8" d="M471,-68C471,-68 416,-68 416,-68 410,-68 404,-62 404,-56 404,-56 404,-44 404,-44 404,-38 410,-32 416,-32 416,-32 471,-32 471,-32 477,-32 483,-38 483,-44 483,-44 483,-56 483,-56 483,-62 477,-68 471,-68"/>
<text text-anchor="middle" x="443.5" y="-47.5" font-family="sans-serif" font-size="10.00">[2] ID1 OKAY</text>
</g>
<!-- event0&#45;&gt;event2 -->
<g id="edge2" class="edge">
<title>event0&#45;&gt;event2</title>
<path fill="none" stroke="#3169a8" d="M272.55,-74.07C310.7,-68.67 358.61,-61.88 393.83,-56.89"/>
<polygon fill="#3169a8" stroke="#3169a8" points="394.46,-60.34 403.87,-55.47 393.48,-53.41 394.46,-60.34"/>
<text text-anchor="middle" x="351" y="-68.8" font-family="sans-serif" font-size="9.00">causes / 因果</text>
</g>
<!-- event1 -->
<g id="node2" class="node">
<title>event1</title>
<path fill="#eef5ff" stroke="#3169a8" d="M286,-36C286,-36 131,-36 131,-36 125,-36 119,-30 119,-24 119,-24 119,-12 119,-12 119,-6 125,0 131,0 131,0 286,0 286,0 292,0 298,-6 298,-12 298,-12 298,-24 298,-24 298,-30 292,-36 286,-36"/>
<text text-anchor="middle" x="208.5" y="-15.5" font-family="sans-serif" font-size="10.00">[1] ID1 A=0x800 N=1 S=4B INCR</text>
</g>
<!-- event1&#45;&gt;event2 -->
<g id="edge1" class="edge">
<title>event1&#45;&gt;event2</title>
<path fill="none" stroke="#3169a8" d="M298.25,-27.89C339.67,-32.51 380,-37 380,-37 380,-37 385.87,-38.22 394.02,-39.92"/>
<polygon fill="#3169a8" stroke="#3169a8" points="393.48,-43.38 403.99,-41.99 394.91,-36.53 393.48,-43.38"/>
<text text-anchor="middle" x="351" y="-39.8" font-family="sans-serif" font-size="9.00">causes / 因果</text>
</g>
</g>
</svg>
