<?xml version="1.0" encoding="UTF-8" standalone="no"?>
<!DOCTYPE svg PUBLIC "-//W3C//DTD SVG 1.1//EN"
 "http://www.w3.org/Graphics/SVG/1.1/DTD/svg11.dtd">
<!-- Generated by graphviz version 2.43.0 (0)
 -->
<!-- Title: axi_scenario Pages: 1 -->
<svg width="640pt" height="205pt"
 viewBox="0.00 0.00 640.19 205.13" xmlns="http://www.w3.org/2000/svg" xmlns:xlink="http://www.w3.org/1999/xlink">
<g id="graph0" class="graph" transform="scale(1 1) rotate(0) translate(4 201.13)">
<title>axi_scenario</title>
<polygon fill="white" stroke="transparent" points="-4,4 -4,-201.13 636.19,-201.13 636.19,4 -4,4"/>
<text text-anchor="middle" x="316.1" y="-181.93" font-family="Times,serif" font-size="14.00">read_orphan_r</text>
<!-- n0 -->
<g id="node1" class="node">
<title>n0</title>
<path fill="#dcfce7" stroke="black" d="M390.6,-174.13C390.6,-174.13 241.6,-174.13 241.6,-174.13 235.6,-174.13 229.6,-168.13 229.6,-162.13 229.6,-162.13 229.6,-133.13 229.6,-133.13 229.6,-127.13 235.6,-121.13 241.6,-121.13 241.6,-121.13 390.6,-121.13 390.6,-121.13 396.6,-121.13 402.6,-127.13 402.6,-133.13 402.6,-133.13 402.6,-162.13 402.6,-162.13 402.6,-168.13 396.6,-174.13 390.6,-174.13"/>
<text text-anchor="middle" x="316.1" y="-158.93" font-family="monospace" font-size="14.00">cycle 1 R</text>
<text text-anchor="middle" x="316.1" y="-143.93" font-family="monospace" font-size="14.00">R_TRANSFER id=1</text>
<text text-anchor="middle" x="316.1" y="-128.93" font-family="monospace" font-size="14.00">resp=OKAY last=True</text>
</g>
<!-- fault -->
<g id="node2" class="node">
<title>fault</title>
<path fill="#fecaca" stroke="black" d="M632.29,-34.95C632.29,-34.95 632.29,-46.17 632.29,-46.17 632.29,-51.78 626.73,-58.11 621.16,-58.82 621.16,-58.82 458.2,-79.76 458.2,-79.76 452.63,-80.48 441.46,-81.19 435.85,-81.19 435.85,-81.19 196.34,-81.19 196.34,-81.19 190.73,-81.19 179.56,-80.48 174,-79.76 174,-79.76 11.03,-58.82 11.03,-58.82 5.47,-58.11 -0.1,-51.78 -0.1,-46.17 -0.1,-46.17 -0.1,-34.95 -0.1,-34.95 -0.1,-29.35 5.47,-23.02 11.03,-22.31 11.03,-22.31 174,-1.37 174,-1.37 179.56,-0.65 190.73,0.06 196.34,0.06 196.34,0.06 435.85,0.06 435.85,0.06 441.46,0.06 452.63,-0.65 458.2,-1.37 458.2,-1.37 621.16,-22.31 621.16,-22.31 626.73,-23.02 632.29,-29.35 632.29,-34.95"/>
<text text-anchor="middle" x="316.1" y="-51.86" font-family="monospace" font-size="14.00">FAULT</text>
<text text-anchor="middle" x="316.1" y="-36.86" font-family="monospace" font-size="14.00">axi4.signal_session.rvalid_dependency</text>
<text text-anchor="middle" x="316.1" y="-21.86" font-family="monospace" font-size="14.00">RVALID asserted without a previously accepted AR</text>
</g>
<!-- n0&#45;&gt;fault -->
<g id="edge1" class="edge">
<title>n0&#45;&gt;fault</title>
<path fill="none" stroke="#dc2626" stroke-width="2" d="M316.1,-120.93C316.1,-112 316.1,-101.65 316.1,-91.44"/>
<polygon fill="#dc2626" stroke="#dc2626" stroke-width="2" points="319.6,-91.33 316.1,-81.33 312.6,-91.33 319.6,-91.33"/>
</g>
</g>
</svg>
