<?xml version="1.0" encoding="UTF-8" standalone="no"?>
<!DOCTYPE svg PUBLIC "-//W3C//DTD SVG 1.1//EN"
 "http://www.w3.org/Graphics/SVG/1.1/DTD/svg11.dtd">
<!-- Generated by graphviz version 2.43.0 (0)
 -->
<!-- Title: axi_scenario Pages: 1 -->
<svg width="1038pt" height="253pt"
 viewBox="0.00 0.00 1037.50 253.00" xmlns="http://www.w3.org/2000/svg" xmlns:xlink="http://www.w3.org/1999/xlink">
<g id="graph0" class="graph" transform="scale(1 1) rotate(0) translate(4 249)">
<title>axi_scenario</title>
<polygon fill="white" stroke="transparent" points="-4,4 -4,-249 1033.5,-249 1033.5,4 -4,4"/>
<text text-anchor="middle" x="514.75" y="-229.8" font-family="Times,serif" font-size="14.00">read_cross_id_later_first</text>
<!-- n0 -->
<g id="node1" class="node">
<title>n0</title>
<path fill="#fef3c7" stroke="black" d="M285,-222C285,-222 12,-222 12,-222 6,-222 0,-216 0,-210 0,-210 0,-181 0,-181 0,-175 6,-169 12,-169 12,-169 285,-169 285,-169 291,-169 297,-175 297,-181 297,-181 297,-210 297,-210 297,-216 291,-222 285,-222"/>
<text text-anchor="middle" x="148.5" y="-206.8" font-family="monospace" font-size="14.00">cycle 1 AR</text>
<text text-anchor="middle" x="148.5" y="-191.8" font-family="monospace" font-size="14.00">AR_TRANSFER id=1</text>
<text text-anchor="middle" x="148.5" y="-176.8" font-family="monospace" font-size="14.00">addr=36864 len=1 size=3 burst=INCR</text>
</g>
<!-- n1 -->
<g id="node2" class="node">
<title>n1</title>
<path fill="#fef3c7" stroke="black" d="M607,-222C607,-222 334,-222 334,-222 328,-222 322,-216 322,-210 322,-210 322,-181 322,-181 322,-175 328,-169 334,-169 334,-169 607,-169 607,-169 613,-169 619,-175 619,-181 619,-181 619,-210 619,-210 619,-216 613,-222 607,-222"/>
<text text-anchor="middle" x="470.5" y="-206.8" font-family="monospace" font-size="14.00">cycle 2 AR</text>
<text text-anchor="middle" x="470.5" y="-191.8" font-family="monospace" font-size="14.00">AR_TRANSFER id=2</text>
<text text-anchor="middle" x="470.5" y="-176.8" font-family="monospace" font-size="14.00">addr=37120 len=1 size=3 burst=INCR</text>
</g>
<!-- n0&#45;&gt;n1 -->
<g id="edge1" class="edge">
<title>n0&#45;&gt;n1</title>
<path fill="none" stroke="#94a3b8" d="M255.76,-169.02C255.81,-169.01 255.83,-169 255.83,-169 255.83,-169 326.01,-169 352.92,-169.01"/>
<polygon fill="#94a3b8" stroke="#94a3b8" points="353.24,-172.51 363.24,-169.02 353.25,-165.51 353.24,-172.51"/>
</g>
<!-- n0&#45;&gt;n1 -->
<!-- n4 -->
<g id="node5" class="node">
<title>n4</title>
<path fill="#dcfce7" stroke="black" d="M1017.5,-129C1017.5,-129 859.5,-129 859.5,-129 853.5,-129 847.5,-123 847.5,-117 847.5,-117 847.5,-88 847.5,-88 847.5,-82 853.5,-76 859.5,-76 859.5,-76 1017.5,-76 1017.5,-76 1023.5,-76 1029.5,-82 1029.5,-88 1029.5,-88 1029.5,-117 1029.5,-117 1029.5,-123 1023.5,-129 1017.5,-129"/>
<text text-anchor="middle" x="938.5" y="-113.8" font-family="monospace" font-size="14.00">cycle 5 R</text>
<text text-anchor="middle" x="938.5" y="-98.8" font-family="monospace" font-size="14.00">R_TRANSFER id=1</text>
<text text-anchor="middle" x="938.5" y="-83.8" font-family="monospace" font-size="14.00">resp=OKAY last=False</text>
</g>
<!-- n0&#45;&gt;n4 -->
<g id="edge12" class="edge">
<title>n0&#45;&gt;n4</title>
<path fill="none" stroke="#2563eb" stroke-width="2" d="M297.13,-170.96C304.85,-169.74 309.5,-169 309.5,-169 309.5,-169 834.5,-129 834.5,-129 834.5,-129 835.45,-128.77 837.18,-128.34"/>
<polygon fill="#2563eb" stroke="#2563eb" stroke-width="2" points="838.37,-131.65 847.25,-125.87 836.71,-124.86 838.37,-131.65"/>
</g>
<!-- n2 -->
<g id="node3" class="node">
<title>n2</title>
<path fill="#dcfce7" stroke="black" d="M814.5,-222C814.5,-222 656.5,-222 656.5,-222 650.5,-222 644.5,-216 644.5,-210 644.5,-210 644.5,-181 644.5,-181 644.5,-175 650.5,-169 656.5,-169 656.5,-169 814.5,-169 814.5,-169 820.5,-169 826.5,-175 826.5,-181 826.5,-181 826.5,-210 826.5,-210 826.5,-216 820.5,-222 814.5,-222"/>
<text text-anchor="middle" x="735.5" y="-206.8" font-family="monospace" font-size="14.00">cycle 3 R</text>
<text text-anchor="middle" x="735.5" y="-191.8" font-family="monospace" font-size="14.00">R_TRANSFER id=2</text>
<text text-anchor="middle" x="735.5" y="-176.8" font-family="monospace" font-size="14.00">resp=OKAY last=False</text>
</g>
<!-- n1&#45;&gt;n2 -->
<g id="edge2" class="edge">
<title>n1&#45;&gt;n2</title>
<path fill="none" stroke="#94a3b8" d="M558.77,-169.02C558.81,-169.01 558.83,-169 558.83,-169 558.83,-169 613.83,-169 637.07,-169.01"/>
<polygon fill="#94a3b8" stroke="#94a3b8" points="637.23,-172.51 647.23,-169.02 637.23,-165.51 637.23,-172.51"/>
</g>
<!-- n1&#45;&gt;n2 -->
<!-- n1&#45;&gt;n2 -->
<g id="edge10" class="edge">
<title>n1&#45;&gt;n2</title>
<path fill="none" stroke="#2563eb" stroke-width="2" d="M558.77,-221.98C558.81,-221.99 558.83,-222 558.83,-222 558.83,-222 613.83,-222 637.07,-221.99"/>
<polygon fill="#2563eb" stroke="#2563eb" stroke-width="2" points="637.23,-225.49 647.23,-221.98 637.23,-218.49 637.23,-225.49"/>
</g>
<!-- n3 -->
<g id="node4" class="node">
<title>n3</title>
<path fill="#dcfce7" stroke="black" d="M1013,-222C1013,-222 864,-222 864,-222 858,-222 852,-216 852,-210 852,-210 852,-181 852,-181 852,-175 858,-169 864,-169 864,-169 1013,-169 1013,-169 1019,-169 1025,-175 1025,-181 1025,-181 1025,-210 1025,-210 1025,-216 1019,-222 1013,-222"/>
<text text-anchor="middle" x="938.5" y="-206.8" font-family="monospace" font-size="14.00">cycle 4 R</text>
<text text-anchor="middle" x="938.5" y="-191.8" font-family="monospace" font-size="14.00">R_TRANSFER id=2</text>
<text text-anchor="middle" x="938.5" y="-176.8" font-family="monospace" font-size="14.00">resp=OKAY last=True</text>
</g>
<!-- n2&#45;&gt;n3 -->
<g id="edge3" class="edge">
<title>n2&#45;&gt;n3</title>
<path fill="none" stroke="#94a3b8" d="M803.12,-169.02C803.15,-169.01 803.17,-169 803.17,-169 803.17,-169 842.03,-169 860.87,-169.01"/>
<polygon fill="#94a3b8" stroke="#94a3b8" points="860.88,-172.51 870.88,-169.02 860.89,-165.51 860.88,-172.51"/>
</g>
<!-- n2&#45;&gt;n3 -->
<!-- n2&#45;&gt;n3 -->
<g id="edge11" class="edge">
<title>n2&#45;&gt;n3</title>
<path fill="none" stroke="#2563eb" stroke-width="2" d="M803.12,-221.98C803.15,-221.99 803.17,-222 803.17,-222 803.17,-222 842.03,-222 860.87,-221.99"/>
<polygon fill="#2563eb" stroke="#2563eb" stroke-width="2" points="860.89,-225.49 870.88,-221.98 860.88,-218.49 860.89,-225.49"/>
</g>
<!-- n3&#45;&gt;n4 -->
<g id="edge4" class="edge">
<title>n3&#45;&gt;n4</title>
<path fill="none" stroke="#94a3b8" d="M938.5,-168.67C938.5,-159.56 938.5,-149.15 938.5,-139.37"/>
<polygon fill="#94a3b8" stroke="#94a3b8" points="942,-139.08 938.5,-129.08 935,-139.08 942,-139.08"/>
</g>
<!-- n5 -->
<g id="node6" class="node">
<title>n5</title>
<path fill="#dcfce7" stroke="black" d="M810,-129C810,-129 661,-129 661,-129 655,-129 649,-123 649,-117 649,-117 649,-88 649,-88 649,-82 655,-76 661,-76 661,-76 810,-76 810,-76 816,-76 822,-82 822,-88 822,-88 822,-117 822,-117 822,-123 816,-129 810,-129"/>
<text text-anchor="middle" x="735.5" y="-113.8" font-family="monospace" font-size="14.00">cycle 6 R</text>
<text text-anchor="middle" x="735.5" y="-98.8" font-family="monospace" font-size="14.00">R_TRANSFER id=1</text>
<text text-anchor="middle" x="735.5" y="-83.8" font-family="monospace" font-size="14.00">resp=OKAY last=True</text>
</g>
<!-- n4&#45;&gt;n5 -->
<g id="edge5" class="edge">
<title>n4&#45;&gt;n5</title>
<path fill="none" stroke="#94a3b8" d="M870.88,-76.02C870.85,-76.01 870.83,-76 870.83,-76 870.83,-76 831.97,-76 813.13,-76.01"/>
<polygon fill="#94a3b8" stroke="#94a3b8" points="813.11,-72.51 803.12,-76.02 813.12,-79.51 813.11,-72.51"/>
</g>
<!-- n4&#45;&gt;n5 -->
<g id="edge13" class="edge">
<title>n4&#45;&gt;n5</title>
<path fill="none" stroke="#2563eb" stroke-width="2" d="M870.88,-128.98C870.85,-128.99 870.83,-129 870.83,-129 870.83,-129 831.97,-129 813.13,-128.99"/>
<polygon fill="#2563eb" stroke="#2563eb" stroke-width="2" points="813.12,-125.49 803.12,-128.98 813.11,-132.49 813.12,-125.49"/>
</g>
<!-- n5&#45;&gt;n4 -->
<!-- done -->
<g id="node7" class="node">
<title>done</title>
<path fill="#bbf7d0" stroke="black" d="M798,-36C798,-36 673,-36 673,-36 667,-36 661,-30 661,-24 661,-24 661,-12 661,-12 661,-6 667,0 673,0 673,0 798,0 798,0 804,0 810,-6 810,-12 810,-12 810,-24 810,-24 810,-30 804,-36 798,-36"/>
<text text-anchor="middle" x="735.5" y="-14.3" font-family="monospace" font-size="14.00">QUIESCENT / PASS</text>
</g>
<!-- n5&#45;&gt;done -->
<g id="edge14" class="edge">
<title>n5&#45;&gt;done</title>
<path fill="none" stroke="#16a34a" stroke-width="2" d="M735.5,-75.85C735.5,-66.5 735.5,-55.9 735.5,-46.41"/>
<polygon fill="#16a34a" stroke="#16a34a" stroke-width="2" points="739,-46.28 735.5,-36.28 732,-46.28 739,-46.28"/>
</g>
</g>
</svg>
