<?xml version="1.0" encoding="UTF-8" standalone="no"?>
<!DOCTYPE svg PUBLIC "-//W3C//DTD SVG 1.1//EN"
 "http://www.w3.org/Graphics/SVG/1.1/DTD/svg11.dtd">
<!-- Generated by graphviz version 2.43.0 (0)
 -->
<!-- Title: axi_read_bridge_network Pages: 1 -->
<svg width="988pt" height="70pt"
 viewBox="0.00 0.00 988.00 69.99" xmlns="http://www.w3.org/2000/svg" xmlns:xlink="http://www.w3.org/1999/xlink">
<g id="graph0" class="graph" transform="scale(1 1) rotate(0) translate(4 65.99)">
<title>axi_read_bridge_network</title>
<polygon fill="white" stroke="transparent" points="-4,4 -4,-65.99 984,-65.99 984,4 -4,4"/>
<text text-anchor="middle" x="490" y="-46.79" font-family="Times,serif" font-size="14.00">prj_axi4_read_bridge instance network</text>
<!-- source -->
<g id="node1" class="node">
<title>source</title>
<path fill="#fef3c7" stroke="black" d="M112,-38.99C112,-38.99 12,-38.99 12,-38.99 6,-38.99 0,-32.99 0,-26.99 0,-26.99 0,-14.99 0,-14.99 0,-8.99 6,-2.99 12,-2.99 12,-2.99 112,-2.99 112,-2.99 118,-2.99 124,-8.99 124,-14.99 124,-14.99 124,-26.99 124,-26.99 124,-32.99 118,-38.99 112,-38.99"/>
<text text-anchor="middle" x="62" y="-17.29" font-family="monospace" font-size="14.00">Read stimulus</text>
</g>
<!-- axia -->
<g id="node2" class="node">
<title>axia</title>
<path fill="#dbeafe" stroke="black" d="M268,-38.99C268,-38.99 193,-38.99 193,-38.99 187,-38.99 181,-32.99 181,-26.99 181,-26.99 181,-14.99 181,-14.99 181,-8.99 187,-2.99 193,-2.99 193,-2.99 268,-2.99 268,-2.99 274,-2.99 280,-8.99 280,-14.99 280,-14.99 280,-26.99 280,-26.99 280,-32.99 274,-38.99 268,-38.99"/>
<text text-anchor="middle" x="230.5" y="-17.29" font-family="monospace" font-size="14.00">AXI&#45;A link</text>
</g>
<!-- source&#45;&gt;axia -->
<g id="edge1" class="edge">
<title>source&#45;&gt;axia</title>
<path fill="none" stroke="black" d="M124.05,-20.99C139.29,-20.99 155.59,-20.99 170.71,-20.99"/>
<polygon fill="black" stroke="black" points="170.96,-24.49 180.96,-20.99 170.96,-17.49 170.96,-24.49"/>
<text text-anchor="middle" x="152.5" y="-24.79" font-family="Times,serif" font-size="14.00">AR</text>
</g>
<!-- bridge -->
<g id="node3" class="node">
<title>bridge</title>
<path fill="#fce7f3" stroke="black" d="M540,-38.99C540,-38.99 349,-38.99 349,-38.99 343,-38.99 337,-32.99 337,-26.99 337,-26.99 337,-14.99 337,-14.99 337,-8.99 343,-2.99 349,-2.99 349,-2.99 540,-2.99 540,-2.99 546,-2.99 552,-8.99 552,-14.99 552,-14.99 552,-26.99 552,-26.99 552,-32.99 546,-38.99 540,-38.99"/>
<text text-anchor="middle" x="444.5" y="-17.29" font-family="monospace" font-size="14.00">VirtualDut AxiReadBridge</text>
</g>
<!-- axia&#45;&gt;bridge -->
<g id="edge2" class="edge">
<title>axia&#45;&gt;bridge</title>
<path fill="none" stroke="black" d="M280.14,-20.99C294.21,-20.99 310.21,-20.99 326.56,-20.99"/>
<polygon fill="black" stroke="black" points="326.78,-24.49 336.78,-20.99 326.78,-17.49 326.78,-24.49"/>
<text text-anchor="middle" x="308.5" y="-24.79" font-family="Times,serif" font-size="14.00">AR</text>
</g>
<!-- bridge&#45;&gt;axia -->
<g id="edge7" class="edge">
<title>bridge&#45;&gt;axia</title>
<path fill="none" stroke="black" d="M364.93,-2.96C343.24,-0.1 319.7,1.05 298,-1.99 295.36,-2.36 292.68,-2.81 289.98,-3.32"/>
<polygon fill="black" stroke="black" points="289.24,0.1 280.19,-5.41 290.71,-6.75 289.24,0.1"/>
<text text-anchor="middle" x="308.5" y="-5.79" font-family="Times,serif" font-size="14.00">R</text>
</g>
<!-- axib -->
<g id="node4" class="node">
<title>axib</title>
<path fill="#dbeafe" stroke="black" d="M696,-38.99C696,-38.99 621,-38.99 621,-38.99 615,-38.99 609,-32.99 609,-26.99 609,-26.99 609,-14.99 609,-14.99 609,-8.99 615,-2.99 621,-2.99 621,-2.99 696,-2.99 696,-2.99 702,-2.99 708,-8.99 708,-14.99 708,-14.99 708,-26.99 708,-26.99 708,-32.99 702,-38.99 696,-38.99"/>
<text text-anchor="middle" x="658.5" y="-17.29" font-family="monospace" font-size="14.00">AXI&#45;B link</text>
</g>
<!-- bridge&#45;&gt;axib -->
<g id="edge3" class="edge">
<title>bridge&#45;&gt;axib</title>
<path fill="none" stroke="black" d="M552.12,-20.99C568.13,-20.99 584.13,-20.99 598.64,-20.99"/>
<polygon fill="black" stroke="black" points="598.93,-24.49 608.93,-20.99 598.93,-17.49 598.93,-24.49"/>
<text text-anchor="middle" x="580.5" y="-24.79" font-family="Times,serif" font-size="14.00">AR</text>
</g>
<!-- axib&#45;&gt;bridge -->
<g id="edge6" class="edge">
<title>axib&#45;&gt;bridge</title>
<path fill="none" stroke="black" d="M608.81,-5.41C602.86,-4.01 596.83,-2.81 591,-1.99 572.61,0.58 552.89,0.15 534.1,-1.78"/>
<polygon fill="black" stroke="black" points="533.59,1.68 524.07,-2.96 534.41,-5.27 533.59,1.68"/>
<text text-anchor="middle" x="580.5" y="-5.79" font-family="Times,serif" font-size="14.00">R</text>
</g>
<!-- responder -->
<g id="node5" class="node">
<title>responder</title>
<path fill="#dcfce7" stroke="black" d="M968,-38.99C968,-38.99 777,-38.99 777,-38.99 771,-38.99 765,-32.99 765,-26.99 765,-26.99 765,-14.99 765,-14.99 765,-8.99 771,-2.99 777,-2.99 777,-2.99 968,-2.99 968,-2.99 974,-2.99 980,-8.99 980,-14.99 980,-14.99 980,-26.99 980,-26.99 980,-32.99 974,-38.99 968,-38.99"/>
<text text-anchor="middle" x="872.5" y="-17.29" font-family="monospace" font-size="14.00">VirtualDut ReadResponder</text>
</g>
<!-- axib&#45;&gt;responder -->
<g id="edge4" class="edge">
<title>axib&#45;&gt;responder</title>
<path fill="none" stroke="black" d="M708.14,-20.99C722.21,-20.99 738.21,-20.99 754.56,-20.99"/>
<polygon fill="black" stroke="black" points="754.78,-24.49 764.78,-20.99 754.78,-17.49 754.78,-24.49"/>
<text text-anchor="middle" x="736.5" y="-24.79" font-family="Times,serif" font-size="14.00">AR</text>
</g>
<!-- responder&#45;&gt;axib -->
<g id="edge5" class="edge">
<title>responder&#45;&gt;axib</title>
<path fill="none" stroke="black" d="M792.93,-2.96C771.24,-0.1 747.7,1.05 726,-1.99 723.36,-2.36 720.68,-2.81 717.98,-3.32"/>
<polygon fill="black" stroke="black" points="717.24,0.1 708.19,-5.41 718.71,-6.75 717.24,0.1"/>
<text text-anchor="middle" x="736.5" y="-5.79" font-family="Times,serif" font-size="14.00">R</text>
</g>
</g>
</svg>
