<?xml version="1.0" encoding="UTF-8" standalone="no"?>
<!DOCTYPE svg PUBLIC "-//W3C//DTD SVG 1.1//EN"
 "http://www.w3.org/Graphics/SVG/1.1/DTD/svg11.dtd">
<!-- Generated by graphviz version 2.43.0 (0)
 -->
<!-- Title: axi_scenario Pages: 1 -->
<svg width="504pt" height="409pt"
 viewBox="0.00 0.00 503.50 409.00" xmlns="http://www.w3.org/2000/svg" xmlns:xlink="http://www.w3.org/1999/xlink">
<g id="graph0" class="graph" transform="scale(1 1) rotate(0) translate(4 405)">
<title>axi_scenario</title>
<polygon fill="white" stroke="transparent" points="-4,4 -4,-405 499.5,-405 499.5,4 -4,4"/>
<text text-anchor="middle" x="247.75" y="-385.8" font-family="Times,serif" font-size="14.00">read_4kb_edge</text>
<!-- n0 -->
<g id="node1" class="node">
<title>n0</title>
<path fill="#fef3c7" stroke="black" d="M277,-378C277,-378 12,-378 12,-378 6,-378 0,-372 0,-366 0,-366 0,-337 0,-337 0,-331 6,-325 12,-325 12,-325 277,-325 277,-325 283,-325 289,-331 289,-337 289,-337 289,-366 289,-366 289,-372 283,-378 277,-378"/>
<text text-anchor="middle" x="144.5" y="-362.8" font-family="monospace" font-size="14.00">cycle 1 AR</text>
<text text-anchor="middle" x="144.5" y="-347.8" font-family="monospace" font-size="14.00">AR_TRANSFER id=1</text>
<text text-anchor="middle" x="144.5" y="-332.8" font-family="monospace" font-size="14.00">addr=4088 len=0 size=3 burst=INCR</text>
</g>
<!-- n1 -->
<g id="node2" class="node">
<title>n1</title>
<path fill="#dcfce7" stroke="black" d="M475,-378C475,-378 326,-378 326,-378 320,-378 314,-372 314,-366 314,-366 314,-337 314,-337 314,-331 320,-325 326,-325 326,-325 475,-325 475,-325 481,-325 487,-331 487,-337 487,-337 487,-366 487,-366 487,-372 481,-378 475,-378"/>
<text text-anchor="middle" x="400.5" y="-362.8" font-family="monospace" font-size="14.00">cycle 2 R</text>
<text text-anchor="middle" x="400.5" y="-347.8" font-family="monospace" font-size="14.00">R_TRANSFER id=1</text>
<text text-anchor="middle" x="400.5" y="-332.8" font-family="monospace" font-size="14.00">resp=OKAY last=True</text>
</g>
<!-- n0&#45;&gt;n1 -->
<g id="edge1" class="edge">
<title>n0&#45;&gt;n1</title>
<path fill="none" stroke="#94a3b8" d="M229.77,-325.02C229.81,-325.01 229.83,-325 229.83,-325 229.83,-325 282.44,-325 305.07,-325.01"/>
<polygon fill="#94a3b8" stroke="#94a3b8" points="305.23,-328.51 315.23,-325.02 305.23,-321.51 305.23,-328.51"/>
</g>
<!-- n0&#45;&gt;n1 -->
<!-- n0&#45;&gt;n1 -->
<g id="edge3" class="edge">
<title>n0&#45;&gt;n1</title>
<path fill="none" stroke="#2563eb" stroke-width="2" d="M229.77,-377.98C229.81,-377.99 229.83,-378 229.83,-378 229.83,-378 282.44,-378 305.07,-377.99"/>
<polygon fill="#2563eb" stroke="#2563eb" stroke-width="2" points="305.23,-381.49 315.23,-377.98 305.23,-374.49 305.23,-381.49"/>
</g>
<!-- geometry -->
<g id="node3" class="node">
<title>geometry</title>
<path fill="#e0f2fe" stroke="black" d="M483.5,-285C483.5,-285 317.5,-285 317.5,-285 311.5,-285 305.5,-279 305.5,-273 305.5,-273 305.5,-259 305.5,-259 305.5,-253 311.5,-247 317.5,-247 317.5,-247 483.5,-247 483.5,-247 489.5,-247 495.5,-253 495.5,-259 495.5,-259 495.5,-273 495.5,-273 495.5,-279 489.5,-285 483.5,-285"/>
<text text-anchor="middle" x="400.5" y="-269.8" font-family="monospace" font-size="14.00">derive burst geometry</text>
<text text-anchor="middle" x="400.5" y="-254.8" font-family="monospace" font-size="14.00">1 beat(s) x 8 bytes</text>
</g>
<!-- n1&#45;&gt;geometry -->
<g id="edge4" class="edge">
<title>n1&#45;&gt;geometry</title>
<path fill="none" stroke="black" d="M400.5,-324.99C400.5,-315.65 400.5,-305.03 400.5,-295.45"/>
<polygon fill="black" stroke="black" points="404,-295.2 400.5,-285.2 397,-295.2 404,-295.2"/>
</g>
<!-- footprint -->
<g id="node4" class="node">
<title>footprint</title>
<path fill="#e0f2fe" stroke="black" d="M458.5,-207C458.5,-207 342.5,-207 342.5,-207 336.5,-207 330.5,-201 330.5,-195 330.5,-195 330.5,-166 330.5,-166 330.5,-160 336.5,-154 342.5,-154 342.5,-154 458.5,-154 458.5,-154 464.5,-154 470.5,-160 470.5,-166 470.5,-166 470.5,-195 470.5,-195 470.5,-201 464.5,-207 458.5,-207"/>
<text text-anchor="middle" x="400.5" y="-191.8" font-family="monospace" font-size="14.00">beat addresses</text>
<text text-anchor="middle" x="400.5" y="-176.8" font-family="monospace" font-size="14.00">0xff8</text>
<text text-anchor="middle" x="400.5" y="-161.8" font-family="monospace" font-size="14.00">last byte=0xfff</text>
</g>
<!-- geometry&#45;&gt;footprint -->
<g id="edge5" class="edge">
<title>geometry&#45;&gt;footprint</title>
<path fill="none" stroke="black" d="M400.5,-246.88C400.5,-238.27 400.5,-227.65 400.5,-217.5"/>
<polygon fill="black" stroke="black" points="404,-217.19 400.5,-207.19 397,-217.19 404,-217.19"/>
</g>
<!-- pages -->
<g id="node5" class="node">
<title>pages</title>
<path fill="#e0f2fe" stroke="black" d="M475,-114C475,-114 326,-114 326,-114 320,-114 314,-108 314,-102 314,-102 314,-88 314,-88 314,-82 320,-76 326,-76 326,-76 475,-76 475,-76 481,-76 487,-82 487,-88 487,-88 487,-102 487,-102 487,-108 481,-114 475,-114"/>
<text text-anchor="middle" x="400.5" y="-98.8" font-family="monospace" font-size="14.00">4KB page comparison</text>
<text text-anchor="middle" x="400.5" y="-83.8" font-family="monospace" font-size="14.00">0x0 == 0x0</text>
</g>
<!-- footprint&#45;&gt;pages -->
<g id="edge6" class="edge">
<title>footprint&#45;&gt;pages</title>
<path fill="none" stroke="black" d="M400.5,-153.99C400.5,-144.65 400.5,-134.03 400.5,-124.45"/>
<polygon fill="black" stroke="black" points="404,-124.2 400.5,-114.2 397,-124.2 404,-124.2"/>
</g>
<!-- done -->
<g id="node6" class="node">
<title>done</title>
<path fill="#bbf7d0" stroke="black" d="M463,-36C463,-36 338,-36 338,-36 332,-36 326,-30 326,-24 326,-24 326,-12 326,-12 326,-6 332,0 338,0 338,0 463,0 463,0 469,0 475,-6 475,-12 475,-12 475,-24 475,-24 475,-30 469,-36 463,-36"/>
<text text-anchor="middle" x="400.5" y="-14.3" font-family="monospace" font-size="14.00">QUIESCENT / PASS</text>
</g>
<!-- pages&#45;&gt;done -->
<g id="edge7" class="edge">
<title>pages&#45;&gt;done</title>
<path fill="none" stroke="#16a34a" stroke-width="2" d="M400.5,-75.84C400.5,-66.99 400.5,-56.16 400.5,-46.34"/>
<polygon fill="#16a34a" stroke="#16a34a" stroke-width="2" points="404,-46.22 400.5,-36.22 397,-46.22 404,-46.22"/>
</g>
</g>
</svg>
