<?xml version="1.0" encoding="UTF-8" standalone="no"?>
<!DOCTYPE svg PUBLIC "-//W3C//DTD SVG 1.1//EN"
 "http://www.w3.org/Graphics/SVG/1.1/DTD/svg11.dtd">
<!-- Generated by graphviz version 2.43.0 (0)
 -->
<!-- Title: axi_scenario Pages: 1 -->
<svg width="682pt" height="205pt"
 viewBox="0.00 0.00 682.08 205.13" xmlns="http://www.w3.org/2000/svg" xmlns:xlink="http://www.w3.org/1999/xlink">
<g id="graph0" class="graph" transform="scale(1 1) rotate(0) translate(4 201.13)">
<title>axi_scenario</title>
<polygon fill="white" stroke="transparent" points="-4,4 -4,-201.13 678.08,-201.13 678.08,4 -4,4"/>
<text text-anchor="middle" x="337.04" y="-181.93" font-family="Times,serif" font-size="14.00">read_unknown_rid</text>
<!-- n0 -->
<g id="node1" class="node">
<title>n0</title>
<path fill="#fef3c7" stroke="black" d="M285,-174.13C285,-174.13 12,-174.13 12,-174.13 6,-174.13 0,-168.13 0,-162.13 0,-162.13 0,-133.13 0,-133.13 0,-127.13 6,-121.13 12,-121.13 12,-121.13 285,-121.13 285,-121.13 291,-121.13 297,-127.13 297,-133.13 297,-133.13 297,-162.13 297,-162.13 297,-168.13 291,-174.13 285,-174.13"/>
<text text-anchor="middle" x="148.5" y="-158.93" font-family="monospace" font-size="14.00">cycle 1 AR</text>
<text text-anchor="middle" x="148.5" y="-143.93" font-family="monospace" font-size="14.00">AR_TRANSFER id=1</text>
<text text-anchor="middle" x="148.5" y="-128.93" font-family="monospace" font-size="14.00">addr=28928 len=0 size=3 burst=INCR</text>
</g>
<!-- n1 -->
<g id="node2" class="node">
<title>n1</title>
<path fill="#dcfce7" stroke="black" d="M483,-174.13C483,-174.13 334,-174.13 334,-174.13 328,-174.13 322,-168.13 322,-162.13 322,-162.13 322,-133.13 322,-133.13 322,-127.13 328,-121.13 334,-121.13 334,-121.13 483,-121.13 483,-121.13 489,-121.13 495,-127.13 495,-133.13 495,-133.13 495,-162.13 495,-162.13 495,-168.13 489,-174.13 483,-174.13"/>
<text text-anchor="middle" x="408.5" y="-158.93" font-family="monospace" font-size="14.00">cycle 2 R</text>
<text text-anchor="middle" x="408.5" y="-143.93" font-family="monospace" font-size="14.00">R_TRANSFER id=2</text>
<text text-anchor="middle" x="408.5" y="-128.93" font-family="monospace" font-size="14.00">resp=OKAY last=True</text>
</g>
<!-- n0&#45;&gt;n1 -->
<g id="edge1" class="edge">
<title>n0&#45;&gt;n1</title>
<path fill="none" stroke="#94a3b8" d="M235.1,-121.15C235.15,-121.14 235.17,-121.13 235.17,-121.13 235.17,-121.13 288.59,-121.13 311.58,-121.14"/>
<polygon fill="#94a3b8" stroke="#94a3b8" points="311.89,-124.64 321.9,-121.15 311.9,-117.64 311.89,-124.64"/>
</g>
<!-- n0&#45;&gt;n1 -->
<!-- fault -->
<g id="node3" class="node">
<title>fault</title>
<path fill="#fecaca" stroke="black" d="M674.16,-34.95C674.16,-34.95 674.16,-46.17 674.16,-46.17 674.16,-51.78 668.62,-58.24 663.07,-59.09 663.07,-59.09 529.63,-79.5 529.63,-79.5 524.09,-80.35 512.93,-81.19 507.32,-81.19 507.32,-81.19 309.68,-81.19 309.68,-81.19 304.07,-81.19 292.91,-80.35 287.37,-79.5 287.37,-79.5 153.93,-59.09 153.93,-59.09 148.38,-58.24 142.84,-51.78 142.84,-46.17 142.84,-46.17 142.84,-34.95 142.84,-34.95 142.84,-29.35 148.38,-22.89 153.93,-22.04 153.93,-22.04 287.37,-1.63 287.37,-1.63 292.91,-0.78 304.07,0.06 309.68,0.06 309.68,0.06 507.32,0.06 507.32,0.06 512.93,0.06 524.09,-0.78 529.63,-1.63 529.63,-1.63 663.07,-22.04 663.07,-22.04 668.62,-22.89 674.16,-29.35 674.16,-34.95"/>
<text text-anchor="middle" x="408.5" y="-51.86" font-family="monospace" font-size="14.00">FAULT</text>
<text text-anchor="middle" x="408.5" y="-36.86" font-family="monospace" font-size="14.00">axi4.read_beats.orphan_beat</text>
<text text-anchor="middle" x="408.5" y="-21.86" font-family="monospace" font-size="14.00">beat for key 2 has no pending obligation</text>
</g>
<!-- n1&#45;&gt;fault -->
<g id="edge3" class="edge">
<title>n1&#45;&gt;fault</title>
<path fill="none" stroke="#dc2626" stroke-width="2" d="M408.5,-120.93C408.5,-112 408.5,-101.65 408.5,-91.44"/>
<polygon fill="#dc2626" stroke="#dc2626" stroke-width="2" points="412,-91.33 408.5,-81.33 405,-91.33 412,-91.33"/>
</g>
</g>
</svg>
