<?xml version="1.0" encoding="UTF-8" standalone="no"?>
<!DOCTYPE svg PUBLIC "-//W3C//DTD SVG 1.1//EN"
 "http://www.w3.org/Graphics/SVG/1.1/DTD/svg11.dtd">
<!-- Generated by graphviz version 2.43.0 (0)
 -->
<!-- Title: axi_scenario Pages: 1 -->
<svg width="943pt" height="532pt"
 viewBox="0.00 0.00 943.00 532.00" xmlns="http://www.w3.org/2000/svg" xmlns:xlink="http://www.w3.org/1999/xlink">
<g id="graph0" class="graph" transform="scale(1 1) rotate(0) translate(4 528)">
<title>axi_scenario</title>
<polygon fill="white" stroke="transparent" points="-4,4 -4,-528 939,-528 939,4 -4,4"/>
<text text-anchor="middle" x="467.5" y="-508.8" font-family="Times,serif" font-size="14.00">read_fixed_16</text>
<!-- n0 -->
<g id="node1" class="node">
<title>n0</title>
<path fill="#fef3c7" stroke="black" d="M302,-501C302,-501 12,-501 12,-501 6,-501 0,-495 0,-489 0,-489 0,-460 0,-460 0,-454 6,-448 12,-448 12,-448 302,-448 302,-448 308,-448 314,-454 314,-460 314,-460 314,-489 314,-489 314,-495 308,-501 302,-501"/>
<text text-anchor="middle" x="157" y="-485.8" font-family="monospace" font-size="14.00">cycle 1 AR</text>
<text text-anchor="middle" x="157" y="-470.8" font-family="monospace" font-size="14.00">AR_TRANSFER id=1</text>
<text text-anchor="middle" x="157" y="-455.8" font-family="monospace" font-size="14.00">addr=12288 len=15 size=3 burst=FIXED</text>
</g>
<!-- n1 -->
<g id="node2" class="node">
<title>n1</title>
<path fill="#dcfce7" stroke="black" d="M509,-501C509,-501 351,-501 351,-501 345,-501 339,-495 339,-489 339,-489 339,-460 339,-460 339,-454 345,-448 351,-448 351,-448 509,-448 509,-448 515,-448 521,-454 521,-460 521,-460 521,-489 521,-489 521,-495 515,-501 509,-501"/>
<text text-anchor="middle" x="430" y="-485.8" font-family="monospace" font-size="14.00">cycle 2 R</text>
<text text-anchor="middle" x="430" y="-470.8" font-family="monospace" font-size="14.00">R_TRANSFER id=1</text>
<text text-anchor="middle" x="430" y="-455.8" font-family="monospace" font-size="14.00">resp=OKAY last=False</text>
</g>
<!-- n0&#45;&gt;n1 -->
<g id="edge1" class="edge">
<title>n0&#45;&gt;n1</title>
<path fill="none" stroke="#94a3b8" d="M247.93,-448.02C247.98,-448.01 248,-448 248,-448 248,-448 305.22,-448 328.95,-448.01"/>
<polygon fill="#94a3b8" stroke="#94a3b8" points="329.06,-451.51 339.07,-448.02 329.07,-444.51 329.06,-451.51"/>
</g>
<!-- n0&#45;&gt;n1 -->
<!-- n0&#45;&gt;n1 -->
<g id="edge29" class="edge">
<title>n0&#45;&gt;n1</title>
<path fill="none" stroke="#2563eb" stroke-width="2" d="M247.93,-500.98C247.98,-500.99 248,-501 248,-501 248,-501 305.22,-501 328.95,-500.99"/>
<polygon fill="#2563eb" stroke="#2563eb" stroke-width="2" points="329.07,-504.49 339.07,-500.98 329.06,-497.49 329.07,-504.49"/>
</g>
<!-- n2 -->
<g id="node3" class="node">
<title>n2</title>
<path fill="#dcfce7" stroke="black" d="M716,-501C716,-501 558,-501 558,-501 552,-501 546,-495 546,-489 546,-489 546,-460 546,-460 546,-454 552,-448 558,-448 558,-448 716,-448 716,-448 722,-448 728,-454 728,-460 728,-460 728,-489 728,-489 728,-495 722,-501 716,-501"/>
<text text-anchor="middle" x="637" y="-485.8" font-family="monospace" font-size="14.00">cycle 3 R</text>
<text text-anchor="middle" x="637" y="-470.8" font-family="monospace" font-size="14.00">R_TRANSFER id=1</text>
<text text-anchor="middle" x="637" y="-455.8" font-family="monospace" font-size="14.00">resp=OKAY last=False</text>
</g>
<!-- n1&#45;&gt;n2 -->
<g id="edge2" class="edge">
<title>n1&#45;&gt;n2</title>
<path fill="none" stroke="#94a3b8" d="M498.95,-448.02C498.98,-448.01 499,-448 499,-448 499,-448 538.63,-448 557.84,-448.01"/>
<polygon fill="#94a3b8" stroke="#94a3b8" points="558.05,-451.51 568.05,-448.02 558.05,-444.51 558.05,-451.51"/>
</g>
<!-- n1&#45;&gt;n2 -->
<!-- n1&#45;&gt;n2 -->
<g id="edge30" class="edge">
<title>n1&#45;&gt;n2</title>
<path fill="none" stroke="#2563eb" stroke-width="2" d="M498.95,-500.98C498.98,-500.99 499,-501 499,-501 499,-501 538.63,-501 557.84,-500.99"/>
<polygon fill="#2563eb" stroke="#2563eb" stroke-width="2" points="558.05,-504.49 568.05,-500.98 558.05,-497.49 558.05,-504.49"/>
</g>
<!-- n3 -->
<g id="node4" class="node">
<title>n3</title>
<path fill="#dcfce7" stroke="black" d="M923,-501C923,-501 765,-501 765,-501 759,-501 753,-495 753,-489 753,-489 753,-460 753,-460 753,-454 759,-448 765,-448 765,-448 923,-448 923,-448 929,-448 935,-454 935,-460 935,-460 935,-489 935,-489 935,-495 929,-501 923,-501"/>
<text text-anchor="middle" x="844" y="-485.8" font-family="monospace" font-size="14.00">cycle 4 R</text>
<text text-anchor="middle" x="844" y="-470.8" font-family="monospace" font-size="14.00">R_TRANSFER id=1</text>
<text text-anchor="middle" x="844" y="-455.8" font-family="monospace" font-size="14.00">resp=OKAY last=False</text>
</g>
<!-- n2&#45;&gt;n3 -->
<g id="edge3" class="edge">
<title>n2&#45;&gt;n3</title>
<path fill="none" stroke="#94a3b8" d="M705.95,-448.02C705.98,-448.01 706,-448 706,-448 706,-448 745.63,-448 764.84,-448.01"/>
<polygon fill="#94a3b8" stroke="#94a3b8" points="765.05,-451.51 775.05,-448.02 765.05,-444.51 765.05,-451.51"/>
</g>
<!-- n2&#45;&gt;n3 -->
<!-- n2&#45;&gt;n3 -->
<g id="edge31" class="edge">
<title>n2&#45;&gt;n3</title>
<path fill="none" stroke="#2563eb" stroke-width="2" d="M705.95,-500.98C705.98,-500.99 706,-501 706,-501 706,-501 745.63,-501 764.84,-500.99"/>
<polygon fill="#2563eb" stroke="#2563eb" stroke-width="2" points="765.05,-504.49 775.05,-500.98 765.05,-497.49 765.05,-504.49"/>
</g>
<!-- n4 -->
<g id="node5" class="node">
<title>n4</title>
<path fill="#dcfce7" stroke="black" d="M923,-408C923,-408 765,-408 765,-408 759,-408 753,-402 753,-396 753,-396 753,-367 753,-367 753,-361 759,-355 765,-355 765,-355 923,-355 923,-355 929,-355 935,-361 935,-367 935,-367 935,-396 935,-396 935,-402 929,-408 923,-408"/>
<text text-anchor="middle" x="844" y="-392.8" font-family="monospace" font-size="14.00">cycle 5 R</text>
<text text-anchor="middle" x="844" y="-377.8" font-family="monospace" font-size="14.00">R_TRANSFER id=1</text>
<text text-anchor="middle" x="844" y="-362.8" font-family="monospace" font-size="14.00">resp=OKAY last=False</text>
</g>
<!-- n3&#45;&gt;n4 -->
<g id="edge4" class="edge">
<title>n3&#45;&gt;n4</title>
<path fill="none" stroke="#94a3b8" d="M835.79,-447.67C835.01,-438.56 834.81,-428.15 835.18,-418.37"/>
<polygon fill="#94a3b8" stroke="#94a3b8" points="838.69,-418.28 835.81,-408.08 831.71,-417.85 838.69,-418.28"/>
</g>
<!-- n3&#45;&gt;n4 -->
<g id="edge32" class="edge">
<title>n3&#45;&gt;n4</title>
<path fill="none" stroke="#2563eb" stroke-width="2" d="M852.89,-447.67C853.74,-438.56 853.96,-428.15 853.55,-418.37"/>
<polygon fill="#2563eb" stroke="#2563eb" stroke-width="2" points="857.03,-417.83 852.87,-408.08 850.04,-418.29 857.03,-417.83"/>
</g>
<!-- n5 -->
<g id="node6" class="node">
<title>n5</title>
<path fill="#dcfce7" stroke="black" d="M716,-408C716,-408 558,-408 558,-408 552,-408 546,-402 546,-396 546,-396 546,-367 546,-367 546,-361 552,-355 558,-355 558,-355 716,-355 716,-355 722,-355 728,-361 728,-367 728,-367 728,-396 728,-396 728,-402 722,-408 716,-408"/>
<text text-anchor="middle" x="637" y="-392.8" font-family="monospace" font-size="14.00">cycle 6 R</text>
<text text-anchor="middle" x="637" y="-377.8" font-family="monospace" font-size="14.00">R_TRANSFER id=1</text>
<text text-anchor="middle" x="637" y="-362.8" font-family="monospace" font-size="14.00">resp=OKAY last=False</text>
</g>
<!-- n4&#45;&gt;n5 -->
<g id="edge5" class="edge">
<title>n4&#45;&gt;n5</title>
<path fill="none" stroke="#94a3b8" d="M775.05,-355.02C775.02,-355.01 775,-355 775,-355 775,-355 735.37,-355 716.16,-355.01"/>
<polygon fill="#94a3b8" stroke="#94a3b8" points="715.95,-351.51 705.95,-355.02 715.95,-358.51 715.95,-351.51"/>
</g>
<!-- n4&#45;&gt;n5 -->
<g id="edge33" class="edge">
<title>n4&#45;&gt;n5</title>
<path fill="none" stroke="#2563eb" stroke-width="2" d="M775.05,-407.98C775.02,-407.99 775,-408 775,-408 775,-408 735.37,-408 716.16,-407.99"/>
<polygon fill="#2563eb" stroke="#2563eb" stroke-width="2" points="715.95,-404.49 705.95,-407.98 715.95,-411.49 715.95,-404.49"/>
</g>
<!-- n5&#45;&gt;n4 -->
<!-- n6 -->
<g id="node7" class="node">
<title>n6</title>
<path fill="#dcfce7" stroke="black" d="M509,-408C509,-408 351,-408 351,-408 345,-408 339,-402 339,-396 339,-396 339,-367 339,-367 339,-361 345,-355 351,-355 351,-355 509,-355 509,-355 515,-355 521,-361 521,-367 521,-367 521,-396 521,-396 521,-402 515,-408 509,-408"/>
<text text-anchor="middle" x="430" y="-392.8" font-family="monospace" font-size="14.00">cycle 7 R</text>
<text text-anchor="middle" x="430" y="-377.8" font-family="monospace" font-size="14.00">R_TRANSFER id=1</text>
<text text-anchor="middle" x="430" y="-362.8" font-family="monospace" font-size="14.00">resp=OKAY last=False</text>
</g>
<!-- n5&#45;&gt;n6 -->
<g id="edge6" class="edge">
<title>n5&#45;&gt;n6</title>
<path fill="none" stroke="#94a3b8" d="M568.05,-355.02C568.02,-355.01 568,-355 568,-355 568,-355 528.37,-355 509.16,-355.01"/>
<polygon fill="#94a3b8" stroke="#94a3b8" points="508.95,-351.51 498.95,-355.02 508.95,-358.51 508.95,-351.51"/>
</g>
<!-- n5&#45;&gt;n6 -->
<g id="edge34" class="edge">
<title>n5&#45;&gt;n6</title>
<path fill="none" stroke="#2563eb" stroke-width="2" d="M568.05,-407.98C568.02,-407.99 568,-408 568,-408 568,-408 528.37,-408 509.16,-407.99"/>
<polygon fill="#2563eb" stroke="#2563eb" stroke-width="2" points="508.95,-404.49 498.95,-407.98 508.95,-411.49 508.95,-404.49"/>
</g>
<!-- n6&#45;&gt;n5 -->
<!-- n7 -->
<g id="node8" class="node">
<title>n7</title>
<path fill="#dcfce7" stroke="black" d="M302,-408C302,-408 144,-408 144,-408 138,-408 132,-402 132,-396 132,-396 132,-367 132,-367 132,-361 138,-355 144,-355 144,-355 302,-355 302,-355 308,-355 314,-361 314,-367 314,-367 314,-396 314,-396 314,-402 308,-408 302,-408"/>
<text text-anchor="middle" x="223" y="-392.8" font-family="monospace" font-size="14.00">cycle 8 R</text>
<text text-anchor="middle" x="223" y="-377.8" font-family="monospace" font-size="14.00">R_TRANSFER id=1</text>
<text text-anchor="middle" x="223" y="-362.8" font-family="monospace" font-size="14.00">resp=OKAY last=False</text>
</g>
<!-- n6&#45;&gt;n7 -->
<g id="edge7" class="edge">
<title>n6&#45;&gt;n7</title>
<path fill="none" stroke="#94a3b8" d="M361.05,-355.02C361.02,-355.01 361,-355 361,-355 361,-355 321.37,-355 302.16,-355.01"/>
<polygon fill="#94a3b8" stroke="#94a3b8" points="301.95,-351.51 291.95,-355.02 301.95,-358.51 301.95,-351.51"/>
</g>
<!-- n6&#45;&gt;n7 -->
<g id="edge35" class="edge">
<title>n6&#45;&gt;n7</title>
<path fill="none" stroke="#2563eb" stroke-width="2" d="M361.05,-407.98C361.02,-407.99 361,-408 361,-408 361,-408 321.37,-408 302.16,-407.99"/>
<polygon fill="#2563eb" stroke="#2563eb" stroke-width="2" points="301.95,-404.49 291.95,-407.98 301.95,-411.49 301.95,-404.49"/>
</g>
<!-- n7&#45;&gt;n6 -->
<!-- n8 -->
<g id="node9" class="node">
<title>n8</title>
<path fill="#dcfce7" stroke="black" d="M302,-315C302,-315 144,-315 144,-315 138,-315 132,-309 132,-303 132,-303 132,-274 132,-274 132,-268 138,-262 144,-262 144,-262 302,-262 302,-262 308,-262 314,-268 314,-274 314,-274 314,-303 314,-303 314,-309 308,-315 302,-315"/>
<text text-anchor="middle" x="223" y="-299.8" font-family="monospace" font-size="14.00">cycle 9 R</text>
<text text-anchor="middle" x="223" y="-284.8" font-family="monospace" font-size="14.00">R_TRANSFER id=1</text>
<text text-anchor="middle" x="223" y="-269.8" font-family="monospace" font-size="14.00">resp=OKAY last=False</text>
</g>
<!-- n7&#45;&gt;n8 -->
<g id="edge8" class="edge">
<title>n7&#45;&gt;n8</title>
<path fill="none" stroke="#94a3b8" d="M214.79,-354.67C214.01,-345.56 213.81,-335.15 214.18,-325.37"/>
<polygon fill="#94a3b8" stroke="#94a3b8" points="217.69,-325.28 214.81,-315.08 210.71,-324.85 217.69,-325.28"/>
</g>
<!-- n7&#45;&gt;n8 -->
<g id="edge36" class="edge">
<title>n7&#45;&gt;n8</title>
<path fill="none" stroke="#2563eb" stroke-width="2" d="M231.89,-354.67C232.74,-345.56 232.96,-335.15 232.55,-325.37"/>
<polygon fill="#2563eb" stroke="#2563eb" stroke-width="2" points="236.03,-324.83 231.87,-315.08 229.04,-325.29 236.03,-324.83"/>
</g>
<!-- n9 -->
<g id="node10" class="node">
<title>n9</title>
<path fill="#dcfce7" stroke="black" d="M509,-315C509,-315 351,-315 351,-315 345,-315 339,-309 339,-303 339,-303 339,-274 339,-274 339,-268 345,-262 351,-262 351,-262 509,-262 509,-262 515,-262 521,-268 521,-274 521,-274 521,-303 521,-303 521,-309 515,-315 509,-315"/>
<text text-anchor="middle" x="430" y="-299.8" font-family="monospace" font-size="14.00">cycle 10 R</text>
<text text-anchor="middle" x="430" y="-284.8" font-family="monospace" font-size="14.00">R_TRANSFER id=1</text>
<text text-anchor="middle" x="430" y="-269.8" font-family="monospace" font-size="14.00">resp=OKAY last=False</text>
</g>
<!-- n8&#45;&gt;n9 -->
<g id="edge9" class="edge">
<title>n8&#45;&gt;n9</title>
<path fill="none" stroke="#94a3b8" d="M291.95,-262.02C291.98,-262.01 292,-262 292,-262 292,-262 331.63,-262 350.84,-262.01"/>
<polygon fill="#94a3b8" stroke="#94a3b8" points="351.05,-265.51 361.05,-262.02 351.05,-258.51 351.05,-265.51"/>
</g>
<!-- n8&#45;&gt;n9 -->
<!-- n8&#45;&gt;n9 -->
<g id="edge37" class="edge">
<title>n8&#45;&gt;n9</title>
<path fill="none" stroke="#2563eb" stroke-width="2" d="M291.95,-314.98C291.98,-314.99 292,-315 292,-315 292,-315 331.63,-315 350.84,-314.99"/>
<polygon fill="#2563eb" stroke="#2563eb" stroke-width="2" points="351.05,-318.49 361.05,-314.98 351.05,-311.49 351.05,-318.49"/>
</g>
<!-- n10 -->
<g id="node11" class="node">
<title>n10</title>
<path fill="#dcfce7" stroke="black" d="M716,-315C716,-315 558,-315 558,-315 552,-315 546,-309 546,-303 546,-303 546,-274 546,-274 546,-268 552,-262 558,-262 558,-262 716,-262 716,-262 722,-262 728,-268 728,-274 728,-274 728,-303 728,-303 728,-309 722,-315 716,-315"/>
<text text-anchor="middle" x="637" y="-299.8" font-family="monospace" font-size="14.00">cycle 11 R</text>
<text text-anchor="middle" x="637" y="-284.8" font-family="monospace" font-size="14.00">R_TRANSFER id=1</text>
<text text-anchor="middle" x="637" y="-269.8" font-family="monospace" font-size="14.00">resp=OKAY last=False</text>
</g>
<!-- n9&#45;&gt;n10 -->
<g id="edge10" class="edge">
<title>n9&#45;&gt;n10</title>
<path fill="none" stroke="#94a3b8" d="M498.95,-262.02C498.98,-262.01 499,-262 499,-262 499,-262 538.63,-262 557.84,-262.01"/>
<polygon fill="#94a3b8" stroke="#94a3b8" points="558.05,-265.51 568.05,-262.02 558.05,-258.51 558.05,-265.51"/>
</g>
<!-- n9&#45;&gt;n10 -->
<!-- n9&#45;&gt;n10 -->
<g id="edge38" class="edge">
<title>n9&#45;&gt;n10</title>
<path fill="none" stroke="#2563eb" stroke-width="2" d="M498.95,-314.98C498.98,-314.99 499,-315 499,-315 499,-315 538.63,-315 557.84,-314.99"/>
<polygon fill="#2563eb" stroke="#2563eb" stroke-width="2" points="558.05,-318.49 568.05,-314.98 558.05,-311.49 558.05,-318.49"/>
</g>
<!-- n11 -->
<g id="node12" class="node">
<title>n11</title>
<path fill="#dcfce7" stroke="black" d="M923,-315C923,-315 765,-315 765,-315 759,-315 753,-309 753,-303 753,-303 753,-274 753,-274 753,-268 759,-262 765,-262 765,-262 923,-262 923,-262 929,-262 935,-268 935,-274 935,-274 935,-303 935,-303 935,-309 929,-315 923,-315"/>
<text text-anchor="middle" x="844" y="-299.8" font-family="monospace" font-size="14.00">cycle 12 R</text>
<text text-anchor="middle" x="844" y="-284.8" font-family="monospace" font-size="14.00">R_TRANSFER id=1</text>
<text text-anchor="middle" x="844" y="-269.8" font-family="monospace" font-size="14.00">resp=OKAY last=False</text>
</g>
<!-- n10&#45;&gt;n11 -->
<g id="edge11" class="edge">
<title>n10&#45;&gt;n11</title>
<path fill="none" stroke="#94a3b8" d="M705.95,-262.02C705.98,-262.01 706,-262 706,-262 706,-262 745.63,-262 764.84,-262.01"/>
<polygon fill="#94a3b8" stroke="#94a3b8" points="765.05,-265.51 775.05,-262.02 765.05,-258.51 765.05,-265.51"/>
</g>
<!-- n10&#45;&gt;n11 -->
<!-- n10&#45;&gt;n11 -->
<g id="edge39" class="edge">
<title>n10&#45;&gt;n11</title>
<path fill="none" stroke="#2563eb" stroke-width="2" d="M705.95,-314.98C705.98,-314.99 706,-315 706,-315 706,-315 745.63,-315 764.84,-314.99"/>
<polygon fill="#2563eb" stroke="#2563eb" stroke-width="2" points="765.05,-318.49 775.05,-314.98 765.05,-311.49 765.05,-318.49"/>
</g>
<!-- n12 -->
<g id="node13" class="node">
<title>n12</title>
<path fill="#dcfce7" stroke="black" d="M923,-222C923,-222 765,-222 765,-222 759,-222 753,-216 753,-210 753,-210 753,-181 753,-181 753,-175 759,-169 765,-169 765,-169 923,-169 923,-169 929,-169 935,-175 935,-181 935,-181 935,-210 935,-210 935,-216 929,-222 923,-222"/>
<text text-anchor="middle" x="844" y="-206.8" font-family="monospace" font-size="14.00">cycle 13 R</text>
<text text-anchor="middle" x="844" y="-191.8" font-family="monospace" font-size="14.00">R_TRANSFER id=1</text>
<text text-anchor="middle" x="844" y="-176.8" font-family="monospace" font-size="14.00">resp=OKAY last=False</text>
</g>
<!-- n11&#45;&gt;n12 -->
<g id="edge12" class="edge">
<title>n11&#45;&gt;n12</title>
<path fill="none" stroke="#94a3b8" d="M835.79,-261.67C835.01,-252.56 834.81,-242.15 835.18,-232.37"/>
<polygon fill="#94a3b8" stroke="#94a3b8" points="838.69,-232.28 835.81,-222.08 831.71,-231.85 838.69,-232.28"/>
</g>
<!-- n11&#45;&gt;n12 -->
<g id="edge40" class="edge">
<title>n11&#45;&gt;n12</title>
<path fill="none" stroke="#2563eb" stroke-width="2" d="M852.89,-261.67C853.74,-252.56 853.96,-242.15 853.55,-232.37"/>
<polygon fill="#2563eb" stroke="#2563eb" stroke-width="2" points="857.03,-231.83 852.87,-222.08 850.04,-232.29 857.03,-231.83"/>
</g>
<!-- n13 -->
<g id="node14" class="node">
<title>n13</title>
<path fill="#dcfce7" stroke="black" d="M716,-222C716,-222 558,-222 558,-222 552,-222 546,-216 546,-210 546,-210 546,-181 546,-181 546,-175 552,-169 558,-169 558,-169 716,-169 716,-169 722,-169 728,-175 728,-181 728,-181 728,-210 728,-210 728,-216 722,-222 716,-222"/>
<text text-anchor="middle" x="637" y="-206.8" font-family="monospace" font-size="14.00">cycle 14 R</text>
<text text-anchor="middle" x="637" y="-191.8" font-family="monospace" font-size="14.00">R_TRANSFER id=1</text>
<text text-anchor="middle" x="637" y="-176.8" font-family="monospace" font-size="14.00">resp=OKAY last=False</text>
</g>
<!-- n12&#45;&gt;n13 -->
<g id="edge13" class="edge">
<title>n12&#45;&gt;n13</title>
<path fill="none" stroke="#94a3b8" d="M775.05,-169.02C775.02,-169.01 775,-169 775,-169 775,-169 735.37,-169 716.16,-169.01"/>
<polygon fill="#94a3b8" stroke="#94a3b8" points="715.95,-165.51 705.95,-169.02 715.95,-172.51 715.95,-165.51"/>
</g>
<!-- n12&#45;&gt;n13 -->
<g id="edge41" class="edge">
<title>n12&#45;&gt;n13</title>
<path fill="none" stroke="#2563eb" stroke-width="2" d="M775.05,-221.98C775.02,-221.99 775,-222 775,-222 775,-222 735.37,-222 716.16,-221.99"/>
<polygon fill="#2563eb" stroke="#2563eb" stroke-width="2" points="715.95,-218.49 705.95,-221.98 715.95,-225.49 715.95,-218.49"/>
</g>
<!-- n13&#45;&gt;n12 -->
<!-- n14 -->
<g id="node15" class="node">
<title>n14</title>
<path fill="#dcfce7" stroke="black" d="M509,-222C509,-222 351,-222 351,-222 345,-222 339,-216 339,-210 339,-210 339,-181 339,-181 339,-175 345,-169 351,-169 351,-169 509,-169 509,-169 515,-169 521,-175 521,-181 521,-181 521,-210 521,-210 521,-216 515,-222 509,-222"/>
<text text-anchor="middle" x="430" y="-206.8" font-family="monospace" font-size="14.00">cycle 15 R</text>
<text text-anchor="middle" x="430" y="-191.8" font-family="monospace" font-size="14.00">R_TRANSFER id=1</text>
<text text-anchor="middle" x="430" y="-176.8" font-family="monospace" font-size="14.00">resp=OKAY last=False</text>
</g>
<!-- n13&#45;&gt;n14 -->
<g id="edge14" class="edge">
<title>n13&#45;&gt;n14</title>
<path fill="none" stroke="#94a3b8" d="M568.05,-169.02C568.02,-169.01 568,-169 568,-169 568,-169 528.37,-169 509.16,-169.01"/>
<polygon fill="#94a3b8" stroke="#94a3b8" points="508.95,-165.51 498.95,-169.02 508.95,-172.51 508.95,-165.51"/>
</g>
<!-- n13&#45;&gt;n14 -->
<g id="edge42" class="edge">
<title>n13&#45;&gt;n14</title>
<path fill="none" stroke="#2563eb" stroke-width="2" d="M568.05,-221.98C568.02,-221.99 568,-222 568,-222 568,-222 528.37,-222 509.16,-221.99"/>
<polygon fill="#2563eb" stroke="#2563eb" stroke-width="2" points="508.95,-218.49 498.95,-221.98 508.95,-225.49 508.95,-218.49"/>
</g>
<!-- n14&#45;&gt;n13 -->
<!-- n15 -->
<g id="node16" class="node">
<title>n15</title>
<path fill="#dcfce7" stroke="black" d="M302,-222C302,-222 144,-222 144,-222 138,-222 132,-216 132,-210 132,-210 132,-181 132,-181 132,-175 138,-169 144,-169 144,-169 302,-169 302,-169 308,-169 314,-175 314,-181 314,-181 314,-210 314,-210 314,-216 308,-222 302,-222"/>
<text text-anchor="middle" x="223" y="-206.8" font-family="monospace" font-size="14.00">cycle 16 R</text>
<text text-anchor="middle" x="223" y="-191.8" font-family="monospace" font-size="14.00">R_TRANSFER id=1</text>
<text text-anchor="middle" x="223" y="-176.8" font-family="monospace" font-size="14.00">resp=OKAY last=False</text>
</g>
<!-- n14&#45;&gt;n15 -->
<g id="edge15" class="edge">
<title>n14&#45;&gt;n15</title>
<path fill="none" stroke="#94a3b8" d="M361.05,-169.02C361.02,-169.01 361,-169 361,-169 361,-169 321.37,-169 302.16,-169.01"/>
<polygon fill="#94a3b8" stroke="#94a3b8" points="301.95,-165.51 291.95,-169.02 301.95,-172.51 301.95,-165.51"/>
</g>
<!-- n14&#45;&gt;n15 -->
<g id="edge43" class="edge">
<title>n14&#45;&gt;n15</title>
<path fill="none" stroke="#2563eb" stroke-width="2" d="M361.05,-221.98C361.02,-221.99 361,-222 361,-222 361,-222 321.37,-222 302.16,-221.99"/>
<polygon fill="#2563eb" stroke="#2563eb" stroke-width="2" points="301.95,-218.49 291.95,-221.98 301.95,-225.49 301.95,-218.49"/>
</g>
<!-- n15&#45;&gt;n14 -->
<!-- n16 -->
<g id="node17" class="node">
<title>n16</title>
<path fill="#dcfce7" stroke="black" d="M297.5,-129C297.5,-129 148.5,-129 148.5,-129 142.5,-129 136.5,-123 136.5,-117 136.5,-117 136.5,-88 136.5,-88 136.5,-82 142.5,-76 148.5,-76 148.5,-76 297.5,-76 297.5,-76 303.5,-76 309.5,-82 309.5,-88 309.5,-88 309.5,-117 309.5,-117 309.5,-123 303.5,-129 297.5,-129"/>
<text text-anchor="middle" x="223" y="-113.8" font-family="monospace" font-size="14.00">cycle 17 R</text>
<text text-anchor="middle" x="223" y="-98.8" font-family="monospace" font-size="14.00">R_TRANSFER id=1</text>
<text text-anchor="middle" x="223" y="-83.8" font-family="monospace" font-size="14.00">resp=OKAY last=True</text>
</g>
<!-- n15&#45;&gt;n16 -->
<g id="edge16" class="edge">
<title>n15&#45;&gt;n16</title>
<path fill="none" stroke="#94a3b8" d="M214.79,-168.67C214.01,-159.56 213.81,-149.15 214.18,-139.37"/>
<polygon fill="#94a3b8" stroke="#94a3b8" points="217.69,-139.28 214.81,-129.08 210.71,-138.85 217.69,-139.28"/>
</g>
<!-- n15&#45;&gt;n16 -->
<g id="edge44" class="edge">
<title>n15&#45;&gt;n16</title>
<path fill="none" stroke="#2563eb" stroke-width="2" d="M231.89,-168.67C232.74,-159.56 232.96,-149.15 232.55,-139.37"/>
<polygon fill="#2563eb" stroke="#2563eb" stroke-width="2" points="236.03,-138.83 231.87,-129.08 229.04,-139.29 236.03,-138.83"/>
</g>
<!-- done -->
<g id="node18" class="node">
<title>done</title>
<path fill="#bbf7d0" stroke="black" d="M285.5,-36C285.5,-36 160.5,-36 160.5,-36 154.5,-36 148.5,-30 148.5,-24 148.5,-24 148.5,-12 148.5,-12 148.5,-6 154.5,0 160.5,0 160.5,0 285.5,0 285.5,0 291.5,0 297.5,-6 297.5,-12 297.5,-12 297.5,-24 297.5,-24 297.5,-30 291.5,-36 285.5,-36"/>
<text text-anchor="middle" x="223" y="-14.3" font-family="monospace" font-size="14.00">QUIESCENT / PASS</text>
</g>
<!-- n16&#45;&gt;done -->
<g id="edge45" class="edge">
<title>n16&#45;&gt;done</title>
<path fill="none" stroke="#16a34a" stroke-width="2" d="M223,-75.85C223,-66.5 223,-55.9 223,-46.41"/>
<polygon fill="#16a34a" stroke="#16a34a" stroke-width="2" points="226.5,-46.28 223,-36.28 219.5,-46.28 226.5,-46.28"/>
</g>
</g>
</svg>
