<?xml version="1.0" encoding="UTF-8" standalone="no"?>
<!DOCTYPE svg PUBLIC "-//W3C//DTD SVG 1.1//EN"
 "http://www.w3.org/Graphics/SVG/1.1/DTD/svg11.dtd">
<!-- Generated by graphviz version 2.43.0 (0)
 -->
<!-- Title: axi4_case Pages: 1 -->
<svg width="844pt" height="115pt"
 viewBox="0.00 0.00 843.85 114.56" xmlns="http://www.w3.org/2000/svg" xmlns:xlink="http://www.w3.org/1999/xlink">
<g id="graph0" class="graph" transform="scale(1 1) rotate(0) translate(14.4 100.16)">
<title>axi4_case</title>
<polygon fill="white" stroke="transparent" points="-14.4,14.4 -14.4,-100.16 829.45,-100.16 829.45,14.4 -14.4,14.4"/>
<text text-anchor="middle" x="407.53" y="-70.56" font-family="Times,serif" font-size="14.00">Payload remains stable while VALID is stalled / VALID 阻塞期间 payload 保持稳定</text>
<!-- context -->
<g id="node1" class="node">
<title>context</title>
<polygon fill="#f4f5f6" stroke="#7c8790" points="167,-49.38 0,-49.38 0,-13.38 173,-13.38 173,-43.38 167,-49.38"/>
<polyline fill="none" stroke="#7c8790" points="167,-49.38 167,-43.38 "/>
<polyline fill="none" stroke="#7c8790" points="173,-43.38 167,-43.38 "/>
<text text-anchor="middle" x="86.5" y="-34.38" font-family="sans-serif" font-size="10.00">diagnostic frame / 诊断帧 · tick 2</text>
<text text-anchor="middle" x="86.5" y="-23.38" font-family="sans-serif" font-size="10.00">ID3 A=0xa08 N=1 S=4B INCR</text>
</g>
<!-- fault -->
<g id="node2" class="node">
<title>fault</title>
<polygon fill="#ffe9e7" stroke="#b33a2b" points="815.08,-18.43 815.08,-44.33 697.6,-62.64 531.45,-62.64 413.97,-44.33 413.97,-18.43 531.45,-0.12 697.6,-0.12 815.08,-18.43"/>
<text text-anchor="middle" x="614.53" y="-39.88" font-family="sans-serif" font-size="10.00">REJECTED / 已拒绝</text>
<text text-anchor="middle" x="614.53" y="-28.88" font-family="sans-serif" font-size="10.00">axi4.observation.AR.ready_valid.payload_stability</text>
<text text-anchor="middle" x="614.53" y="-17.88" font-family="sans-serif" font-size="10.00">offered event changed after stalling at tick 1</text>
</g>
<!-- context&#45;&gt;fault -->
<g id="edge1" class="edge">
<title>context&#45;&gt;fault</title>
<path fill="none" stroke="#777777" stroke-dasharray="5,2" d="M173.19,-31.38C235.65,-31.38 323.1,-31.38 403.62,-31.38"/>
<polygon fill="#777777" stroke="#777777" points="403.91,-34.88 413.91,-31.38 403.91,-27.88 403.91,-34.88"/>
<text text-anchor="middle" x="293.5" y="-34.18" font-family="sans-serif" font-size="9.00">diagnostic context / 诊断上下文（非因果边）</text>
</g>
</g>
</svg>
