<?xml version="1.0" encoding="UTF-8" standalone="no"?>
<!DOCTYPE svg PUBLIC "-//W3C//DTD SVG 1.1//EN"
 "http://www.w3.org/Graphics/SVG/1.1/DTD/svg11.dtd">
<!-- Generated by graphviz version 2.43.0 (0)
 -->
<!-- Title: axi4_case Pages: 1 -->
<svg width="822pt" height="231pt"
 viewBox="0.00 0.00 822.30 231.18" xmlns="http://www.w3.org/2000/svg" xmlns:xlink="http://www.w3.org/1999/xlink">
<g id="graph0" class="graph" transform="scale(1 1) rotate(0) translate(14.4 216.78)">
<title>axi4_case</title>
<polygon fill="white" stroke="transparent" points="-14.4,14.4 -14.4,-216.78 807.9,-216.78 807.9,14.4 -14.4,14.4"/>
<text text-anchor="middle" x="396.75" y="-187.18" font-family="Times,serif" font-size="14.00">The oldest same&#45;ID read consumes responses first / 同 ID 的最早读请求优先消费响应</text>
<!-- event0 -->
<g id="node1" class="node">
<title>event0</title>
<path fill="#eef5ff" stroke="#3169a8" d="M167,-36C167,-36 12,-36 12,-36 6,-36 0,-30 0,-24 0,-24 0,-12 0,-12 0,-6 6,0 12,0 12,0 167,0 167,0 173,0 179,-6 179,-12 179,-12 179,-24 179,-24 179,-30 173,-36 167,-36"/>
<text text-anchor="middle" x="89.5" y="-15.5" font-family="sans-serif" font-size="10.00">[0] ID3 A=0x600 N=2 S=4B INCR</text>
</g>
<!-- event1 -->
<g id="node2" class="node">
<title>event1</title>
<path fill="#eef5ff" stroke="#3169a8" d="M167,-101C167,-101 12,-101 12,-101 6,-101 0,-95 0,-89 0,-89 0,-77 0,-77 0,-71 6,-65 12,-65 12,-65 167,-65 167,-65 173,-65 179,-71 179,-77 179,-77 179,-89 179,-89 179,-95 173,-101 167,-101"/>
<text text-anchor="middle" x="89.5" y="-80.5" font-family="sans-serif" font-size="10.00">[1] ID3 A=0x700 N=1 S=4B INCR</text>
</g>
<!-- context -->
<g id="node3" class="node">
<title>context</title>
<polygon fill="#f4f5f6" stroke="#7c8790" points="149.5,-166 23.5,-166 23.5,-130 155.5,-130 155.5,-160 149.5,-166"/>
<polyline fill="none" stroke="#7c8790" points="149.5,-166 149.5,-160 "/>
<polyline fill="none" stroke="#7c8790" points="155.5,-160 149.5,-160 "/>
<text text-anchor="middle" x="89.5" y="-151" font-family="sans-serif" font-size="10.00">rejected input / 被拒输入</text>
<text text-anchor="middle" x="89.5" y="-140" font-family="sans-serif" font-size="10.00">ID3 D=0x0 OKAY L=1</text>
</g>
<!-- fault -->
<g id="node4" class="node">
<title>fault</title>
<polygon fill="#ffe9e7" stroke="#b33a2b" points="793.75,-135.05 793.75,-160.95 684.21,-179.26 529.29,-179.26 419.75,-160.95 419.75,-135.05 529.29,-116.74 684.21,-116.74 793.75,-135.05"/>
<text text-anchor="middle" x="606.75" y="-156.5" font-family="sans-serif" font-size="10.00">REJECTED / 已拒绝</text>
<text text-anchor="middle" x="606.75" y="-145.5" font-family="sans-serif" font-size="10.00">axi4.read.final_marker</text>
<text text-anchor="middle" x="606.75" y="-134.5" font-family="sans-serif" font-size="10.00">beat 1/2 for key 3 requires last=False, got True</text>
</g>
<!-- context&#45;&gt;fault -->
<g id="edge1" class="edge">
<title>context&#45;&gt;fault</title>
<path fill="none" stroke="#777777" stroke-dasharray="5,2" d="M155.76,-148C219.57,-148 319.98,-148 409.77,-148"/>
<polygon fill="#777777" stroke="#777777" points="409.82,-151.5 419.82,-148 409.82,-144.5 409.82,-151.5"/>
<text text-anchor="middle" x="299.5" y="-150.8" font-family="sans-serif" font-size="9.00">diagnostic context / 诊断上下文（非因果边）</text>
</g>
</g>
</svg>
