<?xml version="1.0" encoding="UTF-8" standalone="no"?>
<!DOCTYPE svg PUBLIC "-//W3C//DTD SVG 1.1//EN"
 "http://www.w3.org/Graphics/SVG/1.1/DTD/svg11.dtd">
<!-- Generated by graphviz version 2.43.0 (0)
 -->
<!-- Title: apb_trace Pages: 1 -->
<svg width="1135pt" height="368pt"
 viewBox="0.00 0.00 1134.57 368.17" xmlns="http://www.w3.org/2000/svg" xmlns:xlink="http://www.w3.org/1999/xlink">
<g id="graph0" class="graph" transform="scale(1 1) rotate(0) translate(4 364.17)">
<title>apb_trace</title>
<polygon fill="white" stroke="transparent" points="-4,4 -4,-364.17 1130.57,-364.17 1130.57,4 -4,4"/>
<text text-anchor="middle" x="563.28" y="-344.97" font-family="Times,serif" font-size="14.00">APB4 request&#45;stability violation</text>
<!-- s0 -->
<g id="node1" class="node">
<title>s0</title>
<path fill="#e2e8f0" stroke="black" d="M231.57,-337.17C231.57,-337.17 164.57,-337.17 164.57,-337.17 158.57,-337.17 152.57,-331.17 152.57,-325.17 152.57,-325.17 152.57,-296.17 152.57,-296.17 152.57,-290.17 158.57,-284.17 164.57,-284.17 164.57,-284.17 231.57,-284.17 231.57,-284.17 237.57,-284.17 243.57,-290.17 243.57,-296.17 243.57,-296.17 243.57,-325.17 243.57,-325.17 243.57,-331.17 237.57,-337.17 231.57,-337.17"/>
<text text-anchor="middle" x="198.07" y="-321.97" font-family="monospace" font-size="14.00">cycle 0</text>
<text text-anchor="middle" x="198.07" y="-306.97" font-family="monospace" font-size="14.00">RESET</text>
<text text-anchor="middle" x="198.07" y="-291.97" font-family="monospace" font-size="14.00">PADDR=0x0</text>
</g>
<!-- s1 -->
<g id="node2" class="node">
<title>s1</title>
<path fill="#e2e8f0" stroke="black" d="M347.57,-337.17C347.57,-337.17 280.57,-337.17 280.57,-337.17 274.57,-337.17 268.57,-331.17 268.57,-325.17 268.57,-325.17 268.57,-296.17 268.57,-296.17 268.57,-290.17 274.57,-284.17 280.57,-284.17 280.57,-284.17 347.57,-284.17 347.57,-284.17 353.57,-284.17 359.57,-290.17 359.57,-296.17 359.57,-296.17 359.57,-325.17 359.57,-325.17 359.57,-331.17 353.57,-337.17 347.57,-337.17"/>
<text text-anchor="middle" x="314.07" y="-321.97" font-family="monospace" font-size="14.00">cycle 1</text>
<text text-anchor="middle" x="314.07" y="-306.97" font-family="monospace" font-size="14.00">IDLE</text>
<text text-anchor="middle" x="314.07" y="-291.97" font-family="monospace" font-size="14.00">PADDR=0x0</text>
</g>
<!-- s0&#45;&gt;s1 -->
<g id="edge1" class="edge">
<title>s0&#45;&gt;s1</title>
<path fill="none" stroke="#94a3b8" d="M236.62,-284.24C236.7,-284.19 236.73,-284.17 236.73,-284.17 236.73,-284.17 253.79,-284.17 265.27,-284.19"/>
<polygon fill="#94a3b8" stroke="#94a3b8" points="265.49,-287.69 275.51,-284.24 265.53,-280.69 265.49,-287.69"/>
</g>
<!-- s0&#45;&gt;s1 -->
<!-- s2 -->
<g id="node3" class="node">
<title>s2</title>
<path fill="#e2e8f0" stroke="black" d="M521.57,-337.17C521.57,-337.17 396.57,-337.17 396.57,-337.17 390.57,-337.17 384.57,-331.17 384.57,-325.17 384.57,-325.17 384.57,-296.17 384.57,-296.17 384.57,-290.17 390.57,-284.17 396.57,-284.17 396.57,-284.17 521.57,-284.17 521.57,-284.17 527.57,-284.17 533.57,-290.17 533.57,-296.17 533.57,-296.17 533.57,-325.17 533.57,-325.17 533.57,-331.17 527.57,-337.17 521.57,-337.17"/>
<text text-anchor="middle" x="459.07" y="-321.97" font-family="monospace" font-size="14.00">cycle 2</text>
<text text-anchor="middle" x="459.07" y="-306.97" font-family="monospace" font-size="14.00">SETUP</text>
<text text-anchor="middle" x="459.07" y="-291.97" font-family="monospace" font-size="14.00">PADDR=0x41f60be0</text>
</g>
<!-- s1&#45;&gt;s2 -->
<g id="edge2" class="edge">
<title>s1&#45;&gt;s2</title>
<path fill="none" stroke="#94a3b8" d="M359.8,-285.59C361.45,-284.69 362.4,-284.17 362.4,-284.17 362.4,-284.17 386.3,-284.17 400.53,-284.19"/>
<polygon fill="#94a3b8" stroke="#94a3b8" points="400.86,-287.7 410.87,-284.24 400.89,-280.7 400.86,-287.7"/>
</g>
<!-- s1&#45;&gt;s2 -->
<!-- s3 -->
<g id="node4" class="node">
<title>s3</title>
<path fill="#e2e8f0" stroke="black" d="M695.57,-337.17C695.57,-337.17 570.57,-337.17 570.57,-337.17 564.57,-337.17 558.57,-331.17 558.57,-325.17 558.57,-325.17 558.57,-296.17 558.57,-296.17 558.57,-290.17 564.57,-284.17 570.57,-284.17 570.57,-284.17 695.57,-284.17 695.57,-284.17 701.57,-284.17 707.57,-290.17 707.57,-296.17 707.57,-296.17 707.57,-325.17 707.57,-325.17 707.57,-331.17 701.57,-337.17 695.57,-337.17"/>
<text text-anchor="middle" x="633.07" y="-321.97" font-family="monospace" font-size="14.00">cycle 3</text>
<text text-anchor="middle" x="633.07" y="-306.97" font-family="monospace" font-size="14.00">WAIT</text>
<text text-anchor="middle" x="633.07" y="-291.97" font-family="monospace" font-size="14.00">PADDR=0x41f60be1</text>
</g>
<!-- s2&#45;&gt;s3 -->
<g id="edge3" class="edge">
<title>s2&#45;&gt;s3</title>
<path fill="none" stroke="#94a3b8" d="M516.9,-284.24C517.01,-284.19 517.07,-284.17 517.07,-284.17 517.07,-284.17 548.35,-284.17 565.03,-284.2"/>
<polygon fill="#94a3b8" stroke="#94a3b8" points="565.22,-287.7 575.23,-284.24 565.25,-280.7 565.22,-287.7"/>
</g>
<!-- s2&#45;&gt;s3 -->
<!-- s4 -->
<g id="node5" class="node">
<title>s4</title>
<path fill="#e2e8f0" stroke="black" d="M1114.57,-241.58C1114.57,-241.58 989.57,-241.58 989.57,-241.58 983.57,-241.58 977.57,-235.58 977.57,-229.58 977.57,-229.58 977.57,-200.58 977.57,-200.58 977.57,-194.58 983.57,-188.58 989.57,-188.58 989.57,-188.58 1114.57,-188.58 1114.57,-188.58 1120.57,-188.58 1126.57,-194.58 1126.57,-200.58 1126.57,-200.58 1126.57,-229.58 1126.57,-229.58 1126.57,-235.58 1120.57,-241.58 1114.57,-241.58"/>
<text text-anchor="middle" x="1052.07" y="-226.38" font-family="monospace" font-size="14.00">cycle 4</text>
<text text-anchor="middle" x="1052.07" y="-211.38" font-family="monospace" font-size="14.00">WAIT</text>
<text text-anchor="middle" x="1052.07" y="-196.38" font-family="monospace" font-size="14.00">PADDR=0x41f60be0</text>
</g>
<!-- s3&#45;&gt;s4 -->
<g id="edge4" class="edge">
<title>s3&#45;&gt;s4</title>
<path fill="none" stroke="#94a3b8" d="M707.58,-294.97C805.46,-275.66 965.07,-244.17 965.07,-244.17 965.07,-244.17 966.01,-243.86 967.71,-243.32"/>
<polygon fill="#94a3b8" stroke="#94a3b8" points="969.09,-246.55 977.53,-240.14 966.94,-239.89 969.09,-246.55"/>
</g>
<!-- fault -->
<g id="node16" class="node">
<title>fault</title>
<path fill="#fecaca" stroke="black" d="M430.2,-211.06C430.2,-211.06 430.2,-219.11 430.2,-219.11 430.2,-223.14 426.21,-227.71 422.22,-228.25 422.22,-228.25 312.16,-243.17 312.16,-243.17 308.17,-243.71 300.15,-244.25 296.13,-244.25 296.13,-244.25 134.01,-244.25 134.01,-244.25 129.98,-244.25 121.96,-243.71 117.97,-243.17 117.97,-243.17 7.91,-228.25 7.91,-228.25 3.92,-227.71 -0.07,-223.14 -0.07,-219.11 -0.07,-219.11 -0.07,-211.06 -0.07,-211.06 -0.07,-207.03 3.92,-202.46 7.91,-201.92 7.91,-201.92 117.97,-187 117.97,-187 121.96,-186.46 129.98,-185.92 134.01,-185.92 134.01,-185.92 296.13,-185.92 296.13,-185.92 300.15,-185.92 308.17,-186.46 312.16,-187 312.16,-187 422.22,-201.92 422.22,-201.92 426.21,-202.46 430.2,-207.03 430.2,-211.06"/>
<text text-anchor="middle" x="215.07" y="-218.88" font-family="monospace" font-size="14.00">FAULT</text>
<text text-anchor="middle" x="215.07" y="-203.88" font-family="monospace" font-size="14.00">apb4.two_phase.request_stability</text>
</g>
<!-- s3&#45;&gt;fault -->
<g id="edge26" class="edge">
<title>s3&#45;&gt;fault</title>
<path fill="none" stroke="#dc2626" stroke-width="2" d="M558.53,-287.82C551.01,-285.62 546.07,-284.17 546.07,-284.17 546.07,-284.17 436.14,-261.56 342.99,-242.4"/>
<polygon fill="#dc2626" stroke="#dc2626" stroke-width="2" points="343.66,-238.96 333.16,-240.38 342.25,-245.82 343.66,-238.96"/>
</g>
<!-- s5 -->
<g id="node6" class="node">
<title>s5</title>
<path fill="#e2e8f0" stroke="black" d="M940.57,-241.58C940.57,-241.58 815.57,-241.58 815.57,-241.58 809.57,-241.58 803.57,-235.58 803.57,-229.58 803.57,-229.58 803.57,-200.58 803.57,-200.58 803.57,-194.58 809.57,-188.58 815.57,-188.58 815.57,-188.58 940.57,-188.58 940.57,-188.58 946.57,-188.58 952.57,-194.58 952.57,-200.58 952.57,-200.58 952.57,-229.58 952.57,-229.58 952.57,-235.58 946.57,-241.58 940.57,-241.58"/>
<text text-anchor="middle" x="878.07" y="-226.38" font-family="monospace" font-size="14.00">cycle 5</text>
<text text-anchor="middle" x="878.07" y="-211.38" font-family="monospace" font-size="14.00">COMPLETE</text>
<text text-anchor="middle" x="878.07" y="-196.38" font-family="monospace" font-size="14.00">PADDR=0x41f60be0</text>
</g>
<!-- s4&#45;&gt;s5 -->
<g id="edge5" class="edge">
<title>s4&#45;&gt;s5</title>
<path fill="none" stroke="#94a3b8" d="M994.23,-188.66C994.12,-188.61 994.07,-188.58 994.07,-188.58 994.07,-188.58 962.79,-188.58 946.11,-188.61"/>
<polygon fill="#94a3b8" stroke="#94a3b8" points="945.89,-185.11 935.9,-188.66 945.92,-192.11 945.89,-185.11"/>
</g>
<!-- s5&#45;&gt;s4 -->
<!-- s6 -->
<g id="node7" class="node">
<title>s6</title>
<path fill="#e2e8f0" stroke="black" d="M766.57,-241.58C766.57,-241.58 641.57,-241.58 641.57,-241.58 635.57,-241.58 629.57,-235.58 629.57,-229.58 629.57,-229.58 629.57,-200.58 629.57,-200.58 629.57,-194.58 635.57,-188.58 641.57,-188.58 641.57,-188.58 766.57,-188.58 766.57,-188.58 772.57,-188.58 778.57,-194.58 778.57,-200.58 778.57,-200.58 778.57,-229.58 778.57,-229.58 778.57,-235.58 772.57,-241.58 766.57,-241.58"/>
<text text-anchor="middle" x="704.07" y="-226.38" font-family="monospace" font-size="14.00">cycle 6</text>
<text text-anchor="middle" x="704.07" y="-211.38" font-family="monospace" font-size="14.00">SETUP</text>
<text text-anchor="middle" x="704.07" y="-196.38" font-family="monospace" font-size="14.00">PADDR=0x1e22010b</text>
</g>
<!-- s5&#45;&gt;s6 -->
<g id="edge6" class="edge">
<title>s5&#45;&gt;s6</title>
<path fill="none" stroke="#94a3b8" d="M820.23,-188.66C820.12,-188.61 820.07,-188.58 820.07,-188.58 820.07,-188.58 788.79,-188.58 772.11,-188.61"/>
<polygon fill="#94a3b8" stroke="#94a3b8" points="771.89,-185.11 761.9,-188.66 771.92,-192.11 771.89,-185.11"/>
</g>
<!-- s6&#45;&gt;s5 -->
<!-- s7 -->
<g id="node8" class="node">
<title>s7</title>
<path fill="#e2e8f0" stroke="black" d="M592.57,-241.58C592.57,-241.58 467.57,-241.58 467.57,-241.58 461.57,-241.58 455.57,-235.58 455.57,-229.58 455.57,-229.58 455.57,-200.58 455.57,-200.58 455.57,-194.58 461.57,-188.58 467.57,-188.58 467.57,-188.58 592.57,-188.58 592.57,-188.58 598.57,-188.58 604.57,-194.58 604.57,-200.58 604.57,-200.58 604.57,-229.58 604.57,-229.58 604.57,-235.58 598.57,-241.58 592.57,-241.58"/>
<text text-anchor="middle" x="530.07" y="-226.38" font-family="monospace" font-size="14.00">cycle 7</text>
<text text-anchor="middle" x="530.07" y="-211.38" font-family="monospace" font-size="14.00">COMPLETE</text>
<text text-anchor="middle" x="530.07" y="-196.38" font-family="monospace" font-size="14.00">PADDR=0x1e22010b</text>
</g>
<!-- s6&#45;&gt;s7 -->
<g id="edge7" class="edge">
<title>s6&#45;&gt;s7</title>
<path fill="none" stroke="#94a3b8" d="M646.23,-188.66C646.12,-188.61 646.07,-188.58 646.07,-188.58 646.07,-188.58 614.79,-188.58 598.11,-188.61"/>
<polygon fill="#94a3b8" stroke="#94a3b8" points="597.89,-185.11 587.9,-188.66 597.92,-192.11 597.89,-185.11"/>
</g>
<!-- s7&#45;&gt;s6 -->
<!-- s8 -->
<g id="node9" class="node">
<title>s8</title>
<path fill="#e2e8f0" stroke="black" d="M592.57,-146C592.57,-146 467.57,-146 467.57,-146 461.57,-146 455.57,-140 455.57,-134 455.57,-134 455.57,-105 455.57,-105 455.57,-99 461.57,-93 467.57,-93 467.57,-93 592.57,-93 592.57,-93 598.57,-93 604.57,-99 604.57,-105 604.57,-105 604.57,-134 604.57,-134 604.57,-140 598.57,-146 592.57,-146"/>
<text text-anchor="middle" x="530.07" y="-130.8" font-family="monospace" font-size="14.00">cycle 8</text>
<text text-anchor="middle" x="530.07" y="-115.8" font-family="monospace" font-size="14.00">SETUP</text>
<text text-anchor="middle" x="530.07" y="-100.8" font-family="monospace" font-size="14.00">PADDR=0x45869e99</text>
</g>
<!-- s7&#45;&gt;s8 -->
<g id="edge8" class="edge">
<title>s7&#45;&gt;s8</title>
<path fill="none" stroke="#94a3b8" d="M530.07,-188.51C530.07,-178.5 530.07,-166.86 530.07,-156.05"/>
<polygon fill="#94a3b8" stroke="#94a3b8" points="533.57,-156.04 530.07,-146.04 526.57,-156.04 533.57,-156.04"/>
</g>
<!-- s9 -->
<g id="node10" class="node">
<title>s9</title>
<path fill="#e2e8f0" stroke="black" d="M766.57,-146C766.57,-146 641.57,-146 641.57,-146 635.57,-146 629.57,-140 629.57,-134 629.57,-134 629.57,-105 629.57,-105 629.57,-99 635.57,-93 641.57,-93 641.57,-93 766.57,-93 766.57,-93 772.57,-93 778.57,-99 778.57,-105 778.57,-105 778.57,-134 778.57,-134 778.57,-140 772.57,-146 766.57,-146"/>
<text text-anchor="middle" x="704.07" y="-130.8" font-family="monospace" font-size="14.00">cycle 9</text>
<text text-anchor="middle" x="704.07" y="-115.8" font-family="monospace" font-size="14.00">WAIT</text>
<text text-anchor="middle" x="704.07" y="-100.8" font-family="monospace" font-size="14.00">PADDR=0x45869e99</text>
</g>
<!-- s8&#45;&gt;s9 -->
<g id="edge9" class="edge">
<title>s8&#45;&gt;s9</title>
<path fill="none" stroke="#94a3b8" d="M587.9,-93.08C588.01,-93.03 588.07,-93 588.07,-93 588.07,-93 619.35,-93 636.03,-93.03"/>
<polygon fill="#94a3b8" stroke="#94a3b8" points="636.22,-96.53 646.23,-93.08 636.25,-89.53 636.22,-96.53"/>
</g>
<!-- s8&#45;&gt;s9 -->
<!-- s10 -->
<g id="node11" class="node">
<title>s10</title>
<path fill="#e2e8f0" stroke="black" d="M940.57,-146C940.57,-146 815.57,-146 815.57,-146 809.57,-146 803.57,-140 803.57,-134 803.57,-134 803.57,-105 803.57,-105 803.57,-99 809.57,-93 815.57,-93 815.57,-93 940.57,-93 940.57,-93 946.57,-93 952.57,-99 952.57,-105 952.57,-105 952.57,-134 952.57,-134 952.57,-140 946.57,-146 940.57,-146"/>
<text text-anchor="middle" x="878.07" y="-130.8" font-family="monospace" font-size="14.00">cycle 10</text>
<text text-anchor="middle" x="878.07" y="-115.8" font-family="monospace" font-size="14.00">COMPLETE</text>
<text text-anchor="middle" x="878.07" y="-100.8" font-family="monospace" font-size="14.00">PADDR=0x45869e99</text>
</g>
<!-- s9&#45;&gt;s10 -->
<g id="edge10" class="edge">
<title>s9&#45;&gt;s10</title>
<path fill="none" stroke="#94a3b8" d="M761.9,-93.08C762.01,-93.03 762.07,-93 762.07,-93 762.07,-93 793.35,-93 810.03,-93.03"/>
<polygon fill="#94a3b8" stroke="#94a3b8" points="810.22,-96.53 820.23,-93.08 810.25,-89.53 810.22,-96.53"/>
</g>
<!-- s9&#45;&gt;s10 -->
<!-- s11 -->
<g id="node12" class="node">
<title>s11</title>
<path fill="#e2e8f0" stroke="black" d="M1114.57,-146C1114.57,-146 989.57,-146 989.57,-146 983.57,-146 977.57,-140 977.57,-134 977.57,-134 977.57,-105 977.57,-105 977.57,-99 983.57,-93 989.57,-93 989.57,-93 1114.57,-93 1114.57,-93 1120.57,-93 1126.57,-99 1126.57,-105 1126.57,-105 1126.57,-134 1126.57,-134 1126.57,-140 1120.57,-146 1114.57,-146"/>
<text text-anchor="middle" x="1052.07" y="-130.8" font-family="monospace" font-size="14.00">cycle 11</text>
<text text-anchor="middle" x="1052.07" y="-115.8" font-family="monospace" font-size="14.00">SETUP</text>
<text text-anchor="middle" x="1052.07" y="-100.8" font-family="monospace" font-size="14.00">PADDR=0x13300288</text>
</g>
<!-- s10&#45;&gt;s11 -->
<g id="edge11" class="edge">
<title>s10&#45;&gt;s11</title>
<path fill="none" stroke="#94a3b8" d="M935.9,-93.08C936.01,-93.03 936.07,-93 936.07,-93 936.07,-93 967.35,-93 984.03,-93.03"/>
<polygon fill="#94a3b8" stroke="#94a3b8" points="984.22,-96.53 994.23,-93.08 984.25,-89.53 984.22,-96.53"/>
</g>
<!-- s10&#45;&gt;s11 -->
<!-- s12 -->
<g id="node13" class="node">
<title>s12</title>
<path fill="#e2e8f0" stroke="black" d="M1114.57,-53C1114.57,-53 989.57,-53 989.57,-53 983.57,-53 977.57,-47 977.57,-41 977.57,-41 977.57,-12 977.57,-12 977.57,-6 983.57,0 989.57,0 989.57,0 1114.57,0 1114.57,0 1120.57,0 1126.57,-6 1126.57,-12 1126.57,-12 1126.57,-41 1126.57,-41 1126.57,-47 1120.57,-53 1114.57,-53"/>
<text text-anchor="middle" x="1052.07" y="-37.8" font-family="monospace" font-size="14.00">cycle 12</text>
<text text-anchor="middle" x="1052.07" y="-22.8" font-family="monospace" font-size="14.00">WAIT</text>
<text text-anchor="middle" x="1052.07" y="-7.8" font-family="monospace" font-size="14.00">PADDR=0x13300288</text>
</g>
<!-- s11&#45;&gt;s12 -->
<g id="edge12" class="edge">
<title>s11&#45;&gt;s12</title>
<path fill="none" stroke="#94a3b8" d="M1052.07,-92.67C1052.07,-83.56 1052.07,-73.15 1052.07,-63.37"/>
<polygon fill="#94a3b8" stroke="#94a3b8" points="1055.57,-63.08 1052.07,-53.08 1048.57,-63.08 1055.57,-63.08"/>
</g>
<!-- s13 -->
<g id="node14" class="node">
<title>s13</title>
<path fill="#e2e8f0" stroke="black" d="M940.57,-53C940.57,-53 815.57,-53 815.57,-53 809.57,-53 803.57,-47 803.57,-41 803.57,-41 803.57,-12 803.57,-12 803.57,-6 809.57,0 815.57,0 815.57,0 940.57,0 940.57,0 946.57,0 952.57,-6 952.57,-12 952.57,-12 952.57,-41 952.57,-41 952.57,-47 946.57,-53 940.57,-53"/>
<text text-anchor="middle" x="878.07" y="-37.8" font-family="monospace" font-size="14.00">cycle 13</text>
<text text-anchor="middle" x="878.07" y="-22.8" font-family="monospace" font-size="14.00">COMPLETE</text>
<text text-anchor="middle" x="878.07" y="-7.8" font-family="monospace" font-size="14.00">PADDR=0x13300288</text>
</g>
<!-- s12&#45;&gt;s13 -->
<g id="edge13" class="edge">
<title>s12&#45;&gt;s13</title>
<path fill="none" stroke="#94a3b8" d="M994.23,-0.08C994.12,-0.03 994.07,0 994.07,0 994.07,0 962.79,0 946.11,-0.03"/>
<polygon fill="#94a3b8" stroke="#94a3b8" points="945.89,3.47 935.9,-0.08 945.92,-3.53 945.89,3.47"/>
</g>
<!-- s13&#45;&gt;s12 -->
<!-- s14 -->
<g id="node15" class="node">
<title>s14</title>
<path fill="#e2e8f0" stroke="black" d="M766.57,-53C766.57,-53 699.57,-53 699.57,-53 693.57,-53 687.57,-47 687.57,-41 687.57,-41 687.57,-12 687.57,-12 687.57,-6 693.57,0 699.57,0 699.57,0 766.57,0 766.57,0 772.57,0 778.57,-6 778.57,-12 778.57,-12 778.57,-41 778.57,-41 778.57,-47 772.57,-53 766.57,-53"/>
<text text-anchor="middle" x="733.07" y="-37.8" font-family="monospace" font-size="14.00">cycle 14</text>
<text text-anchor="middle" x="733.07" y="-22.8" font-family="monospace" font-size="14.00">IDLE</text>
<text text-anchor="middle" x="733.07" y="-7.8" font-family="monospace" font-size="14.00">PADDR=0x0</text>
</g>
<!-- s13&#45;&gt;s14 -->
<g id="edge14" class="edge">
<title>s13&#45;&gt;s14</title>
<path fill="none" stroke="#94a3b8" d="M829.87,-0.08C829.78,-0.03 829.73,0 829.73,0 829.73,0 803.67,0 788.79,-0.56"/>
<polygon fill="#94a3b8" stroke="#94a3b8" points="788.47,2.92 778.8,-1.42 789.07,-4.05 788.47,2.92"/>
</g>
<!-- s14&#45;&gt;s13 -->
</g>
</svg>
