<?xml version="1.0" encoding="UTF-8" standalone="no"?>
<!DOCTYPE svg PUBLIC "-//W3C//DTD SVG 1.1//EN"
 "http://www.w3.org/Graphics/SVG/1.1/DTD/svg11.dtd">
<!-- Generated by graphviz version 2.43.0 (0)
 -->
<!-- Title: axi_scenario Pages: 1 -->
<svg width="747pt" height="205pt"
 viewBox="0.00 0.00 746.97 205.13" xmlns="http://www.w3.org/2000/svg" xmlns:xlink="http://www.w3.org/1999/xlink">
<g id="graph0" class="graph" transform="scale(1 1) rotate(0) translate(4 201.13)">
<title>axi_scenario</title>
<polygon fill="white" stroke="transparent" points="-4,4 -4,-201.13 742.97,-201.13 742.97,4 -4,4"/>
<text text-anchor="middle" x="369.48" y="-181.93" font-family="Times,serif" font-size="14.00">write_early_wlast</text>
<!-- n0 -->
<g id="node1" class="node">
<title>n0</title>
<path fill="#fef3c7" stroke="black" d="M285,-174.13C285,-174.13 12,-174.13 12,-174.13 6,-174.13 0,-168.13 0,-162.13 0,-162.13 0,-133.13 0,-133.13 0,-127.13 6,-121.13 12,-121.13 12,-121.13 285,-121.13 285,-121.13 291,-121.13 297,-127.13 297,-133.13 297,-133.13 297,-162.13 297,-162.13 297,-168.13 291,-174.13 285,-174.13"/>
<text text-anchor="middle" x="148.5" y="-158.93" font-family="monospace" font-size="14.00">cycle 1 AW</text>
<text text-anchor="middle" x="148.5" y="-143.93" font-family="monospace" font-size="14.00">AW_TRANSFER id=1</text>
<text text-anchor="middle" x="148.5" y="-128.93" font-family="monospace" font-size="14.00">addr=33536 len=1 size=3 burst=INCR</text>
</g>
<!-- n1 -->
<g id="node2" class="node">
<title>n1</title>
<path fill="#fef3c7" stroke="black" d="M475,-174.13C475,-174.13 334,-174.13 334,-174.13 328,-174.13 322,-168.13 322,-162.13 322,-162.13 322,-133.13 322,-133.13 322,-127.13 328,-121.13 334,-121.13 334,-121.13 475,-121.13 475,-121.13 481,-121.13 487,-127.13 487,-133.13 487,-133.13 487,-162.13 487,-162.13 487,-168.13 481,-174.13 475,-174.13"/>
<text text-anchor="middle" x="404.5" y="-158.93" font-family="monospace" font-size="14.00">cycle 2 W</text>
<text text-anchor="middle" x="404.5" y="-143.93" font-family="monospace" font-size="14.00">W_TRANSFER id=None</text>
<text text-anchor="middle" x="404.5" y="-128.93" font-family="monospace" font-size="14.00">last=True</text>
</g>
<!-- n0&#45;&gt;n1 -->
<g id="edge1" class="edge">
<title>n0&#45;&gt;n1</title>
<path fill="none" stroke="#94a3b8" d="M233.77,-121.15C233.81,-121.14 233.83,-121.13 233.83,-121.13 233.83,-121.13 288.55,-121.13 311.62,-121.52"/>
<polygon fill="#94a3b8" stroke="#94a3b8" points="311.51,-125.02 321.63,-121.89 311.77,-118.02 311.51,-125.02"/>
</g>
<!-- n0&#45;&gt;n1 -->
<!-- fault -->
<g id="node3" class="node">
<title>fault</title>
<path fill="#fecaca" stroke="black" d="M738.93,-34.95C738.93,-34.95 738.93,-46.17 738.93,-46.17 738.93,-51.78 733.36,-58.07 727.79,-58.75 727.79,-58.75 554.16,-79.84 554.16,-79.84 548.59,-80.52 537.42,-81.19 531.81,-81.19 531.81,-81.19 277.19,-81.19 277.19,-81.19 271.58,-81.19 260.41,-80.52 254.84,-79.84 254.84,-79.84 81.21,-58.75 81.21,-58.75 75.64,-58.07 70.07,-51.78 70.07,-46.17 70.07,-46.17 70.07,-34.95 70.07,-34.95 70.07,-29.35 75.64,-23.06 81.21,-22.38 81.21,-22.38 254.84,-1.29 254.84,-1.29 260.41,-0.61 271.58,0.06 277.19,0.06 277.19,0.06 531.81,0.06 531.81,0.06 537.42,0.06 548.59,-0.61 554.16,-1.29 554.16,-1.29 727.79,-22.38 727.79,-22.38 733.36,-23.06 738.93,-29.35 738.93,-34.95"/>
<text text-anchor="middle" x="404.5" y="-51.86" font-family="monospace" font-size="14.00">FAULT</text>
<text text-anchor="middle" x="404.5" y="-36.86" font-family="monospace" font-size="14.00">axi4.write.beat_count</text>
<text text-anchor="middle" x="404.5" y="-21.86" font-family="monospace" font-size="14.00">descriptor 0 for key 1 requires 2 data beats, got 1</text>
</g>
<!-- n1&#45;&gt;fault -->
<g id="edge3" class="edge">
<title>n1&#45;&gt;fault</title>
<path fill="none" stroke="#dc2626" stroke-width="2" d="M404.5,-120.93C404.5,-112 404.5,-101.65 404.5,-91.44"/>
<polygon fill="#dc2626" stroke="#dc2626" stroke-width="2" points="408,-91.33 404.5,-81.33 401,-91.33 408,-91.33"/>
</g>
</g>
</svg>
