<?xml version="1.0" encoding="UTF-8" standalone="no"?>
<!DOCTYPE svg PUBLIC "-//W3C//DTD SVG 1.1//EN"
 "http://www.w3.org/Graphics/SVG/1.1/DTD/svg11.dtd">
<!-- Generated by graphviz version 2.43.0 (0)
 -->
<!-- Title: bridge_chain_expanded Pages: 1 -->
<svg width="1603pt" height="537pt"
 viewBox="0.00 0.00 1603.32 537.32" xmlns="http://www.w3.org/2000/svg" xmlns:xlink="http://www.w3.org/1999/xlink">
<g id="graph0" class="graph" transform="scale(1 1) rotate(0) translate(20.16 517.16)">
<title>bridge_chain_expanded</title>
<polygon fill="white" stroke="transparent" points="-20.16,20.16 -20.16,-517.16 1583.16,-517.16 1583.16,20.16 -20.16,20.16"/>
<text text-anchor="middle" x="781.5" y="-481.8" font-family="Times,serif" font-size="14.00">AXI4&#45;Lite → AHB&#45;Lite → APB4 · attached VirtualDut realization</text>
<!-- scenario -->
<g id="node1" class="node">
<title>scenario</title>
<polygon fill="#fff7ed" stroke="#ea580c" stroke-dasharray="5,2" points="126,-399.5 0,-399.5 0,-363.5 132,-363.5 132,-393.5 126,-399.5"/>
<polyline fill="none" stroke="#ea580c" stroke-dasharray="5,2" points="126,-399.5 126,-393.5 "/>
<polyline fill="none" stroke="#ea580c" stroke-dasharray="5,2" points="132,-393.5 126,-393.5 "/>
<text text-anchor="middle" x="66" y="-384.5" font-family="sans-serif" font-size="10.00">scenario&#45;owned actions</text>
<text text-anchor="middle" x="66" y="-373.5" font-family="sans-serif" font-size="10.00">outside VirtualDut</text>
</g>
<!-- initiator -->
<g id="node2" class="node">
<title>initiator</title>
<polygon fill="#eff6ff" stroke="transparent" points="227,-393.5 227,-418.5 384,-418.5 384,-393.5 227,-393.5"/>
<polygon fill="none" stroke="#2563eb" points="227,-393.5 227,-418.5 384,-418.5 384,-393.5 227,-393.5"/>
<text text-anchor="start" x="248" y="-404.5" font-family="sans-serif" font-weight="bold" font-size="10.00">initiator · VirtualDut</text>
<polygon fill="#dbeafe" stroke="transparent" points="227,-368.5 227,-393.5 384,-393.5 384,-368.5 227,-368.5"/>
<polygon fill="none" stroke="#2563eb" points="227,-368.5 227,-393.5 384,-393.5 384,-368.5 227,-368.5"/>
<text text-anchor="start" x="248.5" y="-378.5" font-family="sans-serif" font-size="10.00">AXI4&#45;Lite manager port</text>
<polygon fill="#ecfdf5" stroke="transparent" points="227,-343.5 227,-368.5 384,-368.5 384,-343.5 227,-343.5"/>
<polygon fill="none" stroke="#2563eb" points="227,-343.5 227,-368.5 384,-368.5 384,-343.5 227,-343.5"/>
<text text-anchor="start" x="234" y="-353.5" font-family="sans-serif" font-size="10.00">capture returned B / R events</text>
<polygon fill="none" stroke="#2563eb" points="225.5,-343 225.5,-420 384.5,-420 384.5,-343 225.5,-343"/>
</g>
<!-- scenario&#45;&gt;initiator -->
<g id="edge1" class="edge">
<title>scenario&#45;&gt;initiator</title>
<path fill="none" stroke="#ea580c" stroke-width="1.3" stroke-dasharray="5,2" d="M132.26,-381.5C157.97,-381.5 187.82,-381.5 215.4,-381.5"/>
<polygon fill="#ea580c" stroke="#ea580c" stroke-width="1.3" points="215.45,-385 225.45,-381.5 215.45,-378 215.45,-385"/>
<text text-anchor="middle" x="178.75" y="-387.3" font-family="sans-serif" font-size="9.00">drive / observe</text>
</g>
<!-- axi_ahb -->
<g id="node3" class="node">
<title>axi_ahb</title>
<polygon fill="#fff7ed" stroke="transparent" points="572,-439.5 572,-472.5 864,-472.5 864,-439.5 572,-439.5"/>
<polygon fill="none" stroke="#ea580c" points="572,-439.5 572,-472.5 864,-472.5 864,-439.5 572,-439.5"/>
<text text-anchor="start" x="632" y="-458.5" font-family="sans-serif" font-weight="bold" font-size="10.00">axi_to_ahb · Bridge VirtualDut</text>
<text text-anchor="start" x="602" y="-449.3" font-family="sans-serif" font-size="9.00">request flows downward · completion folds upward</text>
<polygon fill="#e0f2fe" stroke="transparent" points="572,-414.5 572,-439.5 864,-439.5 864,-414.5 572,-414.5"/>
<polygon fill="none" stroke="#ea580c" points="572,-414.5 572,-439.5 864,-439.5 864,-414.5 572,-414.5"/>
<text text-anchor="start" x="608.5" y="-424.5" font-family="sans-serif" font-size="10.00">s_axi port + AXI4&#45;Lite completer attachment</text>
<polygon fill="#ecfeff" stroke="transparent" points="572,-389.5 572,-414.5 864,-414.5 864,-389.5 572,-389.5"/>
<polygon fill="none" stroke="#ea580c" points="572,-389.5 572,-414.5 864,-414.5 864,-389.5 572,-389.5"/>
<text text-anchor="start" x="636.5" y="-399.5" font-family="sans-serif" font-size="10.00">AddressAccess operation adapter</text>
<polygon fill="#fdf4ff" stroke="transparent" points="572,-364.5 572,-389.5 864,-389.5 864,-364.5 572,-364.5"/>
<polygon fill="none" stroke="#ea580c" points="572,-364.5 572,-389.5 864,-389.5 864,-364.5 572,-364.5"/>
<text text-anchor="start" x="591.5" y="-374.5" font-family="sans-serif" font-size="10.00">decode protection → route → target shape → encode</text>
<polygon fill="#f5f3ff" stroke="transparent" points="572,-339.5 572,-364.5 864,-364.5 864,-339.5 572,-339.5"/>
<polygon fill="none" stroke="#ea580c" points="572,-339.5 572,-364.5 864,-364.5 864,-339.5 572,-339.5"/>
<text text-anchor="start" x="593" y="-349.5" font-family="sans-serif" font-size="10.00">serial child scheduler · capacity 8 · one child active</text>
<polygon fill="#fff7ed" stroke="transparent" points="572,-314.5 572,-339.5 864,-339.5 864,-314.5 572,-314.5"/>
<polygon fill="none" stroke="#ea580c" points="572,-314.5 572,-339.5 864,-339.5 864,-314.5 572,-314.5"/>
<text text-anchor="start" x="579" y="-324.5" font-family="sans-serif" font-size="10.00">child owner table · child completion → parent completion</text>
<polygon fill="#e0f2fe" stroke="transparent" points="572,-289.5 572,-314.5 864,-314.5 864,-289.5 572,-289.5"/>
<polygon fill="none" stroke="#ea580c" points="572,-289.5 572,-314.5 864,-314.5 864,-289.5 572,-289.5"/>
<text text-anchor="start" x="618" y="-299.5" font-family="sans-serif" font-size="10.00">m_ahb port + AHB requester attachment</text>
<polygon fill="none" stroke="#ea580c" points="571,-289 571,-474 865,-474 865,-289 571,-289"/>
</g>
<!-- initiator&#45;&gt;axi_ahb -->
<g id="edge2" class="edge">
<title>initiator:axi&#45;&gt;axi_ahb:s_axi</title>
<path fill="none" stroke="#52606d" stroke-width="1.3" d="M384.5,-380.5C384.5,-380.5 397,-344.5 397,-344.5 397,-344.5 557,-344.5 557,-344.5 557,-344.5 565.54,-395.16 569.28,-417.32"/>
<polygon fill="#52606d" stroke="#52606d" stroke-width="1.3" points="565.89,-418.22 571,-427.5 572.79,-417.06 565.89,-418.22"/>
<text text-anchor="start" x="454" y="-355.3" font-family="sans-serif" font-weight="bold" font-size="9.00">AXI4&#45;Lite</text>
<text text-anchor="start" x="397" y="-347.1" font-family="sans-serif" font-size="8.00">axi_link · initiator.axi ↔ axi_to_ahb.s_axi</text>
</g>
<!-- ahb_apb -->
<g id="node4" class="node">
<title>ahb_apb</title>
<polygon fill="#fff7ed" stroke="transparent" points="1092,-439.5 1092,-472.5 1384,-472.5 1384,-439.5 1092,-439.5"/>
<polygon fill="none" stroke="#ea580c" points="1092,-439.5 1092,-472.5 1384,-472.5 1384,-439.5 1092,-439.5"/>
<text text-anchor="start" x="1150" y="-458.5" font-family="sans-serif" font-weight="bold" font-size="10.00">ahb_to_apb · Bridge VirtualDut</text>
<text text-anchor="start" x="1122" y="-449.3" font-family="sans-serif" font-size="9.00">request flows downward · completion folds upward</text>
<polygon fill="#e0f2fe" stroke="transparent" points="1092,-414.5 1092,-439.5 1384,-439.5 1384,-414.5 1092,-414.5"/>
<polygon fill="none" stroke="#ea580c" points="1092,-414.5 1092,-439.5 1384,-439.5 1384,-414.5 1092,-414.5"/>
<text text-anchor="start" x="1138.5" y="-424.5" font-family="sans-serif" font-size="10.00">s_ahb port + AHB completer attachment</text>
<polygon fill="#ecfeff" stroke="transparent" points="1092,-389.5 1092,-414.5 1384,-414.5 1384,-389.5 1092,-389.5"/>
<polygon fill="none" stroke="#ea580c" points="1092,-389.5 1092,-414.5 1384,-414.5 1384,-389.5 1092,-389.5"/>
<text text-anchor="start" x="1156.5" y="-399.5" font-family="sans-serif" font-size="10.00">AddressAccess operation adapter</text>
<polygon fill="#fdf4ff" stroke="transparent" points="1092,-364.5 1092,-389.5 1384,-389.5 1384,-364.5 1092,-364.5"/>
<polygon fill="none" stroke="#ea580c" points="1092,-364.5 1092,-389.5 1384,-389.5 1384,-364.5 1092,-364.5"/>
<text text-anchor="start" x="1111.5" y="-374.5" font-family="sans-serif" font-size="10.00">decode protection → route → target shape → encode</text>
<polygon fill="#f5f3ff" stroke="transparent" points="1092,-339.5 1092,-364.5 1384,-364.5 1384,-339.5 1092,-339.5"/>
<polygon fill="none" stroke="#ea580c" points="1092,-339.5 1092,-364.5 1384,-364.5 1384,-339.5 1092,-339.5"/>
<text text-anchor="start" x="1113" y="-349.5" font-family="sans-serif" font-size="10.00">serial child scheduler · capacity 8 · one child active</text>
<polygon fill="#fff7ed" stroke="transparent" points="1092,-314.5 1092,-339.5 1384,-339.5 1384,-314.5 1092,-314.5"/>
<polygon fill="none" stroke="#ea580c" points="1092,-314.5 1092,-339.5 1384,-339.5 1384,-314.5 1092,-314.5"/>
<text text-anchor="start" x="1099" y="-324.5" font-family="sans-serif" font-size="10.00">child owner table · child completion → parent completion</text>
<polygon fill="#e0f2fe" stroke="transparent" points="1092,-289.5 1092,-314.5 1384,-314.5 1384,-289.5 1092,-289.5"/>
<polygon fill="none" stroke="#ea580c" points="1092,-289.5 1092,-314.5 1384,-314.5 1384,-289.5 1092,-289.5"/>
<text text-anchor="start" x="1138.5" y="-299.5" font-family="sans-serif" font-size="10.00">m_apb port + APB requester attachment</text>
<polygon fill="none" stroke="#ea580c" points="1091,-289 1091,-474 1385,-474 1385,-289 1091,-289"/>
</g>
<!-- axi_ahb&#45;&gt;ahb_apb -->
<g id="edge3" class="edge">
<title>axi_ahb:m_ahb&#45;&gt;ahb_apb:s_ahb</title>
<path fill="none" stroke="#52606d" stroke-width="1.3" d="M865,-301.5C865,-301.5 1077.5,-344.5 1077.5,-344.5 1077.5,-344.5 1085.74,-395.16 1089.34,-417.32"/>
<polygon fill="#52606d" stroke="#52606d" stroke-width="1.3" points="1085.94,-418.19 1091,-427.5 1092.85,-417.07 1085.94,-418.19"/>
<text text-anchor="start" x="955.5" y="-355.3" font-family="sans-serif" font-weight="bold" font-size="9.00">AHB&#45;Lite</text>
<text text-anchor="start" x="878.5" y="-347.1" font-family="sans-serif" font-size="8.00">ahb_link · axi_to_ahb.m_ahb ↔ ahb_to_apb.s_ahb</text>
</g>
<!-- fabric -->
<g id="node5" class="node">
<title>fabric</title>
<polygon fill="#fdf2f8" stroke="transparent" points="1083,-199.5 1083,-224.5 1393,-224.5 1393,-199.5 1083,-199.5"/>
<polygon fill="none" stroke="#db2777" points="1083,-199.5 1083,-224.5 1393,-224.5 1393,-199.5 1083,-199.5"/>
<text text-anchor="start" x="1173" y="-210.5" font-family="sans-serif" font-weight="bold" font-size="10.00">apb_fabric · VirtualDut</text>
<polygon fill="#e0f2fe" stroke="transparent" points="1083,-174.5 1083,-199.5 1393,-199.5 1393,-174.5 1083,-174.5"/>
<polygon fill="none" stroke="#db2777" points="1083,-174.5 1083,-199.5 1393,-199.5 1393,-174.5 1083,-174.5"/>
<text text-anchor="start" x="1130.5" y="-184.5" font-family="sans-serif" font-size="10.00">upstream port + APB completer attachment</text>
<polygon fill="#fdf2f8" stroke="transparent" points="1083,-149.5 1083,-174.5 1393,-174.5 1393,-149.5 1083,-149.5"/>
<polygon fill="none" stroke="#db2777" points="1083,-149.5 1083,-174.5 1393,-174.5 1393,-149.5 1083,-149.5"/>
<text text-anchor="start" x="1117.5" y="-159.5" font-family="sans-serif" font-size="10.00">address decoder · 0x1000 control / 0x2000 status</text>
<polygon fill="#fff7ed" stroke="transparent" points="1083,-124.5 1083,-149.5 1393,-149.5 1393,-124.5 1083,-124.5"/>
<polygon fill="none" stroke="#db2777" points="1083,-124.5 1083,-149.5 1393,-149.5 1393,-124.5 1083,-124.5"/>
<text text-anchor="start" x="1160" y="-134.5" font-family="sans-serif" font-size="10.00">pending owner + response mux</text>
<polygon fill="#e0f2fe" stroke="transparent" points="1083,-99.5 1083,-124.5 1240,-124.5 1240,-99.5 1083,-99.5"/>
<polygon fill="none" stroke="#db2777" points="1083,-99.5 1083,-124.5 1240,-124.5 1240,-99.5 1083,-99.5"/>
<text text-anchor="start" x="1090" y="-109.5" font-family="sans-serif" font-size="10.00">control requester attachment</text>
<polygon fill="#e0f2fe" stroke="transparent" points="1240,-99.5 1240,-124.5 1393,-124.5 1393,-99.5 1240,-99.5"/>
<polygon fill="none" stroke="#db2777" points="1240,-99.5 1240,-124.5 1393,-124.5 1393,-99.5 1240,-99.5"/>
<text text-anchor="start" x="1247" y="-109.5" font-family="sans-serif" font-size="10.00">status requester attachment</text>
<polygon fill="none" stroke="#db2777" points="1082,-99 1082,-226 1394,-226 1394,-99 1082,-99"/>
</g>
<!-- ahb_apb&#45;&gt;fabric -->
<g id="edge4" class="edge">
<title>ahb_apb:m_apb&#45;&gt;fabric:up</title>
<path fill="none" stroke="#52606d" stroke-width="1.3" d="M1238,-289C1238,-289 1325,-249 1325,-249 1325,-249 1393,-226 1393,-226 1393,-226 1394,-187.5 1394,-187.5"/>
<text text-anchor="start" x="1430.5" y="-259.8" font-family="sans-serif" font-weight="bold" font-size="9.00">APB4</text>
<text text-anchor="start" x="1325" y="-251.6" font-family="sans-serif" font-size="8.00">apb_upstream · ahb_to_apb.m_apb ↔ apb_fabric.upstream</text>
</g>
<!-- control -->
<g id="node6" class="node">
<title>control</title>
<path fill="#ecfdf5" stroke="#059669" d="M1200.5,-36C1200.5,-36 1043.5,-36 1043.5,-36 1037.5,-36 1031.5,-30 1031.5,-24 1031.5,-24 1031.5,-12 1031.5,-12 1031.5,-6 1037.5,0 1043.5,0 1043.5,0 1200.5,0 1200.5,0 1206.5,0 1212.5,-6 1212.5,-12 1212.5,-12 1212.5,-24 1212.5,-24 1212.5,-30 1206.5,-36 1200.5,-36"/>
<text text-anchor="middle" x="1122" y="-21" font-family="sans-serif" font-size="10.00">control · VirtualDut</text>
<text text-anchor="middle" x="1122" y="-10" font-family="sans-serif" font-size="10.00">APB attachment + register region</text>
</g>
<!-- fabric&#45;&gt;control -->
<g id="edge5" class="edge">
<title>fabric:control&#45;&gt;control</title>
<path fill="none" stroke="#52606d" stroke-width="1.3" d="M1161,-99C1161,-99 1133,-76 1133,-76 1133,-76 1128.54,-52.89 1125.3,-36.1"/>
<text text-anchor="start" x="1213" y="-69.8" font-family="sans-serif" font-weight="bold" font-size="9.00">APB4</text>
<text text-anchor="start" x="1133" y="-61.6" font-family="sans-serif" font-size="8.00">apb_control · apb_fabric.control ↔ control.apb</text>
</g>
<!-- status -->
<g id="node7" class="node">
<title>status</title>
<path fill="#ecfdf5" stroke="#059669" d="M1435.5,-36C1435.5,-36 1278.5,-36 1278.5,-36 1272.5,-36 1266.5,-30 1266.5,-24 1266.5,-24 1266.5,-12 1266.5,-12 1266.5,-6 1272.5,0 1278.5,0 1278.5,0 1435.5,0 1435.5,0 1441.5,0 1447.5,-6 1447.5,-12 1447.5,-12 1447.5,-24 1447.5,-24 1447.5,-30 1441.5,-36 1435.5,-36"/>
<text text-anchor="middle" x="1357" y="-21" font-family="sans-serif" font-size="10.00">status · VirtualDut</text>
<text text-anchor="middle" x="1357" y="-10" font-family="sans-serif" font-size="10.00">APB attachment + register region</text>
</g>
<!-- fabric&#45;&gt;status -->
<g id="edge6" class="edge">
<title>fabric:status&#45;&gt;status</title>
<path fill="none" stroke="#52606d" stroke-width="1.3" d="M1317,-99C1317,-99 1336.56,-59.89 1348.32,-36.36"/>
<text text-anchor="start" x="1412.5" y="-69.8" font-family="sans-serif" font-weight="bold" font-size="9.00">APB4</text>
<text text-anchor="start" x="1337" y="-61.6" font-family="sans-serif" font-size="8.00">apb_status · apb_fabric.status ↔ status.apb</text>
</g>
<!-- control&#45;&gt;status -->
</g>
</svg>
