<?xml version="1.0" encoding="UTF-8" standalone="no"?>
<!DOCTYPE svg PUBLIC "-//W3C//DTD SVG 1.1//EN"
 "http://www.w3.org/Graphics/SVG/1.1/DTD/svg11.dtd">
<!-- Generated by graphviz version 2.43.0 (0)
 -->
<!-- Title: axi_scenario Pages: 1 -->
<svg width="1055pt" height="205pt"
 viewBox="0.00 0.00 1054.60 205.13" xmlns="http://www.w3.org/2000/svg" xmlns:xlink="http://www.w3.org/1999/xlink">
<g id="graph0" class="graph" transform="scale(1 1) rotate(0) translate(4 201.13)">
<title>axi_scenario</title>
<polygon fill="white" stroke="transparent" points="-4,4 -4,-201.13 1050.6,-201.13 1050.6,4 -4,4"/>
<text text-anchor="middle" x="523.3" y="-181.93" font-family="Times,serif" font-size="14.00">read_same_id_overtake</text>
<!-- n0 -->
<g id="node1" class="node">
<title>n0</title>
<path fill="#fef3c7" stroke="black" d="M285,-174.13C285,-174.13 12,-174.13 12,-174.13 6,-174.13 0,-168.13 0,-162.13 0,-162.13 0,-133.13 0,-133.13 0,-127.13 6,-121.13 12,-121.13 12,-121.13 285,-121.13 285,-121.13 291,-121.13 297,-127.13 297,-133.13 297,-133.13 297,-162.13 297,-162.13 297,-168.13 291,-174.13 285,-174.13"/>
<text text-anchor="middle" x="148.5" y="-158.93" font-family="monospace" font-size="14.00">cycle 1 AR</text>
<text text-anchor="middle" x="148.5" y="-143.93" font-family="monospace" font-size="14.00">AR_TRANSFER id=1</text>
<text text-anchor="middle" x="148.5" y="-128.93" font-family="monospace" font-size="14.00">addr=37376 len=1 size=3 burst=INCR</text>
</g>
<!-- n1 -->
<g id="node2" class="node">
<title>n1</title>
<path fill="#fef3c7" stroke="black" d="M607,-174.13C607,-174.13 334,-174.13 334,-174.13 328,-174.13 322,-168.13 322,-162.13 322,-162.13 322,-133.13 322,-133.13 322,-127.13 328,-121.13 334,-121.13 334,-121.13 607,-121.13 607,-121.13 613,-121.13 619,-127.13 619,-133.13 619,-133.13 619,-162.13 619,-162.13 619,-168.13 613,-174.13 607,-174.13"/>
<text text-anchor="middle" x="470.5" y="-158.93" font-family="monospace" font-size="14.00">cycle 2 AR</text>
<text text-anchor="middle" x="470.5" y="-143.93" font-family="monospace" font-size="14.00">AR_TRANSFER id=1</text>
<text text-anchor="middle" x="470.5" y="-128.93" font-family="monospace" font-size="14.00">addr=37632 len=0 size=3 burst=INCR</text>
</g>
<!-- n0&#45;&gt;n1 -->
<g id="edge1" class="edge">
<title>n0&#45;&gt;n1</title>
<path fill="none" stroke="#94a3b8" d="M255.76,-121.15C255.81,-121.14 255.83,-121.13 255.83,-121.13 255.83,-121.13 326.01,-121.13 352.92,-121.14"/>
<polygon fill="#94a3b8" stroke="#94a3b8" points="353.24,-124.64 363.24,-121.15 353.25,-117.64 353.24,-124.64"/>
</g>
<!-- n0&#45;&gt;n1 -->
<!-- n2 -->
<g id="node3" class="node">
<title>n2</title>
<path fill="#dcfce7" stroke="black" d="M805,-174.13C805,-174.13 656,-174.13 656,-174.13 650,-174.13 644,-168.13 644,-162.13 644,-162.13 644,-133.13 644,-133.13 644,-127.13 650,-121.13 656,-121.13 656,-121.13 805,-121.13 805,-121.13 811,-121.13 817,-127.13 817,-133.13 817,-133.13 817,-162.13 817,-162.13 817,-168.13 811,-174.13 805,-174.13"/>
<text text-anchor="middle" x="730.5" y="-158.93" font-family="monospace" font-size="14.00">cycle 3 R</text>
<text text-anchor="middle" x="730.5" y="-143.93" font-family="monospace" font-size="14.00">R_TRANSFER id=1</text>
<text text-anchor="middle" x="730.5" y="-128.93" font-family="monospace" font-size="14.00">resp=OKAY last=True</text>
</g>
<!-- n1&#45;&gt;n2 -->
<g id="edge2" class="edge">
<title>n1&#45;&gt;n2</title>
<path fill="none" stroke="#94a3b8" d="M557.1,-121.15C557.15,-121.14 557.17,-121.13 557.17,-121.13 557.17,-121.13 610.59,-121.13 633.58,-121.14"/>
<polygon fill="#94a3b8" stroke="#94a3b8" points="633.89,-124.64 643.9,-121.15 633.9,-117.64 633.89,-124.64"/>
</g>
<!-- n1&#45;&gt;n2 -->
<!-- fault -->
<g id="node4" class="node">
<title>fault</title>
<path fill="#fecaca" stroke="black" d="M1046.69,-34.95C1046.69,-34.95 1046.69,-46.17 1046.69,-46.17 1046.69,-51.78 1041.13,-58.11 1035.57,-58.82 1035.57,-58.82 872.6,-79.76 872.6,-79.76 867.04,-80.48 855.86,-81.19 850.25,-81.19 850.25,-81.19 610.75,-81.19 610.75,-81.19 605.14,-81.19 593.96,-80.48 588.4,-79.76 588.4,-79.76 425.43,-58.82 425.43,-58.82 419.87,-58.11 414.31,-51.78 414.31,-46.17 414.31,-46.17 414.31,-34.95 414.31,-34.95 414.31,-29.35 419.87,-23.02 425.43,-22.31 425.43,-22.31 588.4,-1.37 588.4,-1.37 593.96,-0.65 605.14,0.06 610.75,0.06 610.75,0.06 850.25,0.06 850.25,0.06 855.86,0.06 867.04,-0.65 872.6,-1.37 872.6,-1.37 1035.57,-22.31 1035.57,-22.31 1041.13,-23.02 1046.69,-29.35 1046.69,-34.95"/>
<text text-anchor="middle" x="730.5" y="-51.86" font-family="monospace" font-size="14.00">FAULT</text>
<text text-anchor="middle" x="730.5" y="-36.86" font-family="monospace" font-size="14.00">axi4.read_beats.final_marker</text>
<text text-anchor="middle" x="730.5" y="-21.86" font-family="monospace" font-size="14.00">beat 1/2 for key 1 requires last=False, got True</text>
</g>
<!-- n2&#45;&gt;fault -->
<g id="edge5" class="edge">
<title>n2&#45;&gt;fault</title>
<path fill="none" stroke="#dc2626" stroke-width="2" d="M730.5,-120.93C730.5,-112 730.5,-101.65 730.5,-91.44"/>
<polygon fill="#dc2626" stroke="#dc2626" stroke-width="2" points="734,-91.33 730.5,-81.33 727,-91.33 734,-91.33"/>
</g>
</g>
</svg>
