<?xml version="1.0" encoding="UTF-8" standalone="no"?>
<!DOCTYPE svg PUBLIC "-//W3C//DTD SVG 1.1//EN"
 "http://www.w3.org/Graphics/SVG/1.1/DTD/svg11.dtd">
<!-- Generated by graphviz version 2.43.0 (0)
 -->
<!-- Title: axi4_case Pages: 1 -->
<svg width="946pt" height="153pt"
 viewBox="0.00 0.00 945.80 152.80" xmlns="http://www.w3.org/2000/svg" xmlns:xlink="http://www.w3.org/1999/xlink">
<g id="graph0" class="graph" transform="scale(1 1) rotate(0) translate(14.4 138.4)">
<title>axi4_case</title>
<polygon fill="white" stroke="transparent" points="-14.4,14.4 -14.4,-138.4 931.4,-138.4 931.4,14.4 -14.4,14.4"/>
<text text-anchor="middle" x="458.5" y="-108.8" font-family="Times,serif" font-size="14.00">A matching link&#45;local exclusive sequence may succeed / 匹配的链路内独占序列可以成功</text>
<!-- event0 -->
<g id="node1" class="node">
<title>event0</title>
<path fill="#eef5ff" stroke="#3169a8" d="M167,-101C167,-101 12,-101 12,-101 6,-101 0,-95 0,-89 0,-89 0,-77 0,-77 0,-71 6,-65 12,-65 12,-65 167,-65 167,-65 173,-65 179,-71 179,-77 179,-77 179,-89 179,-89 179,-95 173,-101 167,-101"/>
<text text-anchor="middle" x="89.5" y="-80.5" font-family="sans-serif" font-size="10.00">[0] ID5 A=0xc00 N=1 S=4B INCR</text>
</g>
<!-- event1 -->
<g id="node2" class="node">
<title>event1</title>
<path fill="#eef5ff" stroke="#3169a8" d="M423,-101C423,-101 297,-101 297,-101 291,-101 285,-95 285,-89 285,-89 285,-77 285,-77 285,-71 291,-65 297,-65 297,-65 423,-65 423,-65 429,-65 435,-71 435,-77 435,-77 435,-89 435,-89 435,-95 429,-101 423,-101"/>
<text text-anchor="middle" x="360" y="-80.5" font-family="sans-serif" font-size="10.00">[1] ID5 D=0x0 EXOKAY L=1</text>
</g>
<!-- event0&#45;&gt;event1 -->
<g id="edge1" class="edge">
<title>event0&#45;&gt;event1</title>
<path fill="none" stroke="#3169a8" d="M179.16,-83C209.9,-83 244.26,-83 274.65,-83"/>
<polygon fill="#3169a8" stroke="#3169a8" points="274.79,-86.5 284.79,-83 274.79,-79.5 274.79,-86.5"/>
<text text-anchor="middle" x="232" y="-85.8" font-family="sans-serif" font-size="9.00">causes / 因果</text>
</g>
<!-- event2 -->
<g id="node3" class="node">
<title>event2</title>
<path fill="#eef5ff" stroke="#3169a8" d="M708,-101C708,-101 553,-101 553,-101 547,-101 541,-95 541,-89 541,-89 541,-77 541,-77 541,-71 547,-65 553,-65 553,-65 708,-65 708,-65 714,-65 720,-71 720,-77 720,-77 720,-89 720,-89 720,-95 714,-101 708,-101"/>
<text text-anchor="middle" x="630.5" y="-80.5" font-family="sans-serif" font-size="10.00">[2] ID5 A=0xc00 N=1 S=4B INCR</text>
</g>
<!-- event1&#45;&gt;event2 -->
<g id="edge2" class="edge">
<title>event1&#45;&gt;event2</title>
<path fill="none" stroke="#3169a8" d="M435.08,-83C464.63,-83 499.09,-83 530.72,-83"/>
<polygon fill="#3169a8" stroke="#3169a8" points="530.88,-86.5 540.88,-83 530.88,-79.5 530.88,-86.5"/>
<text text-anchor="middle" x="488" y="-85.8" font-family="sans-serif" font-size="9.00">causes / 因果</text>
</g>
<!-- event4 -->
<g id="node5" class="node">
<title>event4</title>
<path fill="#eef5ff" stroke="#3169a8" d="M905,-58C905,-58 838,-58 838,-58 832,-58 826,-52 826,-46 826,-46 826,-34 826,-34 826,-28 832,-22 838,-22 838,-22 905,-22 905,-22 911,-22 917,-28 917,-34 917,-34 917,-46 917,-46 917,-52 911,-58 905,-58"/>
<text text-anchor="middle" x="871.5" y="-37.5" font-family="sans-serif" font-size="10.00">[4] ID5 EXOKAY</text>
</g>
<!-- event2&#45;&gt;event4 -->
<g id="edge3" class="edge">
<title>event2&#45;&gt;event4</title>
<path fill="none" stroke="#3169a8" d="M720.16,-67.05C752.22,-61.28 787.46,-54.94 815.76,-49.85"/>
<polygon fill="#3169a8" stroke="#3169a8" points="816.63,-53.25 825.86,-48.03 815.39,-46.36 816.63,-53.25"/>
<text text-anchor="middle" x="773" y="-64.8" font-family="sans-serif" font-size="9.00">causes / 因果</text>
</g>
<!-- event3 -->
<g id="node4" class="node">
<title>event3</title>
<path fill="#eef5ff" stroke="#3169a8" d="M679.5,-36C679.5,-36 581.5,-36 581.5,-36 575.5,-36 569.5,-30 569.5,-24 569.5,-24 569.5,-12 569.5,-12 569.5,-6 575.5,0 581.5,0 581.5,0 679.5,0 679.5,0 685.5,0 691.5,-6 691.5,-12 691.5,-12 691.5,-24 691.5,-24 691.5,-30 685.5,-36 679.5,-36"/>
<text text-anchor="middle" x="630.5" y="-15.5" font-family="sans-serif" font-size="10.00">[3] D=0x0 S=0xf L=1</text>
</g>
<!-- event3&#45;&gt;event4 -->
<g id="edge4" class="edge">
<title>event3&#45;&gt;event4</title>
<path fill="none" stroke="#3169a8" d="M691.61,-20.82C740.7,-23.12 802,-26 802,-26 802,-26 807.74,-27.17 815.9,-28.84"/>
<polygon fill="#3169a8" stroke="#3169a8" points="815.46,-32.32 825.96,-30.9 816.86,-25.46 815.46,-32.32"/>
<text text-anchor="middle" x="773" y="-28.8" font-family="sans-serif" font-size="9.00">causes / 因果</text>
</g>
</g>
</svg>
