<?xml version="1.0" encoding="UTF-8" standalone="no"?>
<!DOCTYPE svg PUBLIC "-//W3C//DTD SVG 1.1//EN"
 "http://www.w3.org/Graphics/SVG/1.1/DTD/svg11.dtd">
<!-- Generated by graphviz version 2.43.0 (0)
 -->
<!-- Title: axi_scenario Pages: 1 -->
<svg width="665pt" height="180pt"
 viewBox="0.00 0.00 665.00 180.00" xmlns="http://www.w3.org/2000/svg" xmlns:xlink="http://www.w3.org/1999/xlink">
<g id="graph0" class="graph" transform="scale(1 1) rotate(0) translate(4 176)">
<title>axi_scenario</title>
<polygon fill="white" stroke="transparent" points="-4,4 -4,-176 661,-176 661,4 -4,4"/>
<text text-anchor="middle" x="328.5" y="-156.8" font-family="Times,serif" font-size="14.00">write_data_before_address</text>
<!-- n0 -->
<g id="node1" class="node">
<title>n0</title>
<path fill="#fef3c7" stroke="black" d="M153,-129C153,-129 12,-129 12,-129 6,-129 0,-123 0,-117 0,-117 0,-88 0,-88 0,-82 6,-76 12,-76 12,-76 153,-76 153,-76 159,-76 165,-82 165,-88 165,-88 165,-117 165,-117 165,-123 159,-129 153,-129"/>
<text text-anchor="middle" x="82.5" y="-113.8" font-family="monospace" font-size="14.00">cycle 1 W</text>
<text text-anchor="middle" x="82.5" y="-98.8" font-family="monospace" font-size="14.00">W_TRANSFER id=None</text>
<text text-anchor="middle" x="82.5" y="-83.8" font-family="monospace" font-size="14.00">last=True</text>
</g>
<!-- n1 -->
<g id="node2" class="node">
<title>n1</title>
<path fill="#fef3c7" stroke="black" d="M475,-129C475,-129 202,-129 202,-129 196,-129 190,-123 190,-117 190,-117 190,-88 190,-88 190,-82 196,-76 202,-76 202,-76 475,-76 475,-76 481,-76 487,-82 487,-88 487,-88 487,-117 487,-117 487,-123 481,-129 475,-129"/>
<text text-anchor="middle" x="338.5" y="-113.8" font-family="monospace" font-size="14.00">cycle 2 AW</text>
<text text-anchor="middle" x="338.5" y="-98.8" font-family="monospace" font-size="14.00">AW_TRANSFER id=1</text>
<text text-anchor="middle" x="338.5" y="-83.8" font-family="monospace" font-size="14.00">addr=32768 len=0 size=3 burst=INCR</text>
</g>
<!-- n0&#45;&gt;n1 -->
<g id="edge1" class="edge">
<title>n0&#45;&gt;n1</title>
<path fill="none" stroke="#94a3b8" d="M165.37,-76.76C166.95,-76.27 167.83,-76 167.83,-76 167.83,-76 220.44,-76 243.07,-76.01"/>
<polygon fill="#94a3b8" stroke="#94a3b8" points="243.23,-79.51 253.23,-76.02 243.23,-72.51 243.23,-79.51"/>
</g>
<!-- n0&#45;&gt;n1 -->
<!-- n2 -->
<g id="node3" class="node">
<title>n2</title>
<path fill="#dcfce7" stroke="black" d="M640.5,-129C640.5,-129 524.5,-129 524.5,-129 518.5,-129 512.5,-123 512.5,-117 512.5,-117 512.5,-88 512.5,-88 512.5,-82 518.5,-76 524.5,-76 524.5,-76 640.5,-76 640.5,-76 646.5,-76 652.5,-82 652.5,-88 652.5,-88 652.5,-117 652.5,-117 652.5,-123 646.5,-129 640.5,-129"/>
<text text-anchor="middle" x="582.5" y="-113.8" font-family="monospace" font-size="14.00">cycle 3 B</text>
<text text-anchor="middle" x="582.5" y="-98.8" font-family="monospace" font-size="14.00">B_TRANSFER id=1</text>
<text text-anchor="middle" x="582.5" y="-83.8" font-family="monospace" font-size="14.00">resp=OKAY</text>
</g>
<!-- n0&#45;&gt;n2 -->
<g id="edge6" class="edge">
<title>n0&#45;&gt;n2</title>
<path fill="none" stroke="#2563eb" stroke-width="2" d="M143.79,-129.01C167.93,-139.45 190,-149 190,-149 190,-149 487,-149 487,-149 487,-149 501.22,-142.08 518.68,-133.57"/>
<polygon fill="#2563eb" stroke="#2563eb" stroke-width="2" points="520.6,-136.53 528.05,-129.01 517.53,-130.24 520.6,-136.53"/>
</g>
<!-- n1&#45;&gt;n2 -->
<g id="edge2" class="edge">
<title>n1&#45;&gt;n2</title>
<path fill="none" stroke="#94a3b8" d="M419.77,-76.02C419.81,-76.01 419.83,-76 419.83,-76 419.83,-76 501.17,-76 501.17,-76 501.17,-76 501.79,-76.2 502.94,-76.58"/>
<polygon fill="#94a3b8" stroke="#94a3b8" points="501.88,-79.91 512.48,-79.68 504.05,-73.26 501.88,-79.91"/>
</g>
<!-- n1&#45;&gt;n2 -->
<!-- n1&#45;&gt;n2 -->
<g id="edge5" class="edge">
<title>n1&#45;&gt;n2</title>
<path fill="none" stroke="#2563eb" stroke-width="2" d="M419.77,-128.98C419.81,-128.99 419.83,-129 419.83,-129 419.83,-129 501.17,-129 501.17,-129 501.17,-129 501.79,-128.8 502.94,-128.42"/>
<polygon fill="#2563eb" stroke="#2563eb" stroke-width="2" points="504.05,-131.74 512.48,-125.32 501.88,-125.09 504.05,-131.74"/>
</g>
<!-- done -->
<g id="node4" class="node">
<title>done</title>
<path fill="#bbf7d0" stroke="black" d="M645,-36C645,-36 520,-36 520,-36 514,-36 508,-30 508,-24 508,-24 508,-12 508,-12 508,-6 514,0 520,0 520,0 645,0 645,0 651,0 657,-6 657,-12 657,-12 657,-24 657,-24 657,-30 651,-36 645,-36"/>
<text text-anchor="middle" x="582.5" y="-14.3" font-family="monospace" font-size="14.00">QUIESCENT / PASS</text>
</g>
<!-- n2&#45;&gt;done -->
<g id="edge7" class="edge">
<title>n2&#45;&gt;done</title>
<path fill="none" stroke="#16a34a" stroke-width="2" d="M582.5,-75.85C582.5,-66.5 582.5,-55.9 582.5,-46.41"/>
<polygon fill="#16a34a" stroke="#16a34a" stroke-width="2" points="586,-46.28 582.5,-36.28 579,-46.28 586,-46.28"/>
</g>
</g>
</svg>
