<?xml version="1.0" encoding="UTF-8" standalone="no"?>
<!DOCTYPE svg PUBLIC "-//W3C//DTD SVG 1.1//EN"
 "http://www.w3.org/Graphics/SVG/1.1/DTD/svg11.dtd">
<!-- Generated by graphviz version 2.43.0 (0)
 -->
<!-- Title: axi4_case Pages: 1 -->
<svg width="778pt" height="115pt"
 viewBox="0.00 0.00 778.36 114.56" xmlns="http://www.w3.org/2000/svg" xmlns:xlink="http://www.w3.org/1999/xlink">
<g id="graph0" class="graph" transform="scale(1 1) rotate(0) translate(14.4 100.16)">
<title>axi4_case</title>
<polygon fill="white" stroke="transparent" points="-14.4,14.4 -14.4,-100.16 763.96,-100.16 763.96,14.4 -14.4,14.4"/>
<text text-anchor="middle" x="374.78" y="-70.56" font-family="Times,serif" font-size="14.00">An R response requires a pending AR / R 响应必须对应已接受的 AR</text>
<!-- context -->
<g id="node1" class="node">
<title>context</title>
<polygon fill="#f4f5f6" stroke="#7c8790" points="126,-49.38 0,-49.38 0,-13.38 132,-13.38 132,-43.38 126,-49.38"/>
<polyline fill="none" stroke="#7c8790" points="126,-49.38 126,-43.38 "/>
<polyline fill="none" stroke="#7c8790" points="132,-43.38 126,-43.38 "/>
<text text-anchor="middle" x="66" y="-34.38" font-family="sans-serif" font-size="10.00">rejected input / 被拒输入</text>
<text text-anchor="middle" x="66" y="-23.38" font-family="sans-serif" font-size="10.00">ID7 D=0x0 OKAY L=1</text>
</g>
<!-- fault -->
<g id="node2" class="node">
<title>fault</title>
<polygon fill="#ffe9e7" stroke="#b33a2b" points="749.34,-18.43 749.34,-44.33 639.18,-62.64 483.38,-62.64 373.22,-44.33 373.22,-18.43 483.38,-0.12 639.18,-0.12 749.34,-18.43"/>
<text text-anchor="middle" x="561.28" y="-39.88" font-family="sans-serif" font-size="10.00">REJECTED / 已拒绝</text>
<text text-anchor="middle" x="561.28" y="-28.88" font-family="sans-serif" font-size="10.00">axi4.read.orphan_beat</text>
<text text-anchor="middle" x="561.28" y="-17.88" font-family="sans-serif" font-size="10.00">completion for key 7 has no pending obligation</text>
</g>
<!-- context&#45;&gt;fault -->
<g id="edge1" class="edge">
<title>context&#45;&gt;fault</title>
<path fill="none" stroke="#777777" stroke-dasharray="5,2" d="M132.25,-31.38C191.13,-31.38 280.86,-31.38 362.98,-31.38"/>
<polygon fill="#777777" stroke="#777777" points="363.21,-34.88 373.21,-31.38 363.21,-27.88 363.21,-34.88"/>
<text text-anchor="middle" x="252.5" y="-34.18" font-family="sans-serif" font-size="9.00">diagnostic context / 诊断上下文（非因果边）</text>
</g>
</g>
</svg>
