<?xml version="1.0" encoding="UTF-8" standalone="no"?>
<!DOCTYPE svg PUBLIC "-//W3C//DTD SVG 1.1//EN"
 "http://www.w3.org/Graphics/SVG/1.1/DTD/svg11.dtd">
<!-- Generated by graphviz version 2.43.0 (0)
 -->
<!-- Title: axi4_case Pages: 1 -->
<svg width="825pt" height="166pt"
 viewBox="0.00 0.00 825.36 166.18" xmlns="http://www.w3.org/2000/svg" xmlns:xlink="http://www.w3.org/1999/xlink">
<g id="graph0" class="graph" transform="scale(1 1) rotate(0) translate(14.4 151.78)">
<title>axi4_case</title>
<polygon fill="white" stroke="transparent" points="-14.4,14.4 -14.4,-151.78 810.96,-151.78 810.96,14.4 -14.4,14.4"/>
<text text-anchor="middle" x="398.28" y="-122.18" font-family="Times,serif" font-size="14.00">Reset starts a new observation and link epoch / 复位开启新的观察与链路 epoch</text>
<!-- event0 -->
<g id="node1" class="node">
<title>event0</title>
<path fill="#eef5ff" stroke="#3169a8" d="M167,-36C167,-36 12,-36 12,-36 6,-36 0,-30 0,-24 0,-24 0,-12 0,-12 0,-6 6,0 12,0 12,0 167,0 167,0 173,0 179,-6 179,-12 179,-12 179,-24 179,-24 179,-30 173,-36 167,-36"/>
<text text-anchor="middle" x="89.5" y="-15.5" font-family="sans-serif" font-size="10.00">[0] ID4 A=0xb00 N=1 S=4B INCR</text>
</g>
<!-- context -->
<g id="node2" class="node">
<title>context</title>
<polygon fill="#f4f5f6" stroke="#7c8790" points="170,-101 3,-101 3,-65 176,-65 176,-95 170,-101"/>
<polyline fill="none" stroke="#7c8790" points="170,-101 170,-95 "/>
<polyline fill="none" stroke="#7c8790" points="176,-95 170,-95 "/>
<text text-anchor="middle" x="89.5" y="-86" font-family="sans-serif" font-size="10.00">diagnostic frame / 诊断帧 · tick 3</text>
<text text-anchor="middle" x="89.5" y="-75" font-family="sans-serif" font-size="10.00">ID4 D=0x0 OKAY L=1</text>
</g>
<!-- fault -->
<g id="node3" class="node">
<title>fault</title>
<polygon fill="#ffe9e7" stroke="#b33a2b" points="796.34,-70.05 796.34,-95.95 686.18,-114.26 530.38,-114.26 420.22,-95.95 420.22,-70.05 530.38,-51.74 686.18,-51.74 796.34,-70.05"/>
<text text-anchor="middle" x="608.28" y="-91.5" font-family="sans-serif" font-size="10.00">REJECTED / 已拒绝</text>
<text text-anchor="middle" x="608.28" y="-80.5" font-family="sans-serif" font-size="10.00">axi4.read.orphan_beat</text>
<text text-anchor="middle" x="608.28" y="-69.5" font-family="sans-serif" font-size="10.00">completion for key 4 has no pending obligation</text>
</g>
<!-- context&#45;&gt;fault -->
<g id="edge1" class="edge">
<title>context&#45;&gt;fault</title>
<path fill="none" stroke="#777777" stroke-dasharray="5,2" d="M176.13,-83C239.67,-83 328.94,-83 409.78,-83"/>
<polygon fill="#777777" stroke="#777777" points="410.1,-86.5 420.1,-83 410.1,-79.5 410.1,-86.5"/>
<text text-anchor="middle" x="299.5" y="-85.8" font-family="sans-serif" font-size="9.00">diagnostic context / 诊断上下文（非因果边）</text>
</g>
</g>
</svg>
