<?xml version="1.0" encoding="UTF-8" standalone="no"?>
<!DOCTYPE svg PUBLIC "-//W3C//DTD SVG 1.1//EN"
 "http://www.w3.org/Graphics/SVG/1.1/DTD/svg11.dtd">
<!-- Generated by graphviz version 2.43.0 (0)
 -->
<!-- Title: axi4_case Pages: 1 -->
<svg width="766pt" height="231pt"
 viewBox="0.00 0.00 765.54 231.18" xmlns="http://www.w3.org/2000/svg" xmlns:xlink="http://www.w3.org/1999/xlink">
<g id="graph0" class="graph" transform="scale(1 1) rotate(0) translate(14.4 216.78)">
<title>axi4_case</title>
<polygon fill="white" stroke="transparent" points="-14.4,14.4 -14.4,-216.78 751.14,-216.78 751.14,14.4 -14.4,14.4"/>
<text text-anchor="middle" x="368.37" y="-187.18" font-family="Times,serif" font-size="14.00">BID identifies a pending write context / BID 必须标识一笔待完成写事务</text>
<!-- event0 -->
<g id="node1" class="node">
<title>event0</title>
<path fill="#eef5ff" stroke="#3169a8" d="M173,-36C173,-36 12,-36 12,-36 6,-36 0,-30 0,-24 0,-24 0,-12 0,-12 0,-6 6,0 12,0 12,0 173,0 173,0 179,0 185,-6 185,-12 185,-12 185,-24 185,-24 185,-30 179,-36 173,-36"/>
<text text-anchor="middle" x="92.5" y="-15.5" font-family="sans-serif" font-size="10.00">[0] ID12 A=0x380 N=1 S=4B INCR</text>
</g>
<!-- event1 -->
<g id="node2" class="node">
<title>event1</title>
<path fill="#eef5ff" stroke="#3169a8" d="M141.5,-101C141.5,-101 43.5,-101 43.5,-101 37.5,-101 31.5,-95 31.5,-89 31.5,-89 31.5,-77 31.5,-77 31.5,-71 37.5,-65 43.5,-65 43.5,-65 141.5,-65 141.5,-65 147.5,-65 153.5,-71 153.5,-77 153.5,-77 153.5,-89 153.5,-89 153.5,-95 147.5,-101 141.5,-101"/>
<text text-anchor="middle" x="92.5" y="-80.5" font-family="sans-serif" font-size="10.00">[1] D=0x0 S=0xf L=1</text>
</g>
<!-- context -->
<g id="node3" class="node">
<title>context</title>
<polygon fill="#f4f5f6" stroke="#7c8790" points="152.5,-166 26.5,-166 26.5,-130 158.5,-130 158.5,-160 152.5,-166"/>
<polyline fill="none" stroke="#7c8790" points="152.5,-166 152.5,-160 "/>
<polyline fill="none" stroke="#7c8790" points="158.5,-160 152.5,-160 "/>
<text text-anchor="middle" x="92.5" y="-151" font-family="sans-serif" font-size="10.00">rejected input / 被拒输入</text>
<text text-anchor="middle" x="92.5" y="-140" font-family="sans-serif" font-size="10.00">ID13 OKAY</text>
</g>
<!-- fault -->
<g id="node4" class="node">
<title>fault</title>
<polygon fill="#ffe9e7" stroke="#b33a2b" points="736.61,-135.05 736.61,-160.95 645.67,-179.26 517.07,-179.26 426.13,-160.95 426.13,-135.05 517.07,-116.74 645.67,-116.74 736.61,-135.05"/>
<text text-anchor="middle" x="581.37" y="-156.5" font-family="sans-serif" font-size="10.00">REJECTED / 已拒绝</text>
<text text-anchor="middle" x="581.37" y="-145.5" font-family="sans-serif" font-size="10.00">axi4.exclusive.orphan_write_response</text>
<text text-anchor="middle" x="581.37" y="-134.5" font-family="sans-serif" font-size="10.00">B has no matching AW context</text>
</g>
<!-- context&#45;&gt;fault -->
<g id="edge1" class="edge">
<title>context&#45;&gt;fault</title>
<path fill="none" stroke="#777777" stroke-dasharray="5,2" d="M158.66,-148C224.15,-148 327.75,-148 415.88,-148"/>
<polygon fill="#777777" stroke="#777777" points="416,-151.5 426,-148 416,-144.5 416,-151.5"/>
<text text-anchor="middle" x="305.5" y="-150.8" font-family="sans-serif" font-size="9.00">diagnostic context / 诊断上下文（非因果边）</text>
</g>
</g>
</svg>
