<?xml version="1.0" encoding="UTF-8" standalone="no"?>
<!DOCTYPE svg PUBLIC "-//W3C//DTD SVG 1.1//EN"
 "http://www.w3.org/Graphics/SVG/1.1/DTD/svg11.dtd">
<!-- Generated by graphviz version 2.43.0 (0)
 -->
<!-- Title: constraint_mutation Pages: 1 -->
<svg width="1164pt" height="89pt"
 viewBox="0.00 0.00 1163.62 89.17" xmlns="http://www.w3.org/2000/svg" xmlns:xlink="http://www.w3.org/1999/xlink">
<g id="graph0" class="graph" transform="scale(1 1) rotate(0) translate(4 85.17)">
<title>constraint_mutation</title>
<polygon fill="white" stroke="transparent" points="-4,4 -4,-85.17 1159.62,-85.17 1159.62,4 -4,4"/>
<text text-anchor="middle" x="577.81" y="-65.97" font-family="Times,serif" font-size="14.00">same_id_cannot_overtake</text>
<!-- n0 -->
<g id="node1" class="node">
<title>n0</title>
<path fill="#e2e8f0" stroke="black" d="M252,-48.08C252,-48.08 12,-48.08 12,-48.08 6,-48.08 0,-42.08 0,-36.08 0,-36.08 0,-22.08 0,-22.08 0,-16.08 6,-10.08 12,-10.08 12,-10.08 252,-10.08 252,-10.08 258,-10.08 264,-16.08 264,-22.08 264,-22.08 264,-36.08 264,-36.08 264,-42.08 258,-48.08 252,-48.08"/>
<text text-anchor="middle" x="132" y="-32.88" font-family="monospace" font-size="14.00">AR_TRANSFER id=1</text>
<text text-anchor="middle" x="132" y="-17.88" font-family="monospace" font-size="14.00">addr=8448 len=1 size=2 cache=0</text>
</g>
<!-- n1 -->
<g id="node2" class="node">
<title>n1</title>
<path fill="#e2e8f0" stroke="black" d="M552,-48.08C552,-48.08 312,-48.08 312,-48.08 306,-48.08 300,-42.08 300,-36.08 300,-36.08 300,-22.08 300,-22.08 300,-16.08 306,-10.08 312,-10.08 312,-10.08 552,-10.08 552,-10.08 558,-10.08 564,-16.08 564,-22.08 564,-22.08 564,-36.08 564,-36.08 564,-42.08 558,-48.08 552,-48.08"/>
<text text-anchor="middle" x="432" y="-32.88" font-family="monospace" font-size="14.00">AR_TRANSFER id=1</text>
<text text-anchor="middle" x="432" y="-17.88" font-family="monospace" font-size="14.00">addr=8448 len=0 size=2 cache=0</text>
</g>
<!-- n0&#45;&gt;n1 -->
<g id="edge1" class="edge">
<title>n0&#45;&gt;n1</title>
<path fill="none" stroke="black" d="M264.14,-29.08C272.67,-29.08 281.28,-29.08 289.85,-29.08"/>
<polygon fill="black" stroke="black" points="289.9,-32.58 299.9,-29.08 289.9,-25.58 289.9,-32.58"/>
</g>
<!-- n2 -->
<g id="node3" class="node">
<title>n2</title>
<path fill="#e2e8f0" stroke="black" d="M728,-48.08C728,-48.08 612,-48.08 612,-48.08 606,-48.08 600,-42.08 600,-36.08 600,-36.08 600,-22.08 600,-22.08 600,-16.08 606,-10.08 612,-10.08 612,-10.08 728,-10.08 728,-10.08 734,-10.08 740,-16.08 740,-22.08 740,-22.08 740,-36.08 740,-36.08 740,-42.08 734,-48.08 728,-48.08"/>
<text text-anchor="middle" x="670" y="-32.88" font-family="monospace" font-size="14.00">R_TRANSFER id=1</text>
<text text-anchor="middle" x="670" y="-17.88" font-family="monospace" font-size="14.00">last=True</text>
</g>
<!-- n1&#45;&gt;n2 -->
<g id="edge2" class="edge">
<title>n1&#45;&gt;n2</title>
<path fill="none" stroke="black" d="M564.11,-29.08C572.86,-29.08 581.51,-29.08 589.87,-29.08"/>
<polygon fill="black" stroke="black" points="589.91,-32.58 599.91,-29.08 589.91,-25.58 589.91,-32.58"/>
</g>
<!-- fault -->
<g id="node4" class="node">
<title>fault</title>
<path fill="#fecaca" stroke="black" d="M1155.43,-25.06C1155.43,-25.06 1155.43,-33.11 1155.43,-33.11 1155.43,-37.14 1151.45,-41.78 1147.47,-42.39 1147.47,-42.39 1052.32,-57.03 1052.32,-57.03 1048.34,-57.64 1040.33,-58.25 1036.3,-58.25 1036.3,-58.25 895.32,-58.25 895.32,-58.25 891.29,-58.25 883.29,-57.64 879.31,-57.03 879.31,-57.03 784.15,-42.39 784.15,-42.39 780.17,-41.78 776.19,-37.14 776.19,-33.11 776.19,-33.11 776.19,-25.06 776.19,-25.06 776.19,-21.03 780.17,-16.39 784.15,-15.78 784.15,-15.78 879.31,-1.14 879.31,-1.14 883.29,-0.53 891.29,0.08 895.32,0.08 895.32,0.08 1036.3,0.08 1036.3,0.08 1040.33,0.08 1048.34,-0.53 1052.32,-1.14 1052.32,-1.14 1147.47,-15.78 1147.47,-15.78 1151.45,-16.39 1155.43,-21.03 1155.43,-25.06"/>
<text text-anchor="middle" x="965.81" y="-32.88" font-family="monospace" font-size="14.00">FAULT</text>
<text text-anchor="middle" x="965.81" y="-17.88" font-family="monospace" font-size="14.00">axi4.read_beats.final_marker</text>
</g>
<!-- n2&#45;&gt;fault -->
<g id="edge3" class="edge">
<title>n2&#45;&gt;fault</title>
<path fill="none" stroke="#dc2626" stroke-width="2" d="M740.26,-29.08C748.39,-29.08 756.97,-29.08 765.85,-29.08"/>
<polygon fill="#dc2626" stroke="#dc2626" stroke-width="2" points="765.98,-32.58 775.98,-29.08 765.98,-25.58 765.98,-32.58"/>
</g>
</g>
</svg>
