<?xml version="1.0" encoding="UTF-8" standalone="no"?>
<!DOCTYPE svg PUBLIC "-//W3C//DTD SVG 1.1//EN"
 "http://www.w3.org/Graphics/SVG/1.1/DTD/svg11.dtd">
<!-- Generated by graphviz version 2.43.0 (0)
 -->
<!-- Title: apb_trace Pages: 1 -->
<svg width="679pt" height="363pt"
 viewBox="0.00 0.00 679.00 363.00" xmlns="http://www.w3.org/2000/svg" xmlns:xlink="http://www.w3.org/1999/xlink">
<g id="graph0" class="graph" transform="scale(1 1) rotate(0) translate(4 359)">
<title>apb_trace</title>
<polygon fill="white" stroke="transparent" points="-4,4 -4,-359 675,-359 675,4 -4,4"/>
<text text-anchor="middle" x="335.5" y="-339.8" font-family="Times,serif" font-size="14.00">APB4 legal sample flow</text>
<!-- s0 -->
<g id="node1" class="node">
<title>s0</title>
<path fill="#e2e8f0" stroke="black" d="M195,-332C195,-332 128,-332 128,-332 122,-332 116,-326 116,-320 116,-320 116,-291 116,-291 116,-285 122,-279 128,-279 128,-279 195,-279 195,-279 201,-279 207,-285 207,-291 207,-291 207,-320 207,-320 207,-326 201,-332 195,-332"/>
<text text-anchor="middle" x="161.5" y="-316.8" font-family="monospace" font-size="14.00">cycle 0</text>
<text text-anchor="middle" x="161.5" y="-301.8" font-family="monospace" font-size="14.00">RESET</text>
<text text-anchor="middle" x="161.5" y="-286.8" font-family="monospace" font-size="14.00">PADDR=0x0</text>
</g>
<!-- s1 -->
<g id="node2" class="node">
<title>s1</title>
<path fill="#e2e8f0" stroke="black" d="M311,-332C311,-332 244,-332 244,-332 238,-332 232,-326 232,-320 232,-320 232,-291 232,-291 232,-285 238,-279 244,-279 244,-279 311,-279 311,-279 317,-279 323,-285 323,-291 323,-291 323,-320 323,-320 323,-326 317,-332 311,-332"/>
<text text-anchor="middle" x="277.5" y="-316.8" font-family="monospace" font-size="14.00">cycle 1</text>
<text text-anchor="middle" x="277.5" y="-301.8" font-family="monospace" font-size="14.00">IDLE</text>
<text text-anchor="middle" x="277.5" y="-286.8" font-family="monospace" font-size="14.00">PADDR=0x0</text>
</g>
<!-- s0&#45;&gt;s1 -->
<g id="edge1" class="edge">
<title>s0&#45;&gt;s1</title>
<path fill="none" stroke="#94a3b8" d="M200.06,-279.08C200.13,-279.03 200.17,-279 200.17,-279 200.17,-279 217.22,-279 228.71,-279.02"/>
<polygon fill="#94a3b8" stroke="#94a3b8" points="228.93,-282.52 238.94,-279.08 228.96,-275.52 228.93,-282.52"/>
</g>
<!-- s0&#45;&gt;s1 -->
<!-- s2 -->
<g id="node3" class="node">
<title>s2</title>
<path fill="#e2e8f0" stroke="black" d="M485,-332C485,-332 360,-332 360,-332 354,-332 348,-326 348,-320 348,-320 348,-291 348,-291 348,-285 354,-279 360,-279 360,-279 485,-279 485,-279 491,-279 497,-285 497,-291 497,-291 497,-320 497,-320 497,-326 491,-332 485,-332"/>
<text text-anchor="middle" x="422.5" y="-316.8" font-family="monospace" font-size="14.00">cycle 2</text>
<text text-anchor="middle" x="422.5" y="-301.8" font-family="monospace" font-size="14.00">SETUP</text>
<text text-anchor="middle" x="422.5" y="-286.8" font-family="monospace" font-size="14.00">PADDR=0x41f60be0</text>
</g>
<!-- s1&#45;&gt;s2 -->
<g id="edge2" class="edge">
<title>s1&#45;&gt;s2</title>
<path fill="none" stroke="#94a3b8" d="M323.23,-280.42C324.88,-279.52 325.83,-279 325.83,-279 325.83,-279 349.73,-279 363.96,-279.03"/>
<polygon fill="#94a3b8" stroke="#94a3b8" points="364.29,-282.53 374.31,-279.08 364.32,-275.53 364.29,-282.53"/>
</g>
<!-- s1&#45;&gt;s2 -->
<!-- s3 -->
<g id="node4" class="node">
<title>s3</title>
<path fill="#e2e8f0" stroke="black" d="M659,-332C659,-332 534,-332 534,-332 528,-332 522,-326 522,-320 522,-320 522,-291 522,-291 522,-285 528,-279 534,-279 534,-279 659,-279 659,-279 665,-279 671,-285 671,-291 671,-291 671,-320 671,-320 671,-326 665,-332 659,-332"/>
<text text-anchor="middle" x="596.5" y="-316.8" font-family="monospace" font-size="14.00">cycle 3</text>
<text text-anchor="middle" x="596.5" y="-301.8" font-family="monospace" font-size="14.00">WAIT</text>
<text text-anchor="middle" x="596.5" y="-286.8" font-family="monospace" font-size="14.00">PADDR=0x41f60be0</text>
</g>
<!-- s2&#45;&gt;s3 -->
<g id="edge3" class="edge">
<title>s2&#45;&gt;s3</title>
<path fill="none" stroke="#94a3b8" d="M480.33,-279.08C480.44,-279.03 480.5,-279 480.5,-279 480.5,-279 511.78,-279 528.46,-279.03"/>
<polygon fill="#94a3b8" stroke="#94a3b8" points="528.65,-282.53 538.67,-279.08 528.68,-275.53 528.65,-282.53"/>
</g>
<!-- s2&#45;&gt;s3 -->
<!-- s4 -->
<g id="node5" class="node">
<title>s4</title>
<path fill="#e2e8f0" stroke="black" d="M659,-239C659,-239 534,-239 534,-239 528,-239 522,-233 522,-227 522,-227 522,-198 522,-198 522,-192 528,-186 534,-186 534,-186 659,-186 659,-186 665,-186 671,-192 671,-198 671,-198 671,-227 671,-227 671,-233 665,-239 659,-239"/>
<text text-anchor="middle" x="596.5" y="-223.8" font-family="monospace" font-size="14.00">cycle 4</text>
<text text-anchor="middle" x="596.5" y="-208.8" font-family="monospace" font-size="14.00">WAIT</text>
<text text-anchor="middle" x="596.5" y="-193.8" font-family="monospace" font-size="14.00">PADDR=0x41f60be0</text>
</g>
<!-- s3&#45;&gt;s4 -->
<g id="edge4" class="edge">
<title>s3&#45;&gt;s4</title>
<path fill="none" stroke="#94a3b8" d="M596.5,-278.67C596.5,-269.56 596.5,-259.15 596.5,-249.37"/>
<polygon fill="#94a3b8" stroke="#94a3b8" points="600,-249.08 596.5,-239.08 593,-249.08 600,-249.08"/>
</g>
<!-- s5 -->
<g id="node6" class="node">
<title>s5</title>
<path fill="#e2e8f0" stroke="black" d="M485,-239C485,-239 360,-239 360,-239 354,-239 348,-233 348,-227 348,-227 348,-198 348,-198 348,-192 354,-186 360,-186 360,-186 485,-186 485,-186 491,-186 497,-192 497,-198 497,-198 497,-227 497,-227 497,-233 491,-239 485,-239"/>
<text text-anchor="middle" x="422.5" y="-223.8" font-family="monospace" font-size="14.00">cycle 5</text>
<text text-anchor="middle" x="422.5" y="-208.8" font-family="monospace" font-size="14.00">COMPLETE</text>
<text text-anchor="middle" x="422.5" y="-193.8" font-family="monospace" font-size="14.00">PADDR=0x41f60be0</text>
</g>
<!-- s4&#45;&gt;s5 -->
<g id="edge5" class="edge">
<title>s4&#45;&gt;s5</title>
<path fill="none" stroke="#94a3b8" d="M538.67,-186.08C538.56,-186.03 538.5,-186 538.5,-186 538.5,-186 507.22,-186 490.54,-186.03"/>
<polygon fill="#94a3b8" stroke="#94a3b8" points="490.32,-182.53 480.33,-186.08 490.35,-189.53 490.32,-182.53"/>
</g>
<!-- s5&#45;&gt;s4 -->
<!-- s6 -->
<g id="node7" class="node">
<title>s6</title>
<path fill="#e2e8f0" stroke="black" d="M311,-239C311,-239 186,-239 186,-239 180,-239 174,-233 174,-227 174,-227 174,-198 174,-198 174,-192 180,-186 186,-186 186,-186 311,-186 311,-186 317,-186 323,-192 323,-198 323,-198 323,-227 323,-227 323,-233 317,-239 311,-239"/>
<text text-anchor="middle" x="248.5" y="-223.8" font-family="monospace" font-size="14.00">cycle 6</text>
<text text-anchor="middle" x="248.5" y="-208.8" font-family="monospace" font-size="14.00">SETUP</text>
<text text-anchor="middle" x="248.5" y="-193.8" font-family="monospace" font-size="14.00">PADDR=0x1e22010b</text>
</g>
<!-- s5&#45;&gt;s6 -->
<g id="edge6" class="edge">
<title>s5&#45;&gt;s6</title>
<path fill="none" stroke="#94a3b8" d="M364.67,-186.08C364.56,-186.03 364.5,-186 364.5,-186 364.5,-186 333.22,-186 316.54,-186.03"/>
<polygon fill="#94a3b8" stroke="#94a3b8" points="316.32,-182.53 306.33,-186.08 316.35,-189.53 316.32,-182.53"/>
</g>
<!-- s6&#45;&gt;s5 -->
<!-- s7 -->
<g id="node8" class="node">
<title>s7</title>
<path fill="#e2e8f0" stroke="black" d="M137,-239C137,-239 12,-239 12,-239 6,-239 0,-233 0,-227 0,-227 0,-198 0,-198 0,-192 6,-186 12,-186 12,-186 137,-186 137,-186 143,-186 149,-192 149,-198 149,-198 149,-227 149,-227 149,-233 143,-239 137,-239"/>
<text text-anchor="middle" x="74.5" y="-223.8" font-family="monospace" font-size="14.00">cycle 7</text>
<text text-anchor="middle" x="74.5" y="-208.8" font-family="monospace" font-size="14.00">COMPLETE</text>
<text text-anchor="middle" x="74.5" y="-193.8" font-family="monospace" font-size="14.00">PADDR=0x1e22010b</text>
</g>
<!-- s6&#45;&gt;s7 -->
<g id="edge7" class="edge">
<title>s6&#45;&gt;s7</title>
<path fill="none" stroke="#94a3b8" d="M190.67,-186.08C190.56,-186.03 190.5,-186 190.5,-186 190.5,-186 159.22,-186 142.54,-186.03"/>
<polygon fill="#94a3b8" stroke="#94a3b8" points="142.32,-182.53 132.33,-186.08 142.35,-189.53 142.32,-182.53"/>
</g>
<!-- s7&#45;&gt;s6 -->
<!-- s8 -->
<g id="node9" class="node">
<title>s8</title>
<path fill="#e2e8f0" stroke="black" d="M137,-146C137,-146 12,-146 12,-146 6,-146 0,-140 0,-134 0,-134 0,-105 0,-105 0,-99 6,-93 12,-93 12,-93 137,-93 137,-93 143,-93 149,-99 149,-105 149,-105 149,-134 149,-134 149,-140 143,-146 137,-146"/>
<text text-anchor="middle" x="74.5" y="-130.8" font-family="monospace" font-size="14.00">cycle 8</text>
<text text-anchor="middle" x="74.5" y="-115.8" font-family="monospace" font-size="14.00">SETUP</text>
<text text-anchor="middle" x="74.5" y="-100.8" font-family="monospace" font-size="14.00">PADDR=0x45869e99</text>
</g>
<!-- s7&#45;&gt;s8 -->
<g id="edge8" class="edge">
<title>s7&#45;&gt;s8</title>
<path fill="none" stroke="#94a3b8" d="M74.5,-185.67C74.5,-176.56 74.5,-166.15 74.5,-156.37"/>
<polygon fill="#94a3b8" stroke="#94a3b8" points="78,-156.08 74.5,-146.08 71,-156.08 78,-156.08"/>
</g>
<!-- s9 -->
<g id="node10" class="node">
<title>s9</title>
<path fill="#e2e8f0" stroke="black" d="M311,-146C311,-146 186,-146 186,-146 180,-146 174,-140 174,-134 174,-134 174,-105 174,-105 174,-99 180,-93 186,-93 186,-93 311,-93 311,-93 317,-93 323,-99 323,-105 323,-105 323,-134 323,-134 323,-140 317,-146 311,-146"/>
<text text-anchor="middle" x="248.5" y="-130.8" font-family="monospace" font-size="14.00">cycle 9</text>
<text text-anchor="middle" x="248.5" y="-115.8" font-family="monospace" font-size="14.00">WAIT</text>
<text text-anchor="middle" x="248.5" y="-100.8" font-family="monospace" font-size="14.00">PADDR=0x45869e99</text>
</g>
<!-- s8&#45;&gt;s9 -->
<g id="edge9" class="edge">
<title>s8&#45;&gt;s9</title>
<path fill="none" stroke="#94a3b8" d="M132.33,-93.08C132.44,-93.03 132.5,-93 132.5,-93 132.5,-93 163.78,-93 180.46,-93.03"/>
<polygon fill="#94a3b8" stroke="#94a3b8" points="180.65,-96.53 190.67,-93.08 180.68,-89.53 180.65,-96.53"/>
</g>
<!-- s8&#45;&gt;s9 -->
<!-- s10 -->
<g id="node11" class="node">
<title>s10</title>
<path fill="#e2e8f0" stroke="black" d="M485,-146C485,-146 360,-146 360,-146 354,-146 348,-140 348,-134 348,-134 348,-105 348,-105 348,-99 354,-93 360,-93 360,-93 485,-93 485,-93 491,-93 497,-99 497,-105 497,-105 497,-134 497,-134 497,-140 491,-146 485,-146"/>
<text text-anchor="middle" x="422.5" y="-130.8" font-family="monospace" font-size="14.00">cycle 10</text>
<text text-anchor="middle" x="422.5" y="-115.8" font-family="monospace" font-size="14.00">COMPLETE</text>
<text text-anchor="middle" x="422.5" y="-100.8" font-family="monospace" font-size="14.00">PADDR=0x45869e99</text>
</g>
<!-- s9&#45;&gt;s10 -->
<g id="edge10" class="edge">
<title>s9&#45;&gt;s10</title>
<path fill="none" stroke="#94a3b8" d="M306.33,-93.08C306.44,-93.03 306.5,-93 306.5,-93 306.5,-93 337.78,-93 354.46,-93.03"/>
<polygon fill="#94a3b8" stroke="#94a3b8" points="354.65,-96.53 364.67,-93.08 354.68,-89.53 354.65,-96.53"/>
</g>
<!-- s9&#45;&gt;s10 -->
<!-- s11 -->
<g id="node12" class="node">
<title>s11</title>
<path fill="#e2e8f0" stroke="black" d="M659,-146C659,-146 534,-146 534,-146 528,-146 522,-140 522,-134 522,-134 522,-105 522,-105 522,-99 528,-93 534,-93 534,-93 659,-93 659,-93 665,-93 671,-99 671,-105 671,-105 671,-134 671,-134 671,-140 665,-146 659,-146"/>
<text text-anchor="middle" x="596.5" y="-130.8" font-family="monospace" font-size="14.00">cycle 11</text>
<text text-anchor="middle" x="596.5" y="-115.8" font-family="monospace" font-size="14.00">SETUP</text>
<text text-anchor="middle" x="596.5" y="-100.8" font-family="monospace" font-size="14.00">PADDR=0x13300288</text>
</g>
<!-- s10&#45;&gt;s11 -->
<g id="edge11" class="edge">
<title>s10&#45;&gt;s11</title>
<path fill="none" stroke="#94a3b8" d="M480.33,-93.08C480.44,-93.03 480.5,-93 480.5,-93 480.5,-93 511.78,-93 528.46,-93.03"/>
<polygon fill="#94a3b8" stroke="#94a3b8" points="528.65,-96.53 538.67,-93.08 528.68,-89.53 528.65,-96.53"/>
</g>
<!-- s10&#45;&gt;s11 -->
<!-- s12 -->
<g id="node13" class="node">
<title>s12</title>
<path fill="#e2e8f0" stroke="black" d="M659,-53C659,-53 534,-53 534,-53 528,-53 522,-47 522,-41 522,-41 522,-12 522,-12 522,-6 528,0 534,0 534,0 659,0 659,0 665,0 671,-6 671,-12 671,-12 671,-41 671,-41 671,-47 665,-53 659,-53"/>
<text text-anchor="middle" x="596.5" y="-37.8" font-family="monospace" font-size="14.00">cycle 12</text>
<text text-anchor="middle" x="596.5" y="-22.8" font-family="monospace" font-size="14.00">WAIT</text>
<text text-anchor="middle" x="596.5" y="-7.8" font-family="monospace" font-size="14.00">PADDR=0x13300288</text>
</g>
<!-- s11&#45;&gt;s12 -->
<g id="edge12" class="edge">
<title>s11&#45;&gt;s12</title>
<path fill="none" stroke="#94a3b8" d="M596.5,-92.67C596.5,-83.56 596.5,-73.15 596.5,-63.37"/>
<polygon fill="#94a3b8" stroke="#94a3b8" points="600,-63.08 596.5,-53.08 593,-63.08 600,-63.08"/>
</g>
<!-- s13 -->
<g id="node14" class="node">
<title>s13</title>
<path fill="#e2e8f0" stroke="black" d="M485,-53C485,-53 360,-53 360,-53 354,-53 348,-47 348,-41 348,-41 348,-12 348,-12 348,-6 354,0 360,0 360,0 485,0 485,0 491,0 497,-6 497,-12 497,-12 497,-41 497,-41 497,-47 491,-53 485,-53"/>
<text text-anchor="middle" x="422.5" y="-37.8" font-family="monospace" font-size="14.00">cycle 13</text>
<text text-anchor="middle" x="422.5" y="-22.8" font-family="monospace" font-size="14.00">COMPLETE</text>
<text text-anchor="middle" x="422.5" y="-7.8" font-family="monospace" font-size="14.00">PADDR=0x13300288</text>
</g>
<!-- s12&#45;&gt;s13 -->
<g id="edge13" class="edge">
<title>s12&#45;&gt;s13</title>
<path fill="none" stroke="#94a3b8" d="M538.67,-0.08C538.56,-0.03 538.5,0 538.5,0 538.5,0 507.22,0 490.54,-0.03"/>
<polygon fill="#94a3b8" stroke="#94a3b8" points="490.32,3.47 480.33,-0.08 490.35,-3.53 490.32,3.47"/>
</g>
<!-- s13&#45;&gt;s12 -->
<!-- s14 -->
<g id="node15" class="node">
<title>s14</title>
<path fill="#e2e8f0" stroke="black" d="M311,-53C311,-53 244,-53 244,-53 238,-53 232,-47 232,-41 232,-41 232,-12 232,-12 232,-6 238,0 244,0 244,0 311,0 311,0 317,0 323,-6 323,-12 323,-12 323,-41 323,-41 323,-47 317,-53 311,-53"/>
<text text-anchor="middle" x="277.5" y="-37.8" font-family="monospace" font-size="14.00">cycle 14</text>
<text text-anchor="middle" x="277.5" y="-22.8" font-family="monospace" font-size="14.00">IDLE</text>
<text text-anchor="middle" x="277.5" y="-7.8" font-family="monospace" font-size="14.00">PADDR=0x0</text>
</g>
<!-- s13&#45;&gt;s14 -->
<g id="edge14" class="edge">
<title>s13&#45;&gt;s14</title>
<path fill="none" stroke="#94a3b8" d="M374.31,-0.08C374.21,-0.03 374.17,0 374.17,0 374.17,0 348.1,0 333.22,-0.56"/>
<polygon fill="#94a3b8" stroke="#94a3b8" points="332.9,2.92 323.23,-1.42 333.5,-4.05 332.9,2.92"/>
</g>
<!-- s14&#45;&gt;s13 -->
</g>
</svg>
