<?xml version="1.0" encoding="UTF-8" standalone="no"?>
<!DOCTYPE svg PUBLIC "-//W3C//DTD SVG 1.1//EN"
 "http://www.w3.org/Graphics/SVG/1.1/DTD/svg11.dtd">
<!-- Generated by graphviz version 2.43.0 (0)
 -->
<!-- Title: axi4_case Pages: 1 -->
<svg width="701pt" height="166pt"
 viewBox="0.00 0.00 701.25 166.18" xmlns="http://www.w3.org/2000/svg" xmlns:xlink="http://www.w3.org/1999/xlink">
<g id="graph0" class="graph" transform="scale(1 1) rotate(0) translate(14.4 151.78)">
<title>axi4_case</title>
<polygon fill="white" stroke="transparent" points="-14.4,14.4 -14.4,-151.78 686.85,-151.78 686.85,14.4 -14.4,14.4"/>
<text text-anchor="middle" x="336.22" y="-122.18" font-family="Times,serif" font-size="14.00">The final required W transfer asserts WLAST / 最后一拍必需的 W 传输必须置 WLAST</text>
<!-- event0 -->
<g id="node1" class="node">
<title>event0</title>
<path fill="#eef5ff" stroke="#3169a8" d="M173,-36C173,-36 12,-36 12,-36 6,-36 0,-30 0,-24 0,-24 0,-12 0,-12 0,-6 6,0 12,0 12,0 173,0 173,0 179,0 185,-6 185,-12 185,-12 185,-24 185,-24 185,-30 179,-36 173,-36"/>
<text text-anchor="middle" x="92.5" y="-15.5" font-family="sans-serif" font-size="10.00">[0] ID12 A=0x308 N=1 S=4B INCR</text>
</g>
<!-- context -->
<g id="node2" class="node">
<title>context</title>
<polygon fill="#f4f5f6" stroke="#7c8790" points="152.5,-101 26.5,-101 26.5,-65 158.5,-65 158.5,-95 152.5,-101"/>
<polyline fill="none" stroke="#7c8790" points="152.5,-101 152.5,-95 "/>
<polyline fill="none" stroke="#7c8790" points="158.5,-95 152.5,-95 "/>
<text text-anchor="middle" x="92.5" y="-86" font-family="sans-serif" font-size="10.00">rejected input / 被拒输入</text>
<text text-anchor="middle" x="92.5" y="-75" font-family="sans-serif" font-size="10.00">D=0x0 S=0xf L=0</text>
</g>
<!-- fault -->
<g id="node3" class="node">
<title>fault</title>
<polygon fill="#ffe9e7" stroke="#b33a2b" points="672.67,-70.05 672.67,-95.95 600.36,-114.26 498.09,-114.26 425.78,-95.95 425.78,-70.05 498.09,-51.74 600.36,-51.74 672.67,-70.05"/>
<text text-anchor="middle" x="549.22" y="-91.5" font-family="sans-serif" font-size="10.00">REJECTED / 已拒绝</text>
<text text-anchor="middle" x="549.22" y="-80.5" font-family="sans-serif" font-size="10.00">axi4.write.final_marker</text>
<text text-anchor="middle" x="549.22" y="-69.5" font-family="sans-serif" font-size="10.00">W beat 1/1 requires last=True</text>
</g>
<!-- context&#45;&gt;fault -->
<g id="edge1" class="edge">
<title>context&#45;&gt;fault</title>
<path fill="none" stroke="#777777" stroke-dasharray="5,2" d="M158.65,-83C225.43,-83 331.18,-83 415.66,-83"/>
<polygon fill="#777777" stroke="#777777" points="415.85,-86.5 425.85,-83 415.85,-79.5 415.85,-86.5"/>
<text text-anchor="middle" x="305.5" y="-85.8" font-family="sans-serif" font-size="9.00">diagnostic context / 诊断上下文（非因果边）</text>
</g>
</g>
</svg>
