<?xml version="1.0" encoding="UTF-8" standalone="no"?>
<!DOCTYPE svg PUBLIC "-//W3C//DTD SVG 1.1//EN"
 "http://www.w3.org/Graphics/SVG/1.1/DTD/svg11.dtd">
<!-- Generated by graphviz version 2.43.0 (0)
 -->
<!-- Title: axi4_case Pages: 1 -->
<svg width="688pt" height="291pt"
 viewBox="0.00 0.00 687.80 290.80" xmlns="http://www.w3.org/2000/svg" xmlns:xlink="http://www.w3.org/1999/xlink">
<g id="graph0" class="graph" transform="scale(1 1) rotate(0) translate(14.4 276.4)">
<title>axi4_case</title>
<polygon fill="white" stroke="transparent" points="-14.4,14.4 -14.4,-276.4 673.4,-276.4 673.4,14.4 -14.4,14.4"/>
<text text-anchor="middle" x="329.5" y="-246.8" font-family="Times,serif" font-size="14.00">Different write IDs may complete in reverse request order / 不同写 ID 可以按请求的逆序完成</text>
<!-- event0 -->
<g id="node1" class="node">
<title>event0</title>
<path fill="#eef5ff" stroke="#3169a8" d="M314.5,-101C314.5,-101 153.5,-101 153.5,-101 147.5,-101 141.5,-95 141.5,-89 141.5,-89 141.5,-77 141.5,-77 141.5,-71 147.5,-65 153.5,-65 153.5,-65 314.5,-65 314.5,-65 320.5,-65 326.5,-71 326.5,-77 326.5,-77 326.5,-89 326.5,-89 326.5,-95 320.5,-101 314.5,-101"/>
<text text-anchor="middle" x="234" y="-80.5" font-family="sans-serif" font-size="10.00">[0] ID14 A=0xe00 N=1 S=4B INCR</text>
</g>
<!-- event5 -->
<g id="node6" class="node">
<title>event5</title>
<path fill="#eef5ff" stroke="#3169a8" d="M505.5,-93C505.5,-93 444.5,-93 444.5,-93 438.5,-93 432.5,-87 432.5,-81 432.5,-81 432.5,-69 432.5,-69 432.5,-63 438.5,-57 444.5,-57 444.5,-57 505.5,-57 505.5,-57 511.5,-57 517.5,-63 517.5,-69 517.5,-69 517.5,-81 517.5,-81 517.5,-87 511.5,-93 505.5,-93"/>
<text text-anchor="middle" x="475" y="-72.5" font-family="sans-serif" font-size="10.00">[5] ID14 OKAY</text>
</g>
<!-- event0&#45;&gt;event5 -->
<g id="edge3" class="edge">
<title>event0&#45;&gt;event5</title>
<path fill="none" stroke="#3169a8" d="M326.72,-79.93C359.05,-78.85 394.26,-77.67 422.14,-76.74"/>
<polygon fill="#3169a8" stroke="#3169a8" points="422.57,-80.22 432.45,-76.39 422.33,-73.23 422.57,-80.22"/>
<text text-anchor="middle" x="379.5" y="-81.8" font-family="sans-serif" font-size="9.00">causes / 因果</text>
</g>
<!-- event1 -->
<g id="node2" class="node">
<title>event1</title>
<path fill="#eef5ff" stroke="#3169a8" d="M314.5,-239C314.5,-239 153.5,-239 153.5,-239 147.5,-239 141.5,-233 141.5,-227 141.5,-227 141.5,-215 141.5,-215 141.5,-209 147.5,-203 153.5,-203 153.5,-203 314.5,-203 314.5,-203 320.5,-203 326.5,-209 326.5,-215 326.5,-215 326.5,-227 326.5,-227 326.5,-233 320.5,-239 314.5,-239"/>
<text text-anchor="middle" x="234" y="-218.5" font-family="sans-serif" font-size="10.00">[1] ID15 A=0xe08 N=1 S=4B INCR</text>
</g>
<!-- event4 -->
<g id="node5" class="node">
<title>event4</title>
<path fill="#eef5ff" stroke="#3169a8" d="M505.5,-190C505.5,-190 444.5,-190 444.5,-190 438.5,-190 432.5,-184 432.5,-178 432.5,-178 432.5,-166 432.5,-166 432.5,-160 438.5,-154 444.5,-154 444.5,-154 505.5,-154 505.5,-154 511.5,-154 517.5,-160 517.5,-166 517.5,-166 517.5,-178 517.5,-178 517.5,-184 511.5,-190 505.5,-190"/>
<text text-anchor="middle" x="475" y="-169.5" font-family="sans-serif" font-size="10.00">[4] ID15 OKAY</text>
</g>
<!-- event1&#45;&gt;event4 -->
<g id="edge1" class="edge">
<title>event1&#45;&gt;event4</title>
<path fill="none" stroke="#3169a8" d="M322.98,-202.96C356.43,-196.1 393.44,-188.52 422.45,-182.57"/>
<polygon fill="#3169a8" stroke="#3169a8" points="423.26,-185.98 432.35,-180.54 421.85,-179.12 423.26,-185.98"/>
<text text-anchor="middle" x="379.5" y="-198.8" font-family="sans-serif" font-size="9.00">causes / 因果</text>
</g>
<!-- event2 -->
<g id="node3" class="node">
<title>event2</title>
<path fill="#eef5ff" stroke="#3169a8" d="M286,-36C286,-36 182,-36 182,-36 176,-36 170,-30 170,-24 170,-24 170,-12 170,-12 170,-6 176,0 182,0 182,0 286,0 286,0 292,0 298,-6 298,-12 298,-12 298,-24 298,-24 298,-30 292,-36 286,-36"/>
<text text-anchor="middle" x="234" y="-15.5" font-family="sans-serif" font-size="10.00">[2] D=0x14 S=0xf L=1</text>
</g>
<!-- event2&#45;&gt;event5 -->
<g id="edge4" class="edge">
<title>event2&#45;&gt;event5</title>
<path fill="none" stroke="#3169a8" d="M298.11,-33.05C336.92,-42.31 386.02,-54.02 422.48,-62.71"/>
<polygon fill="#3169a8" stroke="#3169a8" points="421.87,-66.16 432.41,-65.08 423.49,-59.36 421.87,-66.16"/>
<text text-anchor="middle" x="379.5" y="-61.8" font-family="sans-serif" font-size="9.00">causes / 因果</text>
</g>
<!-- event3 -->
<g id="node4" class="node">
<title>event3</title>
<path fill="#eef5ff" stroke="#3169a8" d="M286,-174C286,-174 182,-174 182,-174 176,-174 170,-168 170,-162 170,-162 170,-150 170,-150 170,-144 176,-138 182,-138 182,-138 286,-138 286,-138 292,-138 298,-144 298,-150 298,-150 298,-162 298,-162 298,-168 292,-174 286,-174"/>
<text text-anchor="middle" x="234" y="-153.5" font-family="sans-serif" font-size="10.00">[3] D=0x15 S=0xf L=1</text>
</g>
<!-- event3&#45;&gt;event4 -->
<g id="edge2" class="edge">
<title>event3&#45;&gt;event4</title>
<path fill="none" stroke="#3169a8" d="M298.11,-160.22C336.75,-162.81 385.6,-166.08 422.01,-168.52"/>
<polygon fill="#3169a8" stroke="#3169a8" points="422.19,-172.04 432.41,-169.22 422.66,-165.06 422.19,-172.04"/>
<text text-anchor="middle" x="379.5" y="-169.8" font-family="sans-serif" font-size="9.00">causes / 因果</text>
</g>
</g>
</svg>
