<?xml version="1.0" encoding="UTF-8" standalone="no"?>
<!DOCTYPE svg PUBLIC "-//W3C//DTD SVG 1.1//EN"
 "http://www.w3.org/Graphics/SVG/1.1/DTD/svg11.dtd">
<!-- Generated by graphviz version 2.43.0 (0)
 -->
<!-- Title: axi4_case Pages: 1 -->
<svg width="497pt" height="153pt"
 viewBox="0.00 0.00 496.80 152.80" xmlns="http://www.w3.org/2000/svg" xmlns:xlink="http://www.w3.org/1999/xlink">
<g id="graph0" class="graph" transform="scale(1 1) rotate(0) translate(14.4 138.4)">
<title>axi4_case</title>
<polygon fill="white" stroke="transparent" points="-14.4,14.4 -14.4,-138.4 482.4,-138.4 482.4,14.4 -14.4,14.4"/>
<text text-anchor="middle" x="234" y="-108.8" font-family="Times,serif" font-size="14.00">AW and W join before B completion / AW 与 W 关联后再由 B 完成</text>
<!-- event0 -->
<g id="node1" class="node">
<title>event0</title>
<path fill="#eef5ff" stroke="#3169a8" d="M219,-101C219,-101 64,-101 64,-101 58,-101 52,-95 52,-89 52,-89 52,-77 52,-77 52,-71 58,-65 64,-65 64,-65 219,-65 219,-65 225,-65 231,-71 231,-77 231,-77 231,-89 231,-89 231,-95 225,-101 219,-101"/>
<text text-anchor="middle" x="141.5" y="-80.5" font-family="sans-serif" font-size="10.00">[0] ID2 A=0x200 N=1 S=4B INCR</text>
</g>
<!-- event2 -->
<g id="node3" class="node">
<title>event2</title>
<path fill="#eef5ff" stroke="#3169a8" d="M404,-68C404,-68 349,-68 349,-68 343,-68 337,-62 337,-56 337,-56 337,-44 337,-44 337,-38 343,-32 349,-32 349,-32 404,-32 404,-32 410,-32 416,-38 416,-44 416,-44 416,-56 416,-56 416,-62 410,-68 404,-68"/>
<text text-anchor="middle" x="376.5" y="-47.5" font-family="sans-serif" font-size="10.00">[2] ID2 OKAY</text>
</g>
<!-- event0&#45;&gt;event2 -->
<g id="edge1" class="edge">
<title>event0&#45;&gt;event2</title>
<path fill="none" stroke="#3169a8" d="M231.25,-70.43C263.64,-65.84 299.06,-60.83 326.7,-56.91"/>
<polygon fill="#3169a8" stroke="#3169a8" points="327.48,-60.34 336.89,-55.47 326.5,-53.41 327.48,-60.34"/>
<text text-anchor="middle" x="284" y="-68.8" font-family="sans-serif" font-size="9.00">causes / 因果</text>
</g>
<!-- event1 -->
<g id="node2" class="node">
<title>event1</title>
<path fill="#eef5ff" stroke="#3169a8" d="M211,-36C211,-36 72,-36 72,-36 66,-36 60,-30 60,-24 60,-24 60,-12 60,-12 60,-6 66,0 72,0 72,0 211,0 211,0 217,0 223,-6 223,-12 223,-12 223,-24 223,-24 223,-30 217,-36 211,-36"/>
<text text-anchor="middle" x="141.5" y="-15.5" font-family="sans-serif" font-size="10.00">[1] D=0xaabbccdd S=0xf L=1</text>
</g>
<!-- event1&#45;&gt;event2 -->
<g id="edge2" class="edge">
<title>event1&#45;&gt;event2</title>
<path fill="none" stroke="#3169a8" d="M223.26,-27C267.33,-31.91 313,-37 313,-37 313,-37 318.87,-38.22 327.02,-39.92"/>
<polygon fill="#3169a8" stroke="#3169a8" points="326.48,-43.38 336.99,-41.99 327.91,-36.53 326.48,-43.38"/>
<text text-anchor="middle" x="284" y="-39.8" font-family="sans-serif" font-size="9.00">causes / 因果</text>
</g>
</g>
</svg>
