<?xml version="1.0" encoding="UTF-8" standalone="no"?>
<!DOCTYPE svg PUBLIC "-//W3C//DTD SVG 1.1//EN"
 "http://www.w3.org/Graphics/SVG/1.1/DTD/svg11.dtd">
<!-- Generated by graphviz version 2.43.0 (0)
 -->
<!-- Title: axi_scenario Pages: 1 -->
<svg width="818pt" height="205pt"
 viewBox="0.00 0.00 817.57 205.13" xmlns="http://www.w3.org/2000/svg" xmlns:xlink="http://www.w3.org/1999/xlink">
<g id="graph0" class="graph" transform="scale(1 1) rotate(0) translate(4 201.13)">
<title>axi_scenario</title>
<polygon fill="white" stroke="transparent" points="-4,4 -4,-201.13 813.57,-201.13 813.57,4 -4,4"/>
<text text-anchor="middle" x="404.78" y="-181.93" font-family="Times,serif" font-size="14.00">write_missing_wlast</text>
<!-- n0 -->
<g id="node1" class="node">
<title>n0</title>
<path fill="#fef3c7" stroke="black" d="M285,-174.13C285,-174.13 12,-174.13 12,-174.13 6,-174.13 0,-168.13 0,-162.13 0,-162.13 0,-133.13 0,-133.13 0,-127.13 6,-121.13 12,-121.13 12,-121.13 285,-121.13 285,-121.13 291,-121.13 297,-127.13 297,-133.13 297,-133.13 297,-162.13 297,-162.13 297,-168.13 291,-174.13 285,-174.13"/>
<text text-anchor="middle" x="148.5" y="-158.93" font-family="monospace" font-size="14.00">cycle 1 AW</text>
<text text-anchor="middle" x="148.5" y="-143.93" font-family="monospace" font-size="14.00">AW_TRANSFER id=1</text>
<text text-anchor="middle" x="148.5" y="-128.93" font-family="monospace" font-size="14.00">addr=33536 len=1 size=3 burst=INCR</text>
</g>
<!-- n1 -->
<g id="node2" class="node">
<title>n1</title>
<path fill="#fef3c7" stroke="black" d="M475,-174.13C475,-174.13 334,-174.13 334,-174.13 328,-174.13 322,-168.13 322,-162.13 322,-162.13 322,-133.13 322,-133.13 322,-127.13 328,-121.13 334,-121.13 334,-121.13 475,-121.13 475,-121.13 481,-121.13 487,-127.13 487,-133.13 487,-133.13 487,-162.13 487,-162.13 487,-168.13 481,-174.13 475,-174.13"/>
<text text-anchor="middle" x="404.5" y="-158.93" font-family="monospace" font-size="14.00">cycle 2 W</text>
<text text-anchor="middle" x="404.5" y="-143.93" font-family="monospace" font-size="14.00">W_TRANSFER id=None</text>
<text text-anchor="middle" x="404.5" y="-128.93" font-family="monospace" font-size="14.00">last=False</text>
</g>
<!-- n0&#45;&gt;n1 -->
<g id="edge1" class="edge">
<title>n0&#45;&gt;n1</title>
<path fill="none" stroke="#94a3b8" d="M233.77,-121.15C233.81,-121.14 233.83,-121.13 233.83,-121.13 233.83,-121.13 288.55,-121.13 311.62,-121.52"/>
<polygon fill="#94a3b8" stroke="#94a3b8" points="311.51,-125.02 321.63,-121.89 311.77,-118.02 311.51,-125.02"/>
</g>
<!-- n0&#45;&gt;n1 -->
<!-- n2 -->
<g id="node3" class="node">
<title>n2</title>
<path fill="#fef3c7" stroke="black" d="M665,-174.13C665,-174.13 524,-174.13 524,-174.13 518,-174.13 512,-168.13 512,-162.13 512,-162.13 512,-133.13 512,-133.13 512,-127.13 518,-121.13 524,-121.13 524,-121.13 665,-121.13 665,-121.13 671,-121.13 677,-127.13 677,-133.13 677,-133.13 677,-162.13 677,-162.13 677,-168.13 671,-174.13 665,-174.13"/>
<text text-anchor="middle" x="594.5" y="-158.93" font-family="monospace" font-size="14.00">cycle 3 W</text>
<text text-anchor="middle" x="594.5" y="-143.93" font-family="monospace" font-size="14.00">W_TRANSFER id=None</text>
<text text-anchor="middle" x="594.5" y="-128.93" font-family="monospace" font-size="14.00">last=False</text>
</g>
<!-- n1&#45;&gt;n2 -->
<g id="edge2" class="edge">
<title>n1&#45;&gt;n2</title>
<path fill="none" stroke="#94a3b8" d="M467.79,-121.15C467.82,-121.14 467.83,-121.13 467.83,-121.13 467.83,-121.13 503.09,-121.13 521.01,-121.14"/>
<polygon fill="#94a3b8" stroke="#94a3b8" points="521.21,-124.64 531.21,-121.15 521.22,-117.64 521.21,-124.64"/>
</g>
<!-- n1&#45;&gt;n2 -->
<!-- fault -->
<g id="node4" class="node">
<title>fault</title>
<path fill="#fecaca" stroke="black" d="M809.64,-34.95C809.64,-34.95 809.64,-46.17 809.64,-46.17 809.64,-51.78 804.12,-58.43 798.61,-59.48 798.61,-59.48 694.64,-79.11 694.64,-79.11 689.12,-80.15 678,-81.19 672.39,-81.19 672.39,-81.19 516.61,-81.19 516.61,-81.19 511,-81.19 499.88,-80.15 494.36,-79.11 494.36,-79.11 390.39,-59.48 390.39,-59.48 384.88,-58.43 379.36,-51.78 379.36,-46.17 379.36,-46.17 379.36,-34.95 379.36,-34.95 379.36,-29.35 384.88,-22.69 390.39,-21.65 390.39,-21.65 494.36,-2.02 494.36,-2.02 499.88,-0.98 511,0.06 516.61,0.06 516.61,0.06 672.39,0.06 672.39,0.06 678,0.06 689.12,-0.98 694.64,-2.02 694.64,-2.02 798.61,-21.65 798.61,-21.65 804.12,-22.69 809.64,-29.35 809.64,-34.95"/>
<text text-anchor="middle" x="594.5" y="-51.86" font-family="monospace" font-size="14.00">FAULT</text>
<text text-anchor="middle" x="594.5" y="-36.86" font-family="monospace" font-size="14.00">axi4.write.missing_final</text>
<text text-anchor="middle" x="594.5" y="-21.86" font-family="monospace" font-size="14.00">data beat 2/2 requires last=True</text>
</g>
<!-- n2&#45;&gt;fault -->
<g id="edge5" class="edge">
<title>n2&#45;&gt;fault</title>
<path fill="none" stroke="#dc2626" stroke-width="2" d="M594.5,-120.93C594.5,-112 594.5,-101.65 594.5,-91.44"/>
<polygon fill="#dc2626" stroke="#dc2626" stroke-width="2" points="598,-91.33 594.5,-81.33 591,-91.33 598,-91.33"/>
</g>
</g>
</svg>
