<?xml version="1.0" encoding="UTF-8" standalone="no"?>
<!DOCTYPE svg PUBLIC "-//W3C//DTD SVG 1.1//EN"
 "http://www.w3.org/Graphics/SVG/1.1/DTD/svg11.dtd">
<!-- Generated by graphviz version 2.43.0 (0)
 -->
<!-- Title: axi_scenario Pages: 1 -->
<svg width="927pt" height="253pt"
 viewBox="0.00 0.00 926.50 253.00" xmlns="http://www.w3.org/2000/svg" xmlns:xlink="http://www.w3.org/1999/xlink">
<g id="graph0" class="graph" transform="scale(1 1) rotate(0) translate(4 249)">
<title>axi_scenario</title>
<polygon fill="white" stroke="transparent" points="-4,4 -4,-249 922.5,-249 922.5,4 -4,4"/>
<text text-anchor="middle" x="459.25" y="-229.8" font-family="Times,serif" font-size="14.00">read_wrap_4</text>
<!-- n0 -->
<g id="node1" class="node">
<title>n0</title>
<path fill="#fef3c7" stroke="black" d="M285,-222C285,-222 12,-222 12,-222 6,-222 0,-216 0,-210 0,-210 0,-181 0,-181 0,-175 6,-169 12,-169 12,-169 285,-169 285,-169 291,-169 297,-175 297,-181 297,-181 297,-210 297,-210 297,-216 291,-222 285,-222"/>
<text text-anchor="middle" x="148.5" y="-206.8" font-family="monospace" font-size="14.00">cycle 1 AR</text>
<text text-anchor="middle" x="148.5" y="-191.8" font-family="monospace" font-size="14.00">AR_TRANSFER id=1</text>
<text text-anchor="middle" x="148.5" y="-176.8" font-family="monospace" font-size="14.00">addr=16416 len=3 size=3 burst=WRAP</text>
</g>
<!-- n1 -->
<g id="node2" class="node">
<title>n1</title>
<path fill="#dcfce7" stroke="black" d="M492.5,-222C492.5,-222 334.5,-222 334.5,-222 328.5,-222 322.5,-216 322.5,-210 322.5,-210 322.5,-181 322.5,-181 322.5,-175 328.5,-169 334.5,-169 334.5,-169 492.5,-169 492.5,-169 498.5,-169 504.5,-175 504.5,-181 504.5,-181 504.5,-210 504.5,-210 504.5,-216 498.5,-222 492.5,-222"/>
<text text-anchor="middle" x="413.5" y="-206.8" font-family="monospace" font-size="14.00">cycle 2 R</text>
<text text-anchor="middle" x="413.5" y="-191.8" font-family="monospace" font-size="14.00">R_TRANSFER id=1</text>
<text text-anchor="middle" x="413.5" y="-176.8" font-family="monospace" font-size="14.00">resp=OKAY last=False</text>
</g>
<!-- n0&#45;&gt;n1 -->
<g id="edge1" class="edge">
<title>n0&#45;&gt;n1</title>
<path fill="none" stroke="#94a3b8" d="M236.77,-169.02C236.81,-169.01 236.83,-169 236.83,-169 236.83,-169 291.83,-169 315.07,-169.01"/>
<polygon fill="#94a3b8" stroke="#94a3b8" points="315.23,-172.51 325.23,-169.02 315.23,-165.51 315.23,-172.51"/>
</g>
<!-- n0&#45;&gt;n1 -->
<!-- n0&#45;&gt;n1 -->
<g id="edge8" class="edge">
<title>n0&#45;&gt;n1</title>
<path fill="none" stroke="#2563eb" stroke-width="2" d="M236.77,-221.98C236.81,-221.99 236.83,-222 236.83,-222 236.83,-222 291.83,-222 315.07,-221.99"/>
<polygon fill="#2563eb" stroke="#2563eb" stroke-width="2" points="315.23,-225.49 325.23,-221.98 315.23,-218.49 315.23,-225.49"/>
</g>
<!-- n2 -->
<g id="node3" class="node">
<title>n2</title>
<path fill="#dcfce7" stroke="black" d="M699.5,-222C699.5,-222 541.5,-222 541.5,-222 535.5,-222 529.5,-216 529.5,-210 529.5,-210 529.5,-181 529.5,-181 529.5,-175 535.5,-169 541.5,-169 541.5,-169 699.5,-169 699.5,-169 705.5,-169 711.5,-175 711.5,-181 711.5,-181 711.5,-210 711.5,-210 711.5,-216 705.5,-222 699.5,-222"/>
<text text-anchor="middle" x="620.5" y="-206.8" font-family="monospace" font-size="14.00">cycle 3 R</text>
<text text-anchor="middle" x="620.5" y="-191.8" font-family="monospace" font-size="14.00">R_TRANSFER id=1</text>
<text text-anchor="middle" x="620.5" y="-176.8" font-family="monospace" font-size="14.00">resp=OKAY last=False</text>
</g>
<!-- n1&#45;&gt;n2 -->
<g id="edge2" class="edge">
<title>n1&#45;&gt;n2</title>
<path fill="none" stroke="#94a3b8" d="M482.45,-169.02C482.48,-169.01 482.5,-169 482.5,-169 482.5,-169 522.13,-169 541.34,-169.01"/>
<polygon fill="#94a3b8" stroke="#94a3b8" points="541.55,-172.51 551.55,-169.02 541.55,-165.51 541.55,-172.51"/>
</g>
<!-- n1&#45;&gt;n2 -->
<!-- n1&#45;&gt;n2 -->
<g id="edge9" class="edge">
<title>n1&#45;&gt;n2</title>
<path fill="none" stroke="#2563eb" stroke-width="2" d="M482.45,-221.98C482.48,-221.99 482.5,-222 482.5,-222 482.5,-222 522.13,-222 541.34,-221.99"/>
<polygon fill="#2563eb" stroke="#2563eb" stroke-width="2" points="541.55,-225.49 551.55,-221.98 541.55,-218.49 541.55,-225.49"/>
</g>
<!-- n3 -->
<g id="node4" class="node">
<title>n3</title>
<path fill="#dcfce7" stroke="black" d="M906.5,-222C906.5,-222 748.5,-222 748.5,-222 742.5,-222 736.5,-216 736.5,-210 736.5,-210 736.5,-181 736.5,-181 736.5,-175 742.5,-169 748.5,-169 748.5,-169 906.5,-169 906.5,-169 912.5,-169 918.5,-175 918.5,-181 918.5,-181 918.5,-210 918.5,-210 918.5,-216 912.5,-222 906.5,-222"/>
<text text-anchor="middle" x="827.5" y="-206.8" font-family="monospace" font-size="14.00">cycle 4 R</text>
<text text-anchor="middle" x="827.5" y="-191.8" font-family="monospace" font-size="14.00">R_TRANSFER id=1</text>
<text text-anchor="middle" x="827.5" y="-176.8" font-family="monospace" font-size="14.00">resp=OKAY last=False</text>
</g>
<!-- n2&#45;&gt;n3 -->
<g id="edge3" class="edge">
<title>n2&#45;&gt;n3</title>
<path fill="none" stroke="#94a3b8" d="M689.45,-169.02C689.48,-169.01 689.5,-169 689.5,-169 689.5,-169 729.13,-169 748.34,-169.01"/>
<polygon fill="#94a3b8" stroke="#94a3b8" points="748.55,-172.51 758.55,-169.02 748.55,-165.51 748.55,-172.51"/>
</g>
<!-- n2&#45;&gt;n3 -->
<!-- n2&#45;&gt;n3 -->
<g id="edge10" class="edge">
<title>n2&#45;&gt;n3</title>
<path fill="none" stroke="#2563eb" stroke-width="2" d="M689.45,-221.98C689.48,-221.99 689.5,-222 689.5,-222 689.5,-222 729.13,-222 748.34,-221.99"/>
<polygon fill="#2563eb" stroke="#2563eb" stroke-width="2" points="748.55,-225.49 758.55,-221.98 748.55,-218.49 748.55,-225.49"/>
</g>
<!-- n4 -->
<g id="node5" class="node">
<title>n4</title>
<path fill="#dcfce7" stroke="black" d="M902,-129C902,-129 753,-129 753,-129 747,-129 741,-123 741,-117 741,-117 741,-88 741,-88 741,-82 747,-76 753,-76 753,-76 902,-76 902,-76 908,-76 914,-82 914,-88 914,-88 914,-117 914,-117 914,-123 908,-129 902,-129"/>
<text text-anchor="middle" x="827.5" y="-113.8" font-family="monospace" font-size="14.00">cycle 5 R</text>
<text text-anchor="middle" x="827.5" y="-98.8" font-family="monospace" font-size="14.00">R_TRANSFER id=1</text>
<text text-anchor="middle" x="827.5" y="-83.8" font-family="monospace" font-size="14.00">resp=OKAY last=True</text>
</g>
<!-- n3&#45;&gt;n4 -->
<g id="edge4" class="edge">
<title>n3&#45;&gt;n4</title>
<path fill="none" stroke="#94a3b8" d="M819.29,-168.67C818.51,-159.56 818.31,-149.15 818.68,-139.37"/>
<polygon fill="#94a3b8" stroke="#94a3b8" points="822.19,-139.28 819.31,-129.08 815.21,-138.85 822.19,-139.28"/>
</g>
<!-- n3&#45;&gt;n4 -->
<g id="edge11" class="edge">
<title>n3&#45;&gt;n4</title>
<path fill="none" stroke="#2563eb" stroke-width="2" d="M836.39,-168.67C837.24,-159.56 837.46,-149.15 837.05,-139.37"/>
<polygon fill="#2563eb" stroke="#2563eb" stroke-width="2" points="840.53,-138.83 836.37,-129.08 833.54,-139.29 840.53,-138.83"/>
</g>
<!-- done -->
<g id="node6" class="node">
<title>done</title>
<path fill="#bbf7d0" stroke="black" d="M890,-36C890,-36 765,-36 765,-36 759,-36 753,-30 753,-24 753,-24 753,-12 753,-12 753,-6 759,0 765,0 765,0 890,0 890,0 896,0 902,-6 902,-12 902,-12 902,-24 902,-24 902,-30 896,-36 890,-36"/>
<text text-anchor="middle" x="827.5" y="-14.3" font-family="monospace" font-size="14.00">QUIESCENT / PASS</text>
</g>
<!-- n4&#45;&gt;done -->
<g id="edge12" class="edge">
<title>n4&#45;&gt;done</title>
<path fill="none" stroke="#16a34a" stroke-width="2" d="M827.5,-75.85C827.5,-66.5 827.5,-55.9 827.5,-46.41"/>
<polygon fill="#16a34a" stroke="#16a34a" stroke-width="2" points="831,-46.28 827.5,-36.28 824,-46.28 831,-46.28"/>
</g>
</g>
</svg>
