<?xml version="1.0" encoding="UTF-8" standalone="no"?>
<!DOCTYPE svg PUBLIC "-//W3C//DTD SVG 1.1//EN"
 "http://www.w3.org/Graphics/SVG/1.1/DTD/svg11.dtd">
<!-- Generated by graphviz version 2.43.0 (0)
 -->
<!-- Title: axi_scenario Pages: 1 -->
<svg width="999pt" height="273pt"
 viewBox="0.00 0.00 999.00 273.00" xmlns="http://www.w3.org/2000/svg" xmlns:xlink="http://www.w3.org/1999/xlink">
<g id="graph0" class="graph" transform="scale(1 1) rotate(0) translate(4 269)">
<title>axi_scenario</title>
<polygon fill="white" stroke="transparent" points="-4,4 -4,-269 995,-269 995,4 -4,4"/>
<text text-anchor="middle" x="495.5" y="-249.8" font-family="Times,serif" font-size="14.00">read_write_parallel</text>
<!-- n0 -->
<g id="node1" class="node">
<title>n0</title>
<path fill="#fef3c7" stroke="black" d="M285,-222C285,-222 12,-222 12,-222 6,-222 0,-216 0,-210 0,-210 0,-181 0,-181 0,-175 6,-169 12,-169 12,-169 285,-169 285,-169 291,-169 297,-175 297,-181 297,-181 297,-210 297,-210 297,-216 291,-222 285,-222"/>
<text text-anchor="middle" x="148.5" y="-206.8" font-family="monospace" font-size="14.00">cycle 1 AW</text>
<text text-anchor="middle" x="148.5" y="-191.8" font-family="monospace" font-size="14.00">AW_TRANSFER id=4</text>
<text text-anchor="middle" x="148.5" y="-176.8" font-family="monospace" font-size="14.00">addr=41216 len=0 size=3 burst=INCR</text>
</g>
<!-- n1 -->
<g id="node2" class="node">
<title>n1</title>
<path fill="#fef3c7" stroke="black" d="M607,-222C607,-222 334,-222 334,-222 328,-222 322,-216 322,-210 322,-210 322,-181 322,-181 322,-175 328,-169 334,-169 334,-169 607,-169 607,-169 613,-169 619,-175 619,-181 619,-181 619,-210 619,-210 619,-216 613,-222 607,-222"/>
<text text-anchor="middle" x="470.5" y="-206.8" font-family="monospace" font-size="14.00">cycle 1 AR</text>
<text text-anchor="middle" x="470.5" y="-191.8" font-family="monospace" font-size="14.00">AR_TRANSFER id=3</text>
<text text-anchor="middle" x="470.5" y="-176.8" font-family="monospace" font-size="14.00">addr=40960 len=0 size=3 burst=INCR</text>
</g>
<!-- n0&#45;&gt;n1 -->
<g id="edge1" class="edge">
<title>n0&#45;&gt;n1</title>
<path fill="none" stroke="#94a3b8" d="M255.76,-169.02C255.81,-169.01 255.83,-169 255.83,-169 255.83,-169 326.01,-169 352.92,-169.01"/>
<polygon fill="#94a3b8" stroke="#94a3b8" points="353.24,-172.51 363.24,-169.02 353.25,-165.51 353.24,-172.51"/>
</g>
<!-- n0&#45;&gt;n1 -->
<!-- n3 -->
<g id="node4" class="node">
<title>n3</title>
<path fill="#dcfce7" stroke="black" d="M962.5,-222C962.5,-222 846.5,-222 846.5,-222 840.5,-222 834.5,-216 834.5,-210 834.5,-210 834.5,-181 834.5,-181 834.5,-175 840.5,-169 846.5,-169 846.5,-169 962.5,-169 962.5,-169 968.5,-169 974.5,-175 974.5,-181 974.5,-181 974.5,-210 974.5,-210 974.5,-216 968.5,-222 962.5,-222"/>
<text text-anchor="middle" x="904.5" y="-206.8" font-family="monospace" font-size="14.00">cycle 3 B</text>
<text text-anchor="middle" x="904.5" y="-191.8" font-family="monospace" font-size="14.00">B_TRANSFER id=4</text>
<text text-anchor="middle" x="904.5" y="-176.8" font-family="monospace" font-size="14.00">resp=OKAY</text>
</g>
<!-- n0&#45;&gt;n3 -->
<g id="edge8" class="edge">
<title>n0&#45;&gt;n3</title>
<path fill="none" stroke="#2563eb" stroke-width="2" d="M247.41,-222.01C286.38,-232.45 322,-242 322,-242 322,-242 809,-242 809,-242 809,-242 823.22,-235.08 840.68,-226.57"/>
<polygon fill="#2563eb" stroke="#2563eb" stroke-width="2" points="842.6,-229.53 850.05,-222.01 839.53,-223.24 842.6,-229.53"/>
</g>
<!-- n2 -->
<g id="node3" class="node">
<title>n2</title>
<path fill="#fef3c7" stroke="black" d="M797,-222C797,-222 656,-222 656,-222 650,-222 644,-216 644,-210 644,-210 644,-181 644,-181 644,-175 650,-169 656,-169 656,-169 797,-169 797,-169 803,-169 809,-175 809,-181 809,-181 809,-210 809,-210 809,-216 803,-222 797,-222"/>
<text text-anchor="middle" x="726.5" y="-206.8" font-family="monospace" font-size="14.00">cycle 2 W</text>
<text text-anchor="middle" x="726.5" y="-191.8" font-family="monospace" font-size="14.00">W_TRANSFER id=None</text>
<text text-anchor="middle" x="726.5" y="-176.8" font-family="monospace" font-size="14.00">last=True</text>
</g>
<!-- n1&#45;&gt;n2 -->
<g id="edge2" class="edge">
<title>n1&#45;&gt;n2</title>
<path fill="none" stroke="#94a3b8" d="M555.77,-169.02C555.81,-169.01 555.83,-169 555.83,-169 555.83,-169 610.55,-169 633.62,-169.39"/>
<polygon fill="#94a3b8" stroke="#94a3b8" points="633.51,-172.89 643.63,-169.76 633.77,-165.9 633.51,-172.89"/>
</g>
<!-- n1&#45;&gt;n2 -->
<!-- n4 -->
<g id="node5" class="node">
<title>n4</title>
<path fill="#dcfce7" stroke="black" d="M979,-129C979,-129 830,-129 830,-129 824,-129 818,-123 818,-117 818,-117 818,-88 818,-88 818,-82 824,-76 830,-76 830,-76 979,-76 979,-76 985,-76 991,-82 991,-88 991,-88 991,-117 991,-117 991,-123 985,-129 979,-129"/>
<text text-anchor="middle" x="904.5" y="-113.8" font-family="monospace" font-size="14.00">cycle 3 R</text>
<text text-anchor="middle" x="904.5" y="-98.8" font-family="monospace" font-size="14.00">R_TRANSFER id=3</text>
<text text-anchor="middle" x="904.5" y="-83.8" font-family="monospace" font-size="14.00">resp=OKAY last=True</text>
</g>
<!-- n1&#45;&gt;n4 -->
<g id="edge10" class="edge">
<title>n1&#45;&gt;n4</title>
<path fill="none" stroke="#2563eb" stroke-width="2" d="M592.26,-168.97C660.45,-154.67 744.29,-137.09 807.92,-123.75"/>
<polygon fill="#2563eb" stroke="#2563eb" stroke-width="2" points="808.88,-127.12 817.95,-121.65 807.45,-120.27 808.88,-127.12"/>
</g>
<!-- n2&#45;&gt;n3 -->
<g id="edge3" class="edge">
<title>n2&#45;&gt;n3</title>
<path fill="none" stroke="#94a3b8" d="M785.66,-169.08C785.78,-169.03 785.83,-169 785.83,-169 785.83,-169 818.17,-169 835.17,-169.03"/>
<polygon fill="#94a3b8" stroke="#94a3b8" points="835.32,-172.53 845.34,-169.08 835.35,-165.53 835.32,-172.53"/>
</g>
<!-- n2&#45;&gt;n3 -->
<!-- n2&#45;&gt;n3 -->
<g id="edge9" class="edge">
<title>n2&#45;&gt;n3</title>
<path fill="none" stroke="#2563eb" stroke-width="2" d="M785.66,-221.92C785.78,-221.97 785.83,-222 785.83,-222 785.83,-222 818.17,-222 835.17,-221.97"/>
<polygon fill="#2563eb" stroke="#2563eb" stroke-width="2" points="835.35,-225.47 845.34,-221.92 835.32,-218.47 835.35,-225.47"/>
</g>
<!-- n3&#45;&gt;n4 -->
<g id="edge4" class="edge">
<title>n3&#45;&gt;n4</title>
<path fill="none" stroke="#94a3b8" d="M904.5,-168.67C904.5,-159.56 904.5,-149.15 904.5,-139.37"/>
<polygon fill="#94a3b8" stroke="#94a3b8" points="908,-139.08 904.5,-129.08 901,-139.08 908,-139.08"/>
</g>
<!-- done -->
<g id="node6" class="node">
<title>done</title>
<path fill="#bbf7d0" stroke="black" d="M967,-36C967,-36 842,-36 842,-36 836,-36 830,-30 830,-24 830,-24 830,-12 830,-12 830,-6 836,0 842,0 842,0 967,0 967,0 973,0 979,-6 979,-12 979,-12 979,-24 979,-24 979,-30 973,-36 967,-36"/>
<text text-anchor="middle" x="904.5" y="-14.3" font-family="monospace" font-size="14.00">QUIESCENT / PASS</text>
</g>
<!-- n4&#45;&gt;done -->
<g id="edge11" class="edge">
<title>n4&#45;&gt;done</title>
<path fill="none" stroke="#16a34a" stroke-width="2" d="M904.5,-75.85C904.5,-66.5 904.5,-55.9 904.5,-46.41"/>
<polygon fill="#16a34a" stroke="#16a34a" stroke-width="2" points="908,-46.28 904.5,-36.28 901,-46.28 908,-46.28"/>
</g>
</g>
</svg>
