<?xml version="1.0" encoding="UTF-8" standalone="no"?>
<!DOCTYPE svg PUBLIC "-//W3C//DTD SVG 1.1//EN"
 "http://www.w3.org/Graphics/SVG/1.1/DTD/svg11.dtd">
<!-- Generated by graphviz version 2.43.0 (0)
 -->
<!-- Title: axi_scenario Pages: 1 -->
<svg width="927pt" height="532pt"
 viewBox="0.00 0.00 926.50 532.00" xmlns="http://www.w3.org/2000/svg" xmlns:xlink="http://www.w3.org/1999/xlink">
<g id="graph0" class="graph" transform="scale(1 1) rotate(0) translate(4 528)">
<title>axi_scenario</title>
<polygon fill="white" stroke="transparent" points="-4,4 -4,-528 922.5,-528 922.5,4 -4,4"/>
<text text-anchor="middle" x="459.25" y="-508.8" font-family="Times,serif" font-size="14.00">read_16_incr</text>
<!-- n0 -->
<g id="node1" class="node">
<title>n0</title>
<path fill="#fef3c7" stroke="black" d="M285,-501C285,-501 12,-501 12,-501 6,-501 0,-495 0,-489 0,-489 0,-460 0,-460 0,-454 6,-448 12,-448 12,-448 285,-448 285,-448 291,-448 297,-454 297,-460 297,-460 297,-489 297,-489 297,-495 291,-501 285,-501"/>
<text text-anchor="middle" x="148.5" y="-485.8" font-family="monospace" font-size="14.00">cycle 1 AR</text>
<text text-anchor="middle" x="148.5" y="-470.8" font-family="monospace" font-size="14.00">AR_TRANSFER id=1</text>
<text text-anchor="middle" x="148.5" y="-455.8" font-family="monospace" font-size="14.00">addr=8192 len=15 size=3 burst=INCR</text>
</g>
<!-- n1 -->
<g id="node2" class="node">
<title>n1</title>
<path fill="#dcfce7" stroke="black" d="M492.5,-501C492.5,-501 334.5,-501 334.5,-501 328.5,-501 322.5,-495 322.5,-489 322.5,-489 322.5,-460 322.5,-460 322.5,-454 328.5,-448 334.5,-448 334.5,-448 492.5,-448 492.5,-448 498.5,-448 504.5,-454 504.5,-460 504.5,-460 504.5,-489 504.5,-489 504.5,-495 498.5,-501 492.5,-501"/>
<text text-anchor="middle" x="413.5" y="-485.8" font-family="monospace" font-size="14.00">cycle 2 R</text>
<text text-anchor="middle" x="413.5" y="-470.8" font-family="monospace" font-size="14.00">R_TRANSFER id=1</text>
<text text-anchor="middle" x="413.5" y="-455.8" font-family="monospace" font-size="14.00">resp=OKAY last=False</text>
</g>
<!-- n0&#45;&gt;n1 -->
<g id="edge1" class="edge">
<title>n0&#45;&gt;n1</title>
<path fill="none" stroke="#94a3b8" d="M236.77,-448.02C236.81,-448.01 236.83,-448 236.83,-448 236.83,-448 291.83,-448 315.07,-448.01"/>
<polygon fill="#94a3b8" stroke="#94a3b8" points="315.23,-451.51 325.23,-448.02 315.23,-444.51 315.23,-451.51"/>
</g>
<!-- n0&#45;&gt;n1 -->
<!-- n0&#45;&gt;n1 -->
<g id="edge29" class="edge">
<title>n0&#45;&gt;n1</title>
<path fill="none" stroke="#2563eb" stroke-width="2" d="M236.77,-500.98C236.81,-500.99 236.83,-501 236.83,-501 236.83,-501 291.83,-501 315.07,-500.99"/>
<polygon fill="#2563eb" stroke="#2563eb" stroke-width="2" points="315.23,-504.49 325.23,-500.98 315.23,-497.49 315.23,-504.49"/>
</g>
<!-- n2 -->
<g id="node3" class="node">
<title>n2</title>
<path fill="#dcfce7" stroke="black" d="M699.5,-501C699.5,-501 541.5,-501 541.5,-501 535.5,-501 529.5,-495 529.5,-489 529.5,-489 529.5,-460 529.5,-460 529.5,-454 535.5,-448 541.5,-448 541.5,-448 699.5,-448 699.5,-448 705.5,-448 711.5,-454 711.5,-460 711.5,-460 711.5,-489 711.5,-489 711.5,-495 705.5,-501 699.5,-501"/>
<text text-anchor="middle" x="620.5" y="-485.8" font-family="monospace" font-size="14.00">cycle 3 R</text>
<text text-anchor="middle" x="620.5" y="-470.8" font-family="monospace" font-size="14.00">R_TRANSFER id=1</text>
<text text-anchor="middle" x="620.5" y="-455.8" font-family="monospace" font-size="14.00">resp=OKAY last=False</text>
</g>
<!-- n1&#45;&gt;n2 -->
<g id="edge2" class="edge">
<title>n1&#45;&gt;n2</title>
<path fill="none" stroke="#94a3b8" d="M482.45,-448.02C482.48,-448.01 482.5,-448 482.5,-448 482.5,-448 522.13,-448 541.34,-448.01"/>
<polygon fill="#94a3b8" stroke="#94a3b8" points="541.55,-451.51 551.55,-448.02 541.55,-444.51 541.55,-451.51"/>
</g>
<!-- n1&#45;&gt;n2 -->
<!-- n1&#45;&gt;n2 -->
<g id="edge30" class="edge">
<title>n1&#45;&gt;n2</title>
<path fill="none" stroke="#2563eb" stroke-width="2" d="M482.45,-500.98C482.48,-500.99 482.5,-501 482.5,-501 482.5,-501 522.13,-501 541.34,-500.99"/>
<polygon fill="#2563eb" stroke="#2563eb" stroke-width="2" points="541.55,-504.49 551.55,-500.98 541.55,-497.49 541.55,-504.49"/>
</g>
<!-- n3 -->
<g id="node4" class="node">
<title>n3</title>
<path fill="#dcfce7" stroke="black" d="M906.5,-501C906.5,-501 748.5,-501 748.5,-501 742.5,-501 736.5,-495 736.5,-489 736.5,-489 736.5,-460 736.5,-460 736.5,-454 742.5,-448 748.5,-448 748.5,-448 906.5,-448 906.5,-448 912.5,-448 918.5,-454 918.5,-460 918.5,-460 918.5,-489 918.5,-489 918.5,-495 912.5,-501 906.5,-501"/>
<text text-anchor="middle" x="827.5" y="-485.8" font-family="monospace" font-size="14.00">cycle 4 R</text>
<text text-anchor="middle" x="827.5" y="-470.8" font-family="monospace" font-size="14.00">R_TRANSFER id=1</text>
<text text-anchor="middle" x="827.5" y="-455.8" font-family="monospace" font-size="14.00">resp=OKAY last=False</text>
</g>
<!-- n2&#45;&gt;n3 -->
<g id="edge3" class="edge">
<title>n2&#45;&gt;n3</title>
<path fill="none" stroke="#94a3b8" d="M689.45,-448.02C689.48,-448.01 689.5,-448 689.5,-448 689.5,-448 729.13,-448 748.34,-448.01"/>
<polygon fill="#94a3b8" stroke="#94a3b8" points="748.55,-451.51 758.55,-448.02 748.55,-444.51 748.55,-451.51"/>
</g>
<!-- n2&#45;&gt;n3 -->
<!-- n2&#45;&gt;n3 -->
<g id="edge31" class="edge">
<title>n2&#45;&gt;n3</title>
<path fill="none" stroke="#2563eb" stroke-width="2" d="M689.45,-500.98C689.48,-500.99 689.5,-501 689.5,-501 689.5,-501 729.13,-501 748.34,-500.99"/>
<polygon fill="#2563eb" stroke="#2563eb" stroke-width="2" points="748.55,-504.49 758.55,-500.98 748.55,-497.49 748.55,-504.49"/>
</g>
<!-- n4 -->
<g id="node5" class="node">
<title>n4</title>
<path fill="#dcfce7" stroke="black" d="M906.5,-408C906.5,-408 748.5,-408 748.5,-408 742.5,-408 736.5,-402 736.5,-396 736.5,-396 736.5,-367 736.5,-367 736.5,-361 742.5,-355 748.5,-355 748.5,-355 906.5,-355 906.5,-355 912.5,-355 918.5,-361 918.5,-367 918.5,-367 918.5,-396 918.5,-396 918.5,-402 912.5,-408 906.5,-408"/>
<text text-anchor="middle" x="827.5" y="-392.8" font-family="monospace" font-size="14.00">cycle 5 R</text>
<text text-anchor="middle" x="827.5" y="-377.8" font-family="monospace" font-size="14.00">R_TRANSFER id=1</text>
<text text-anchor="middle" x="827.5" y="-362.8" font-family="monospace" font-size="14.00">resp=OKAY last=False</text>
</g>
<!-- n3&#45;&gt;n4 -->
<g id="edge4" class="edge">
<title>n3&#45;&gt;n4</title>
<path fill="none" stroke="#94a3b8" d="M819.29,-447.67C818.51,-438.56 818.31,-428.15 818.68,-418.37"/>
<polygon fill="#94a3b8" stroke="#94a3b8" points="822.19,-418.28 819.31,-408.08 815.21,-417.85 822.19,-418.28"/>
</g>
<!-- n3&#45;&gt;n4 -->
<g id="edge32" class="edge">
<title>n3&#45;&gt;n4</title>
<path fill="none" stroke="#2563eb" stroke-width="2" d="M836.39,-447.67C837.24,-438.56 837.46,-428.15 837.05,-418.37"/>
<polygon fill="#2563eb" stroke="#2563eb" stroke-width="2" points="840.53,-417.83 836.37,-408.08 833.54,-418.29 840.53,-417.83"/>
</g>
<!-- n5 -->
<g id="node6" class="node">
<title>n5</title>
<path fill="#dcfce7" stroke="black" d="M699.5,-408C699.5,-408 541.5,-408 541.5,-408 535.5,-408 529.5,-402 529.5,-396 529.5,-396 529.5,-367 529.5,-367 529.5,-361 535.5,-355 541.5,-355 541.5,-355 699.5,-355 699.5,-355 705.5,-355 711.5,-361 711.5,-367 711.5,-367 711.5,-396 711.5,-396 711.5,-402 705.5,-408 699.5,-408"/>
<text text-anchor="middle" x="620.5" y="-392.8" font-family="monospace" font-size="14.00">cycle 6 R</text>
<text text-anchor="middle" x="620.5" y="-377.8" font-family="monospace" font-size="14.00">R_TRANSFER id=1</text>
<text text-anchor="middle" x="620.5" y="-362.8" font-family="monospace" font-size="14.00">resp=OKAY last=False</text>
</g>
<!-- n4&#45;&gt;n5 -->
<g id="edge5" class="edge">
<title>n4&#45;&gt;n5</title>
<path fill="none" stroke="#94a3b8" d="M758.55,-355.02C758.52,-355.01 758.5,-355 758.5,-355 758.5,-355 718.87,-355 699.66,-355.01"/>
<polygon fill="#94a3b8" stroke="#94a3b8" points="699.45,-351.51 689.45,-355.02 699.45,-358.51 699.45,-351.51"/>
</g>
<!-- n4&#45;&gt;n5 -->
<g id="edge33" class="edge">
<title>n4&#45;&gt;n5</title>
<path fill="none" stroke="#2563eb" stroke-width="2" d="M758.55,-407.98C758.52,-407.99 758.5,-408 758.5,-408 758.5,-408 718.87,-408 699.66,-407.99"/>
<polygon fill="#2563eb" stroke="#2563eb" stroke-width="2" points="699.45,-404.49 689.45,-407.98 699.45,-411.49 699.45,-404.49"/>
</g>
<!-- n5&#45;&gt;n4 -->
<!-- n6 -->
<g id="node7" class="node">
<title>n6</title>
<path fill="#dcfce7" stroke="black" d="M492.5,-408C492.5,-408 334.5,-408 334.5,-408 328.5,-408 322.5,-402 322.5,-396 322.5,-396 322.5,-367 322.5,-367 322.5,-361 328.5,-355 334.5,-355 334.5,-355 492.5,-355 492.5,-355 498.5,-355 504.5,-361 504.5,-367 504.5,-367 504.5,-396 504.5,-396 504.5,-402 498.5,-408 492.5,-408"/>
<text text-anchor="middle" x="413.5" y="-392.8" font-family="monospace" font-size="14.00">cycle 7 R</text>
<text text-anchor="middle" x="413.5" y="-377.8" font-family="monospace" font-size="14.00">R_TRANSFER id=1</text>
<text text-anchor="middle" x="413.5" y="-362.8" font-family="monospace" font-size="14.00">resp=OKAY last=False</text>
</g>
<!-- n5&#45;&gt;n6 -->
<g id="edge6" class="edge">
<title>n5&#45;&gt;n6</title>
<path fill="none" stroke="#94a3b8" d="M551.55,-355.02C551.52,-355.01 551.5,-355 551.5,-355 551.5,-355 511.87,-355 492.66,-355.01"/>
<polygon fill="#94a3b8" stroke="#94a3b8" points="492.45,-351.51 482.45,-355.02 492.45,-358.51 492.45,-351.51"/>
</g>
<!-- n5&#45;&gt;n6 -->
<g id="edge34" class="edge">
<title>n5&#45;&gt;n6</title>
<path fill="none" stroke="#2563eb" stroke-width="2" d="M551.55,-407.98C551.52,-407.99 551.5,-408 551.5,-408 551.5,-408 511.87,-408 492.66,-407.99"/>
<polygon fill="#2563eb" stroke="#2563eb" stroke-width="2" points="492.45,-404.49 482.45,-407.98 492.45,-411.49 492.45,-404.49"/>
</g>
<!-- n6&#45;&gt;n5 -->
<!-- n7 -->
<g id="node8" class="node">
<title>n7</title>
<path fill="#dcfce7" stroke="black" d="M285.5,-408C285.5,-408 127.5,-408 127.5,-408 121.5,-408 115.5,-402 115.5,-396 115.5,-396 115.5,-367 115.5,-367 115.5,-361 121.5,-355 127.5,-355 127.5,-355 285.5,-355 285.5,-355 291.5,-355 297.5,-361 297.5,-367 297.5,-367 297.5,-396 297.5,-396 297.5,-402 291.5,-408 285.5,-408"/>
<text text-anchor="middle" x="206.5" y="-392.8" font-family="monospace" font-size="14.00">cycle 8 R</text>
<text text-anchor="middle" x="206.5" y="-377.8" font-family="monospace" font-size="14.00">R_TRANSFER id=1</text>
<text text-anchor="middle" x="206.5" y="-362.8" font-family="monospace" font-size="14.00">resp=OKAY last=False</text>
</g>
<!-- n6&#45;&gt;n7 -->
<g id="edge7" class="edge">
<title>n6&#45;&gt;n7</title>
<path fill="none" stroke="#94a3b8" d="M344.55,-355.02C344.52,-355.01 344.5,-355 344.5,-355 344.5,-355 304.87,-355 285.66,-355.01"/>
<polygon fill="#94a3b8" stroke="#94a3b8" points="285.45,-351.51 275.45,-355.02 285.45,-358.51 285.45,-351.51"/>
</g>
<!-- n6&#45;&gt;n7 -->
<g id="edge35" class="edge">
<title>n6&#45;&gt;n7</title>
<path fill="none" stroke="#2563eb" stroke-width="2" d="M344.55,-407.98C344.52,-407.99 344.5,-408 344.5,-408 344.5,-408 304.87,-408 285.66,-407.99"/>
<polygon fill="#2563eb" stroke="#2563eb" stroke-width="2" points="285.45,-404.49 275.45,-407.98 285.45,-411.49 285.45,-404.49"/>
</g>
<!-- n7&#45;&gt;n6 -->
<!-- n8 -->
<g id="node9" class="node">
<title>n8</title>
<path fill="#dcfce7" stroke="black" d="M285.5,-315C285.5,-315 127.5,-315 127.5,-315 121.5,-315 115.5,-309 115.5,-303 115.5,-303 115.5,-274 115.5,-274 115.5,-268 121.5,-262 127.5,-262 127.5,-262 285.5,-262 285.5,-262 291.5,-262 297.5,-268 297.5,-274 297.5,-274 297.5,-303 297.5,-303 297.5,-309 291.5,-315 285.5,-315"/>
<text text-anchor="middle" x="206.5" y="-299.8" font-family="monospace" font-size="14.00">cycle 9 R</text>
<text text-anchor="middle" x="206.5" y="-284.8" font-family="monospace" font-size="14.00">R_TRANSFER id=1</text>
<text text-anchor="middle" x="206.5" y="-269.8" font-family="monospace" font-size="14.00">resp=OKAY last=False</text>
</g>
<!-- n7&#45;&gt;n8 -->
<g id="edge8" class="edge">
<title>n7&#45;&gt;n8</title>
<path fill="none" stroke="#94a3b8" d="M198.29,-354.67C197.51,-345.56 197.31,-335.15 197.68,-325.37"/>
<polygon fill="#94a3b8" stroke="#94a3b8" points="201.19,-325.28 198.31,-315.08 194.21,-324.85 201.19,-325.28"/>
</g>
<!-- n7&#45;&gt;n8 -->
<g id="edge36" class="edge">
<title>n7&#45;&gt;n8</title>
<path fill="none" stroke="#2563eb" stroke-width="2" d="M215.39,-354.67C216.24,-345.56 216.46,-335.15 216.05,-325.37"/>
<polygon fill="#2563eb" stroke="#2563eb" stroke-width="2" points="219.53,-324.83 215.37,-315.08 212.54,-325.29 219.53,-324.83"/>
</g>
<!-- n9 -->
<g id="node10" class="node">
<title>n9</title>
<path fill="#dcfce7" stroke="black" d="M492.5,-315C492.5,-315 334.5,-315 334.5,-315 328.5,-315 322.5,-309 322.5,-303 322.5,-303 322.5,-274 322.5,-274 322.5,-268 328.5,-262 334.5,-262 334.5,-262 492.5,-262 492.5,-262 498.5,-262 504.5,-268 504.5,-274 504.5,-274 504.5,-303 504.5,-303 504.5,-309 498.5,-315 492.5,-315"/>
<text text-anchor="middle" x="413.5" y="-299.8" font-family="monospace" font-size="14.00">cycle 10 R</text>
<text text-anchor="middle" x="413.5" y="-284.8" font-family="monospace" font-size="14.00">R_TRANSFER id=1</text>
<text text-anchor="middle" x="413.5" y="-269.8" font-family="monospace" font-size="14.00">resp=OKAY last=False</text>
</g>
<!-- n8&#45;&gt;n9 -->
<g id="edge9" class="edge">
<title>n8&#45;&gt;n9</title>
<path fill="none" stroke="#94a3b8" d="M275.45,-262.02C275.48,-262.01 275.5,-262 275.5,-262 275.5,-262 315.13,-262 334.34,-262.01"/>
<polygon fill="#94a3b8" stroke="#94a3b8" points="334.55,-265.51 344.55,-262.02 334.55,-258.51 334.55,-265.51"/>
</g>
<!-- n8&#45;&gt;n9 -->
<!-- n8&#45;&gt;n9 -->
<g id="edge37" class="edge">
<title>n8&#45;&gt;n9</title>
<path fill="none" stroke="#2563eb" stroke-width="2" d="M275.45,-314.98C275.48,-314.99 275.5,-315 275.5,-315 275.5,-315 315.13,-315 334.34,-314.99"/>
<polygon fill="#2563eb" stroke="#2563eb" stroke-width="2" points="334.55,-318.49 344.55,-314.98 334.55,-311.49 334.55,-318.49"/>
</g>
<!-- n10 -->
<g id="node11" class="node">
<title>n10</title>
<path fill="#dcfce7" stroke="black" d="M699.5,-315C699.5,-315 541.5,-315 541.5,-315 535.5,-315 529.5,-309 529.5,-303 529.5,-303 529.5,-274 529.5,-274 529.5,-268 535.5,-262 541.5,-262 541.5,-262 699.5,-262 699.5,-262 705.5,-262 711.5,-268 711.5,-274 711.5,-274 711.5,-303 711.5,-303 711.5,-309 705.5,-315 699.5,-315"/>
<text text-anchor="middle" x="620.5" y="-299.8" font-family="monospace" font-size="14.00">cycle 11 R</text>
<text text-anchor="middle" x="620.5" y="-284.8" font-family="monospace" font-size="14.00">R_TRANSFER id=1</text>
<text text-anchor="middle" x="620.5" y="-269.8" font-family="monospace" font-size="14.00">resp=OKAY last=False</text>
</g>
<!-- n9&#45;&gt;n10 -->
<g id="edge10" class="edge">
<title>n9&#45;&gt;n10</title>
<path fill="none" stroke="#94a3b8" d="M482.45,-262.02C482.48,-262.01 482.5,-262 482.5,-262 482.5,-262 522.13,-262 541.34,-262.01"/>
<polygon fill="#94a3b8" stroke="#94a3b8" points="541.55,-265.51 551.55,-262.02 541.55,-258.51 541.55,-265.51"/>
</g>
<!-- n9&#45;&gt;n10 -->
<!-- n9&#45;&gt;n10 -->
<g id="edge38" class="edge">
<title>n9&#45;&gt;n10</title>
<path fill="none" stroke="#2563eb" stroke-width="2" d="M482.45,-314.98C482.48,-314.99 482.5,-315 482.5,-315 482.5,-315 522.13,-315 541.34,-314.99"/>
<polygon fill="#2563eb" stroke="#2563eb" stroke-width="2" points="541.55,-318.49 551.55,-314.98 541.55,-311.49 541.55,-318.49"/>
</g>
<!-- n11 -->
<g id="node12" class="node">
<title>n11</title>
<path fill="#dcfce7" stroke="black" d="M906.5,-315C906.5,-315 748.5,-315 748.5,-315 742.5,-315 736.5,-309 736.5,-303 736.5,-303 736.5,-274 736.5,-274 736.5,-268 742.5,-262 748.5,-262 748.5,-262 906.5,-262 906.5,-262 912.5,-262 918.5,-268 918.5,-274 918.5,-274 918.5,-303 918.5,-303 918.5,-309 912.5,-315 906.5,-315"/>
<text text-anchor="middle" x="827.5" y="-299.8" font-family="monospace" font-size="14.00">cycle 12 R</text>
<text text-anchor="middle" x="827.5" y="-284.8" font-family="monospace" font-size="14.00">R_TRANSFER id=1</text>
<text text-anchor="middle" x="827.5" y="-269.8" font-family="monospace" font-size="14.00">resp=OKAY last=False</text>
</g>
<!-- n10&#45;&gt;n11 -->
<g id="edge11" class="edge">
<title>n10&#45;&gt;n11</title>
<path fill="none" stroke="#94a3b8" d="M689.45,-262.02C689.48,-262.01 689.5,-262 689.5,-262 689.5,-262 729.13,-262 748.34,-262.01"/>
<polygon fill="#94a3b8" stroke="#94a3b8" points="748.55,-265.51 758.55,-262.02 748.55,-258.51 748.55,-265.51"/>
</g>
<!-- n10&#45;&gt;n11 -->
<!-- n10&#45;&gt;n11 -->
<g id="edge39" class="edge">
<title>n10&#45;&gt;n11</title>
<path fill="none" stroke="#2563eb" stroke-width="2" d="M689.45,-314.98C689.48,-314.99 689.5,-315 689.5,-315 689.5,-315 729.13,-315 748.34,-314.99"/>
<polygon fill="#2563eb" stroke="#2563eb" stroke-width="2" points="748.55,-318.49 758.55,-314.98 748.55,-311.49 748.55,-318.49"/>
</g>
<!-- n12 -->
<g id="node13" class="node">
<title>n12</title>
<path fill="#dcfce7" stroke="black" d="M906.5,-222C906.5,-222 748.5,-222 748.5,-222 742.5,-222 736.5,-216 736.5,-210 736.5,-210 736.5,-181 736.5,-181 736.5,-175 742.5,-169 748.5,-169 748.5,-169 906.5,-169 906.5,-169 912.5,-169 918.5,-175 918.5,-181 918.5,-181 918.5,-210 918.5,-210 918.5,-216 912.5,-222 906.5,-222"/>
<text text-anchor="middle" x="827.5" y="-206.8" font-family="monospace" font-size="14.00">cycle 13 R</text>
<text text-anchor="middle" x="827.5" y="-191.8" font-family="monospace" font-size="14.00">R_TRANSFER id=1</text>
<text text-anchor="middle" x="827.5" y="-176.8" font-family="monospace" font-size="14.00">resp=OKAY last=False</text>
</g>
<!-- n11&#45;&gt;n12 -->
<g id="edge12" class="edge">
<title>n11&#45;&gt;n12</title>
<path fill="none" stroke="#94a3b8" d="M819.29,-261.67C818.51,-252.56 818.31,-242.15 818.68,-232.37"/>
<polygon fill="#94a3b8" stroke="#94a3b8" points="822.19,-232.28 819.31,-222.08 815.21,-231.85 822.19,-232.28"/>
</g>
<!-- n11&#45;&gt;n12 -->
<g id="edge40" class="edge">
<title>n11&#45;&gt;n12</title>
<path fill="none" stroke="#2563eb" stroke-width="2" d="M836.39,-261.67C837.24,-252.56 837.46,-242.15 837.05,-232.37"/>
<polygon fill="#2563eb" stroke="#2563eb" stroke-width="2" points="840.53,-231.83 836.37,-222.08 833.54,-232.29 840.53,-231.83"/>
</g>
<!-- n13 -->
<g id="node14" class="node">
<title>n13</title>
<path fill="#dcfce7" stroke="black" d="M699.5,-222C699.5,-222 541.5,-222 541.5,-222 535.5,-222 529.5,-216 529.5,-210 529.5,-210 529.5,-181 529.5,-181 529.5,-175 535.5,-169 541.5,-169 541.5,-169 699.5,-169 699.5,-169 705.5,-169 711.5,-175 711.5,-181 711.5,-181 711.5,-210 711.5,-210 711.5,-216 705.5,-222 699.5,-222"/>
<text text-anchor="middle" x="620.5" y="-206.8" font-family="monospace" font-size="14.00">cycle 14 R</text>
<text text-anchor="middle" x="620.5" y="-191.8" font-family="monospace" font-size="14.00">R_TRANSFER id=1</text>
<text text-anchor="middle" x="620.5" y="-176.8" font-family="monospace" font-size="14.00">resp=OKAY last=False</text>
</g>
<!-- n12&#45;&gt;n13 -->
<g id="edge13" class="edge">
<title>n12&#45;&gt;n13</title>
<path fill="none" stroke="#94a3b8" d="M758.55,-169.02C758.52,-169.01 758.5,-169 758.5,-169 758.5,-169 718.87,-169 699.66,-169.01"/>
<polygon fill="#94a3b8" stroke="#94a3b8" points="699.45,-165.51 689.45,-169.02 699.45,-172.51 699.45,-165.51"/>
</g>
<!-- n12&#45;&gt;n13 -->
<g id="edge41" class="edge">
<title>n12&#45;&gt;n13</title>
<path fill="none" stroke="#2563eb" stroke-width="2" d="M758.55,-221.98C758.52,-221.99 758.5,-222 758.5,-222 758.5,-222 718.87,-222 699.66,-221.99"/>
<polygon fill="#2563eb" stroke="#2563eb" stroke-width="2" points="699.45,-218.49 689.45,-221.98 699.45,-225.49 699.45,-218.49"/>
</g>
<!-- n13&#45;&gt;n12 -->
<!-- n14 -->
<g id="node15" class="node">
<title>n14</title>
<path fill="#dcfce7" stroke="black" d="M492.5,-222C492.5,-222 334.5,-222 334.5,-222 328.5,-222 322.5,-216 322.5,-210 322.5,-210 322.5,-181 322.5,-181 322.5,-175 328.5,-169 334.5,-169 334.5,-169 492.5,-169 492.5,-169 498.5,-169 504.5,-175 504.5,-181 504.5,-181 504.5,-210 504.5,-210 504.5,-216 498.5,-222 492.5,-222"/>
<text text-anchor="middle" x="413.5" y="-206.8" font-family="monospace" font-size="14.00">cycle 15 R</text>
<text text-anchor="middle" x="413.5" y="-191.8" font-family="monospace" font-size="14.00">R_TRANSFER id=1</text>
<text text-anchor="middle" x="413.5" y="-176.8" font-family="monospace" font-size="14.00">resp=OKAY last=False</text>
</g>
<!-- n13&#45;&gt;n14 -->
<g id="edge14" class="edge">
<title>n13&#45;&gt;n14</title>
<path fill="none" stroke="#94a3b8" d="M551.55,-169.02C551.52,-169.01 551.5,-169 551.5,-169 551.5,-169 511.87,-169 492.66,-169.01"/>
<polygon fill="#94a3b8" stroke="#94a3b8" points="492.45,-165.51 482.45,-169.02 492.45,-172.51 492.45,-165.51"/>
</g>
<!-- n13&#45;&gt;n14 -->
<g id="edge42" class="edge">
<title>n13&#45;&gt;n14</title>
<path fill="none" stroke="#2563eb" stroke-width="2" d="M551.55,-221.98C551.52,-221.99 551.5,-222 551.5,-222 551.5,-222 511.87,-222 492.66,-221.99"/>
<polygon fill="#2563eb" stroke="#2563eb" stroke-width="2" points="492.45,-218.49 482.45,-221.98 492.45,-225.49 492.45,-218.49"/>
</g>
<!-- n14&#45;&gt;n13 -->
<!-- n15 -->
<g id="node16" class="node">
<title>n15</title>
<path fill="#dcfce7" stroke="black" d="M285.5,-222C285.5,-222 127.5,-222 127.5,-222 121.5,-222 115.5,-216 115.5,-210 115.5,-210 115.5,-181 115.5,-181 115.5,-175 121.5,-169 127.5,-169 127.5,-169 285.5,-169 285.5,-169 291.5,-169 297.5,-175 297.5,-181 297.5,-181 297.5,-210 297.5,-210 297.5,-216 291.5,-222 285.5,-222"/>
<text text-anchor="middle" x="206.5" y="-206.8" font-family="monospace" font-size="14.00">cycle 16 R</text>
<text text-anchor="middle" x="206.5" y="-191.8" font-family="monospace" font-size="14.00">R_TRANSFER id=1</text>
<text text-anchor="middle" x="206.5" y="-176.8" font-family="monospace" font-size="14.00">resp=OKAY last=False</text>
</g>
<!-- n14&#45;&gt;n15 -->
<g id="edge15" class="edge">
<title>n14&#45;&gt;n15</title>
<path fill="none" stroke="#94a3b8" d="M344.55,-169.02C344.52,-169.01 344.5,-169 344.5,-169 344.5,-169 304.87,-169 285.66,-169.01"/>
<polygon fill="#94a3b8" stroke="#94a3b8" points="285.45,-165.51 275.45,-169.02 285.45,-172.51 285.45,-165.51"/>
</g>
<!-- n14&#45;&gt;n15 -->
<g id="edge43" class="edge">
<title>n14&#45;&gt;n15</title>
<path fill="none" stroke="#2563eb" stroke-width="2" d="M344.55,-221.98C344.52,-221.99 344.5,-222 344.5,-222 344.5,-222 304.87,-222 285.66,-221.99"/>
<polygon fill="#2563eb" stroke="#2563eb" stroke-width="2" points="285.45,-218.49 275.45,-221.98 285.45,-225.49 285.45,-218.49"/>
</g>
<!-- n15&#45;&gt;n14 -->
<!-- n16 -->
<g id="node17" class="node">
<title>n16</title>
<path fill="#dcfce7" stroke="black" d="M281,-129C281,-129 132,-129 132,-129 126,-129 120,-123 120,-117 120,-117 120,-88 120,-88 120,-82 126,-76 132,-76 132,-76 281,-76 281,-76 287,-76 293,-82 293,-88 293,-88 293,-117 293,-117 293,-123 287,-129 281,-129"/>
<text text-anchor="middle" x="206.5" y="-113.8" font-family="monospace" font-size="14.00">cycle 17 R</text>
<text text-anchor="middle" x="206.5" y="-98.8" font-family="monospace" font-size="14.00">R_TRANSFER id=1</text>
<text text-anchor="middle" x="206.5" y="-83.8" font-family="monospace" font-size="14.00">resp=OKAY last=True</text>
</g>
<!-- n15&#45;&gt;n16 -->
<g id="edge16" class="edge">
<title>n15&#45;&gt;n16</title>
<path fill="none" stroke="#94a3b8" d="M198.29,-168.67C197.51,-159.56 197.31,-149.15 197.68,-139.37"/>
<polygon fill="#94a3b8" stroke="#94a3b8" points="201.19,-139.28 198.31,-129.08 194.21,-138.85 201.19,-139.28"/>
</g>
<!-- n15&#45;&gt;n16 -->
<g id="edge44" class="edge">
<title>n15&#45;&gt;n16</title>
<path fill="none" stroke="#2563eb" stroke-width="2" d="M215.39,-168.67C216.24,-159.56 216.46,-149.15 216.05,-139.37"/>
<polygon fill="#2563eb" stroke="#2563eb" stroke-width="2" points="219.53,-138.83 215.37,-129.08 212.54,-139.29 219.53,-138.83"/>
</g>
<!-- done -->
<g id="node18" class="node">
<title>done</title>
<path fill="#bbf7d0" stroke="black" d="M269,-36C269,-36 144,-36 144,-36 138,-36 132,-30 132,-24 132,-24 132,-12 132,-12 132,-6 138,0 144,0 144,0 269,0 269,0 275,0 281,-6 281,-12 281,-12 281,-24 281,-24 281,-30 275,-36 269,-36"/>
<text text-anchor="middle" x="206.5" y="-14.3" font-family="monospace" font-size="14.00">QUIESCENT / PASS</text>
</g>
<!-- n16&#45;&gt;done -->
<g id="edge45" class="edge">
<title>n16&#45;&gt;done</title>
<path fill="none" stroke="#16a34a" stroke-width="2" d="M206.5,-75.85C206.5,-66.5 206.5,-55.9 206.5,-46.41"/>
<polygon fill="#16a34a" stroke="#16a34a" stroke-width="2" points="210,-46.28 206.5,-36.28 203,-46.28 210,-46.28"/>
</g>
</g>
</svg>
