<?xml version="1.0" encoding="UTF-8" standalone="no"?>
<!DOCTYPE svg PUBLIC "-//W3C//DTD SVG 1.1//EN"
 "http://www.w3.org/Graphics/SVG/1.1/DTD/svg11.dtd">
<!-- Generated by graphviz version 2.43.0 (0)
 -->
<!-- Title: axi4_case Pages: 1 -->
<svg width="839pt" height="115pt"
 viewBox="0.00 0.00 838.61 114.56" xmlns="http://www.w3.org/2000/svg" xmlns:xlink="http://www.w3.org/1999/xlink">
<g id="graph0" class="graph" transform="scale(1 1) rotate(0) translate(14.4 100.16)">
<title>axi4_case</title>
<polygon fill="white" stroke="transparent" points="-14.4,14.4 -14.4,-100.16 824.21,-100.16 824.21,14.4 -14.4,14.4"/>
<text text-anchor="middle" x="404.9" y="-70.56" font-family="Times,serif" font-size="14.00">FIXED length does not exceed sixteen transfers / FIXED 长度不超过十六拍</text>
<!-- context -->
<g id="node1" class="node">
<title>context</title>
<polygon fill="#f4f5f6" stroke="#7c8790" points="174,-49.38 0,-49.38 0,-13.38 180,-13.38 180,-43.38 174,-49.38"/>
<polyline fill="none" stroke="#7c8790" points="174,-49.38 174,-43.38 "/>
<polyline fill="none" stroke="#7c8790" points="180,-43.38 174,-43.38 "/>
<text text-anchor="middle" x="90" y="-34.38" font-family="sans-serif" font-size="10.00">rejected input / 被拒输入</text>
<text text-anchor="middle" x="90" y="-23.38" font-family="sans-serif" font-size="10.00">ID11 A=0x100 N=17 S=4B FIXED</text>
</g>
<!-- fault -->
<g id="node2" class="node">
<title>fault</title>
<polygon fill="#ffe9e7" stroke="#b33a2b" points="809.71,-18.43 809.71,-44.33 695.89,-62.64 534.92,-62.64 421.1,-44.33 421.1,-18.43 534.92,-0.12 695.89,-0.12 809.71,-18.43"/>
<text text-anchor="middle" x="615.4" y="-39.88" font-family="sans-serif" font-size="10.00">REJECTED / 已拒绝</text>
<text text-anchor="middle" x="615.4" y="-28.88" font-family="sans-serif" font-size="10.00">axi4.link_session.AR.event_schema</text>
<text text-anchor="middle" x="615.4" y="-17.88" font-family="sans-serif" font-size="10.00">FIXED burst length must not exceed 16 transfers</text>
</g>
<!-- context&#45;&gt;fault -->
<g id="edge1" class="edge">
<title>context&#45;&gt;fault</title>
<path fill="none" stroke="#777777" stroke-dasharray="5,2" d="M180.08,-31.38C243.33,-31.38 330.85,-31.38 410.77,-31.38"/>
<polygon fill="#777777" stroke="#777777" points="410.98,-34.88 420.98,-31.38 410.98,-27.88 410.98,-34.88"/>
<text text-anchor="middle" x="300.5" y="-34.18" font-family="sans-serif" font-size="9.00">diagnostic context / 诊断上下文（非因果边）</text>
</g>
</g>
</svg>
