<?xml version="1.0" encoding="UTF-8" standalone="no"?>
<!DOCTYPE svg PUBLIC "-//W3C//DTD SVG 1.1//EN"
 "http://www.w3.org/Graphics/SVG/1.1/DTD/svg11.dtd">
<!-- Generated by graphviz version 2.43.0 (0)
 -->
<!-- Title: axi_read_chain Pages: 1 -->
<svg width="631pt" height="397pt"
 viewBox="0.00 0.00 631.00 397.00" xmlns="http://www.w3.org/2000/svg" xmlns:xlink="http://www.w3.org/1999/xlink">
<g id="graph0" class="graph" transform="scale(1 1) rotate(0) translate(4 393)">
<title>axi_read_chain</title>
<polygon fill="white" stroke="transparent" points="-4,4 -4,-393 627,-393 627,4 -4,4"/>
<!-- n0 -->
<g id="node1" class="node">
<title>n0</title>
<path fill="#dbeafe" stroke="black" d="M228,-389C228,-389 46,-389 46,-389 40,-389 34,-383 34,-377 34,-377 34,-348 34,-348 34,-342 40,-336 46,-336 46,-336 228,-336 228,-336 234,-336 240,-342 240,-348 240,-348 240,-377 240,-377 240,-383 234,-389 228,-389"/>
<text text-anchor="middle" x="137" y="-373.8" font-family="monospace" font-size="14.00">AXI&#45;A</text>
<text text-anchor="middle" x="137" y="-358.8" font-family="monospace" font-size="14.00">AR_TRANSFER id=3</text>
<text text-anchor="middle" x="137" y="-343.8" font-family="monospace" font-size="14.00">addr=0xff0 len=3 size=2</text>
</g>
<!-- n1 -->
<g id="node2" class="node">
<title>n1</title>
<path fill="#dcfce7" stroke="black" d="M513,-389C513,-389 331,-389 331,-389 325,-389 319,-383 319,-377 319,-377 319,-348 319,-348 319,-342 325,-336 331,-336 331,-336 513,-336 513,-336 519,-336 525,-342 525,-348 525,-348 525,-377 525,-377 525,-383 519,-389 513,-389"/>
<text text-anchor="middle" x="422" y="-373.8" font-family="monospace" font-size="14.00">AXI&#45;B</text>
<text text-anchor="middle" x="422" y="-358.8" font-family="monospace" font-size="14.00">AR_TRANSFER id=0</text>
<text text-anchor="middle" x="422" y="-343.8" font-family="monospace" font-size="14.00">addr=0xff0 len=3 size=2</text>
</g>
<!-- n0&#45;&gt;n1 -->
<g id="edge1" class="edge">
<title>n0&#45;&gt;n1</title>
<path fill="none" stroke="#dc2626" stroke-width="2" d="M240.29,-362.5C262.4,-362.5 285.87,-362.5 308.33,-362.5"/>
<polygon fill="#dc2626" stroke="#dc2626" stroke-width="2" points="308.58,-366 318.58,-362.5 308.58,-359 308.58,-366"/>
<text text-anchor="middle" x="279.5" y="-369.3" font-family="Times,serif" font-size="14.00">forward</text>
</g>
<!-- n3 -->
<g id="node4" class="node">
<title>n3</title>
<path fill="#dbeafe" stroke="black" d="M611,-305C611,-305 363,-305 363,-305 357,-305 351,-299 351,-293 351,-293 351,-264 351,-264 351,-258 357,-252 363,-252 363,-252 611,-252 611,-252 617,-252 623,-258 623,-264 623,-264 623,-293 623,-293 623,-299 617,-305 611,-305"/>
<text text-anchor="middle" x="487" y="-289.8" font-family="monospace" font-size="14.00">AXI&#45;A</text>
<text text-anchor="middle" x="487" y="-274.8" font-family="monospace" font-size="14.00">R_TRANSFER id=3</text>
<text text-anchor="middle" x="487" y="-259.8" font-family="monospace" font-size="14.00">data=0xff0 resp=OKAY last=False</text>
</g>
<!-- n0&#45;&gt;n3 -->
<g id="edge2" class="edge">
<title>n0&#45;&gt;n3</title>
<path fill="none" stroke="#64748b" d="M240.12,-337.34C280.25,-327.94 326.5,-317.1 368.03,-307.37"/>
<polygon fill="#64748b" stroke="#64748b" points="368.98,-310.74 377.92,-305.06 367.39,-303.93 368.98,-310.74"/>
</g>
<!-- n2 -->
<g id="node3" class="node">
<title>n2</title>
<path fill="#dcfce7" stroke="black" d="M260,-305C260,-305 12,-305 12,-305 6,-305 0,-299 0,-293 0,-293 0,-264 0,-264 0,-258 6,-252 12,-252 12,-252 260,-252 260,-252 266,-252 272,-258 272,-264 272,-264 272,-293 272,-293 272,-299 266,-305 260,-305"/>
<text text-anchor="middle" x="136" y="-289.8" font-family="monospace" font-size="14.00">AXI&#45;B</text>
<text text-anchor="middle" x="136" y="-274.8" font-family="monospace" font-size="14.00">R_TRANSFER id=0</text>
<text text-anchor="middle" x="136" y="-259.8" font-family="monospace" font-size="14.00">data=0xff0 resp=OKAY last=False</text>
</g>
<!-- n1&#45;&gt;n2 -->
<g id="edge3" class="edge">
<title>n1&#45;&gt;n2</title>
<path fill="none" stroke="#64748b" d="M332.68,-335.89C301.64,-326.99 266.65,-316.96 234.88,-307.85"/>
<polygon fill="#64748b" stroke="#64748b" points="235.71,-304.45 225.13,-305.05 233.78,-311.18 235.71,-304.45"/>
</g>
<!-- n2&#45;&gt;n3 -->
<g id="edge4" class="edge">
<title>n2&#45;&gt;n3</title>
<path fill="none" stroke="#dc2626" stroke-width="2" d="M272.21,-278.5C294.7,-278.5 318.1,-278.5 340.83,-278.5"/>
<polygon fill="#dc2626" stroke="#dc2626" stroke-width="2" points="340.87,-282 350.87,-278.5 340.87,-275 340.87,-282"/>
<text text-anchor="middle" x="311.5" y="-285.3" font-family="Times,serif" font-size="14.00">forward</text>
</g>
<!-- n4 -->
<g id="node5" class="node">
<title>n4</title>
<path fill="#dcfce7" stroke="black" d="M260,-221C260,-221 12,-221 12,-221 6,-221 0,-215 0,-209 0,-209 0,-180 0,-180 0,-174 6,-168 12,-168 12,-168 260,-168 260,-168 266,-168 272,-174 272,-180 272,-180 272,-209 272,-209 272,-215 266,-221 260,-221"/>
<text text-anchor="middle" x="136" y="-205.8" font-family="monospace" font-size="14.00">AXI&#45;B</text>
<text text-anchor="middle" x="136" y="-190.8" font-family="monospace" font-size="14.00">R_TRANSFER id=0</text>
<text text-anchor="middle" x="136" y="-175.8" font-family="monospace" font-size="14.00">data=0xff4 resp=OKAY last=False</text>
</g>
<!-- n2&#45;&gt;n4 -->
<g id="edge5" class="edge">
<title>n2&#45;&gt;n4</title>
<path fill="none" stroke="#64748b" d="M136,-251.55C136,-245.21 136,-238.31 136,-231.59"/>
<polygon fill="#64748b" stroke="#64748b" points="139.5,-231.28 136,-221.28 132.5,-231.28 139.5,-231.28"/>
</g>
<!-- n5 -->
<g id="node6" class="node">
<title>n5</title>
<path fill="#dbeafe" stroke="black" d="M611,-221C611,-221 363,-221 363,-221 357,-221 351,-215 351,-209 351,-209 351,-180 351,-180 351,-174 357,-168 363,-168 363,-168 611,-168 611,-168 617,-168 623,-174 623,-180 623,-180 623,-209 623,-209 623,-215 617,-221 611,-221"/>
<text text-anchor="middle" x="487" y="-205.8" font-family="monospace" font-size="14.00">AXI&#45;A</text>
<text text-anchor="middle" x="487" y="-190.8" font-family="monospace" font-size="14.00">R_TRANSFER id=3</text>
<text text-anchor="middle" x="487" y="-175.8" font-family="monospace" font-size="14.00">data=0xff4 resp=OKAY last=False</text>
</g>
<!-- n3&#45;&gt;n5 -->
<g id="edge6" class="edge">
<title>n3&#45;&gt;n5</title>
<path fill="none" stroke="#64748b" d="M487,-251.55C487,-245.21 487,-238.31 487,-231.59"/>
<polygon fill="#64748b" stroke="#64748b" points="490.5,-231.28 487,-221.28 483.5,-231.28 490.5,-231.28"/>
</g>
<!-- n4&#45;&gt;n5 -->
<g id="edge7" class="edge">
<title>n4&#45;&gt;n5</title>
<path fill="none" stroke="#dc2626" stroke-width="2" d="M272.21,-194.5C294.7,-194.5 318.1,-194.5 340.83,-194.5"/>
<polygon fill="#dc2626" stroke="#dc2626" stroke-width="2" points="340.87,-198 350.87,-194.5 340.87,-191 340.87,-198"/>
<text text-anchor="middle" x="311.5" y="-201.3" font-family="Times,serif" font-size="14.00">forward</text>
</g>
<!-- n6 -->
<g id="node7" class="node">
<title>n6</title>
<path fill="#dcfce7" stroke="black" d="M260,-137C260,-137 12,-137 12,-137 6,-137 0,-131 0,-125 0,-125 0,-96 0,-96 0,-90 6,-84 12,-84 12,-84 260,-84 260,-84 266,-84 272,-90 272,-96 272,-96 272,-125 272,-125 272,-131 266,-137 260,-137"/>
<text text-anchor="middle" x="136" y="-121.8" font-family="monospace" font-size="14.00">AXI&#45;B</text>
<text text-anchor="middle" x="136" y="-106.8" font-family="monospace" font-size="14.00">R_TRANSFER id=0</text>
<text text-anchor="middle" x="136" y="-91.8" font-family="monospace" font-size="14.00">data=0xff8 resp=OKAY last=False</text>
</g>
<!-- n4&#45;&gt;n6 -->
<g id="edge8" class="edge">
<title>n4&#45;&gt;n6</title>
<path fill="none" stroke="#64748b" d="M136,-167.55C136,-161.21 136,-154.31 136,-147.59"/>
<polygon fill="#64748b" stroke="#64748b" points="139.5,-147.28 136,-137.28 132.5,-147.28 139.5,-147.28"/>
</g>
<!-- n7 -->
<g id="node8" class="node">
<title>n7</title>
<path fill="#dbeafe" stroke="black" d="M611,-137C611,-137 363,-137 363,-137 357,-137 351,-131 351,-125 351,-125 351,-96 351,-96 351,-90 357,-84 363,-84 363,-84 611,-84 611,-84 617,-84 623,-90 623,-96 623,-96 623,-125 623,-125 623,-131 617,-137 611,-137"/>
<text text-anchor="middle" x="487" y="-121.8" font-family="monospace" font-size="14.00">AXI&#45;A</text>
<text text-anchor="middle" x="487" y="-106.8" font-family="monospace" font-size="14.00">R_TRANSFER id=3</text>
<text text-anchor="middle" x="487" y="-91.8" font-family="monospace" font-size="14.00">data=0xff8 resp=OKAY last=False</text>
</g>
<!-- n5&#45;&gt;n7 -->
<g id="edge9" class="edge">
<title>n5&#45;&gt;n7</title>
<path fill="none" stroke="#64748b" d="M487,-167.55C487,-161.21 487,-154.31 487,-147.59"/>
<polygon fill="#64748b" stroke="#64748b" points="490.5,-147.28 487,-137.28 483.5,-147.28 490.5,-147.28"/>
</g>
<!-- n6&#45;&gt;n7 -->
<g id="edge10" class="edge">
<title>n6&#45;&gt;n7</title>
<path fill="none" stroke="#dc2626" stroke-width="2" d="M272.21,-110.5C294.7,-110.5 318.1,-110.5 340.83,-110.5"/>
<polygon fill="#dc2626" stroke="#dc2626" stroke-width="2" points="340.87,-114 350.87,-110.5 340.87,-107 340.87,-114"/>
<text text-anchor="middle" x="311.5" y="-117.3" font-family="Times,serif" font-size="14.00">forward</text>
</g>
<!-- n8 -->
<g id="node9" class="node">
<title>n8</title>
<path fill="#dcfce7" stroke="black" d="M262,-53C262,-53 22,-53 22,-53 16,-53 10,-47 10,-41 10,-41 10,-12 10,-12 10,-6 16,0 22,0 22,0 262,0 262,0 268,0 274,-6 274,-12 274,-12 274,-41 274,-41 274,-47 268,-53 262,-53"/>
<text text-anchor="middle" x="142" y="-37.8" font-family="monospace" font-size="14.00">AXI&#45;B</text>
<text text-anchor="middle" x="142" y="-22.8" font-family="monospace" font-size="14.00">R_TRANSFER id=0</text>
<text text-anchor="middle" x="142" y="-7.8" font-family="monospace" font-size="14.00">data=0xffc resp=OKAY last=True</text>
</g>
<!-- n6&#45;&gt;n8 -->
<g id="edge11" class="edge">
<title>n6&#45;&gt;n8</title>
<path fill="none" stroke="#64748b" d="M137.9,-83.55C138.36,-77.21 138.87,-70.31 139.36,-63.59"/>
<polygon fill="#64748b" stroke="#64748b" points="142.87,-63.51 140.11,-53.28 135.89,-62.99 142.87,-63.51"/>
</g>
<!-- n9 -->
<g id="node10" class="node">
<title>n9</title>
<path fill="#dbeafe" stroke="black" d="M606,-53C606,-53 366,-53 366,-53 360,-53 354,-47 354,-41 354,-41 354,-12 354,-12 354,-6 360,0 366,0 366,0 606,0 606,0 612,0 618,-6 618,-12 618,-12 618,-41 618,-41 618,-47 612,-53 606,-53"/>
<text text-anchor="middle" x="486" y="-37.8" font-family="monospace" font-size="14.00">AXI&#45;A</text>
<text text-anchor="middle" x="486" y="-22.8" font-family="monospace" font-size="14.00">R_TRANSFER id=3</text>
<text text-anchor="middle" x="486" y="-7.8" font-family="monospace" font-size="14.00">data=0xffc resp=OKAY last=True</text>
</g>
<!-- n7&#45;&gt;n9 -->
<g id="edge12" class="edge">
<title>n7&#45;&gt;n9</title>
<path fill="none" stroke="#64748b" d="M486.68,-83.55C486.61,-77.21 486.52,-70.31 486.44,-63.59"/>
<polygon fill="#64748b" stroke="#64748b" points="489.94,-63.23 486.31,-53.28 482.94,-63.32 489.94,-63.23"/>
</g>
<!-- n8&#45;&gt;n9 -->
<g id="edge13" class="edge">
<title>n8&#45;&gt;n9</title>
<path fill="none" stroke="#dc2626" stroke-width="2" d="M274.02,-26.5C296.79,-26.5 320.56,-26.5 343.6,-26.5"/>
<polygon fill="#dc2626" stroke="#dc2626" stroke-width="2" points="343.77,-30 353.77,-26.5 343.77,-23 343.77,-30"/>
<text text-anchor="middle" x="314" y="-33.3" font-family="Times,serif" font-size="14.00">forward</text>
</g>
</g>
</svg>
