<?xml version="1.0" encoding="UTF-8" standalone="no"?>
<!DOCTYPE svg PUBLIC "-//W3C//DTD SVG 1.1//EN"
 "http://www.w3.org/Graphics/SVG/1.1/DTD/svg11.dtd">
<!-- Generated by graphviz version 2.43.0 (0)
 -->
<!-- Title: ready_valid_sink_topology Pages: 1 -->
<svg width="289pt" height="262pt"
 viewBox="0.00 0.00 289.00 262.00" xmlns="http://www.w3.org/2000/svg" xmlns:xlink="http://www.w3.org/1999/xlink">
<g id="graph0" class="graph" transform="scale(1 1) rotate(0) translate(4 258)">
<title>ready_valid_sink_topology</title>
<polygon fill="white" stroke="transparent" points="-4,4 -4,-258 285,-258 285,4 -4,4"/>
<text text-anchor="middle" x="140.5" y="-238.8" font-family="Times,serif" font-size="14.00">prj_ready_valid_sink verification plan</text>
<!-- source -->
<g id="node1" class="node">
<title>source</title>
<path fill="#fef3c7" stroke="black" d="M198.25,-231C198.25,-231 65.25,-231 65.25,-231 59.25,-231 53.25,-225 53.25,-219 53.25,-219 53.25,-190 53.25,-190 53.25,-184 59.25,-178 65.25,-178 65.25,-178 198.25,-178 198.25,-178 204.25,-178 210.25,-184 210.25,-190 210.25,-190 210.25,-219 210.25,-219 210.25,-225 204.25,-231 198.25,-231"/>
<text text-anchor="middle" x="131.75" y="-215.8" font-family="monospace" font-size="14.00">Stimulus provider</text>
<text text-anchor="middle" x="131.75" y="-200.8" font-family="monospace" font-size="14.00">ScriptedSource</text>
<text text-anchor="middle" x="131.75" y="-185.8" font-family="monospace" font-size="14.00">(Replaceable)</text>
</g>
<!-- protocol -->
<g id="node2" class="node">
<title>protocol</title>
<path fill="#dbeafe" stroke="black" d="M206.25,-127C206.25,-127 57.25,-127 57.25,-127 51.25,-127 45.25,-121 45.25,-115 45.25,-115 45.25,-101 45.25,-101 45.25,-95 51.25,-89 57.25,-89 57.25,-89 206.25,-89 206.25,-89 212.25,-89 218.25,-95 218.25,-101 218.25,-101 218.25,-115 218.25,-115 218.25,-121 212.25,-127 206.25,-127"/>
<text text-anchor="middle" x="131.75" y="-111.8" font-family="monospace" font-size="14.00">ReadyValid Protocol</text>
<text text-anchor="middle" x="131.75" y="-96.8" font-family="monospace" font-size="14.00">VALID/READY + stall</text>
</g>
<!-- source&#45;&gt;protocol -->
<g id="edge1" class="edge">
<title>source&#45;&gt;protocol</title>
<path fill="none" stroke="black" d="M131.75,-177.68C131.75,-165.13 131.75,-150.01 131.75,-137.17"/>
<polygon fill="black" stroke="black" points="135.25,-137.01 131.75,-127.01 128.25,-137.01 135.25,-137.01"/>
<text text-anchor="middle" x="198.25" y="-148.8" font-family="Times,serif" font-size="14.00">ReadyValidSample</text>
</g>
<!-- sink -->
<g id="node3" class="node">
<title>sink</title>
<path fill="#dcfce7" stroke="black" d="M235.25,-38C235.25,-38 28.25,-38 28.25,-38 22.25,-38 16.25,-32 16.25,-26 16.25,-26 16.25,-12 16.25,-12 16.25,-6 22.25,0 28.25,0 28.25,0 235.25,0 235.25,0 241.25,0 247.25,-6 247.25,-12 247.25,-12 247.25,-26 247.25,-26 247.25,-32 241.25,-38 235.25,-38"/>
<text text-anchor="middle" x="131.75" y="-22.8" font-family="monospace" font-size="14.00">VirtualDut Sink</text>
<text text-anchor="middle" x="131.75" y="-7.8" font-family="monospace" font-size="14.00">capture accepted transfers</text>
</g>
<!-- protocol&#45;&gt;sink -->
<g id="edge2" class="edge">
<title>protocol&#45;&gt;sink</title>
<path fill="none" stroke="black" d="M131.75,-88.97C131.75,-77.19 131.75,-61.56 131.75,-48.16"/>
<polygon fill="black" stroke="black" points="135.25,-48 131.75,-38 128.25,-48 135.25,-48"/>
<text text-anchor="middle" x="195.25" y="-59.8" font-family="Times,serif" font-size="14.00">DATA_TRANSFER</text>
</g>
</g>
</svg>
