<?xml version="1.0" encoding="UTF-8" standalone="no"?>
<!DOCTYPE svg PUBLIC "-//W3C//DTD SVG 1.1//EN"
 "http://www.w3.org/Graphics/SVG/1.1/DTD/svg11.dtd">
<!-- Generated by graphviz version 2.43.0 (0)
 -->
<!-- Title: constraint_mutation Pages: 1 -->
<svg width="876pt" height="89pt"
 viewBox="0.00 0.00 875.90 89.17" xmlns="http://www.w3.org/2000/svg" xmlns:xlink="http://www.w3.org/1999/xlink">
<g id="graph0" class="graph" transform="scale(1 1) rotate(0) translate(4 85.17)">
<title>constraint_mutation</title>
<polygon fill="white" stroke="transparent" points="-4,4 -4,-85.17 871.9,-85.17 871.9,4 -4,4"/>
<text text-anchor="middle" x="433.95" y="-65.97" font-family="Times,serif" font-size="14.00">arcache_tied_zero</text>
<!-- n0 -->
<g id="node1" class="node">
<title>n0</title>
<path fill="#e2e8f0" stroke="black" d="M252,-48.08C252,-48.08 12,-48.08 12,-48.08 6,-48.08 0,-42.08 0,-36.08 0,-36.08 0,-22.08 0,-22.08 0,-16.08 6,-10.08 12,-10.08 12,-10.08 252,-10.08 252,-10.08 258,-10.08 264,-16.08 264,-22.08 264,-22.08 264,-36.08 264,-36.08 264,-42.08 258,-48.08 252,-48.08"/>
<text text-anchor="middle" x="132" y="-32.88" font-family="monospace" font-size="14.00">AR_TRANSFER id=1</text>
<text text-anchor="middle" x="132" y="-17.88" font-family="monospace" font-size="14.00">addr=8448 len=1 size=2 cache=1</text>
</g>
<!-- fault -->
<g id="node2" class="node">
<title>fault</title>
<path fill="#fecaca" stroke="black" d="M867.85,-25.06C867.85,-25.06 867.85,-33.11 867.85,-33.11 867.85,-37.14 863.85,-41.58 859.84,-41.99 859.84,-41.99 709.56,-57.43 709.56,-57.43 705.55,-57.84 697.52,-58.25 693.49,-58.25 693.49,-58.25 474.41,-58.25 474.41,-58.25 470.38,-58.25 462.35,-57.84 458.34,-57.43 458.34,-57.43 308.06,-41.99 308.06,-41.99 304.06,-41.58 300.05,-37.14 300.05,-33.11 300.05,-33.11 300.05,-25.06 300.05,-25.06 300.05,-21.03 304.06,-16.59 308.06,-16.18 308.06,-16.18 458.34,-0.74 458.34,-0.74 462.35,-0.33 470.38,0.08 474.41,0.08 474.41,0.08 693.49,0.08 693.49,0.08 697.52,0.08 705.55,-0.33 709.56,-0.74 709.56,-0.74 859.84,-16.18 859.84,-16.18 863.85,-16.59 867.85,-21.03 867.85,-25.06"/>
<text text-anchor="middle" x="583.95" y="-32.88" font-family="monospace" font-size="14.00">FAULT</text>
<text text-anchor="middle" x="583.95" y="-17.88" font-family="monospace" font-size="14.00">axi4_read_interleave.session.AR.event_space</text>
</g>
<!-- n0&#45;&gt;fault -->
<g id="edge1" class="edge">
<title>n0&#45;&gt;fault</title>
<path fill="none" stroke="#dc2626" stroke-width="2" d="M264.05,-29.08C272.35,-29.08 280.85,-29.08 289.51,-29.08"/>
<polygon fill="#dc2626" stroke="#dc2626" stroke-width="2" points="289.74,-32.58 299.74,-29.08 289.74,-25.58 289.74,-32.58"/>
</g>
</g>
</svg>
