<?xml version="1.0" encoding="UTF-8" standalone="no"?>
<!DOCTYPE svg PUBLIC "-//W3C//DTD SVG 1.1//EN"
 "http://www.w3.org/Graphics/SVG/1.1/DTD/svg11.dtd">
<!-- Generated by graphviz version 2.43.0 (0)
 -->
<!-- Title: axi_scenario Pages: 1 -->
<svg width="1042pt" height="273pt"
 viewBox="0.00 0.00 1041.50 273.00" xmlns="http://www.w3.org/2000/svg" xmlns:xlink="http://www.w3.org/1999/xlink">
<g id="graph0" class="graph" transform="scale(1 1) rotate(0) translate(4 269)">
<title>axi_scenario</title>
<polygon fill="white" stroke="transparent" points="-4,4 -4,-269 1037.5,-269 1037.5,4 -4,4"/>
<text text-anchor="middle" x="516.75" y="-249.8" font-family="Times,serif" font-size="14.00">read_cross_id_interleave</text>
<!-- n0 -->
<g id="node1" class="node">
<title>n0</title>
<path fill="#fef3c7" stroke="black" d="M285,-222C285,-222 12,-222 12,-222 6,-222 0,-216 0,-210 0,-210 0,-181 0,-181 0,-175 6,-169 12,-169 12,-169 285,-169 285,-169 291,-169 297,-175 297,-181 297,-181 297,-210 297,-210 297,-216 291,-222 285,-222"/>
<text text-anchor="middle" x="148.5" y="-206.8" font-family="monospace" font-size="14.00">cycle 1 AR</text>
<text text-anchor="middle" x="148.5" y="-191.8" font-family="monospace" font-size="14.00">AR_TRANSFER id=1</text>
<text text-anchor="middle" x="148.5" y="-176.8" font-family="monospace" font-size="14.00">addr=36864 len=1 size=3 burst=INCR</text>
</g>
<!-- n1 -->
<g id="node2" class="node">
<title>n1</title>
<path fill="#fef3c7" stroke="black" d="M607,-222C607,-222 334,-222 334,-222 328,-222 322,-216 322,-210 322,-210 322,-181 322,-181 322,-175 328,-169 334,-169 334,-169 607,-169 607,-169 613,-169 619,-175 619,-181 619,-181 619,-210 619,-210 619,-216 613,-222 607,-222"/>
<text text-anchor="middle" x="470.5" y="-206.8" font-family="monospace" font-size="14.00">cycle 2 AR</text>
<text text-anchor="middle" x="470.5" y="-191.8" font-family="monospace" font-size="14.00">AR_TRANSFER id=2</text>
<text text-anchor="middle" x="470.5" y="-176.8" font-family="monospace" font-size="14.00">addr=37120 len=1 size=3 burst=INCR</text>
</g>
<!-- n0&#45;&gt;n1 -->
<g id="edge1" class="edge">
<title>n0&#45;&gt;n1</title>
<path fill="none" stroke="#94a3b8" d="M255.76,-169.02C255.81,-169.01 255.83,-169 255.83,-169 255.83,-169 326.01,-169 352.92,-169.01"/>
<polygon fill="#94a3b8" stroke="#94a3b8" points="353.24,-172.51 363.24,-169.02 353.25,-165.51 353.24,-172.51"/>
</g>
<!-- n0&#45;&gt;n1 -->
<!-- n3 -->
<g id="node4" class="node">
<title>n3</title>
<path fill="#dcfce7" stroke="black" d="M1021.5,-222C1021.5,-222 863.5,-222 863.5,-222 857.5,-222 851.5,-216 851.5,-210 851.5,-210 851.5,-181 851.5,-181 851.5,-175 857.5,-169 863.5,-169 863.5,-169 1021.5,-169 1021.5,-169 1027.5,-169 1033.5,-175 1033.5,-181 1033.5,-181 1033.5,-210 1033.5,-210 1033.5,-216 1027.5,-222 1021.5,-222"/>
<text text-anchor="middle" x="942.5" y="-206.8" font-family="monospace" font-size="14.00">cycle 4 R</text>
<text text-anchor="middle" x="942.5" y="-191.8" font-family="monospace" font-size="14.00">R_TRANSFER id=1</text>
<text text-anchor="middle" x="942.5" y="-176.8" font-family="monospace" font-size="14.00">resp=OKAY last=False</text>
</g>
<!-- n0&#45;&gt;n3 -->
<g id="edge11" class="edge">
<title>n0&#45;&gt;n3</title>
<path fill="none" stroke="#2563eb" stroke-width="2" d="M247.41,-222.01C286.38,-232.45 322,-242 322,-242 322,-242 826,-242 826,-242 826,-242 844.48,-234.62 866.72,-225.75"/>
<polygon fill="#2563eb" stroke="#2563eb" stroke-width="2" points="868.09,-228.97 876.08,-222.01 865.5,-222.47 868.09,-228.97"/>
</g>
<!-- n2 -->
<g id="node3" class="node">
<title>n2</title>
<path fill="#dcfce7" stroke="black" d="M814.5,-222C814.5,-222 656.5,-222 656.5,-222 650.5,-222 644.5,-216 644.5,-210 644.5,-210 644.5,-181 644.5,-181 644.5,-175 650.5,-169 656.5,-169 656.5,-169 814.5,-169 814.5,-169 820.5,-169 826.5,-175 826.5,-181 826.5,-181 826.5,-210 826.5,-210 826.5,-216 820.5,-222 814.5,-222"/>
<text text-anchor="middle" x="735.5" y="-206.8" font-family="monospace" font-size="14.00">cycle 3 R</text>
<text text-anchor="middle" x="735.5" y="-191.8" font-family="monospace" font-size="14.00">R_TRANSFER id=2</text>
<text text-anchor="middle" x="735.5" y="-176.8" font-family="monospace" font-size="14.00">resp=OKAY last=False</text>
</g>
<!-- n1&#45;&gt;n2 -->
<g id="edge2" class="edge">
<title>n1&#45;&gt;n2</title>
<path fill="none" stroke="#94a3b8" d="M558.77,-169.02C558.81,-169.01 558.83,-169 558.83,-169 558.83,-169 613.83,-169 637.07,-169.01"/>
<polygon fill="#94a3b8" stroke="#94a3b8" points="637.23,-172.51 647.23,-169.02 637.23,-165.51 637.23,-172.51"/>
</g>
<!-- n1&#45;&gt;n2 -->
<!-- n1&#45;&gt;n2 -->
<g id="edge10" class="edge">
<title>n1&#45;&gt;n2</title>
<path fill="none" stroke="#2563eb" stroke-width="2" d="M558.77,-221.98C558.81,-221.99 558.83,-222 558.83,-222 558.83,-222 613.83,-222 637.07,-221.99"/>
<polygon fill="#2563eb" stroke="#2563eb" stroke-width="2" points="637.23,-225.49 647.23,-221.98 637.23,-218.49 637.23,-225.49"/>
</g>
<!-- n2&#45;&gt;n3 -->
<g id="edge3" class="edge">
<title>n2&#45;&gt;n3</title>
<path fill="none" stroke="#94a3b8" d="M804.45,-169.02C804.48,-169.01 804.5,-169 804.5,-169 804.5,-169 844.13,-169 863.34,-169.01"/>
<polygon fill="#94a3b8" stroke="#94a3b8" points="863.55,-172.51 873.55,-169.02 863.55,-165.51 863.55,-172.51"/>
</g>
<!-- n2&#45;&gt;n3 -->
<!-- n4 -->
<g id="node5" class="node">
<title>n4</title>
<path fill="#dcfce7" stroke="black" d="M1017,-129C1017,-129 868,-129 868,-129 862,-129 856,-123 856,-117 856,-117 856,-88 856,-88 856,-82 862,-76 868,-76 868,-76 1017,-76 1017,-76 1023,-76 1029,-82 1029,-88 1029,-88 1029,-117 1029,-117 1029,-123 1023,-129 1017,-129"/>
<text text-anchor="middle" x="942.5" y="-113.8" font-family="monospace" font-size="14.00">cycle 5 R</text>
<text text-anchor="middle" x="942.5" y="-98.8" font-family="monospace" font-size="14.00">R_TRANSFER id=2</text>
<text text-anchor="middle" x="942.5" y="-83.8" font-family="monospace" font-size="14.00">resp=OKAY last=True</text>
</g>
<!-- n2&#45;&gt;n4 -->
<g id="edge12" class="edge">
<title>n2&#45;&gt;n4</title>
<path fill="none" stroke="#2563eb" stroke-width="2" d="M793.71,-168.91C818.95,-157.81 848.67,-144.75 874.88,-133.23"/>
<polygon fill="#2563eb" stroke="#2563eb" stroke-width="2" points="876.62,-136.28 884.37,-129.06 873.8,-129.88 876.62,-136.28"/>
</g>
<!-- n3&#45;&gt;n4 -->
<g id="edge4" class="edge">
<title>n3&#45;&gt;n4</title>
<path fill="none" stroke="#94a3b8" d="M942.5,-168.67C942.5,-159.56 942.5,-149.15 942.5,-139.37"/>
<polygon fill="#94a3b8" stroke="#94a3b8" points="946,-139.08 942.5,-129.08 939,-139.08 946,-139.08"/>
</g>
<!-- n5 -->
<g id="node6" class="node">
<title>n5</title>
<path fill="#dcfce7" stroke="black" d="M819,-129C819,-129 670,-129 670,-129 664,-129 658,-123 658,-117 658,-117 658,-88 658,-88 658,-82 664,-76 670,-76 670,-76 819,-76 819,-76 825,-76 831,-82 831,-88 831,-88 831,-117 831,-117 831,-123 825,-129 819,-129"/>
<text text-anchor="middle" x="744.5" y="-113.8" font-family="monospace" font-size="14.00">cycle 6 R</text>
<text text-anchor="middle" x="744.5" y="-98.8" font-family="monospace" font-size="14.00">R_TRANSFER id=1</text>
<text text-anchor="middle" x="744.5" y="-83.8" font-family="monospace" font-size="14.00">resp=OKAY last=True</text>
</g>
<!-- n3&#45;&gt;n5 -->
<g id="edge13" class="edge">
<title>n3&#45;&gt;n5</title>
<path fill="none" stroke="#2563eb" stroke-width="2" d="M886.82,-168.91C862.78,-157.86 834.5,-144.86 809.51,-133.38"/>
<polygon fill="#2563eb" stroke="#2563eb" stroke-width="2" points="810.65,-130.05 800.11,-129.06 807.73,-136.41 810.65,-130.05"/>
</g>
<!-- n4&#45;&gt;n5 -->
<g id="edge5" class="edge">
<title>n4&#45;&gt;n5</title>
<path fill="none" stroke="#94a3b8" d="M876.55,-76.02C876.52,-76.01 876.5,-76 876.5,-76 876.5,-76 838.99,-76 820.5,-76.01"/>
<polygon fill="#94a3b8" stroke="#94a3b8" points="820.45,-72.51 810.45,-76.02 820.46,-79.51 820.45,-72.51"/>
</g>
<!-- n5&#45;&gt;n4 -->
<!-- done -->
<g id="node7" class="node">
<title>done</title>
<path fill="#bbf7d0" stroke="black" d="M807,-36C807,-36 682,-36 682,-36 676,-36 670,-30 670,-24 670,-24 670,-12 670,-12 670,-6 676,0 682,0 682,0 807,0 807,0 813,0 819,-6 819,-12 819,-12 819,-24 819,-24 819,-30 813,-36 807,-36"/>
<text text-anchor="middle" x="744.5" y="-14.3" font-family="monospace" font-size="14.00">QUIESCENT / PASS</text>
</g>
<!-- n5&#45;&gt;done -->
<g id="edge14" class="edge">
<title>n5&#45;&gt;done</title>
<path fill="none" stroke="#16a34a" stroke-width="2" d="M744.5,-75.85C744.5,-66.5 744.5,-55.9 744.5,-46.41"/>
<polygon fill="#16a34a" stroke="#16a34a" stroke-width="2" points="748,-46.28 744.5,-36.28 741,-46.28 748,-46.28"/>
</g>
</g>
</svg>
