<?xml version="1.0" encoding="UTF-8" standalone="no"?>
<!DOCTYPE svg PUBLIC "-//W3C//DTD SVG 1.1//EN"
 "http://www.w3.org/Graphics/SVG/1.1/DTD/svg11.dtd">
<!-- Generated by graphviz version 2.43.0 (0)
 -->
<!-- Title: axi4_example_coverage Pages: 1 -->
<svg width="1253pt" height="887pt"
 viewBox="0.00 0.00 1253.32 887.32" xmlns="http://www.w3.org/2000/svg" xmlns:xlink="http://www.w3.org/1999/xlink">
<g id="graph0" class="graph" transform="scale(1 1) rotate(0) translate(20.16 867.16)">
<title>axi4_example_coverage</title>
<polygon fill="#f4f7f9" stroke="transparent" points="-20.16,20.16 -20.16,-867.16 1233.16,-867.16 1233.16,20.16 -20.16,20.16"/>
<!-- hero&#45;&gt;stats -->
<!-- stats&#45;&gt;theme_row1 -->
<!-- theme_row1&#45;&gt;theme_row2 -->
<!-- theme_row2&#45;&gt;footer -->
<!-- hero -->
<g id="node1" class="node">
<title>hero</title>
<text text-anchor="start" x="11.5" y="-839.5" font-family="Noto Sans CJK SC" font-weight="bold" font-size="10.00" fill="#1674a8">PROTOCOL MODEL &#160;/ &#160;可执行证据</text>
<text text-anchor="start" x="11.5" y="-805.4" font-family="Noto Sans CJK SC" font-weight="bold" font-size="27.00" fill="#102c40">AXI4 EXECUTABLE EXAMPLES</text>
<text text-anchor="start" x="11.5" y="-776.9" font-family="Noto Sans CJK SC" font-size="12.00" fill="#587181">从实际模型运行结果派生的场景总览 &#160;· &#160;An executable view of protocol behavior</text>
</g>
<!-- stats -->
<g id="node2" class="node">
<title>stats</title>
<polygon fill="#1674a8" stroke="transparent" points="35.5,-646 35.5,-740 313.5,-740 313.5,-646 35.5,-646"/>
<text text-anchor="start" x="47.5" y="-695.3" font-family="Noto Sans CJK SC" font-weight="bold" font-size="29.00" fill="#ffffff">24</text>
<text text-anchor="start" x="47.5" y="-681.5" font-family="Noto Sans CJK SC" font-weight="bold" font-size="10.00" fill="#ffffff">EXECUTED SCENARIOS</text>
<text text-anchor="start" x="47.5" y="-671.5" font-family="Noto Sans CJK SC" font-size="10.00" fill="#ffffff">已执行场景</text>
<polygon fill="#e5eff5" stroke="transparent" points="323.5,-646 323.5,-740 601.5,-740 601.5,-646 323.5,-646"/>
<text text-anchor="start" x="335.5" y="-695.3" font-family="Noto Sans CJK SC" font-weight="bold" font-size="29.00" fill="#173d59">5</text>
<text text-anchor="start" x="335.5" y="-681.5" font-family="Noto Sans CJK SC" font-weight="bold" font-size="10.00" fill="#173d59">BEHAVIOR THEMES</text>
<text text-anchor="start" x="335.5" y="-671.5" font-family="Noto Sans CJK SC" font-size="10.00" fill="#173d59">行为主题</text>
<polygon fill="#e2f2e8" stroke="transparent" points="611.5,-646 611.5,-740 889.5,-740 889.5,-646 611.5,-646"/>
<text text-anchor="start" x="623.5" y="-695.3" font-family="Noto Sans CJK SC" font-weight="bold" font-size="29.00" fill="#176b45">10</text>
<text text-anchor="start" x="623.5" y="-681.5" font-family="Noto Sans CJK SC" font-weight="bold" font-size="10.00" fill="#176b45">LEGAL&#45;PATH CASES</text>
<text text-anchor="start" x="623.5" y="-671.5" font-family="Noto Sans CJK SC" font-size="10.00" fill="#176b45">合法路径</text>
<polygon fill="#fcebd7" stroke="transparent" points="899.5,-646 899.5,-740 1177.5,-740 1177.5,-646 899.5,-646"/>
<text text-anchor="start" x="911.5" y="-695.3" font-family="Noto Sans CJK SC" font-weight="bold" font-size="29.00" fill="#9a5b13">14</text>
<text text-anchor="start" x="911.5" y="-681.5" font-family="Noto Sans CJK SC" font-weight="bold" font-size="10.00" fill="#9a5b13">EXPECTED REJECTS</text>
<text text-anchor="start" x="911.5" y="-671.5" font-family="Noto Sans CJK SC" font-size="10.00" fill="#9a5b13">预期拒绝</text>
</g>
<!-- theme_row1 -->
<g id="node3" class="node">
<title>theme_row1</title>
<polygon fill="#d9e3ea" stroke="transparent" points="210.5,-318.5 210.5,-601.5 601.5,-601.5 601.5,-318.5 210.5,-318.5"/>
<polygon fill="#173d59" stroke="transparent" points="211.5,-543.5 211.5,-600.5 600.5,-600.5 600.5,-543.5 211.5,-543.5"/>
<text text-anchor="start" x="218.5" y="-576.8" font-family="Noto Sans CJK SC" font-weight="bold" font-size="9.00" fill="#9fc5db">THEME 01 / 05 · 7 CASES</text>
<text text-anchor="start" x="218.5" y="-564.6" font-family="Noto Sans CJK SC" font-weight="bold" font-size="13.00" fill="white">Lifecycle &#160;/ &#160;事务生命周期</text>
<polygon fill="#ffffff" stroke="transparent" points="211.5,-511.5 211.5,-542.5 469.5,-542.5 469.5,-511.5 211.5,-511.5"/>
<text text-anchor="start" x="218.5" y="-525.5" font-family="Noto Sans CJK SC" font-size="9.00" fill="#8192a1">01</text>
<text text-anchor="start" x="229.5" y="-525.5" font-family="Noto Sans CJK SC" font-size="10.00" fill="#233746"> &#160;read&#45;single&#45;lifecycle</text>
<polygon fill="#e8f5ed" stroke="transparent" points="470.5,-511.5 470.5,-542.5 600.5,-542.5 600.5,-511.5 470.5,-511.5"/>
<text text-anchor="start" x="503.5" y="-525.8" font-family="Noto Sans CJK SC" font-weight="bold" font-size="9.00" fill="#176b45">LEGAL · PASS</text>
<polygon fill="#f7fafc" stroke="transparent" points="211.5,-479.5 211.5,-510.5 469.5,-510.5 469.5,-479.5 211.5,-479.5"/>
<text text-anchor="start" x="218.5" y="-493.5" font-family="Noto Sans CJK SC" font-size="9.00" fill="#8192a1">02</text>
<text text-anchor="start" x="229.5" y="-493.5" font-family="Noto Sans CJK SC" font-size="10.00" fill="#233746"> &#160;read&#45;orphan&#45;response</text>
<polygon fill="#fff1de" stroke="transparent" points="470.5,-479.5 470.5,-510.5 600.5,-510.5 600.5,-479.5 470.5,-479.5"/>
<text text-anchor="start" x="489" y="-493.8" font-family="Noto Sans CJK SC" font-weight="bold" font-size="9.00" fill="#9a5b13">EXPECTED · REJECT</text>
<polygon fill="#ffffff" stroke="transparent" points="211.5,-447.5 211.5,-478.5 469.5,-478.5 469.5,-447.5 211.5,-447.5"/>
<text text-anchor="start" x="218.5" y="-461.5" font-family="Noto Sans CJK SC" font-size="9.00" fill="#8192a1">03</text>
<text text-anchor="start" x="229.5" y="-461.5" font-family="Noto Sans CJK SC" font-size="10.00" fill="#233746"> &#160;write&#45;single&#45;lifecycle</text>
<polygon fill="#e8f5ed" stroke="transparent" points="470.5,-447.5 470.5,-478.5 600.5,-478.5 600.5,-447.5 470.5,-447.5"/>
<text text-anchor="start" x="503.5" y="-461.8" font-family="Noto Sans CJK SC" font-weight="bold" font-size="9.00" fill="#176b45">LEGAL · PASS</text>
<polygon fill="#f7fafc" stroke="transparent" points="211.5,-415.5 211.5,-446.5 469.5,-446.5 469.5,-415.5 211.5,-415.5"/>
<text text-anchor="start" x="218.5" y="-429.5" font-family="Noto Sans CJK SC" font-size="9.00" fill="#8192a1">04</text>
<text text-anchor="start" x="229.5" y="-429.5" font-family="Noto Sans CJK SC" font-size="10.00" fill="#233746"> &#160;write&#45;data&#45;before&#45;address</text>
<polygon fill="#e8f5ed" stroke="transparent" points="470.5,-415.5 470.5,-446.5 600.5,-446.5 600.5,-415.5 470.5,-415.5"/>
<text text-anchor="start" x="503.5" y="-429.8" font-family="Noto Sans CJK SC" font-weight="bold" font-size="9.00" fill="#176b45">LEGAL · PASS</text>
<polygon fill="#ffffff" stroke="transparent" points="211.5,-383.5 211.5,-414.5 469.5,-414.5 469.5,-383.5 211.5,-383.5"/>
<text text-anchor="start" x="218.5" y="-397.5" font-family="Noto Sans CJK SC" font-size="9.00" fill="#8192a1">05</text>
<text text-anchor="start" x="229.5" y="-397.5" font-family="Noto Sans CJK SC" font-size="10.00" fill="#233746"> &#160;write&#45;early&#45;wlast</text>
<polygon fill="#fff1de" stroke="transparent" points="470.5,-383.5 470.5,-414.5 600.5,-414.5 600.5,-383.5 470.5,-383.5"/>
<text text-anchor="start" x="489" y="-397.8" font-family="Noto Sans CJK SC" font-weight="bold" font-size="9.00" fill="#9a5b13">EXPECTED · REJECT</text>
<polygon fill="#f7fafc" stroke="transparent" points="211.5,-351.5 211.5,-382.5 469.5,-382.5 469.5,-351.5 211.5,-351.5"/>
<text text-anchor="start" x="218.5" y="-365.5" font-family="Noto Sans CJK SC" font-size="9.00" fill="#8192a1">06</text>
<text text-anchor="start" x="229.5" y="-365.5" font-family="Noto Sans CJK SC" font-size="10.00" fill="#233746"> &#160;write&#45;missing&#45;wlast</text>
<polygon fill="#fff1de" stroke="transparent" points="470.5,-351.5 470.5,-382.5 600.5,-382.5 600.5,-351.5 470.5,-351.5"/>
<text text-anchor="start" x="489" y="-365.8" font-family="Noto Sans CJK SC" font-weight="bold" font-size="9.00" fill="#9a5b13">EXPECTED · REJECT</text>
<polygon fill="#ffffff" stroke="transparent" points="211.5,-319.5 211.5,-350.5 469.5,-350.5 469.5,-319.5 211.5,-319.5"/>
<text text-anchor="start" x="218.5" y="-333.5" font-family="Noto Sans CJK SC" font-size="9.00" fill="#8192a1">07</text>
<text text-anchor="start" x="229.5" y="-333.5" font-family="Noto Sans CJK SC" font-size="10.00" fill="#233746"> &#160;write&#45;wrong&#45;bid</text>
<polygon fill="#fff1de" stroke="transparent" points="470.5,-319.5 470.5,-350.5 600.5,-350.5 600.5,-319.5 470.5,-319.5"/>
<text text-anchor="start" x="489" y="-333.8" font-family="Noto Sans CJK SC" font-weight="bold" font-size="9.00" fill="#9a5b13">EXPECTED · REJECT</text>
<polygon fill="#d9e3ea" stroke="transparent" points="611.5,-318.5 611.5,-601.5 1002.5,-601.5 1002.5,-318.5 611.5,-318.5"/>
<polygon fill="#173d59" stroke="transparent" points="612.5,-543.5 612.5,-600.5 1001.5,-600.5 1001.5,-543.5 612.5,-543.5"/>
<text text-anchor="start" x="619.5" y="-576.8" font-family="Noto Sans CJK SC" font-weight="bold" font-size="9.00" fill="#9fc5db">THEME 02 / 05 · 7 CASES</text>
<text text-anchor="start" x="619.5" y="-564.6" font-family="Noto Sans CJK SC" font-weight="bold" font-size="13.00" fill="white">Geometry &#160;/ &#160;burst 与字节几何</text>
<polygon fill="#ffffff" stroke="transparent" points="612.5,-511.5 612.5,-542.5 870.5,-542.5 870.5,-511.5 612.5,-511.5"/>
<text text-anchor="start" x="619.5" y="-525.5" font-family="Noto Sans CJK SC" font-size="9.00" fill="#8192a1">01</text>
<text text-anchor="start" x="630.5" y="-525.5" font-family="Noto Sans CJK SC" font-size="10.00" fill="#233746"> &#160;read&#45;crosses&#45;4kb&#45;boundary</text>
<polygon fill="#fff1de" stroke="transparent" points="871.5,-511.5 871.5,-542.5 1001.5,-542.5 1001.5,-511.5 871.5,-511.5"/>
<text text-anchor="start" x="890" y="-525.8" font-family="Noto Sans CJK SC" font-weight="bold" font-size="9.00" fill="#9a5b13">EXPECTED · REJECT</text>
<polygon fill="#f7fafc" stroke="transparent" points="612.5,-479.5 612.5,-510.5 870.5,-510.5 870.5,-479.5 612.5,-479.5"/>
<text text-anchor="start" x="619.5" y="-493.5" font-family="Noto Sans CJK SC" font-size="9.00" fill="#8192a1">02</text>
<text text-anchor="start" x="630.5" y="-493.5" font-family="Noto Sans CJK SC" font-size="10.00" fill="#233746"> &#160;write&#45;narrow&#45;unaligned&#45;incr</text>
<polygon fill="#e8f5ed" stroke="transparent" points="871.5,-479.5 871.5,-510.5 1001.5,-510.5 1001.5,-479.5 871.5,-479.5"/>
<text text-anchor="start" x="904.5" y="-493.8" font-family="Noto Sans CJK SC" font-weight="bold" font-size="9.00" fill="#176b45">LEGAL · PASS</text>
<polygon fill="#ffffff" stroke="transparent" points="612.5,-447.5 612.5,-478.5 870.5,-478.5 870.5,-447.5 612.5,-447.5"/>
<text text-anchor="start" x="619.5" y="-461.5" font-family="Noto Sans CJK SC" font-size="9.00" fill="#8192a1">03</text>
<text text-anchor="start" x="630.5" y="-461.5" font-family="Noto Sans CJK SC" font-size="10.00" fill="#233746"> &#160;write&#45;strobe&#45;outside&#45;lanes</text>
<polygon fill="#fff1de" stroke="transparent" points="871.5,-447.5 871.5,-478.5 1001.5,-478.5 1001.5,-447.5 871.5,-447.5"/>
<text text-anchor="start" x="890" y="-461.8" font-family="Noto Sans CJK SC" font-weight="bold" font-size="9.00" fill="#9a5b13">EXPECTED · REJECT</text>
<polygon fill="#f7fafc" stroke="transparent" points="612.5,-415.5 612.5,-446.5 870.5,-446.5 870.5,-415.5 612.5,-415.5"/>
<text text-anchor="start" x="619.5" y="-429.5" font-family="Noto Sans CJK SC" font-size="9.00" fill="#8192a1">04</text>
<text text-anchor="start" x="630.5" y="-429.5" font-family="Noto Sans CJK SC" font-size="10.00" fill="#233746"> &#160;read&#45;wrap&#45;four&#45;legal</text>
<polygon fill="#e8f5ed" stroke="transparent" points="871.5,-415.5 871.5,-446.5 1001.5,-446.5 1001.5,-415.5 871.5,-415.5"/>
<text text-anchor="start" x="904.5" y="-429.8" font-family="Noto Sans CJK SC" font-weight="bold" font-size="9.00" fill="#176b45">LEGAL · PASS</text>
<polygon fill="#ffffff" stroke="transparent" points="612.5,-383.5 612.5,-414.5 870.5,-414.5 870.5,-383.5 612.5,-383.5"/>
<text text-anchor="start" x="619.5" y="-397.5" font-family="Noto Sans CJK SC" font-size="9.00" fill="#8192a1">05</text>
<text text-anchor="start" x="630.5" y="-397.5" font-family="Noto Sans CJK SC" font-size="10.00" fill="#233746"> &#160;read&#45;wrap&#45;three&#45;illegal</text>
<polygon fill="#fff1de" stroke="transparent" points="871.5,-383.5 871.5,-414.5 1001.5,-414.5 1001.5,-383.5 871.5,-383.5"/>
<text text-anchor="start" x="890" y="-397.8" font-family="Noto Sans CJK SC" font-weight="bold" font-size="9.00" fill="#9a5b13">EXPECTED · REJECT</text>
<polygon fill="#f7fafc" stroke="transparent" points="612.5,-351.5 612.5,-382.5 870.5,-382.5 870.5,-351.5 612.5,-351.5"/>
<text text-anchor="start" x="619.5" y="-365.5" font-family="Noto Sans CJK SC" font-size="9.00" fill="#8192a1">06</text>
<text text-anchor="start" x="630.5" y="-365.5" font-family="Noto Sans CJK SC" font-size="10.00" fill="#233746"> &#160;read&#45;fixed&#45;sixteen&#45;legal</text>
<polygon fill="#e8f5ed" stroke="transparent" points="871.5,-351.5 871.5,-382.5 1001.5,-382.5 1001.5,-351.5 871.5,-351.5"/>
<text text-anchor="start" x="904.5" y="-365.8" font-family="Noto Sans CJK SC" font-weight="bold" font-size="9.00" fill="#176b45">LEGAL · PASS</text>
<polygon fill="#ffffff" stroke="transparent" points="612.5,-319.5 612.5,-350.5 870.5,-350.5 870.5,-319.5 612.5,-319.5"/>
<text text-anchor="start" x="619.5" y="-333.5" font-family="Noto Sans CJK SC" font-size="9.00" fill="#8192a1">07</text>
<text text-anchor="start" x="630.5" y="-333.5" font-family="Noto Sans CJK SC" font-size="10.00" fill="#233746"> &#160;read&#45;fixed&#45;seventeen&#45;illegal</text>
<polygon fill="#fff1de" stroke="transparent" points="871.5,-319.5 871.5,-350.5 1001.5,-350.5 1001.5,-319.5 871.5,-319.5"/>
<text text-anchor="start" x="890" y="-333.8" font-family="Noto Sans CJK SC" font-weight="bold" font-size="9.00" fill="#9a5b13">EXPECTED · REJECT</text>
</g>
<!-- theme_row2 -->
<g id="node4" class="node">
<title>theme_row2</title>
<polygon fill="#d9e3ea" stroke="transparent" points="10.5,-87.5 10.5,-274.5 401.5,-274.5 401.5,-87.5 10.5,-87.5"/>
<polygon fill="#173d59" stroke="transparent" points="11.5,-208.5 11.5,-273.5 400.5,-273.5 400.5,-208.5 11.5,-208.5"/>
<text text-anchor="start" x="18.5" y="-245.8" font-family="Noto Sans CJK SC" font-weight="bold" font-size="9.00" fill="#9fc5db">THEME 03 / 05 · 3 CASES</text>
<text text-anchor="start" x="18.5" y="-233.6" font-family="Noto Sans CJK SC" font-weight="bold" font-size="13.00" fill="white">Ordering / interleave &#160;/ &#160;顺序与交织</text>
<polygon fill="#ffffff" stroke="transparent" points="11.5,-168.5 11.5,-207.5 269.5,-207.5 269.5,-168.5 11.5,-168.5"/>
<text text-anchor="start" x="18.5" y="-186.5" font-family="Noto Sans CJK SC" font-size="9.00" fill="#8192a1">01</text>
<text text-anchor="start" x="29.5" y="-186.5" font-family="Noto Sans CJK SC" font-size="10.00" fill="#233746"> &#160;read&#45;cross&#45;id&#45;interleave</text>
<polygon fill="#e8f5ed" stroke="transparent" points="270.5,-168.5 270.5,-207.5 400.5,-207.5 400.5,-168.5 270.5,-168.5"/>
<text text-anchor="start" x="303.5" y="-186.8" font-family="Noto Sans CJK SC" font-weight="bold" font-size="9.00" fill="#176b45">LEGAL · PASS</text>
<polygon fill="#f7fafc" stroke="transparent" points="11.5,-128.5 11.5,-167.5 269.5,-167.5 269.5,-128.5 11.5,-128.5"/>
<text text-anchor="start" x="18.5" y="-146.5" font-family="Noto Sans CJK SC" font-size="9.00" fill="#8192a1">02</text>
<text text-anchor="start" x="29.5" y="-146.5" font-family="Noto Sans CJK SC" font-size="10.00" fill="#233746"> &#160;read&#45;same&#45;id&#45;later&#45;cannot&#45;overtake</text>
<polygon fill="#fff1de" stroke="transparent" points="270.5,-128.5 270.5,-167.5 400.5,-167.5 400.5,-128.5 270.5,-128.5"/>
<text text-anchor="start" x="289" y="-146.8" font-family="Noto Sans CJK SC" font-weight="bold" font-size="9.00" fill="#9a5b13">EXPECTED · REJECT</text>
<polygon fill="#ffffff" stroke="transparent" points="11.5,-88.5 11.5,-127.5 269.5,-127.5 269.5,-88.5 11.5,-88.5"/>
<text text-anchor="start" x="18.5" y="-106.5" font-family="Noto Sans CJK SC" font-size="9.00" fill="#8192a1">03</text>
<text text-anchor="start" x="29.5" y="-106.5" font-family="Noto Sans CJK SC" font-size="10.00" fill="#233746"> &#160;write&#45;multiple&#45;outstanding&#45;reverse&#45;b</text>
<polygon fill="#e8f5ed" stroke="transparent" points="270.5,-88.5 270.5,-127.5 400.5,-127.5 400.5,-88.5 270.5,-88.5"/>
<text text-anchor="start" x="303.5" y="-106.8" font-family="Noto Sans CJK SC" font-weight="bold" font-size="9.00" fill="#176b45">LEGAL · PASS</text>
<polygon fill="#d9e3ea" stroke="transparent" points="411.5,-87.5 411.5,-274.5 802.5,-274.5 802.5,-87.5 411.5,-87.5"/>
<polygon fill="#173d59" stroke="transparent" points="412.5,-216.5 412.5,-273.5 801.5,-273.5 801.5,-216.5 412.5,-216.5"/>
<text text-anchor="start" x="419.5" y="-249.8" font-family="Noto Sans CJK SC" font-weight="bold" font-size="9.00" fill="#9fc5db">THEME 04 / 05 · 4 CASES</text>
<text text-anchor="start" x="419.5" y="-237.6" font-family="Noto Sans CJK SC" font-weight="bold" font-size="13.00" fill="white">Observation / reset &#160;/ &#160;采样与复位</text>
<polygon fill="#ffffff" stroke="transparent" points="412.5,-184.5 412.5,-215.5 670.5,-215.5 670.5,-184.5 412.5,-184.5"/>
<text text-anchor="start" x="419.5" y="-198.5" font-family="Noto Sans CJK SC" font-size="9.00" fill="#8192a1">01</text>
<text text-anchor="start" x="430.5" y="-198.5" font-family="Noto Sans CJK SC" font-size="10.00" fill="#233746"> &#160;observation&#45;same&#45;frame&#45;aw&#45;w</text>
<polygon fill="#e8f5ed" stroke="transparent" points="671.5,-184.5 671.5,-215.5 801.5,-215.5 801.5,-184.5 671.5,-184.5"/>
<text text-anchor="start" x="704.5" y="-198.8" font-family="Noto Sans CJK SC" font-weight="bold" font-size="9.00" fill="#176b45">LEGAL · PASS</text>
<polygon fill="#f7fafc" stroke="transparent" points="412.5,-152.5 412.5,-183.5 670.5,-183.5 670.5,-152.5 412.5,-152.5"/>
<text text-anchor="start" x="419.5" y="-166.5" font-family="Noto Sans CJK SC" font-size="9.00" fill="#8192a1">02</text>
<text text-anchor="start" x="430.5" y="-166.5" font-family="Noto Sans CJK SC" font-size="10.00" fill="#233746"> &#160;observation&#45;same&#45;frame&#45;ar&#45;r</text>
<polygon fill="#fff1de" stroke="transparent" points="671.5,-152.5 671.5,-183.5 801.5,-183.5 801.5,-152.5 671.5,-152.5"/>
<text text-anchor="start" x="690" y="-166.8" font-family="Noto Sans CJK SC" font-weight="bold" font-size="9.00" fill="#9a5b13">EXPECTED · REJECT</text>
<polygon fill="#ffffff" stroke="transparent" points="412.5,-120.5 412.5,-151.5 670.5,-151.5 670.5,-120.5 412.5,-120.5"/>
<text text-anchor="start" x="419.5" y="-134.5" font-family="Noto Sans CJK SC" font-size="9.00" fill="#8192a1">03</text>
<text text-anchor="start" x="430.5" y="-134.5" font-family="Noto Sans CJK SC" font-size="10.00" fill="#233746"> &#160;observation&#45;stalled&#45;payload&#45;mutation</text>
<polygon fill="#fff1de" stroke="transparent" points="671.5,-120.5 671.5,-151.5 801.5,-151.5 801.5,-120.5 671.5,-120.5"/>
<text text-anchor="start" x="690" y="-134.8" font-family="Noto Sans CJK SC" font-weight="bold" font-size="9.00" fill="#9a5b13">EXPECTED · REJECT</text>
<polygon fill="#f7fafc" stroke="transparent" points="412.5,-88.5 412.5,-119.5 670.5,-119.5 670.5,-88.5 412.5,-88.5"/>
<text text-anchor="start" x="419.5" y="-102.5" font-family="Noto Sans CJK SC" font-size="9.00" fill="#8192a1">04</text>
<text text-anchor="start" x="430.5" y="-102.5" font-family="Noto Sans CJK SC" font-size="10.00" fill="#233746"> &#160;observation&#45;reset&#45;clears&#45;pending&#45;read</text>
<polygon fill="#fff1de" stroke="transparent" points="671.5,-88.5 671.5,-119.5 801.5,-119.5 801.5,-88.5 671.5,-88.5"/>
<text text-anchor="start" x="690" y="-102.8" font-family="Noto Sans CJK SC" font-weight="bold" font-size="9.00" fill="#9a5b13">EXPECTED · REJECT</text>
<polygon fill="#d9e3ea" stroke="transparent" points="812.5,-87.5 812.5,-274.5 1203.5,-274.5 1203.5,-87.5 812.5,-87.5"/>
<polygon fill="#173d59" stroke="transparent" points="813.5,-208.5 813.5,-273.5 1202.5,-273.5 1202.5,-208.5 813.5,-208.5"/>
<text text-anchor="start" x="820.5" y="-245.8" font-family="Noto Sans CJK SC" font-weight="bold" font-size="9.00" fill="#9fc5db">THEME 05 / 05 · 3 CASES</text>
<text text-anchor="start" x="820.5" y="-233.6" font-family="Noto Sans CJK SC" font-weight="bold" font-size="13.00" fill="white">Exclusive / profile &#160;/ &#160;独占访问与 profile</text>
<polygon fill="#ffffff" stroke="transparent" points="813.5,-168.5 813.5,-207.5 1071.5,-207.5 1071.5,-168.5 813.5,-168.5"/>
<text text-anchor="start" x="820.5" y="-186.5" font-family="Noto Sans CJK SC" font-size="9.00" fill="#8192a1">01</text>
<text text-anchor="start" x="831.5" y="-186.5" font-family="Noto Sans CJK SC" font-size="10.00" fill="#233746"> &#160;exclusive&#45;matching&#45;exokay</text>
<polygon fill="#e8f5ed" stroke="transparent" points="1072.5,-168.5 1072.5,-207.5 1202.5,-207.5 1202.5,-168.5 1072.5,-168.5"/>
<text text-anchor="start" x="1105.5" y="-186.8" font-family="Noto Sans CJK SC" font-weight="bold" font-size="9.00" fill="#176b45">LEGAL · PASS</text>
<polygon fill="#f7fafc" stroke="transparent" points="813.5,-128.5 813.5,-167.5 1071.5,-167.5 1071.5,-128.5 813.5,-128.5"/>
<text text-anchor="start" x="820.5" y="-146.5" font-family="Noto Sans CJK SC" font-size="9.00" fill="#8192a1">02</text>
<text text-anchor="start" x="831.5" y="-146.5" font-family="Noto Sans CJK SC" font-size="10.00" fill="#233746"> &#160;profile&#45;bounded&#45;read&#45;capacity</text>
<polygon fill="#fff1de" stroke="transparent" points="1072.5,-128.5 1072.5,-167.5 1202.5,-167.5 1202.5,-128.5 1072.5,-128.5"/>
<text text-anchor="start" x="1091" y="-146.8" font-family="Noto Sans CJK SC" font-weight="bold" font-size="9.00" fill="#9a5b13">EXPECTED · REJECT</text>
<polygon fill="#ffffff" stroke="transparent" points="813.5,-88.5 813.5,-127.5 1071.5,-127.5 1071.5,-88.5 813.5,-88.5"/>
<text text-anchor="start" x="820.5" y="-106.5" font-family="Noto Sans CJK SC" font-size="9.00" fill="#8192a1">03</text>
<text text-anchor="start" x="831.5" y="-106.5" font-family="Noto Sans CJK SC" font-size="10.00" fill="#233746"> &#160;exclusive&#45;unmatched&#45;success</text>
<polygon fill="#fff1de" stroke="transparent" points="1072.5,-88.5 1072.5,-127.5 1202.5,-127.5 1202.5,-88.5 1072.5,-88.5"/>
<text text-anchor="start" x="1091" y="-106.8" font-family="Noto Sans CJK SC" font-weight="bold" font-size="9.00" fill="#9a5b13">EXPECTED · REJECT</text>
</g>
<!-- footer -->
<g id="node5" class="node">
<title>footer</title>
<text text-anchor="start" x="11.5" y="-36.5" font-family="Noto Sans CJK SC" font-weight="bold" font-size="10.00" fill="#1674a8">ALL 24 DECLARED EXPECTATIONS MET</text>
<text text-anchor="start" x="11.5" y="-14" font-family="Noto Sans CJK SC" font-size="10.00" fill="#667e8d">SCENARIO EVIDENCE ONLY — NOT A CLAIM OF AXI4 SPECIFICATION COMPLETENESS OR RTL COMPLIANCE</text>
<text text-anchor="start" x="11.5" y="-3" font-family="Noto Sans CJK SC" font-size="10.00" fill="#667e8d">仅表示已执行的场景证据，不表示 AXI4 规范完备性或 RTL compliance</text>
</g>
</g>
</svg>
