<?xml version="1.0" encoding="UTF-8" standalone="no"?>
<!DOCTYPE svg PUBLIC "-//W3C//DTD SVG 1.1//EN"
 "http://www.w3.org/Graphics/SVG/1.1/DTD/svg11.dtd">
<!-- Generated by graphviz version 2.43.0 (0)
 -->
<!-- Title: demo_scope Pages: 1 -->
<svg width="1493pt" height="185pt"
 viewBox="0.00 0.00 1493.00 185.00" xmlns="http://www.w3.org/2000/svg" xmlns:xlink="http://www.w3.org/1999/xlink">
<g id="graph0" class="graph" transform="scale(1 1) rotate(0) translate(4 181)">
<title>demo_scope</title>
<polygon fill="white" stroke="transparent" points="-4,4 -4,-181 1489,-181 1489,4 -4,4"/>
<text text-anchor="middle" x="742.5" y="-161.8" font-family="Times,serif" font-size="14.00">AXI4 executable example path / AXI4 可执行示例路径</text>
<!-- inputs -->
<g id="node1" class="node">
<title>inputs</title>
<path fill="#f7f0ff" stroke="#7652a8" d="M436,-154C436,-154 217,-154 217,-154 211,-154 205,-148 205,-142 205,-142 205,-107 205,-107 205,-101 211,-95 217,-95 217,-95 436,-95 436,-95 442,-95 448,-101 448,-107 448,-107 448,-142 448,-142 448,-148 442,-154 436,-154"/>
<text text-anchor="middle" x="326.5" y="-135.8" font-family="sans-serif" font-size="14.00">24 named inputs</text>
<text text-anchor="middle" x="326.5" y="-120.8" font-family="sans-serif" font-size="14.00">CanonicalEvent or AtomicFrame</text>
<text text-anchor="middle" x="326.5" y="-105.8" font-family="sans-serif" font-size="14.00">24 个具名输入轨迹</text>
</g>
<!-- observation -->
<g id="node2" class="node">
<title>observation</title>
<path fill="#fff7dd" stroke="#a87d21" d="M922,-106C922,-106 715,-106 715,-106 709,-106 703,-100 703,-94 703,-94 703,-59 703,-59 703,-53 709,-47 715,-47 715,-47 922,-47 922,-47 928,-47 934,-53 934,-59 934,-59 934,-94 934,-94 934,-100 928,-106 922,-106"/>
<text text-anchor="middle" x="818.5" y="-87.8" font-family="sans-serif" font-size="14.00">Optional observation lowering</text>
<text text-anchor="middle" x="818.5" y="-72.8" font-family="sans-serif" font-size="14.00">ready/valid + reset</text>
<text text-anchor="middle" x="818.5" y="-57.8" font-family="sans-serif" font-size="14.00">可选观察层下沉</text>
</g>
<!-- inputs&#45;&gt;observation -->
<g id="edge1" class="edge">
<title>inputs&#45;&gt;observation</title>
<path fill="none" stroke="black" d="M448.31,-112.67C522.62,-105.39 617.66,-96.08 692.69,-88.73"/>
<polygon fill="black" stroke="black" points="693.06,-92.21 702.68,-87.75 692.38,-85.24 693.06,-92.21"/>
</g>
<!-- link -->
<g id="node3" class="node">
<title>link</title>
<path fill="#eaf8ef" stroke="#2d8650" d="M1205,-106C1205,-106 996,-106 996,-106 990,-106 984,-100 984,-94 984,-94 984,-59 984,-59 984,-53 990,-47 996,-47 996,-47 1205,-47 1205,-47 1211,-47 1217,-53 1217,-59 1217,-59 1217,-94 1217,-94 1217,-100 1211,-106 1205,-106"/>
<text text-anchor="middle" x="1100.5" y="-87.8" font-family="sans-serif" font-size="14.00">AXI4 InterfaceProtocol session</text>
<text text-anchor="middle" x="1100.5" y="-72.8" font-family="sans-serif" font-size="14.00">geometry · join · lifecycle</text>
<text text-anchor="middle" x="1100.5" y="-57.8" font-family="sans-serif" font-size="14.00">几何 · 关联 · 生命周期</text>
</g>
<!-- observation&#45;&gt;link -->
<g id="edge2" class="edge">
<title>observation&#45;&gt;link</title>
<path fill="none" stroke="black" d="M934.19,-76.5C947.19,-76.5 960.49,-76.5 973.62,-76.5"/>
<polygon fill="black" stroke="black" points="973.62,-80 983.62,-76.5 973.62,-73 973.62,-80"/>
</g>
<!-- evidence -->
<g id="node4" class="node">
<title>evidence</title>
<path fill="#fff0ee" stroke="#a84a3d" d="M1473,-106C1473,-106 1279,-106 1279,-106 1273,-106 1267,-100 1267,-94 1267,-94 1267,-59 1267,-59 1267,-53 1273,-47 1279,-47 1279,-47 1473,-47 1473,-47 1479,-47 1485,-53 1485,-59 1485,-59 1485,-94 1485,-94 1485,-100 1479,-106 1473,-106"/>
<text text-anchor="middle" x="1376" y="-87.8" font-family="sans-serif" font-size="14.00">Per&#45;case evidence</text>
<text text-anchor="middle" x="1376" y="-72.8" font-family="sans-serif" font-size="14.00">result · waveform · causality</text>
<text text-anchor="middle" x="1376" y="-57.8" font-family="sans-serif" font-size="14.00">结果 · 波形 · 因果关系</text>
</g>
<!-- link&#45;&gt;evidence -->
<g id="edge3" class="edge">
<title>link&#45;&gt;evidence</title>
<path fill="none" stroke="black" d="M1217.09,-76.5C1230.22,-76.5 1243.61,-76.5 1256.78,-76.5"/>
<polygon fill="black" stroke="black" points="1256.79,-80 1266.79,-76.5 1256.79,-73 1256.79,-80"/>
</g>
<!-- boundary -->
<g id="node5" class="node">
<title>boundary</title>
<polygon fill="#ffffff" stroke="#777777" points="647,-59 0,-59 0,0 653,0 653,-53 647,-59"/>
<polyline fill="none" stroke="#777777" points="647,-59 647,-53 "/>
<polyline fill="none" stroke="#777777" points="653,-53 647,-53 "/>
<text text-anchor="middle" x="326.5" y="-40.8" font-family="sans-serif" font-size="14.00">Event&#45;level waves show model sequence; AtomicFrame waves show protocol observations.</text>
<text text-anchor="middle" x="326.5" y="-25.8" font-family="sans-serif" font-size="14.00">Neither is an RTL pin/VCD capture.</text>
<text text-anchor="middle" x="326.5" y="-10.8" font-family="sans-serif" font-size="14.00">事件波形展示模型顺序；AtomicFrame 波形展示协议观察，均非 RTL/VCD。</text>
</g>
<!-- boundary&#45;&gt;observation -->
<g id="edge4" class="edge">
<title>boundary&#45;&gt;observation</title>
<path fill="none" stroke="#777777" stroke-dasharray="5,2" d="M635.39,-59.03C659,-61.3 681.78,-63.48 702.76,-65.49"/>
</g>
</g>
</svg>
