<?xml version="1.0" encoding="UTF-8" standalone="no"?>
<!DOCTYPE svg PUBLIC "-//W3C//DTD SVG 1.1//EN"
 "http://www.w3.org/Graphics/SVG/1.1/DTD/svg11.dtd">
<!-- Generated by graphviz version 2.43.0 (0)
 -->
<!-- Title: demo_network Pages: 1 -->
<svg width="997pt" height="203pt"
 viewBox="0.00 0.00 997.00 202.50" xmlns="http://www.w3.org/2000/svg" xmlns:xlink="http://www.w3.org/1999/xlink">
<g id="graph0" class="graph" transform="scale(1 1) rotate(0) translate(18 184.5)">
<title>demo_network</title>
<polygon fill="white" stroke="transparent" points="-18,18 -18,-184.5 979,-184.5 979,18 -18,18"/>
<text text-anchor="middle" x="480.5" y="-151.3" font-family="Times,serif" font-size="14.00">axi4&#45;point&#45;to&#45;point: structural context / 结构上下文</text>
<!-- requester -->
<g id="node1" class="node">
<title>requester</title>
<path fill="#eef5ff" stroke="#3169a8" stroke-width="1.5" d="M332,-143.5C332,-143.5 115,-143.5 115,-143.5 109,-143.5 103,-137.5 103,-131.5 103,-131.5 103,-92.5 103,-92.5 103,-86.5 109,-80.5 115,-80.5 115,-80.5 332,-80.5 332,-80.5 338,-80.5 344,-86.5 344,-92.5 344,-92.5 344,-131.5 344,-131.5 344,-137.5 338,-143.5 332,-143.5"/>
<text text-anchor="middle" x="223.5" y="-123.3" font-family="sans-serif" font-size="14.00">requester</text>
<text text-anchor="middle" x="223.5" y="-108.3" font-family="sans-serif" font-size="14.00">VirtualDut · initiating / 主动发起</text>
<text text-anchor="middle" x="223.5" y="-93.3" font-family="sans-serif" font-size="14.00">port m_axi</text>
</g>
<!-- link -->
<g id="node2" class="node">
<title>link</title>
<path fill="#eaf8ef" stroke="#2d8650" stroke-width="1.5" d="M645,-143.5C645,-143.5 513,-143.5 513,-143.5 507,-143.5 501,-137.5 501,-131.5 501,-131.5 501,-92.5 501,-92.5 501,-86.5 507,-80.5 513,-80.5 513,-80.5 645,-80.5 645,-80.5 651,-80.5 657,-86.5 657,-92.5 657,-92.5 657,-131.5 657,-131.5 657,-137.5 651,-143.5 645,-143.5"/>
<text text-anchor="middle" x="579" y="-123.3" font-family="sans-serif" font-size="14.00">axi4&#45;link</text>
<text text-anchor="middle" x="579" y="-108.3" font-family="sans-serif" font-size="14.00">AXI4 LinkProtocol</text>
<text text-anchor="middle" x="579" y="-93.3" font-family="sans-serif" font-size="14.00">AW · W · B · AR · R</text>
</g>
<!-- requester&#45;&gt;link -->
<g id="edge1" class="edge">
<title>requester&#45;&gt;link</title>
<path fill="none" stroke="#3169a8" stroke-width="1.6" d="M354.28,-112C399.67,-112 449.53,-112 490.63,-112"/>
<polygon fill="#3169a8" stroke="#3169a8" stroke-width="1.6" points="354.18,-108.5 344.18,-112 354.18,-115.5 354.18,-108.5"/>
<polygon fill="#3169a8" stroke="#3169a8" stroke-width="1.6" points="490.88,-115.5 500.88,-112 490.88,-108.5 490.88,-115.5"/>
</g>
<!-- endpoint -->
<g id="node3" class="node">
<title>endpoint</title>
<path fill="#fff4e7" stroke="#b56b21" stroke-width="1.5" d="M949,-143.5C949,-143.5 723,-143.5 723,-143.5 717,-143.5 711,-137.5 711,-131.5 711,-131.5 711,-92.5 711,-92.5 711,-86.5 717,-80.5 723,-80.5 723,-80.5 949,-80.5 949,-80.5 955,-80.5 961,-86.5 961,-92.5 961,-92.5 961,-131.5 961,-131.5 961,-137.5 955,-143.5 949,-143.5"/>
<text text-anchor="middle" x="836" y="-123.3" font-family="sans-serif" font-size="14.00">memory_endpoint</text>
<text text-anchor="middle" x="836" y="-108.3" font-family="sans-serif" font-size="14.00">VirtualDut · addressable / 可寻址</text>
<text text-anchor="middle" x="836" y="-93.3" font-family="sans-serif" font-size="14.00">port s_axi</text>
</g>
<!-- link&#45;&gt;endpoint -->
<g id="edge2" class="edge">
<title>link&#45;&gt;endpoint</title>
<path fill="none" stroke="#b56b21" stroke-width="1.6" d="M667.32,-112C678.21,-112 689.54,-112 700.93,-112"/>
<polygon fill="#b56b21" stroke="#b56b21" stroke-width="1.6" points="667.2,-108.5 657.2,-112 667.2,-115.5 667.2,-108.5"/>
<polygon fill="#b56b21" stroke="#b56b21" stroke-width="1.6" points="700.96,-115.5 710.96,-112 700.96,-108.5 700.96,-115.5"/>
</g>
<!-- note -->
<g id="node4" class="node">
<title>note</title>
<polygon fill="#ffffff" stroke="#777777" stroke-width="1.5" points="441,-40 0,-40 0,0 447,0 447,-34 441,-40"/>
<polyline fill="none" stroke="#777777" stroke-width="1.5" points="441,-40 441,-34 "/>
<polyline fill="none" stroke="#777777" stroke-width="1.5" points="447,-34 441,-34 "/>
<text text-anchor="middle" x="223.5" y="-23" font-family="sans-serif" font-size="10.00">Structural context only: examples execute protocol semantics, not endpoint backends.</text>
<text text-anchor="middle" x="223.5" y="-12" font-family="sans-serif" font-size="10.00">仅表示结构上下文：示例执行协议语义，不执行端点 backend。</text>
</g>
<!-- note&#45;&gt;link -->
<g id="edge3" class="edge">
<title>note&#45;&gt;link</title>
<path fill="none" stroke="#777777" stroke-dasharray="5,2" d="M333.14,-40.02C389.62,-50.43 447,-61 447,-61 447,-61 472.3,-70.85 500.66,-81.89"/>
</g>
</g>
</svg>
