<?xml version="1.0" encoding="UTF-8" standalone="no"?>
<!DOCTYPE svg PUBLIC "-//W3C//DTD SVG 1.1//EN"
 "http://www.w3.org/Graphics/SVG/1.1/DTD/svg11.dtd">
<!-- Generated by graphviz version 2.43.0 (0)
 -->
<!-- Title: axi_scenario Pages: 1 -->
<svg width="501pt" height="188pt"
 viewBox="0.00 0.00 500.90 188.13" xmlns="http://www.w3.org/2000/svg" xmlns:xlink="http://www.w3.org/1999/xlink">
<g id="graph0" class="graph" transform="scale(1 1) rotate(0) translate(4 184.13)">
<title>axi_scenario</title>
<polygon fill="white" stroke="transparent" points="-4,4 -4,-184.13 496.9,-184.13 496.9,4 -4,4"/>
<text text-anchor="middle" x="246.45" y="-164.93" font-family="Times,serif" font-size="14.00">inconsistent_channel_reset</text>
<!-- cycle -->
<g id="node1" class="node">
<title>cycle</title>
<path fill="#e2e8f0" stroke="black" d="M325.45,-157.13C325.45,-157.13 167.45,-157.13 167.45,-157.13 161.45,-157.13 155.45,-151.13 155.45,-145.13 155.45,-145.13 155.45,-133.13 155.45,-133.13 155.45,-127.13 161.45,-121.13 167.45,-121.13 167.45,-121.13 325.45,-121.13 325.45,-121.13 331.45,-121.13 337.45,-127.13 337.45,-133.13 337.45,-133.13 337.45,-145.13 337.45,-145.13 337.45,-151.13 331.45,-157.13 325.45,-157.13"/>
<text text-anchor="middle" x="246.45" y="-135.43" font-family="monospace" font-size="14.00">signal&#45;level attempt</text>
</g>
<!-- fault -->
<g id="node2" class="node">
<title>fault</title>
<path fill="#fecaca" stroke="black" d="M492.84,-34.95C492.84,-34.95 492.84,-46.17 492.84,-46.17 492.84,-51.78 487.31,-58.31 481.77,-59.22 481.77,-59.22 359.58,-79.37 359.58,-79.37 354.04,-80.28 342.9,-81.19 337.29,-81.19 337.29,-81.19 155.61,-81.19 155.61,-81.19 150,-81.19 138.85,-80.28 133.32,-79.37 133.32,-79.37 11.12,-59.22 11.12,-59.22 5.59,-58.31 0.05,-51.78 0.05,-46.17 0.05,-46.17 0.05,-34.95 0.05,-34.95 0.05,-29.35 5.59,-22.82 11.12,-21.91 11.12,-21.91 133.32,-1.76 133.32,-1.76 138.85,-0.85 150,0.06 155.61,0.06 155.61,0.06 337.29,0.06 337.29,0.06 342.9,0.06 354.04,-0.85 359.58,-1.76 359.58,-1.76 481.77,-21.91 481.77,-21.91 487.31,-22.82 492.84,-29.35 492.84,-34.95"/>
<text text-anchor="middle" x="246.45" y="-51.86" font-family="monospace" font-size="14.00">FAULT</text>
<text text-anchor="middle" x="246.45" y="-36.86" font-family="monospace" font-size="14.00">axi4.signal_session.reset_consistency</text>
<text text-anchor="middle" x="246.45" y="-21.86" font-family="monospace" font-size="14.00">ARESETn differs by channel</text>
</g>
<!-- cycle&#45;&gt;fault -->
<g id="edge1" class="edge">
<title>cycle&#45;&gt;fault</title>
<path fill="none" stroke="#dc2626" stroke-width="2" d="M246.45,-120.87C246.45,-112.56 246.45,-102.13 246.45,-91.6"/>
<polygon fill="#dc2626" stroke="#dc2626" stroke-width="2" points="249.95,-91.52 246.45,-81.52 242.95,-91.52 249.95,-91.52"/>
</g>
</g>
</svg>
